<svg xmlns:osb="http://www.openswatchbook.org/uri/2009/osb" xmlns="http://www.w3.org/2000/svg" xmlns:xlink="http://www.w3.org/1999/xlink" height="380" style="zoom:8" cursor="default" id="SvgjsSvg1006" width="30"><defs id="SvgjsDefs1007"><linearGradient id="linearGradient838"><stop offset="0" id="stop834" stop-color="#ff8600"/><stop offset="1" id="stop836" stop-color="#ff8600" stop-opacity="0"/></linearGradient><linearGradient id="linearGradient2396" osb:paint="gradient"><stop offset="0" id="stop2392" stop-color="#ff8f00"/><stop offset="1" id="stop2394" stop-color="#ff8f00" stop-opacity="0"/></linearGradient><linearGradient id="linearGradient2384" osb:paint="solid"><stop offset="0" id="stop2382" stop-color="#ff8f00"/></linearGradient><linearGradient id="linearGradient898" osb:paint="solid"><stop offset="0" id="stop896" stop-color="#ff8f00"/></linearGradient><linearGradient id="linearGradient915"><stop offset="0" id="stop911" stop-color="#404040"/><stop offset="1" id="stop913" stop-color="#202020"/></linearGradient><linearGradient xlink:href="#linearGradient915" id="linearGradient919" y1="190" x2="30" y2="190" gradientUnits="userSpaceOnUse"/><style id="OpenSans_Google_Webfont_import">@import url(https://fonts.googleapis.com/css?family=Open+Sans);</style><style id="style31">@import url(https://fonts.googleapis.com/css?family=&apos;Open Sans&apos;);</style><style id="style33">@import url(https://fonts.googleapis.com/css?family=&apos;Open Sans&apos;);</style><style id="style35">@import url(https://fonts.googleapis.com/css?family=&apos;Open Sans&apos;);</style><style id="style22">@import url(https://fonts.googleapis.com/css?family=&apos;Open Sans&apos;);</style><style id="style24">@import url(https://fonts.googleapis.com/css?family=&apos;Open Sans&apos;);</style><style id="style26">@import url(https://fonts.googleapis.com/css?family=&apos;Open Sans&apos;);</style><linearGradient xlink:href="#linearGradient838" id="linearGradient840" x1="19.992" y1="333.24" x2="27.785" y2="400.33" gradientUnits="userSpaceOnUse" gradientTransform="translate(-6)"/></defs><path d="M0 0h30v380H0z" id="SvgjsRect1008" fill="url(#linearGradient919)"/><path d="M35.005 342.877c-1.493-4.604-4.104-9.047-7.188-12.896-.426-.524-1.97-1.907-1.97-1.907 1.323 3.052 1.24 6.218.574 9.077-3.605-7.348-9.923-16.546-19.425-21.402 0 0 6.325 14.268-2.7 30.012-.498-2.122-1.004-5.171-.732-8.193 0 0-1.14.866-1.273.992-1.017.963-1.87 2.089-2.621 3.25-2.74 4.36-4.183 9.628-3.826 14.926.133 2.004.51 4.006 1.022 5.978 1.584 6.315 5.226 12.935 10.628 15.97-1.7-2.855-2.737-6.571-2.737-10.645 0-1.69.178-3.33.514-4.862.038.678.152 1.377.34 2.09.725 2.747 2.396 4.935 4.293 5.936-.858-2.22-1.167-5.153-.707-8.293.333-2.313 1.028-4.424 1.974-6.157 1.048-1.965 2.398-3.444 3.853-4.178-.606 1.026-1.06 2.353-1.294 3.85-.092.576-.145 1.18-.165 1.808-.009.142-.009.287-.009.442 0 .387.013.773.05 1.147.13 1.781.571 3.372 1.227 4.605l.104.189c.325.543.86.92 1.475.993h.006c.06.005.13.01.198.01.019 0 .043 0 .06-.005.929-.025 1.7-.762 1.908-1.739a2.5 2.5 0 0 0 .054-.496v-.036a8.53 8.53 0 0 0-.144-2.255c-.08-.418-.18-.819-.314-1.202a8.222 8.222 0 0 0-.593-1.371c.38.07.762.18 1.13.348 1.404.61 2.66 1.854 3.53 3.489.144.278.279.567.397.87a10.21 10.21 0 0 1 .717 2.961c.382-.72.73-1.51 1.029-2.348.575-1.574.908-3.101 1.01-4.44 1.085 2.502 1.714 5.467 1.714 8.643 0 4.145-1.073 7.913-2.827 10.788.901-.456 1.772-.985 2.588-1.588 3.051-2.208 5.203-5.629 6.594-9.334.783-2.027 1.553-4.29 1.924-6.423 1.1-6.184 1.426-12.74-.388-18.604z" id="path2" fill="url(#linearGradient840)" stroke-width=".695"/><g aria-label="CV" id="text5" font-size="12" font-family="Open Sans" text-anchor="middle" fill="#eee" text-rendering="geometricPrecision"><path d="M14.432 16.926v1.248q-.598-.557-1.278-.832-.674-.276-1.435-.276-1.5 0-2.297.92-.797.914-.797 2.649 0 1.728.797 2.648.797.914 2.297.914.761 0 1.435-.275.68-.276 1.278-.832v1.236q-.621.422-1.319.633-.691.21-1.465.21-1.986 0-3.128-1.212-1.143-1.219-1.143-3.322 0-2.11 1.143-3.323 1.142-1.218 3.128-1.218.786 0 1.477.21.697.206 1.307.622z" id="path952"/><path d="M18.527 25l-3.34-8.748h1.237l2.771 7.365 2.778-7.365h1.23L19.87 25z" id="path954"/></g><g aria-label="ON" id="text7" font-size="8" font-family="Open Sans" text-anchor="middle" fill="#eee" text-rendering="geometricPrecision"><path d="M12.012 61.703q-.86 0-1.367.64-.504.641-.504 1.747 0 1.101.504 1.742.507.64 1.367.64t1.36-.64q.503-.64.503-1.742 0-1.106-.504-1.746-.5-.64-1.36-.64zm0-.64q1.226 0 1.96.824.735.82.735 2.203 0 1.379-.734 2.203-.735.82-1.961.82-1.23 0-1.969-.82-.734-.82-.734-2.203t.734-2.203q.738-.825 1.969-.825z" id="path957"/><path d="M15.941 61.168h1.063l2.586 4.879v-4.879h.765V67h-1.062l-2.586-4.879V67h-.766z" id="path959"/></g><g aria-label="VAL" id="text29" font-size="8" font-family="Open Sans" text-anchor="middle" fill="#eee" text-rendering="geometricPrecision"><path d="M9.844 117l-2.227-5.832h.824l1.848 4.91 1.852-4.91h.82L10.738 117z" id="path962"/><path d="M15.25 111.945l-1.07 2.903h2.144zm-.445-.777h.894L17.922 117h-.82l-.532-1.496h-2.629l-.53 1.496h-.833z" id="path964"/><path d="M18.777 111.168h.79v5.168h2.84V117h-3.63z" id="path966"/></g><g aria-label="OUT" id="text31" font-size="8" font-family="Open Sans" text-anchor="middle" fill="#eee" text-rendering="geometricPrecision"><path d="M9.629 161.703q-.86 0-1.367.64-.504.641-.504 1.747 0 1.101.504 1.742.508.64 1.367.64.86 0 1.36-.64.503-.64.503-1.742 0-1.106-.504-1.746-.5-.64-1.36-.64zm0-.64q1.226 0 1.96.824.735.82.735 2.203 0 1.379-.734 2.203-.735.82-1.961.82-1.23 0-1.969-.82-.734-.82-.734-2.203t.734-2.203q.738-.825 1.969-.825z" id="path969"/><path d="M13.469 161.168h.793v3.543q0 .937.34 1.351.34.41 1.101.41.758 0 1.098-.41.34-.414.34-1.351v-3.543h.793v3.64q0 1.141-.567 1.723-.562.582-1.664.582-1.105 0-1.672-.582-.562-.582-.562-1.722z" id="path971"/><path d="M18.61 161.168h4.933v.664h-2.07V167h-.793v-5.168h-2.07z" id="path973"/></g><path d="M0 190h30" id="line33" stroke="#eee"/><g aria-label="CV" id="text35" font-size="12" font-family="Open Sans" text-anchor="middle" fill="#eee" text-rendering="geometricPrecision"><path d="M14.432 206.926v1.248q-.598-.557-1.278-.832-.674-.276-1.435-.276-1.5 0-2.297.92-.797.914-.797 2.649 0 1.728.797 2.648.797.914 2.297.914.761 0 1.435-.275.68-.276 1.278-.832v1.236q-.621.422-1.319.633-.691.21-1.465.21-1.986 0-3.128-1.212-1.143-1.219-1.143-3.322 0-2.11 1.143-3.322 1.142-1.22 3.128-1.22.786 0 1.477.212.697.205 1.307.62z" id="path977"/><path d="M18.527 215l-3.34-8.748h1.237l2.771 7.365 2.778-7.365h1.23L19.87 215z" id="path979"/></g><g aria-label="ON" id="text33" font-size="8" font-family="Open Sans" text-anchor="middle" fill="#eee" text-rendering="geometricPrecision"><path d="M12.012 251.703q-.86 0-1.367.64-.504.641-.504 1.747 0 1.101.504 1.742.507.64 1.367.64t1.36-.64q.503-.64.503-1.742 0-1.106-.504-1.746-.5-.64-1.36-.64zm0-.64q1.226 0 1.96.824.735.82.735 2.203 0 1.379-.734 2.203-.735.82-1.961.82-1.23 0-1.969-.82-.734-.82-.734-2.203t.734-2.203q.738-.824 1.969-.824z" id="path982"/><path d="M15.941 251.168h1.063l2.586 4.879v-4.879h.765V257h-1.062l-2.586-4.879V257h-.766z" id="path984"/></g><g aria-label="VAL" id="text38" font-size="8" font-family="Open Sans" text-anchor="middle" fill="#eee" text-rendering="geometricPrecision"><path d="M9.844 307l-2.227-5.832h.824l1.848 4.91 1.852-4.91h.82L10.738 307z" id="path987"/><path d="M15.25 301.945l-1.07 2.903h2.144zm-.445-.777h.894L17.922 307h-.82l-.532-1.496h-2.629l-.53 1.496h-.833z" id="path989"/><path d="M18.777 301.168h.79v5.168h2.84V307h-3.63z" id="path991"/></g><g aria-label="OUT" id="text40" font-size="8" font-family="Open Sans" text-anchor="middle" fill="#eee" text-rendering="geometricPrecision"><path d="M9.629 351.703q-.86 0-1.367.64-.504.641-.504 1.747 0 1.101.504 1.742.508.64 1.367.64.86 0 1.36-.64.503-.64.503-1.742 0-1.106-.504-1.746-.5-.64-1.36-.64zm0-.64q1.226 0 1.96.824.735.82.735 2.203 0 1.379-.734 2.203-.735.82-1.961.82-1.23 0-1.969-.82-.734-.82-.734-2.203t.734-2.203q.738-.824 1.969-.824z" id="path994"/><path d="M13.469 351.168h.793v3.543q0 .937.34 1.352.34.41 1.101.41.758 0 1.098-.41.34-.415.34-1.352v-3.543h.793v3.64q0 1.141-.567 1.723-.562.582-1.664.582-1.105 0-1.672-.582-.562-.582-.562-1.722z" id="path996"/><path d="M18.61 351.168h4.933v.664h-2.07V357h-.793v-5.168h-2.07z" id="path998"/></g><path d="M15 90h14" id="SvgjsLine1007" stroke="#eee" stroke-width=".75"/><path d="M15 90l12.926 1.382" id="SvgjsLine1008" stroke="#eee" stroke-width=".75"/><path d="M15 90l12.706 2.748" id="SvgjsLine1009" stroke="#eee" stroke-width=".75"/><path d="M15 90l12.342 4.083" id="SvgjsLine1010" stroke="#eee" stroke-width=".75"/><path d="M15 90l11.838 5.372" id="SvgjsLine1011" stroke="#eee" stroke-width=".75"/><path d="M15 90l12.062 7.107" id="SvgjsLine1012" stroke="#eee" stroke-width=".75"/><path d="M15 90l10.435 7.753" id="SvgjsLine1013" stroke="#eee" stroke-width=".75"/><path d="M15 90l9.552 8.818" id="SvgjsLine1014" stroke="#eee" stroke-width=".75"/><path d="M15 90l8.56 9.783" id="SvgjsLine1015" stroke="#eee" stroke-width=".75"/><path d="M15 90l7.472 10.638" id="SvgjsLine1016" stroke="#eee" stroke-width=".75"/><path d="M15 90l6.784 12.247" id="SvgjsLine1017" stroke="#eee" stroke-width=".75"/><path d="M15 90l-7.426 11.868" id="SvgjsLine1018" stroke="#eee" stroke-width=".75"/><path d="M15 90l-8.028 10.225" id="SvgjsLine1019" stroke="#eee" stroke-width=".75"/><path d="M15 90l-9.07 9.314" id="SvgjsLine1020" stroke="#eee" stroke-width=".75"/><path d="M15 90L4.992 98.297" id="SvgjsLine1021" stroke="#eee" stroke-width=".75"/><path d="M15 90L4.167 97.186" id="SvgjsLine1022" stroke="#eee" stroke-width=".75"/><path d="M15 90L2.577 96.455" id="SvgjsLine1023" stroke="#eee" stroke-width=".75"/><path d="M15 90L2.893 94.734" id="SvgjsLine1024" stroke="#eee" stroke-width=".75"/><path d="M15 90L2.458 93.42" id="SvgjsLine1025" stroke="#eee" stroke-width=".75"/><path d="M15 90L2.166 92.068" id="SvgjsLine1026" stroke="#eee" stroke-width=".75"/><path d="M15 90l-12.982.692" id="SvgjsLine1027" stroke="#eee" stroke-width=".75"/><path d="M15 90l-13.98-.745" id="SvgjsLine1028" stroke="#eee" stroke-width=".75"/><path d="M15 90L2.166 87.932" id="SvgjsLine1029" stroke="#eee" stroke-width=".75"/><path d="M15 90L2.458 86.58" id="SvgjsLine1030" stroke="#eee" stroke-width=".75"/><path d="M15 90L2.893 85.266" id="SvgjsLine1031" stroke="#eee" stroke-width=".75"/><path d="M15 90L3.464 84.006" id="SvgjsLine1032" stroke="#eee" stroke-width=".75"/><path d="M15 90L3.334 82.26" id="SvgjsLine1033" stroke="#eee" stroke-width=".75"/><path d="M15 90L4.992 81.703" id="SvgjsLine1034" stroke="#eee" stroke-width=".75"/><path d="M15 90l-9.07-9.314" id="SvgjsLine1035" stroke="#eee" stroke-width=".75"/><path d="M15 90L6.972 79.775" id="SvgjsLine1036" stroke="#eee" stroke-width=".75"/><path d="M15 90L8.105 78.98" id="SvgjsLine1037" stroke="#eee" stroke-width=".75"/><path d="M15 90L8.878 77.41" id="SvgjsLine1038" stroke="#eee" stroke-width=".75"/><path d="M15 90l-4.41-12.23" id="SvgjsLine1039" stroke="#eee" stroke-width=".75"/><path d="M15 90l-3.085-12.629" id="SvgjsLine1040" stroke="#eee" stroke-width=".75"/><path d="M15 90l-1.725-12.885" id="SvgjsLine1041" stroke="#eee" stroke-width=".75"/><path d="M15 90l-.346-12.995" id="SvgjsLine1042" stroke="#eee" stroke-width=".75"/><path d="M15 90l1.117-13.955" id="SvgjsLine1043" stroke="#eee" stroke-width=".75"/><path d="M15 90l2.409-12.775" id="SvgjsLine1044" stroke="#eee" stroke-width=".75"/><path d="M15 90l3.753-12.446" id="SvgjsLine1045" stroke="#eee" stroke-width=".75"/><path d="M15 90l5.055-11.977" id="SvgjsLine1046" stroke="#eee" stroke-width=".75"/><path d="M15 90l6.3-11.372" id="SvgjsLine1047" stroke="#eee" stroke-width=".75"/><path d="M15 90l8.047-11.456" id="SvgjsLine1048" stroke="#eee" stroke-width=".75"/><path d="M15 90l8.56-9.783" id="SvgjsLine1049" stroke="#eee" stroke-width=".75"/><path d="M15 90l9.552-8.818" id="SvgjsLine1050" stroke="#eee" stroke-width=".75"/><path d="M15 90l10.435-7.753" id="SvgjsLine1051" stroke="#eee" stroke-width=".75"/><path d="M15 90l11.2-6.6" id="SvgjsLine1052" stroke="#eee" stroke-width=".75"/><path d="M15 90l12.749-5.785" id="SvgjsLine1053" stroke="#eee" stroke-width=".75"/><path d="M15 90l12.342-4.083" id="SvgjsLine1054" stroke="#eee" stroke-width=".75"/><path d="M15 90l12.706-2.748" id="SvgjsLine1055" stroke="#eee" stroke-width=".75"/><path d="M15 90l12.926-1.382" id="SvgjsLine1056" stroke="#eee" stroke-width=".75"/><path d="M15 90h13" id="SvgjsLine1057" stroke="#eee" stroke-width=".75"/><path d="M26 90a11 11 0 0 1-11 11A11 11 0 0 1 4 90a11 11 0 0 1 11-11 11 11 0 0 1 11 11z" id="SvgjsCircle1058" stroke="#eee" stroke-width=".75"/><path d="M15 280h14" id="SvgjsLine1059" stroke="#eee" stroke-width=".75"/><path d="M15 280l12.926 1.382" id="SvgjsLine1060" stroke="#eee" stroke-width=".75"/><path d="M15 280l12.706 2.748" id="SvgjsLine1061" stroke="#eee" stroke-width=".75"/><path d="M15 280l12.342 4.083" id="SvgjsLine1062" stroke="#eee" stroke-width=".75"/><path d="M15 280l11.838 5.372" id="SvgjsLine1063" stroke="#eee" stroke-width=".75"/><path d="M15 280l12.062 7.107" id="SvgjsLine1064" stroke="#eee" stroke-width=".75"/><path d="M15 280l10.435 7.753" id="SvgjsLine1065" stroke="#eee" stroke-width=".75"/><path d="M15 280l9.552 8.818" id="SvgjsLine1066" stroke="#eee" stroke-width=".75"/><path d="M15 280l8.56 9.783" id="SvgjsLine1067" stroke="#eee" stroke-width=".75"/><path d="M15 280l7.472 10.638" id="SvgjsLine1068" stroke="#eee" stroke-width=".75"/><path d="M15 280l6.784 12.247" id="SvgjsLine1069" stroke="#eee" stroke-width=".75"/><path d="M15 280l-7.426 11.868" id="SvgjsLine1070" stroke="#eee" stroke-width=".75"/><path d="M15 280l-8.028 10.225" id="SvgjsLine1071" stroke="#eee" stroke-width=".75"/><path d="M15 280l-9.07 9.314" id="SvgjsLine1072" stroke="#eee" stroke-width=".75"/><path d="M15 280l-10.008 8.297" id="SvgjsLine1073" stroke="#eee" stroke-width=".75"/><path d="M15 280l-10.833 7.186" id="SvgjsLine1074" stroke="#eee" stroke-width=".75"/><path d="M15 280l-12.423 6.455" id="SvgjsLine1075" stroke="#eee" stroke-width=".75"/><path d="M15 280l-12.107 4.734" id="SvgjsLine1076" stroke="#eee" stroke-width=".75"/><path d="M15 280l-12.542 3.42" id="SvgjsLine1077" stroke="#eee" stroke-width=".75"/><path d="M15 280l-12.834 2.068" id="SvgjsLine1078" stroke="#eee" stroke-width=".75"/><path d="M15 280l-12.982.692" id="SvgjsLine1079" stroke="#eee" stroke-width=".75"/><path d="M15 280l-13.98-.745" id="SvgjsLine1080" stroke="#eee" stroke-width=".75"/><path d="M15 280l-12.834-2.068" id="SvgjsLine1081" stroke="#eee" stroke-width=".75"/><path d="M15 280l-12.542-3.42" id="SvgjsLine1082" stroke="#eee" stroke-width=".75"/><path d="M15 280l-12.107-4.734" id="SvgjsLine1083" stroke="#eee" stroke-width=".75"/><path d="M15 280l-11.536-5.994" id="SvgjsLine1084" stroke="#eee" stroke-width=".75"/><path d="M15 280l-11.666-7.74" id="SvgjsLine1085" stroke="#eee" stroke-width=".75"/><path d="M15 280l-10.008-8.297" id="SvgjsLine1086" stroke="#eee" stroke-width=".75"/><path d="M15 280l-9.07-9.314" id="SvgjsLine1087" stroke="#eee" stroke-width=".75"/><path d="M15 280l-8.028-10.225" id="SvgjsLine1088" stroke="#eee" stroke-width=".75"/><path d="M15 280l-6.895-11.02" id="SvgjsLine1089" stroke="#eee" stroke-width=".75"/><path d="M15 280l-6.122-12.59" id="SvgjsLine1090" stroke="#eee" stroke-width=".75"/><path d="M15 280l-4.41-12.23" id="SvgjsLine1091" stroke="#eee" stroke-width=".75"/><path d="M15 280l-3.085-12.629" id="SvgjsLine1092" stroke="#eee" stroke-width=".75"/><path d="M15 280l-1.725-12.885" id="SvgjsLine1093" stroke="#eee" stroke-width=".75"/><path d="M15 280l-.346-12.995" id="SvgjsLine1094" stroke="#eee" stroke-width=".75"/><path d="M15 280l1.117-13.955" id="SvgjsLine1095" stroke="#eee" stroke-width=".75"/><path d="M15 280l2.409-12.775" id="SvgjsLine1096" stroke="#eee" stroke-width=".75"/><path d="M15 280l3.753-12.446" id="SvgjsLine1097" stroke="#eee" stroke-width=".75"/><path d="M15 280l5.055-11.977" id="SvgjsLine1098" stroke="#eee" stroke-width=".75"/><path d="M15 280l6.3-11.372" id="SvgjsLine1099" stroke="#eee" stroke-width=".75"/><path d="M15 280l8.047-11.456" id="SvgjsLine1100" stroke="#eee" stroke-width=".75"/><path d="M15 280l8.56-9.783" id="SvgjsLine1101" stroke="#eee" stroke-width=".75"/><path d="M15 280l9.552-8.818" id="SvgjsLine1102" stroke="#eee" stroke-width=".75"/><path d="M15 280l10.435-7.753" id="SvgjsLine1103" stroke="#eee" stroke-width=".75"/><path d="M15 280l11.2-6.6" id="SvgjsLine1104" stroke="#eee" stroke-width=".75"/><path d="M15 280l12.749-5.785" id="SvgjsLine1105" stroke="#eee" stroke-width=".75"/><path d="M15 280l12.342-4.083" id="SvgjsLine1106" stroke="#eee" stroke-width=".75"/><path d="M15 280l12.706-2.748" id="SvgjsLine1107" stroke="#eee" stroke-width=".75"/><path d="M15 280l12.926-1.382" id="SvgjsLine1108" stroke="#eee" stroke-width=".75"/><path d="M15 280h13" id="SvgjsLine1109" stroke="#eee" stroke-width=".75"/><path d="M26 280a11 11 0 0 1-11 11 11 11 0 0 1-11-11 11 11 0 0 1 11-11 11 11 0 0 1 11 11z" id="SvgjsCircle1110" stroke="#eee" stroke-width=".75"/></svg>