<svg xmlns:osb="http://www.openswatchbook.org/uri/2009/osb" xmlns="http://www.w3.org/2000/svg" xmlns:xlink="http://www.w3.org/1999/xlink" height="380" style="zoom:8" cursor="default" id="SvgjsSvg1006" width="60"><defs id="SvgjsDefs1007"><linearGradient id="linearGradient838"><stop offset="0" id="stop834" stop-color="#ff8600"/><stop offset="1" id="stop836" stop-color="#ff8600" stop-opacity="0"/></linearGradient><linearGradient id="linearGradient2396" osb:paint="gradient"><stop offset="0" id="stop2392" stop-color="#ff8f00"/><stop offset="1" id="stop2394" stop-color="#ff8f00" stop-opacity="0"/></linearGradient><linearGradient id="linearGradient2384" osb:paint="solid"><stop offset="0" id="stop2382" stop-color="#ff8f00"/></linearGradient><linearGradient id="linearGradient898" osb:paint="solid"><stop offset="0" id="stop896" stop-color="#ff8f00"/></linearGradient><linearGradient id="linearGradient915"><stop offset="0" id="stop911" stop-color="#404040"/><stop offset="1" id="stop913" stop-color="#202020"/></linearGradient><linearGradient xlink:href="#linearGradient915" id="linearGradient919" y1="190" x2="45" y2="190" gradientUnits="userSpaceOnUse"/><style id="OpenSans_Google_Webfont_import">@import url(https://fonts.googleapis.com/css?family=Open+Sans);</style><style id="style31">@import url(https://fonts.googleapis.com/css?family=&apos;Open Sans&apos;);</style><style id="style33">@import url(https://fonts.googleapis.com/css?family=&apos;Open Sans&apos;);</style><style id="style35">@import url(https://fonts.googleapis.com/css?family=&apos;Open Sans&apos;);</style><style id="style22">@import url(https://fonts.googleapis.com/css?family=&apos;Open Sans&apos;);</style><style id="style24">@import url(https://fonts.googleapis.com/css?family=&apos;Open Sans&apos;);</style><style id="style26">@import url(https://fonts.googleapis.com/css?family=&apos;Open Sans&apos;);</style><linearGradient xlink:href="#linearGradient838" id="linearGradient840" x1="19.992" y1="333.24" x2="27.785" y2="400.33" gradientUnits="userSpaceOnUse" gradientTransform="translate(8)"/></defs><path d="M0 0h60v380H0z" id="SvgjsRect1008" fill="url(#linearGradient919)"/><path d="M49.005 342.877c-1.493-4.604-4.104-9.047-7.188-12.896-.426-.524-1.97-1.907-1.97-1.907 1.323 3.052 1.24 6.218.574 9.077-3.605-7.348-9.923-16.546-19.425-21.402 0 0 6.325 14.268-2.7 30.012-.498-2.122-1.004-5.171-.732-8.193 0 0-1.14.866-1.273.992-1.017.963-1.87 2.089-2.621 3.25-2.74 4.36-4.183 9.628-3.826 14.926.133 2.004.51 4.006 1.022 5.978 1.584 6.315 5.226 12.935 10.628 15.97-1.7-2.855-2.737-6.571-2.737-10.645 0-1.69.178-3.33.514-4.862.038.678.152 1.377.34 2.09.725 2.747 2.396 4.935 4.293 5.936-.858-2.22-1.167-5.153-.707-8.293.333-2.313 1.028-4.424 1.974-6.157 1.048-1.965 2.398-3.444 3.853-4.178-.606 1.026-1.06 2.353-1.294 3.85-.092.576-.145 1.18-.165 1.808-.009.142-.009.287-.009.442 0 .387.013.773.05 1.147.13 1.781.571 3.372 1.227 4.605l.104.189c.325.543.86.92 1.475.993h.006c.06.005.13.01.198.01.019 0 .043 0 .06-.005.929-.025 1.7-.762 1.908-1.739a2.5 2.5 0 0 0 .054-.496v-.036a8.53 8.53 0 0 0-.144-2.255c-.08-.418-.18-.819-.314-1.202a8.222 8.222 0 0 0-.593-1.371c.38.07.762.18 1.13.348 1.404.61 2.66 1.854 3.53 3.489.144.278.279.567.397.87a10.21 10.21 0 0 1 .717 2.961c.382-.72.73-1.51 1.029-2.348.575-1.574.908-3.101 1.01-4.44 1.085 2.502 1.714 5.467 1.714 8.643 0 4.145-1.073 7.913-2.827 10.788.901-.456 1.772-.985 2.588-1.588 3.051-2.208 5.203-5.629 6.594-9.334.783-2.027 1.553-4.29 1.924-6.423 1.1-6.184 1.426-12.74-.388-18.604z" id="path2" fill="url(#linearGradient840)" stroke-width=".695"/><g aria-label="CV-SEQ" id="text5" font-size="12" font-family="Open Sans" text-anchor="middle" fill="#eee" text-rendering="geometricPrecision"><path d="M15.287 16.926v1.248q-.598-.557-1.277-.832-.674-.276-1.436-.276-1.5 0-2.297.92-.797.914-.797 2.649 0 1.728.797 2.648.797.914 2.297.914.762 0 1.436-.275.68-.276 1.277-.832v1.236q-.621.422-1.318.633-.692.21-1.465.21-1.986 0-3.129-1.212-1.143-1.219-1.143-3.322 0-2.11 1.143-3.323 1.143-1.218 3.129-1.218.785 0 1.476.21.698.206 1.307.622z" id="path1050"/><path d="M19.383 25l-3.34-8.748h1.236l2.772 7.365 2.777-7.365h1.23L20.726 25z" id="path1052"/><path d="M24.035 21.232h3.158v.961h-3.158z" id="path1054"/><path d="M34.207 16.54v1.153q-.674-.322-1.271-.48-.598-.158-1.155-.158-.967 0-1.494.375-.521.375-.521 1.066 0 .58.345.879.352.293 1.325.475l.714.146q1.325.252 1.952.89.632.634.632 1.7 0 1.271-.855 1.928-.85.656-2.496.656-.621 0-1.324-.14-.698-.141-1.448-.417v-1.218q.721.404 1.412.609.692.205 1.36.205 1.013 0 1.564-.398.551-.399.551-1.137 0-.645-.398-1.008-.393-.363-1.295-.545l-.721-.14q-1.324-.264-1.916-.827-.592-.562-.592-1.564 0-1.16.815-1.828.82-.668 2.255-.668.616 0 1.254.111.64.111 1.307.334z" id="path1056"/><path d="M36.58 16.252h5.531v.996h-4.347v2.59h4.166v.996h-4.166v3.17h4.453V25H36.58z" id="path1058"/><path d="M47.725 17.055q-1.29 0-2.051.96-.756.962-.756 2.62 0 1.652.756 2.613.762.961 2.05.961 1.29 0 2.04-.961.756-.96.756-2.613 0-1.658-.756-2.62-.75-.96-2.04-.96zm1.658 7.787l1.558 1.705h-1.43l-1.294-1.4-.299.017q-.1.006-.193.006-1.846 0-2.954-1.23-1.101-1.237-1.101-3.305 0-2.074 1.101-3.305 1.108-1.236 2.954-1.236 1.84 0 2.941 1.236 1.102 1.23 1.102 3.305 0 1.523-.616 2.607-.609 1.084-1.77 1.6z" id="path1060"/></g><g aria-label="CLK" id="text7" font-size="8" font-family="Open Sans" text-anchor="middle" fill="#eee" text-rendering="geometricPrecision"><path d="M11.504 61.617v.832q-.399-.37-.852-.554-.449-.184-.957-.184-1 0-1.53.613-.532.61-.532 1.766 0 1.152.531 1.765.531.61 1.531.61.508 0 .957-.184.453-.183.852-.554v.824q-.414.281-.879.422-.46.14-.977.14-1.324 0-2.085-.808-.762-.813-.762-2.215 0-1.406.762-2.215.761-.813 2.085-.813.524 0 .985.141.465.137.87.414z" id="path1063"/><path d="M12.73 61.168h.79v5.168h2.84V67h-3.63z" id="path1065"/><path d="M17.184 61.168h.789v2.465l2.617-2.465h1.015l-2.894 2.719L21.813 67h-1.04l-2.8-2.809V67h-.79z" id="path1067"/></g><g aria-label="OUT" id="text31" font-size="8" font-family="Open Sans" text-anchor="middle" fill="#eee" text-rendering="geometricPrecision"><path d="M40.629 61.703q-.86 0-1.367.64-.504.641-.504 1.747 0 1.101.504 1.742.508.64 1.367.64.86 0 1.36-.64.503-.64.503-1.742 0-1.106-.504-1.746-.5-.64-1.36-.64zm0-.64q1.226 0 1.96.824.735.82.735 2.203 0 1.379-.734 2.203-.735.82-1.961.82-1.23 0-1.969-.82-.734-.82-.734-2.203t.734-2.203q.738-.825 1.969-.825z" id="path1070"/><path d="M44.469 61.168h.793v3.543q0 .937.34 1.352.34.41 1.101.41.758 0 1.098-.41.34-.415.34-1.352v-3.543h.793v3.64q0 1.141-.567 1.723-.562.582-1.664.582-1.105 0-1.672-.582-.562-.582-.562-1.722z" id="path1072"/><path d="M49.61 61.168h4.933v.664h-2.07V67h-.793v-5.168h-2.07z" id="path1074"/></g><g aria-label="1" id="text29" font-size="8" font-family="Open Sans" text-anchor="middle" fill="#eee" text-rendering="geometricPrecision"><path d="M28.445 116.336h1.29v-4.45l-1.403.282v-.719l1.395-.281h.789v5.168h1.289V117h-3.36z" id="path1077"/></g><g aria-label="2" id="text34" font-size="8" font-family="Open Sans" text-anchor="middle" fill="#eee" text-rendering="geometricPrecision"><path d="M28.988 166.336h2.754V167H28.04v-.664q.45-.465 1.223-1.246.777-.785.976-1.012.38-.426.528-.719.152-.297.152-.582 0-.465-.328-.757-.324-.293-.848-.293-.37 0-.785.128-.41.13-.879.391v-.797q.477-.191.89-.289.415-.098.759-.098.906 0 1.445.454.539.453.539 1.21 0 .36-.137.684-.133.32-.488.758-.098.113-.621.656-.524.54-1.477 1.512z" id="path1080"/></g><g aria-label="3" id="text33" font-size="8" font-family="Open Sans" text-anchor="middle" fill="#eee" text-rendering="geometricPrecision"><path d="M30.7 213.855q.566.122.882.504.32.383.32.946 0 .863-.593 1.336-.594.472-1.688.472-.367 0-.758-.074-.386-.07-.8-.215v-.761q.328.19.718.289.39.097.817.097.742 0 1.129-.293.39-.293.39-.851 0-.516-.363-.805-.36-.293-1.004-.293h-.68v-.648h.711q.582 0 .89-.23.31-.235.31-.673 0-.449-.32-.687-.317-.242-.911-.242-.324 0-.695.07-.371.07-.817.219v-.703q.45-.125.84-.188.395-.062.742-.062.899 0 1.422.41.524.406.524 1.101 0 .485-.278.82-.277.333-.789.462z" id="path1083"/></g><g aria-label="4" id="text35" font-size="8" font-family="Open Sans" text-anchor="middle" fill="#eee" text-rendering="geometricPrecision"><path d="M30.477 261.855l-1.993 3.114h1.993zm-.207-.687h.992v3.8h.832v.657h-.832V267h-.785v-1.375h-2.633v-.762z" id="path1086"/></g><path d="M41 92h16" id="SvgjsLine1007" stroke="#eee" stroke-width=".75"/><path d="M41 92l14.915 1.594" id="SvgjsLine1008" stroke="#eee" stroke-width=".75"/><path d="M41 92l14.661 3.17" id="SvgjsLine1009" stroke="#eee" stroke-width=".75"/><path d="M41 92l14.241 4.711" id="SvgjsLine1010" stroke="#eee" stroke-width=".75"/><path d="M41 92l13.66 6.198" id="SvgjsLine1011" stroke="#eee" stroke-width=".75"/><path d="M41 92l13.785 8.123" id="SvgjsLine1012" stroke="#eee" stroke-width=".75"/><path d="M41 92l12.04 8.946" id="SvgjsLine1013" stroke="#eee" stroke-width=".75"/><path d="M41 92l11.022 10.175" id="SvgjsLine1014" stroke="#eee" stroke-width=".75"/><path d="M41 92l9.878 11.289" id="SvgjsLine1015" stroke="#eee" stroke-width=".75"/><path d="M41 92l8.622 12.275" id="SvgjsLine1016" stroke="#eee" stroke-width=".75"/><path d="M41 92l7.753 13.996" id="SvgjsLine1017" stroke="#eee" stroke-width=".75"/><path d="M41 92l-8.487 13.564" id="SvgjsLine1018" stroke="#eee" stroke-width=".75"/><path d="M41 92l-9.263 11.798" id="SvgjsLine1019" stroke="#eee" stroke-width=".75"/><path d="M41 92l-10.464 10.747" id="SvgjsLine1020" stroke="#eee" stroke-width=".75"/><path d="M41 92l-11.548 9.574" id="SvgjsLine1021" stroke="#eee" stroke-width=".75"/><path d="M41 92l-12.5 8.292" id="SvgjsLine1022" stroke="#eee" stroke-width=".75"/><path d="M41 92l-14.198 7.377" id="SvgjsLine1023" stroke="#eee" stroke-width=".75"/><path d="M41 92l-13.97 5.462" id="SvgjsLine1024" stroke="#eee" stroke-width=".75"/><path d="M41 92l-14.472 3.947" id="SvgjsLine1025" stroke="#eee" stroke-width=".75"/><path d="M41 92l-14.809 2.386" id="SvgjsLine1026" stroke="#eee" stroke-width=".75"/><path d="M41 92l-14.979.798" id="SvgjsLine1027" stroke="#eee" stroke-width=".75"/><path d="M41 92l-15.977-.852" id="SvgjsLine1028" stroke="#eee" stroke-width=".75"/><path d="M41 92l-14.809-2.386" id="SvgjsLine1029" stroke="#eee" stroke-width=".75"/><path d="M41 92l-14.472-3.947" id="SvgjsLine1030" stroke="#eee" stroke-width=".75"/><path d="M41 92l-13.97-5.462" id="SvgjsLine1031" stroke="#eee" stroke-width=".75"/><path d="M41 92l-13.31-6.916" id="SvgjsLine1032" stroke="#eee" stroke-width=".75"/><path d="M41 92l-13.333-8.845" id="SvgjsLine1033" stroke="#eee" stroke-width=".75"/><path d="M41 92l-11.548-9.574" id="SvgjsLine1034" stroke="#eee" stroke-width=".75"/><path d="M41 92L30.536 81.253" id="SvgjsLine1035" stroke="#eee" stroke-width=".75"/><path d="M41 92l-9.263-11.798" id="SvgjsLine1036" stroke="#eee" stroke-width=".75"/><path d="M41 92l-7.956-12.716" id="SvgjsLine1037" stroke="#eee" stroke-width=".75"/><path d="M41 92l-6.997-14.389" id="SvgjsLine1038" stroke="#eee" stroke-width=".75"/><path d="M41 92l-5.089-14.11" id="SvgjsLine1039" stroke="#eee" stroke-width=".75"/><path d="M41 92l-3.56-14.571" id="SvgjsLine1040" stroke="#eee" stroke-width=".75"/><path d="M41 92l-1.99-14.867" id="SvgjsLine1041" stroke="#eee" stroke-width=".75"/><path d="M41 92l-.4-14.995" id="SvgjsLine1042" stroke="#eee" stroke-width=".75"/><path d="M41 92l1.277-15.949" id="SvgjsLine1043" stroke="#eee" stroke-width=".75"/><path d="M41 92l2.78-14.74" id="SvgjsLine1044" stroke="#eee" stroke-width=".75"/><path d="M41 92l4.33-14.361" id="SvgjsLine1045" stroke="#eee" stroke-width=".75"/><path d="M41 92l5.832-13.82" id="SvgjsLine1046" stroke="#eee" stroke-width=".75"/><path d="M41 92l7.268-13.121" id="SvgjsLine1047" stroke="#eee" stroke-width=".75"/><path d="M41 92l9.197-13.093" id="SvgjsLine1048" stroke="#eee" stroke-width=".75"/><path d="M41 92l9.878-11.289" id="SvgjsLine1049" stroke="#eee" stroke-width=".75"/><path d="M41 92l11.022-10.175" id="SvgjsLine1050" stroke="#eee" stroke-width=".75"/><path d="M41 92l12.04-8.946" id="SvgjsLine1051" stroke="#eee" stroke-width=".75"/><path d="M41 92l12.923-7.615" id="SvgjsLine1052" stroke="#eee" stroke-width=".75"/><path d="M41 92l14.57-6.611" id="SvgjsLine1053" stroke="#eee" stroke-width=".75"/><path d="M41 92l14.241-4.711" id="SvgjsLine1054" stroke="#eee" stroke-width=".75"/><path d="M41 92l14.661-3.17" id="SvgjsLine1055" stroke="#eee" stroke-width=".75"/><path d="M41 92l14.915-1.594" id="SvgjsLine1056" stroke="#eee" stroke-width=".75"/><path d="M41 92h15" id="SvgjsLine1057" stroke="#eee" stroke-width=".75"/><path d="M54 92a13 13 0 0 1-13 13 13 13 0 0 1-13-13 13 13 0 0 1 13-13 13 13 0 0 1 13 13z" id="SvgjsCircle1058" stroke="#eee" stroke-width=".75"/><path d="M41 142h16" id="SvgjsLine1059" stroke="#eee" stroke-width=".75"/><path d="M41 142l14.915 1.594" id="SvgjsLine1060" stroke="#eee" stroke-width=".75"/><path d="M41 142l14.661 3.17" id="SvgjsLine1061" stroke="#eee" stroke-width=".75"/><path d="M41 142l14.241 4.711" id="SvgjsLine1062" stroke="#eee" stroke-width=".75"/><path d="M41 142l13.66 6.198" id="SvgjsLine1063" stroke="#eee" stroke-width=".75"/><path d="M41 142l13.785 8.123" id="SvgjsLine1064" stroke="#eee" stroke-width=".75"/><path d="M41 142l12.04 8.946" id="SvgjsLine1065" stroke="#eee" stroke-width=".75"/><path d="M41 142l11.022 10.175" id="SvgjsLine1066" stroke="#eee" stroke-width=".75"/><path d="M41 142l9.878 11.289" id="SvgjsLine1067" stroke="#eee" stroke-width=".75"/><path d="M41 142l8.622 12.275" id="SvgjsLine1068" stroke="#eee" stroke-width=".75"/><path d="M41 142l7.753 13.996" id="SvgjsLine1069" stroke="#eee" stroke-width=".75"/><path d="M41 142l-8.487 13.564" id="SvgjsLine1070" stroke="#eee" stroke-width=".75"/><path d="M41 142l-9.263 11.798" id="SvgjsLine1071" stroke="#eee" stroke-width=".75"/><path d="M41 142l-10.464 10.747" id="SvgjsLine1072" stroke="#eee" stroke-width=".75"/><path d="M41 142l-11.548 9.574" id="SvgjsLine1073" stroke="#eee" stroke-width=".75"/><path d="M41 142l-12.5 8.292" id="SvgjsLine1074" stroke="#eee" stroke-width=".75"/><path d="M41 142l-14.198 7.377" id="SvgjsLine1075" stroke="#eee" stroke-width=".75"/><path d="M41 142l-13.97 5.462" id="SvgjsLine1076" stroke="#eee" stroke-width=".75"/><path d="M41 142l-14.472 3.947" id="SvgjsLine1077" stroke="#eee" stroke-width=".75"/><path d="M41 142l-14.809 2.386" id="SvgjsLine1078" stroke="#eee" stroke-width=".75"/><path d="M41 142l-14.979.798" id="SvgjsLine1079" stroke="#eee" stroke-width=".75"/><path d="M41 142l-15.977-.852" id="SvgjsLine1080" stroke="#eee" stroke-width=".75"/><path d="M41 142l-14.809-2.386" id="SvgjsLine1081" stroke="#eee" stroke-width=".75"/><path d="M41 142l-14.472-3.947" id="SvgjsLine1082" stroke="#eee" stroke-width=".75"/><path d="M41 142l-13.97-5.462" id="SvgjsLine1083" stroke="#eee" stroke-width=".75"/><path d="M41 142l-13.31-6.916" id="SvgjsLine1084" stroke="#eee" stroke-width=".75"/><path d="M41 142l-13.333-8.845" id="SvgjsLine1085" stroke="#eee" stroke-width=".75"/><path d="M41 142l-11.548-9.574" id="SvgjsLine1086" stroke="#eee" stroke-width=".75"/><path d="M41 142l-10.464-10.747" id="SvgjsLine1087" stroke="#eee" stroke-width=".75"/><path d="M41 142l-9.263-11.798" id="SvgjsLine1088" stroke="#eee" stroke-width=".75"/><path d="M41 142l-7.956-12.716" id="SvgjsLine1089" stroke="#eee" stroke-width=".75"/><path d="M41 142l-6.997-14.389" id="SvgjsLine1090" stroke="#eee" stroke-width=".75"/><path d="M41 142l-5.089-14.11" id="SvgjsLine1091" stroke="#eee" stroke-width=".75"/><path d="M41 142l-3.56-14.571" id="SvgjsLine1092" stroke="#eee" stroke-width=".75"/><path d="M41 142l-1.99-14.867" id="SvgjsLine1093" stroke="#eee" stroke-width=".75"/><path d="M41 142l-.4-14.995" id="SvgjsLine1094" stroke="#eee" stroke-width=".75"/><path d="M41 142l1.277-15.949" id="SvgjsLine1095" stroke="#eee" stroke-width=".75"/><path d="M41 142l2.78-14.74" id="SvgjsLine1096" stroke="#eee" stroke-width=".75"/><path d="M41 142l4.33-14.361" id="SvgjsLine1097" stroke="#eee" stroke-width=".75"/><path d="M41 142l5.832-13.82" id="SvgjsLine1098" stroke="#eee" stroke-width=".75"/><path d="M41 142l7.268-13.121" id="SvgjsLine1099" stroke="#eee" stroke-width=".75"/><path d="M41 142l9.197-13.093" id="SvgjsLine1100" stroke="#eee" stroke-width=".75"/><path d="M41 142l9.878-11.289" id="SvgjsLine1101" stroke="#eee" stroke-width=".75"/><path d="M41 142l11.022-10.175" id="SvgjsLine1102" stroke="#eee" stroke-width=".75"/><path d="M41 142l12.04-8.946" id="SvgjsLine1103" stroke="#eee" stroke-width=".75"/><path d="M41 142l12.923-7.615" id="SvgjsLine1104" stroke="#eee" stroke-width=".75"/><path d="M41 142l14.57-6.611" id="SvgjsLine1105" stroke="#eee" stroke-width=".75"/><path d="M41 142l14.241-4.711" id="SvgjsLine1106" stroke="#eee" stroke-width=".75"/><path d="M41 142l14.661-3.17" id="SvgjsLine1107" stroke="#eee" stroke-width=".75"/><path d="M41 142l14.915-1.594" id="SvgjsLine1108" stroke="#eee" stroke-width=".75"/><path d="M41 142h15" id="SvgjsLine1109" stroke="#eee" stroke-width=".75"/><path d="M54 142a13 13 0 0 1-13 13 13 13 0 0 1-13-13 13 13 0 0 1 13-13 13 13 0 0 1 13 13z" id="SvgjsCircle1110" stroke="#eee" stroke-width=".75"/><path d="M41 192h16" id="SvgjsLine1111" stroke="#eee" stroke-width=".75"/><path d="M41 192l14.915 1.594" id="SvgjsLine1112" stroke="#eee" stroke-width=".75"/><path d="M41 192l14.661 3.17" id="SvgjsLine1113" stroke="#eee" stroke-width=".75"/><path d="M41 192l14.241 4.711" id="SvgjsLine1114" stroke="#eee" stroke-width=".75"/><path d="M41 192l13.66 6.198" id="SvgjsLine1115" stroke="#eee" stroke-width=".75"/><path d="M41 192l13.785 8.123" id="SvgjsLine1116" stroke="#eee" stroke-width=".75"/><path d="M41 192l12.04 8.946" id="SvgjsLine1117" stroke="#eee" stroke-width=".75"/><path d="M41 192l11.022 10.175" id="SvgjsLine1118" stroke="#eee" stroke-width=".75"/><path d="M41 192l9.878 11.289" id="SvgjsLine1119" stroke="#eee" stroke-width=".75"/><path d="M41 192l8.622 12.275" id="SvgjsLine1120" stroke="#eee" stroke-width=".75"/><path d="M41 192l7.753 13.996" id="SvgjsLine1121" stroke="#eee" stroke-width=".75"/><path d="M41 192l-8.487 13.564" id="SvgjsLine1122" stroke="#eee" stroke-width=".75"/><path d="M41 192l-9.263 11.798" id="SvgjsLine1123" stroke="#eee" stroke-width=".75"/><path d="M41 192l-10.464 10.747" id="SvgjsLine1124" stroke="#eee" stroke-width=".75"/><path d="M41 192l-11.548 9.574" id="SvgjsLine1125" stroke="#eee" stroke-width=".75"/><path d="M41 192l-12.5 8.292" id="SvgjsLine1126" stroke="#eee" stroke-width=".75"/><path d="M41 192l-14.198 7.377" id="SvgjsLine1127" stroke="#eee" stroke-width=".75"/><path d="M41 192l-13.97 5.462" id="SvgjsLine1128" stroke="#eee" stroke-width=".75"/><path d="M41 192l-14.472 3.947" id="SvgjsLine1129" stroke="#eee" stroke-width=".75"/><path d="M41 192l-14.809 2.386" id="SvgjsLine1130" stroke="#eee" stroke-width=".75"/><path d="M41 192l-14.979.798" id="SvgjsLine1131" stroke="#eee" stroke-width=".75"/><path d="M41 192l-15.977-.852" id="SvgjsLine1132" stroke="#eee" stroke-width=".75"/><path d="M41 192l-14.809-2.386" id="SvgjsLine1133" stroke="#eee" stroke-width=".75"/><path d="M41 192l-14.472-3.947" id="SvgjsLine1134" stroke="#eee" stroke-width=".75"/><path d="M41 192l-13.97-5.462" id="SvgjsLine1135" stroke="#eee" stroke-width=".75"/><path d="M41 192l-13.31-6.916" id="SvgjsLine1136" stroke="#eee" stroke-width=".75"/><path d="M41 192l-13.333-8.845" id="SvgjsLine1137" stroke="#eee" stroke-width=".75"/><path d="M41 192l-11.548-9.574" id="SvgjsLine1138" stroke="#eee" stroke-width=".75"/><path d="M41 192l-10.464-10.747" id="SvgjsLine1139" stroke="#eee" stroke-width=".75"/><path d="M41 192l-9.263-11.798" id="SvgjsLine1140" stroke="#eee" stroke-width=".75"/><path d="M41 192l-7.956-12.716" id="SvgjsLine1141" stroke="#eee" stroke-width=".75"/><path d="M41 192l-6.997-14.389" id="SvgjsLine1142" stroke="#eee" stroke-width=".75"/><path d="M41 192l-5.089-14.11" id="SvgjsLine1143" stroke="#eee" stroke-width=".75"/><path d="M41 192l-3.56-14.571" id="SvgjsLine1144" stroke="#eee" stroke-width=".75"/><path d="M41 192l-1.99-14.867" id="SvgjsLine1145" stroke="#eee" stroke-width=".75"/><path d="M41 192l-.4-14.995" id="SvgjsLine1146" stroke="#eee" stroke-width=".75"/><path d="M41 192l1.277-15.949" id="SvgjsLine1147" stroke="#eee" stroke-width=".75"/><path d="M41 192l2.78-14.74" id="SvgjsLine1148" stroke="#eee" stroke-width=".75"/><path d="M41 192l4.33-14.361" id="SvgjsLine1149" stroke="#eee" stroke-width=".75"/><path d="M41 192l5.832-13.82" id="SvgjsLine1150" stroke="#eee" stroke-width=".75"/><path d="M41 192l7.268-13.121" id="SvgjsLine1151" stroke="#eee" stroke-width=".75"/><path d="M41 192l9.197-13.093" id="SvgjsLine1152" stroke="#eee" stroke-width=".75"/><path d="M41 192l9.878-11.289" id="SvgjsLine1153" stroke="#eee" stroke-width=".75"/><path d="M41 192l11.022-10.175" id="SvgjsLine1154" stroke="#eee" stroke-width=".75"/><path d="M41 192l12.04-8.946" id="SvgjsLine1155" stroke="#eee" stroke-width=".75"/><path d="M41 192l12.923-7.615" id="SvgjsLine1156" stroke="#eee" stroke-width=".75"/><path d="M41 192l14.57-6.611" id="SvgjsLine1157" stroke="#eee" stroke-width=".75"/><path d="M41 192l14.241-4.711" id="SvgjsLine1158" stroke="#eee" stroke-width=".75"/><path d="M41 192l14.661-3.17" id="SvgjsLine1159" stroke="#eee" stroke-width=".75"/><path d="M41 192l14.915-1.594" id="SvgjsLine1160" stroke="#eee" stroke-width=".75"/><path d="M41 192h15" id="SvgjsLine1161" stroke="#eee" stroke-width=".75"/><path d="M54 192a13 13 0 0 1-13 13 13 13 0 0 1-13-13 13 13 0 0 1 13-13 13 13 0 0 1 13 13z" id="SvgjsCircle1162" stroke="#eee" stroke-width=".75"/><path d="M41 242h16" id="SvgjsLine1163" stroke="#eee" stroke-width=".75"/><path d="M41 242l14.915 1.594" id="SvgjsLine1164" stroke="#eee" stroke-width=".75"/><path d="M41 242l14.661 3.17" id="SvgjsLine1165" stroke="#eee" stroke-width=".75"/><path d="M41 242l14.241 4.711" id="SvgjsLine1166" stroke="#eee" stroke-width=".75"/><path d="M41 242l13.66 6.198" id="SvgjsLine1167" stroke="#eee" stroke-width=".75"/><path d="M41 242l13.785 8.123" id="SvgjsLine1168" stroke="#eee" stroke-width=".75"/><path d="M41 242l12.04 8.946" id="SvgjsLine1169" stroke="#eee" stroke-width=".75"/><path d="M41 242l11.022 10.175" id="SvgjsLine1170" stroke="#eee" stroke-width=".75"/><path d="M41 242l9.878 11.289" id="SvgjsLine1171" stroke="#eee" stroke-width=".75"/><path d="M41 242l8.622 12.275" id="SvgjsLine1172" stroke="#eee" stroke-width=".75"/><path d="M41 242l7.753 13.996" id="SvgjsLine1173" stroke="#eee" stroke-width=".75"/><path d="M41 242l-8.487 13.564" id="SvgjsLine1174" stroke="#eee" stroke-width=".75"/><path d="M41 242l-9.263 11.798" id="SvgjsLine1175" stroke="#eee" stroke-width=".75"/><path d="M41 242l-10.464 10.747" id="SvgjsLine1176" stroke="#eee" stroke-width=".75"/><path d="M41 242l-11.548 9.574" id="SvgjsLine1177" stroke="#eee" stroke-width=".75"/><path d="M41 242l-12.5 8.292" id="SvgjsLine1178" stroke="#eee" stroke-width=".75"/><path d="M41 242l-14.198 7.377" id="SvgjsLine1179" stroke="#eee" stroke-width=".75"/><path d="M41 242l-13.97 5.462" id="SvgjsLine1180" stroke="#eee" stroke-width=".75"/><path d="M41 242l-14.472 3.947" id="SvgjsLine1181" stroke="#eee" stroke-width=".75"/><path d="M41 242l-14.809 2.386" id="SvgjsLine1182" stroke="#eee" stroke-width=".75"/><path d="M41 242l-14.979.798" id="SvgjsLine1183" stroke="#eee" stroke-width=".75"/><path d="M41 242l-15.977-.852" id="SvgjsLine1184" stroke="#eee" stroke-width=".75"/><path d="M41 242l-14.809-2.386" id="SvgjsLine1185" stroke="#eee" stroke-width=".75"/><path d="M41 242l-14.472-3.947" id="SvgjsLine1186" stroke="#eee" stroke-width=".75"/><path d="M41 242l-13.97-5.462" id="SvgjsLine1187" stroke="#eee" stroke-width=".75"/><path d="M41 242l-13.31-6.916" id="SvgjsLine1188" stroke="#eee" stroke-width=".75"/><path d="M41 242l-13.333-8.845" id="SvgjsLine1189" stroke="#eee" stroke-width=".75"/><path d="M41 242l-11.548-9.574" id="SvgjsLine1190" stroke="#eee" stroke-width=".75"/><path d="M41 242l-10.464-10.747" id="SvgjsLine1191" stroke="#eee" stroke-width=".75"/><path d="M41 242l-9.263-11.798" id="SvgjsLine1192" stroke="#eee" stroke-width=".75"/><path d="M41 242l-7.956-12.716" id="SvgjsLine1193" stroke="#eee" stroke-width=".75"/><path d="M41 242l-6.997-14.389" id="SvgjsLine1194" stroke="#eee" stroke-width=".75"/><path d="M41 242l-5.089-14.11" id="SvgjsLine1195" stroke="#eee" stroke-width=".75"/><path d="M41 242l-3.56-14.571" id="SvgjsLine1196" stroke="#eee" stroke-width=".75"/><path d="M41 242l-1.99-14.867" id="SvgjsLine1197" stroke="#eee" stroke-width=".75"/><path d="M41 242l-.4-14.995" id="SvgjsLine1198" stroke="#eee" stroke-width=".75"/><path d="M41 242l1.277-15.949" id="SvgjsLine1199" stroke="#eee" stroke-width=".75"/><path d="M41 242l2.78-14.74" id="SvgjsLine1200" stroke="#eee" stroke-width=".75"/><path d="M41 242l4.33-14.361" id="SvgjsLine1201" stroke="#eee" stroke-width=".75"/><path d="M41 242l5.832-13.82" id="SvgjsLine1202" stroke="#eee" stroke-width=".75"/><path d="M41 242l7.268-13.121" id="SvgjsLine1203" stroke="#eee" stroke-width=".75"/><path d="M41 242l9.197-13.093" id="SvgjsLine1204" stroke="#eee" stroke-width=".75"/><path d="M41 242l9.878-11.289" id="SvgjsLine1205" stroke="#eee" stroke-width=".75"/><path d="M41 242l11.022-10.175" id="SvgjsLine1206" stroke="#eee" stroke-width=".75"/><path d="M41 242l12.04-8.946" id="SvgjsLine1207" stroke="#eee" stroke-width=".75"/><path d="M41 242l12.923-7.615" id="SvgjsLine1208" stroke="#eee" stroke-width=".75"/><path d="M41 242l14.57-6.611" id="SvgjsLine1209" stroke="#eee" stroke-width=".75"/><path d="M41 242l14.241-4.711" id="SvgjsLine1210" stroke="#eee" stroke-width=".75"/><path d="M41 242l14.661-3.17" id="SvgjsLine1211" stroke="#eee" stroke-width=".75"/><path d="M41 242l14.915-1.594" id="SvgjsLine1212" stroke="#eee" stroke-width=".75"/><path d="M41 242h15" id="SvgjsLine1213" stroke="#eee" stroke-width=".75"/><path d="M54 242a13 13 0 0 1-13 13 13 13 0 0 1-13-13 13 13 0 0 1 13-13 13 13 0 0 1 13 13z" id="SvgjsCircle1214" stroke="#eee" stroke-width=".75"/></svg>