<?xml version="1.0" encoding="UTF-8" standalone="no"?>
<svg
   xmlns:osb="http://www.openswatchbook.org/uri/2009/osb"
   xmlns:dc="http://purl.org/dc/elements/1.1/"
   xmlns:cc="http://creativecommons.org/ns#"
   xmlns:rdf="http://www.w3.org/1999/02/22-rdf-syntax-ns#"
   xmlns:svg="http://www.w3.org/2000/svg"
   xmlns="http://www.w3.org/2000/svg"
   xmlns:xlink="http://www.w3.org/1999/xlink"
   xmlns:sodipodi="http://sodipodi.sourceforge.net/DTD/sodipodi-0.dtd"
   xmlns:inkscape="http://www.inkscape.org/namespaces/inkscape"
   height="380"
   style="zoom: 8;"
   cursor="default"
   id="SvgjsSvg1006"
   sodipodi:docname="CVSeq.svg"
   inkscape:version="0.92.2 5c3e80d, 2017-08-06"
   width="60"
   version="1.1">
  <metadata
     id="metadata7215">
    <rdf:RDF>
      <cc:Work
         rdf:about="">
        <dc:format>image/svg+xml</dc:format>
        <dc:type
           rdf:resource="http://purl.org/dc/dcmitype/StillImage" />
        <dc:title />
      </cc:Work>
    </rdf:RDF>
  </metadata>
  <sodipodi:namedview
     borderopacity="1"
     inkscape:zoom="2.9512404"
     inkscape:cy="94.584588"
     gridtolerance="10"
     inkscape:cx="-46.833191"
     inkscape:window-height="1006"
     inkscape:measure-start="21.6858,252.097"
     inkscape:pagecheckerboard="true"
     inkscape:window-width="901"
     guidetolerance="10"
     id="namedview7213"
     showgrid="false"
     inkscape:pageopacity="0"
     inkscape:pageshadow="2"
     bordercolor="#666666"
     inkscape:current-layer="SvgjsSvg1006"
     inkscape:window-maximized="0"
     inkscape:window-y="11"
     inkscape:measure-end="21.0081,301.907"
     objecttolerance="10"
     pagecolor="#ffffff"
     inkscape:window-x="496"
     visibility="visible" />
  <defs
     id="SvgjsDefs1007">
    <linearGradient
       inkscape:collect="always"
       id="linearGradient838">
      <stop
         style="stop-color:#ff8600;stop-opacity:1;"
         offset="0"
         id="stop834" />
      <stop
         style="stop-color:#ff8600;stop-opacity:0;"
         offset="1"
         id="stop836" />
    </linearGradient>
    <linearGradient
       id="linearGradient2396"
       osb:paint="gradient">
      <stop
         style="stop-color:#ff8f00;stop-opacity:1;"
         offset="0"
         id="stop2392" />
      <stop
         style="stop-color:#ff8f00;stop-opacity:0;"
         offset="1"
         id="stop2394" />
    </linearGradient>
    <linearGradient
       id="linearGradient2384"
       osb:paint="solid">
      <stop
         style="stop-color:#ff8f00;stop-opacity:1;"
         offset="0"
         id="stop2382" />
    </linearGradient>
    <linearGradient
       id="linearGradient898"
       osb:paint="solid">
      <stop
         style="stop-color:#ff8f00;stop-opacity:1;"
         offset="0"
         id="stop896" />
    </linearGradient>
    <linearGradient
       inkscape:collect="always"
       id="linearGradient915">
      <stop
         style="stop-color:#303035;stop-opacity:1;"
         offset="0"
         id="stop911" />
      <stop
         style="stop-color:#202025;stop-opacity:1;"
         offset="1"
         id="stop913" />
    </linearGradient>
    <linearGradient
       inkscape:collect="always"
       xlink:href="#linearGradient915"
       id="linearGradient919"
       x1="0"
       y1="190"
       x2="45"
       y2="190"
       gradientUnits="userSpaceOnUse" />
    <style
       id="OpenSans_Google_Webfont_import">@import url(https://fonts.googleapis.com/css?family=Open+Sans);</style>
    <style
       id="style31">@import url(https://fonts.googleapis.com/css?family='Open Sans');</style>
    <style
       id="style33">@import url(https://fonts.googleapis.com/css?family='Open Sans');</style>
    <style
       id="style35">@import url(https://fonts.googleapis.com/css?family='Open Sans');</style>
    <style
       id="style22">@import url(https://fonts.googleapis.com/css?family='Open Sans');</style>
    <style
       id="style24">@import url(https://fonts.googleapis.com/css?family='Open Sans');</style>
    <style
       id="style26">@import url(https://fonts.googleapis.com/css?family='Open Sans');</style>
    <linearGradient
       inkscape:collect="always"
       xlink:href="#linearGradient838"
       id="linearGradient840"
       x1="19.991594"
       y1="333.23999"
       x2="27.784927"
       y2="400.33044"
       gradientUnits="userSpaceOnUse"
       gradientTransform="translate(8)" />
  </defs>
  <path
     d="M0,0 H60 V380 H0 Z"
     id="SvgjsRect1008"
     style="fill:url(#linearGradient919);fill-opacity:1;stroke:none;stroke-opacity:1"
     visibility="visible" />
  <path
     d="m 49.004911,342.87682 c -1.492639,-4.60366 -4.104196,-9.04635 -7.187505,-12.89608 -0.426049,-0.52359 -1.969544,-1.90716 -1.969544,-1.90716 1.322369,3.05255 1.238339,6.21832 0.573467,9.07712 -3.605176,-7.34797 -9.922897,-16.54618 -19.424907,-21.40183 1e-6,0 6.324356,14.26788 -2.700752,30.01166 -0.497545,-2.12189 -1.003936,-5.1705 -0.731207,-8.19293 1e-6,0 -1.141036,0.86654 -1.272978,0.99218 -1.017942,0.9628 -1.870772,2.08918 -2.621881,3.25089 -2.73908,4.35956 -4.183067,9.62692 -3.825571,14.92499 0.133416,2.0047 0.510813,4.0068 1.021626,5.97879 1.584775,6.31451 5.226807,12.93469 10.628308,15.9689 -1.699762,-2.85425 -2.736868,-6.57044 -2.736868,-10.64465 -1e-6,-1.68924 0.177641,-3.32938 0.513762,-4.86154 0.03833,0.67807 0.151844,1.37704 0.339804,2.08978 0.725312,2.74688 2.396326,4.93484 4.292896,5.93557 -0.857252,-2.21868 -1.166836,-5.15213 -0.706883,-8.29235 0.333171,-2.31366 1.028259,-4.42438 1.973965,-6.15747 1.048162,-1.96479 2.398537,-3.44327 3.85358,-4.17762 -0.605899,1.02625 -1.059955,2.35291 -1.294355,3.85038 -0.0914,0.57528 -0.145208,1.18005 -0.16511,1.8077 -0.0088,0.14203 -0.0088,0.28669 -0.0088,0.44178 0,0.38681 0.01327,0.77295 0.04939,1.1473 0.130466,1.78089 0.571992,3.37195 1.228015,4.60435 0.03612,0.0674 0.06929,0.12765 0.103932,0.18917 0.324325,0.54322 0.859465,0.91953 1.474209,0.9935 0,0 0,0 0.0066,0 0.06045,0.005 0.12973,0.01 0.197544,0.01 0.01916,0 0.04349,0 0.06045,-0.005 0.928751,-0.0249 1.699762,-0.76248 1.907625,-1.73899 0.03243,-0.15774 0.05455,-0.32858 0.05455,-0.49676 0,-0.013 0,-0.0255 0,-0.036 0.05528,-0.70554 0.0059,-1.46738 -0.144472,-2.25406 -0.08034,-0.41888 -0.180592,-0.81943 -0.314009,-1.2023 -0.163637,-0.49808 -0.363392,-0.94968 -0.59263,-1.37116 0.379608,0.0693 0.762165,0.18064 1.12998,0.34818 1.404184,0.60937 2.66021,1.85354 3.529257,3.48846 0.14447,0.27881 0.27936,0.56745 0.398035,0.86982 0.251352,0.61325 0.445948,1.26446 0.578627,1.95694 0.06266,0.341 0.109828,0.67083 0.137838,1.00463 0.382557,-0.7193 0.729732,-1.50924 1.028997,-2.34765 0.574942,-1.57407 0.908112,-3.10166 1.009833,-4.4401 1.085754,2.50214 1.714504,5.46698 1.714504,8.64258 0,4.14487 -1.073223,7.91278 -2.826794,10.78861 0.900742,-0.45618 1.77126,-0.98502 2.587235,-1.58844 3.051613,-2.20825 5.20322,-5.62864 6.594135,-9.33368 0.783543,-2.02765 1.553078,-4.29023 1.92458,-6.42319 1.099758,-6.18427 1.42556,-12.7403 -0.388455,-18.60455 z"
     id="path2"
     style="visibility:visible;fill:url(#linearGradient840);fill-opacity:1;stroke:none;stroke-width:0.69457018;stroke-opacity:1"
     inkscape:connector-curvature="0"
     visibility="visible" />
  <g
     aria-label="CV-SEQ"
     style="font-size:12px;font-family:'Open Sans';text-anchor:middle;fill:#eeeeee;stroke:none;stroke-width:1px;text-rendering:geometricPrecision"
     id="text5">
    <path
       d="m 15.287109,16.925781 v 1.248047 q -0.597656,-0.556641 -1.277343,-0.832031 -0.673828,-0.275391 -1.435547,-0.275391 -1.5,0 -2.296875,0.919922 -0.7968752,0.914063 -0.7968752,2.648438 0,1.728515 0.7968752,2.648437 0.796875,0.914063 2.296875,0.914063 0.761719,0 1.435547,-0.275391 0.679687,-0.275391 1.277343,-0.832031 v 1.236328 q -0.621093,0.421875 -1.318359,0.632812 -0.691406,0.210938 -1.464844,0.210938 -1.986328,0 -3.128906,-1.212891 -1.1425781,-1.21875 -1.1425781,-3.322265 0,-2.109375 1.1425781,-3.322266 1.142578,-1.21875 3.128906,-1.21875 0.785157,0 1.476563,0.210937 0.697265,0.205079 1.30664,0.621094 z"
       style="font-size:12px;font-family:'Open Sans';text-anchor:middle;fill:#eeeeee;stroke:none;stroke-width:1px;text-rendering:geometricPrecision"
       id="path1050" />
    <path
       d="m 19.382812,25 -3.339843,-8.748047 h 1.236328 l 2.771484,7.365234 2.777344,-7.365234 h 1.230469 L 20.724609,25 Z"
       style="font-size:12px;font-family:'Open Sans';text-anchor:middle;fill:#eeeeee;stroke:none;stroke-width:1px;text-rendering:geometricPrecision"
       id="path1052" />
    <path
       d="m 24.035156,21.232422 h 3.158203 v 0.960937 h -3.158203 z"
       style="font-size:12px;font-family:'Open Sans';text-anchor:middle;fill:#eeeeee;stroke:none;stroke-width:1px;text-rendering:geometricPrecision"
       id="path1054" />
    <path
       d="m 34.207031,16.539062 v 1.154297 q -0.673828,-0.322265 -1.271484,-0.480468 -0.597656,-0.158204 -1.154297,-0.158204 -0.966797,0 -1.494141,0.375 -0.521484,0.375 -0.521484,1.066407 0,0.580078 0.345703,0.878906 0.351563,0.292969 1.324219,0.474609 l 0.714844,0.146485 q 1.324218,0.251953 1.951171,0.890625 0.632813,0.632812 0.632813,1.699218 0,1.271485 -0.855469,1.927735 -0.849609,0.65625 -2.496094,0.65625 -0.621093,0 -1.324218,-0.140625 -0.697266,-0.140625 -1.447266,-0.416016 v -1.21875 q 0.720703,0.404297 1.412109,0.609375 0.691407,0.205078 1.359375,0.205078 1.013672,0 1.564454,-0.398437 0.550781,-0.398438 0.550781,-1.136719 0,-0.644531 -0.398438,-1.007812 -0.392578,-0.363282 -1.294922,-0.544922 l -0.720703,-0.140625 q -1.324218,-0.263672 -1.916015,-0.826172 -0.591797,-0.5625 -0.591797,-1.564453 0,-1.160157 0.814453,-1.828125 0.820312,-0.667969 2.255859,-0.667969 0.615235,0 1.253907,0.111328 0.638671,0.111328 1.30664,0.333984 z"
       style="font-size:12px;font-family:'Open Sans';text-anchor:middle;fill:#eeeeee;stroke:none;stroke-width:1px;text-rendering:geometricPrecision"
       id="path1056" />
    <path
       d="m 36.580078,16.251953 h 5.53125 v 0.996094 h -4.347656 v 2.589844 h 4.166015 v 0.996093 h -4.166015 v 3.169922 h 4.453125 V 25 h -5.636719 z"
       style="font-size:12px;font-family:'Open Sans';text-anchor:middle;fill:#eeeeee;stroke:none;stroke-width:1px;text-rendering:geometricPrecision"
       id="path1058" />
    <path
       d="m 47.724609,17.054687 q -1.289062,0 -2.050781,0.960938 -0.755859,0.960937 -0.755859,2.619141 0,1.652343 0.755859,2.613281 0.761719,0.960937 2.050781,0.960937 1.289063,0 2.039063,-0.960937 0.755859,-0.960938 0.755859,-2.613281 0,-1.658204 -0.755859,-2.619141 -0.75,-0.960938 -2.039063,-0.960938 z m 1.658203,7.78711 1.558594,1.705078 h -1.429687 l -1.294922,-1.400391 q -0.19336,0.01172 -0.298828,0.01758 -0.09961,0.0059 -0.19336,0.0059 -1.845703,0 -2.953125,-1.230469 -1.101562,-1.236328 -1.101562,-3.304687 0,-2.074219 1.101562,-3.304688 1.107422,-1.236328 2.953125,-1.236328 1.839844,0 2.941407,1.236328 1.101562,1.230469 1.101562,3.304688 0,1.523437 -0.615234,2.607421 -0.609375,1.083985 -1.769532,1.59961 z"
       style="font-size:12px;font-family:'Open Sans';text-anchor:middle;fill:#eeeeee;stroke:none;stroke-width:1px;text-rendering:geometricPrecision"
       id="path1060" />
  </g>
  <g
     aria-label="CLK"
     style="font-size:8px;font-family:'Open Sans';text-anchor:middle;fill:#eeeeee;stroke:none;stroke-width:1px;text-rendering:geometricPrecision"
     id="text7">
    <path
       d="m 11.503906,61.617187 v 0.832032 q -0.398437,-0.371094 -0.851562,-0.554688 -0.449219,-0.183594 -0.9570315,-0.183594 -1,0 -1.53125,0.613282 -0.53125,0.609375 -0.53125,1.765625 0,1.152343 0.53125,1.765625 0.53125,0.609375 1.53125,0.609375 0.5078125,0 0.9570315,-0.183594 0.453125,-0.183594 0.851562,-0.554688 v 0.824219 q -0.414062,0.28125 -0.878906,0.421875 -0.460937,0.140625 -0.9765625,0.140625 -1.3242187,0 -2.0859375,-0.808594 -0.7617188,-0.8125 -0.7617188,-2.214843 0,-1.40625 0.7617188,-2.214844 0.7617188,-0.8125 2.0859375,-0.8125 0.5234375,0 0.9843755,0.140625 0.464843,0.136719 0.871093,0.414062 z"
       style="font-size:8px;font-family:'Open Sans';text-anchor:middle;fill:#eeeeee;stroke:none;stroke-width:1px;text-rendering:geometricPrecision"
       id="path1063" />
    <path
       d="m 12.730469,61.167969 h 0.789062 v 5.167968 h 2.839844 V 67 h -3.628906 z"
       style="font-size:8px;font-family:'Open Sans';text-anchor:middle;fill:#eeeeee;stroke:none;stroke-width:1px;text-rendering:geometricPrecision"
       id="path1065" />
    <path
       d="m 17.183594,61.167969 h 0.789062 v 2.464843 l 2.617188,-2.464843 h 1.015625 L 18.710937,63.886719 21.8125,67 H 20.773437 L 17.972656,64.191406 V 67 h -0.789062 z"
       style="font-size:8px;font-family:'Open Sans';text-anchor:middle;fill:#eeeeee;stroke:none;stroke-width:1px;text-rendering:geometricPrecision"
       id="path1067" />
  </g>
  <g
     aria-label="OUT"
     style="font-size:8px;font-family:'Open Sans';text-anchor:middle;fill:#eeeeee;stroke:none;stroke-width:1px;text-rendering:geometricPrecision"
     id="text31">
    <path
       d="m 40.628906,61.703125 q -0.859375,0 -1.367187,0.640625 -0.503907,0.640625 -0.503907,1.746094 0,1.101562 0.503907,1.742187 0.507812,0.640625 1.367187,0.640625 0.859375,0 1.359375,-0.640625 0.503906,-0.640625 0.503906,-1.742187 0,-1.105469 -0.503906,-1.746094 -0.5,-0.640625 -1.359375,-0.640625 z m 0,-0.640625 q 1.226563,0 1.960938,0.824219 0.734375,0.820312 0.734375,2.203125 0,1.378906 -0.734375,2.203125 -0.734375,0.820312 -1.960938,0.820312 -1.230469,0 -1.96875,-0.820312 -0.734375,-0.820313 -0.734375,-2.203125 0,-1.382813 0.734375,-2.203125 0.738281,-0.824219 1.96875,-0.824219 z"
       style="font-size:8px;font-family:'Open Sans';text-anchor:middle;fill:#eeeeee;stroke:none;stroke-width:1px;text-rendering:geometricPrecision"
       id="path1070" />
    <path
       d="m 44.46875,61.167969 h 0.792969 v 3.542968 q 0,0.9375 0.339843,1.351563 0.339844,0.410156 1.101563,0.410156 0.757812,0 1.097656,-0.410156 0.339844,-0.414063 0.339844,-1.351563 v -3.542968 h 0.792969 v 3.640625 q 0,1.140625 -0.566407,1.722656 -0.5625,0.582031 -1.664062,0.582031 -1.105469,0 -1.671875,-0.582031 -0.5625,-0.582031 -0.5625,-1.722656 z"
       style="font-size:8px;font-family:'Open Sans';text-anchor:middle;fill:#eeeeee;stroke:none;stroke-width:1px;text-rendering:geometricPrecision"
       id="path1072" />
    <path
       d="m 49.609375,61.167969 h 4.933594 v 0.664062 H 52.472656 V 67 h -0.792969 v -5.167969 h -2.070312 z"
       style="font-size:8px;font-family:'Open Sans';text-anchor:middle;fill:#eeeeee;stroke:none;stroke-width:1px;text-rendering:geometricPrecision"
       id="path1074" />
  </g>
  <g
     aria-label="1"
     style="font-size:8px;font-family:'Open Sans';text-anchor:middle;fill:#eeeeee;stroke:none;stroke-width:1px;text-rendering:geometricPrecision"
     id="text29">
    <path
       d="m 28.445312,116.33594 h 1.289063 v -4.44922 l -1.402344,0.28125 v -0.71875 l 1.394531,-0.28125 h 0.789063 v 5.16797 h 1.289062 V 117 h -3.359375 z"
       style="font-size:8px;font-family:'Open Sans';text-anchor:middle;fill:#eeeeee;stroke:none;stroke-width:1px;text-rendering:geometricPrecision"
       id="path1077" />
  </g>
  <g
     aria-label="2"
     style="font-size:8px;font-family:'Open Sans';text-anchor:middle;fill:#eeeeee;stroke:none;stroke-width:1px;text-rendering:geometricPrecision"
     id="text34">
    <path
       d="m 28.988281,166.33594 h 2.753906 V 167 h -3.703125 v -0.66406 q 0.449219,-0.46485 1.222657,-1.2461 0.777343,-0.78515 0.976562,-1.01172 0.378906,-0.42578 0.527344,-0.71875 0.152344,-0.29687 0.152344,-0.58203 0,-0.46484 -0.328125,-0.75781 -0.324219,-0.29297 -0.847657,-0.29297 -0.371093,0 -0.785156,0.12891 -0.410156,0.1289 -0.878906,0.39062 v -0.79687 q 0.476562,-0.19141 0.890625,-0.28906 0.414062,-0.0977 0.757812,-0.0977 0.90625,0 1.445313,0.45312 0.539062,0.45313 0.539062,1.21094 0,0.35938 -0.136718,0.6836 -0.132813,0.32031 -0.488282,0.75781 -0.09766,0.11328 -0.621093,0.65625 -0.523438,0.53906 -1.476563,1.51172 z"
       style="font-size:8px;font-family:'Open Sans';text-anchor:middle;fill:#eeeeee;stroke:none;stroke-width:1px;text-rendering:geometricPrecision"
       id="path1080" />
  </g>
  <g
     aria-label="3"
     style="font-size:8px;font-family:'Open Sans';text-anchor:middle;fill:#eeeeee;stroke:none;stroke-width:1px;text-rendering:geometricPrecision"
     id="text33">
    <path
       d="m 30.699219,213.85547 q 0.566406,0.12109 0.882812,0.5039 0.320313,0.38282 0.320313,0.94532 0,0.86328 -0.59375,1.33593 -0.59375,0.47266 -1.6875,0.47266 -0.367188,0 -0.757813,-0.0742 -0.386719,-0.0703 -0.800781,-0.21484 v -0.76172 q 0.328125,0.19141 0.71875,0.28906 0.390625,0.0977 0.816406,0.0977 0.742188,0 1.128906,-0.29297 0.390625,-0.29297 0.390625,-0.85156 0,-0.51563 -0.363281,-0.80469 -0.359375,-0.29297 -1.003906,-0.29297 h -0.679688 v -0.64844 h 0.710938 q 0.582031,0 0.890625,-0.23047 0.308594,-0.23437 0.308594,-0.67187 0,-0.44922 -0.320313,-0.6875 -0.316406,-0.24219 -0.910156,-0.24219 -0.324219,0 -0.695313,0.0703 -0.371093,0.0703 -0.816406,0.21875 v -0.70312 q 0.449219,-0.125 0.839844,-0.1875 0.394531,-0.0625 0.742187,-0.0625 0.898438,0 1.421875,0.41016 0.523438,0.40625 0.523438,1.10156 0,0.48437 -0.277344,0.82031 -0.277344,0.33203 -0.789062,0.46094 z"
       style="font-size:8px;font-family:'Open Sans';text-anchor:middle;fill:#eeeeee;stroke:none;stroke-width:1px;text-rendering:geometricPrecision"
       id="path1083" />
  </g>
  <g
     aria-label="4"
     style="font-size:8px;font-family:'Open Sans';text-anchor:middle;fill:#eeeeee;stroke:none;stroke-width:1px;text-rendering:geometricPrecision"
     id="text35">
    <path
       d="m 30.476562,261.85547 -1.992187,3.11328 h 1.992187 z m -0.207031,-0.6875 h 0.992188 v 3.80078 H 32.09375 V 265.625 H 31.261719 V 267 h -0.785157 v -1.375 H 27.84375 v -0.76172 z"
       style="font-size:8px;font-family:'Open Sans';text-anchor:middle;fill:#eeeeee;stroke:none;stroke-width:1px;text-rendering:geometricPrecision"
       id="path1086" />
  </g>
  <path
     style="stroke:#eeeeee;stroke-width:0.75"
     d="M 41,92 H 57"
     id="SvgjsLine1007" />
  <path
     style="stroke:#eeeeee;stroke-width:0.75"
     d="m 41,92 14.915024,1.594398"
     id="SvgjsLine1008" />
  <path
     style="stroke:#eeeeee;stroke-width:0.75"
     d="m 41,92 14.661053,3.170738"
     id="SvgjsLine1009" />
  <path
     style="stroke:#eeeeee;stroke-width:0.75"
     d="m 41,92 14.240963,4.711151"
     id="SvgjsLine1010" />
  <path
     style="stroke:#eeeeee;stroke-width:0.75"
     d="m 41,92 13.659523,6.198181"
     id="SvgjsLine1011" />
  <path
     style="stroke:#eeeeee;stroke-width:0.75"
     d="m 41,92 13.784866,8.12265"
     id="SvgjsLine1012" />
  <path
     style="stroke:#eeeeee;stroke-width:0.75"
     d="m 41,92 12.040676,8.94551"
     id="SvgjsLine1013" />
  <path
     style="stroke:#eeeeee;stroke-width:0.75"
     d="m 41,92 11.021614,10.17467"
     id="SvgjsLine1014" />
  <path
     style="stroke:#eeeeee;stroke-width:0.75"
     d="m 41,92 9.87767,11.28856"
     id="SvgjsLine1015" />
  <path
     style="stroke:#eeeeee;stroke-width:0.75"
     d="m 41,92 8.621811,12.27454"
     id="SvgjsLine1016" />
  <path
     style="stroke:#eeeeee;stroke-width:0.75"
     d="m 41,92 7.752815,13.99621"
     id="SvgjsLine1017" />
  <path
     style="stroke:#eeeeee;stroke-width:0.75"
     d="m 41,92 -8.486736,13.56375"
     id="SvgjsLine1018" />
  <path
     style="stroke:#eeeeee;stroke-width:0.75"
     d="m 41,92 -9.262869,11.79827"
     id="SvgjsLine1019" />
  <path
     style="stroke:#eeeeee;stroke-width:0.75"
     d="M 41,92 30.535526,102.74685"
     id="SvgjsLine1020" />
  <path
     style="stroke:#eeeeee;stroke-width:0.75"
     d="m 41,92 -11.54751,9.57366"
     id="SvgjsLine1021" />
  <path
     style="stroke:#eeeeee;stroke-width:0.75"
     d="m 41,92 -12.499708,8.292"
     id="SvgjsLine1022" />
  <path
     style="stroke:#eeeeee;stroke-width:0.75"
     d="M 41,92 26.802366,99.37748"
     id="SvgjsLine1023" />
  <path
     style="stroke:#eeeeee;stroke-width:0.75"
     d="M 41,92 27.029957,97.46241"
     id="SvgjsLine1024" />
  <path
     style="stroke:#eeeeee;stroke-width:0.75"
     d="M 41,92 26.528482,95.946541"
     id="SvgjsLine1025" />
  <path
     style="stroke:#eeeeee;stroke-width:0.75"
     d="M 41,92 26.190975,94.385956"
     id="SvgjsLine1026" />
  <path
     style="stroke:#eeeeee;stroke-width:0.75"
     d="M 41,92 26.021259,92.798332"
     id="SvgjsLine1027" />
  <path
     style="stroke:#eeeeee;stroke-width:0.75"
     d="M 41,92 25.022676,91.148445"
     id="SvgjsLine1028" />
  <path
     style="stroke:#eeeeee;stroke-width:0.75"
     d="M 41,92 26.190975,89.614044"
     id="SvgjsLine1029" />
  <path
     style="stroke:#eeeeee;stroke-width:0.75"
     d="M 41,92 26.528482,88.053459"
     id="SvgjsLine1030" />
  <path
     style="stroke:#eeeeee;stroke-width:0.75"
     d="M 41,92 27.029957,86.53759"
     id="SvgjsLine1031" />
  <path
     style="stroke:#eeeeee;stroke-width:0.75"
     d="M 41,92 27.689718,85.083611"
     id="SvgjsLine1032" />
  <path
     style="stroke:#eeeeee;stroke-width:0.75"
     d="M 41,92 27.666977,83.155197"
     id="SvgjsLine1033" />
  <path
     style="stroke:#eeeeee;stroke-width:0.75"
     d="M 41,92 29.45249,82.426338"
     id="SvgjsLine1034" />
  <path
     style="stroke:#eeeeee;stroke-width:0.75"
     d="M 41,92 30.535526,81.253151"
     id="SvgjsLine1035" />
  <path
     style="stroke:#eeeeee;stroke-width:0.75"
     d="M 41,92 31.737131,80.201729"
     id="SvgjsLine1036" />
  <path
     style="stroke:#eeeeee;stroke-width:0.75"
     d="M 41,92 33.043686,79.283981"
     id="SvgjsLine1037" />
  <path
     style="stroke:#eeeeee;stroke-width:0.75"
     d="M 41,92 34.003082,77.611008"
     id="SvgjsLine1038" />
  <path
     style="stroke:#eeeeee;stroke-width:0.75"
     d="M 41,92 35.911419,77.889496"
     id="SvgjsLine1039" />
  <path
     style="stroke:#eeeeee;stroke-width:0.75"
     d="M 41,92 37.440098,77.428551"
     id="SvgjsLine1040" />
  <path
     style="stroke:#eeeeee;stroke-width:0.75"
     d="M 41,92 39.009117,77.132706"
     id="SvgjsLine1041" />
  <path
     style="stroke:#eeeeee;stroke-width:0.75"
     d="M 41,92 40.600693,77.005318"
     id="SvgjsLine1042" />
  <path
     style="stroke:#eeeeee;stroke-width:0.75"
     d="M 41,92 42.276577,76.05101"
     id="SvgjsLine1043" />
  <path
     style="stroke:#eeeeee;stroke-width:0.75"
     d="M 41,92 43.779331,77.259735"
     id="SvgjsLine1044" />
  <path
     style="stroke:#eeeeee;stroke-width:0.75"
     d="M 41,92 45.330379,77.638672"
     id="SvgjsLine1045" />
  <path
     style="stroke:#eeeeee;stroke-width:0.75"
     d="M 41,92 46.832363,78.180321"
     id="SvgjsLine1046" />
  <path
     style="stroke:#eeeeee;stroke-width:0.75"
     d="M 41,92 48.268265,78.878555"
     id="SvgjsLine1047" />
  <path
     style="stroke:#eeeeee;stroke-width:0.75"
     d="M 41,92 50.196598,78.907158"
     id="SvgjsLine1048" />
  <path
     style="stroke:#eeeeee;stroke-width:0.75"
     d="M 41,92 50.87767,80.711441"
     id="SvgjsLine1049" />
  <path
     style="stroke:#eeeeee;stroke-width:0.75"
     d="M 41,92 52.021614,81.825325"
     id="SvgjsLine1050" />
  <path
     style="stroke:#eeeeee;stroke-width:0.75"
     d="M 41,92 53.040676,83.054489"
     id="SvgjsLine1051" />
  <path
     style="stroke:#eeeeee;stroke-width:0.75"
     d="M 41,92 53.923309,84.38501"
     id="SvgjsLine1052" />
  <path
     style="stroke:#eeeeee;stroke-width:0.75"
     d="M 41,92 55.570156,85.388603"
     id="SvgjsLine1053" />
  <path
     style="stroke:#eeeeee;stroke-width:0.75"
     d="M 41,92 55.240963,87.288849"
     id="SvgjsLine1054" />
  <path
     style="stroke:#eeeeee;stroke-width:0.75"
     d="M 41,92 55.661053,88.829262"
     id="SvgjsLine1055" />
  <path
     style="stroke:#eeeeee;stroke-width:0.75"
     d="M 41,92 55.915024,90.405602"
     id="SvgjsLine1056" />
  <path
     style="stroke:#eeeeee;stroke-width:0.75"
     d="M 41,92 H 56"
     id="SvgjsLine1057" />
  <path
     style="fill:#000000;stroke:#eeeeee;stroke-width:0.75"
     d="M 54,92 A 13,13 0 0 1 41,105 13,13 0 0 1 28,92 13,13 0 0 1 41,79 13,13 0 0 1 54,92 Z"
     id="SvgjsCircle1058" />
  <path
     style="stroke:#eeeeee;stroke-width:0.75"
     d="M 41,142 H 57"
     id="SvgjsLine1059" />
  <path
     style="stroke:#eeeeee;stroke-width:0.75"
     d="m 41,142 14.915024,1.59441"
     id="SvgjsLine1060" />
  <path
     style="stroke:#eeeeee;stroke-width:0.75"
     d="m 41,142 14.661053,3.17075"
     id="SvgjsLine1061" />
  <path
     style="stroke:#eeeeee;stroke-width:0.75"
     d="m 41,142 14.240963,4.71115"
     id="SvgjsLine1062" />
  <path
     style="stroke:#eeeeee;stroke-width:0.75"
     d="m 41,142 13.659523,6.19818"
     id="SvgjsLine1063" />
  <path
     style="stroke:#eeeeee;stroke-width:0.75"
     d="m 41,142 13.784866,8.12265"
     id="SvgjsLine1064" />
  <path
     style="stroke:#eeeeee;stroke-width:0.75"
     d="m 41,142 12.040676,8.94551"
     id="SvgjsLine1065" />
  <path
     style="stroke:#eeeeee;stroke-width:0.75"
     d="m 41,142 11.021614,10.17468"
     id="SvgjsLine1066" />
  <path
     style="stroke:#eeeeee;stroke-width:0.75"
     d="m 41,142 9.87767,11.28856"
     id="SvgjsLine1067" />
  <path
     style="stroke:#eeeeee;stroke-width:0.75"
     d="m 41,142 8.621811,12.27454"
     id="SvgjsLine1068" />
  <path
     style="stroke:#eeeeee;stroke-width:0.75"
     d="m 41,142 7.752815,13.99622"
     id="SvgjsLine1069" />
  <path
     style="stroke:#eeeeee;stroke-width:0.75"
     d="m 41,142 -8.486736,13.56375"
     id="SvgjsLine1070" />
  <path
     style="stroke:#eeeeee;stroke-width:0.75"
     d="m 41,142 -9.262869,11.79828"
     id="SvgjsLine1071" />
  <path
     style="stroke:#eeeeee;stroke-width:0.75"
     d="M 41,142 30.535526,152.74686"
     id="SvgjsLine1072" />
  <path
     style="stroke:#eeeeee;stroke-width:0.75"
     d="m 41,142 -11.54751,9.57367"
     id="SvgjsLine1073" />
  <path
     style="stroke:#eeeeee;stroke-width:0.75"
     d="m 41,142 -12.499708,8.29201"
     id="SvgjsLine1074" />
  <path
     style="stroke:#eeeeee;stroke-width:0.75"
     d="m 41,142 -14.197634,7.37749"
     id="SvgjsLine1075" />
  <path
     style="stroke:#eeeeee;stroke-width:0.75"
     d="m 41,142 -13.970043,5.4624"
     id="SvgjsLine1076" />
  <path
     style="stroke:#eeeeee;stroke-width:0.75"
     d="m 41,142 -14.471518,3.94653"
     id="SvgjsLine1077" />
  <path
     style="stroke:#eeeeee;stroke-width:0.75"
     d="m 41,142 -14.809025,2.38596"
     id="SvgjsLine1078" />
  <path
     style="stroke:#eeeeee;stroke-width:0.75"
     d="m 41,142 -14.978741,0.79834"
     id="SvgjsLine1079" />
  <path
     style="stroke:#eeeeee;stroke-width:0.75"
     d="M 41,142 25.022676,141.14845"
     id="SvgjsLine1080" />
  <path
     style="stroke:#eeeeee;stroke-width:0.75"
     d="M 41,142 26.190975,139.61404"
     id="SvgjsLine1081" />
  <path
     style="stroke:#eeeeee;stroke-width:0.75"
     d="M 41,142 26.528482,138.05347"
     id="SvgjsLine1082" />
  <path
     style="stroke:#eeeeee;stroke-width:0.75"
     d="M 41,142 27.029957,136.5376"
     id="SvgjsLine1083" />
  <path
     style="stroke:#eeeeee;stroke-width:0.75"
     d="M 41,142 27.689718,135.08362"
     id="SvgjsLine1084" />
  <path
     style="stroke:#eeeeee;stroke-width:0.75"
     d="M 41,142 27.666977,133.1552"
     id="SvgjsLine1085" />
  <path
     style="stroke:#eeeeee;stroke-width:0.75"
     d="M 41,142 29.45249,132.42633"
     id="SvgjsLine1086" />
  <path
     style="stroke:#eeeeee;stroke-width:0.75"
     d="M 41,142 30.535526,131.25314"
     id="SvgjsLine1087" />
  <path
     style="stroke:#eeeeee;stroke-width:0.75"
     d="M 41,142 31.737131,130.20172"
     id="SvgjsLine1088" />
  <path
     style="stroke:#eeeeee;stroke-width:0.75"
     d="M 41,142 33.043686,129.28398"
     id="SvgjsLine1089" />
  <path
     style="stroke:#eeeeee;stroke-width:0.75"
     d="M 41,142 34.003082,127.61101"
     id="SvgjsLine1090" />
  <path
     style="stroke:#eeeeee;stroke-width:0.75"
     d="M 41,142 35.911419,127.8895"
     id="SvgjsLine1091" />
  <path
     style="stroke:#eeeeee;stroke-width:0.75"
     d="M 41,142 37.440098,127.42855"
     id="SvgjsLine1092" />
  <path
     style="stroke:#eeeeee;stroke-width:0.75"
     d="M 41,142 39.009117,127.13271"
     id="SvgjsLine1093" />
  <path
     style="stroke:#eeeeee;stroke-width:0.75"
     d="M 41,142 40.600693,127.00532"
     id="SvgjsLine1094" />
  <path
     style="stroke:#eeeeee;stroke-width:0.75"
     d="m 41,142 1.276577,-15.94899"
     id="SvgjsLine1095" />
  <path
     style="stroke:#eeeeee;stroke-width:0.75"
     d="m 41,142 2.779331,-14.74026"
     id="SvgjsLine1096" />
  <path
     style="stroke:#eeeeee;stroke-width:0.75"
     d="m 41,142 4.330379,-14.36133"
     id="SvgjsLine1097" />
  <path
     style="stroke:#eeeeee;stroke-width:0.75"
     d="m 41,142 5.832363,-13.81969"
     id="SvgjsLine1098" />
  <path
     style="stroke:#eeeeee;stroke-width:0.75"
     d="m 41,142 7.268265,-13.12144"
     id="SvgjsLine1099" />
  <path
     style="stroke:#eeeeee;stroke-width:0.75"
     d="m 41,142 9.196598,-13.09285"
     id="SvgjsLine1100" />
  <path
     style="stroke:#eeeeee;stroke-width:0.75"
     d="m 41,142 9.87767,-11.28856"
     id="SvgjsLine1101" />
  <path
     style="stroke:#eeeeee;stroke-width:0.75"
     d="M 41,142 52.021614,131.82532"
     id="SvgjsLine1102" />
  <path
     style="stroke:#eeeeee;stroke-width:0.75"
     d="m 41,142 12.040676,-8.94551"
     id="SvgjsLine1103" />
  <path
     style="stroke:#eeeeee;stroke-width:0.75"
     d="m 41,142 12.923309,-7.61499"
     id="SvgjsLine1104" />
  <path
     style="stroke:#eeeeee;stroke-width:0.75"
     d="m 41,142 14.570156,-6.61139"
     id="SvgjsLine1105" />
  <path
     style="stroke:#eeeeee;stroke-width:0.75"
     d="m 41,142 14.240963,-4.71115"
     id="SvgjsLine1106" />
  <path
     style="stroke:#eeeeee;stroke-width:0.75"
     d="m 41,142 14.661053,-3.17075"
     id="SvgjsLine1107" />
  <path
     style="stroke:#eeeeee;stroke-width:0.75"
     d="m 41,142 14.915024,-1.59441"
     id="SvgjsLine1108" />
  <path
     style="stroke:#eeeeee;stroke-width:0.75"
     d="M 41,142 H 56"
     id="SvgjsLine1109" />
  <path
     style="fill:#000000;stroke:#eeeeee;stroke-width:0.75"
     d="M 54,142 A 13,13 0 0 1 41,155 13,13 0 0 1 28,142 13,13 0 0 1 41,129 13,13 0 0 1 54,142 Z"
     id="SvgjsCircle1110" />
  <path
     style="stroke:#eeeeee;stroke-width:0.75"
     d="M 41,192 H 57"
     id="SvgjsLine1111" />
  <path
     style="stroke:#eeeeee;stroke-width:0.75"
     d="m 41,192 14.915024,1.59441"
     id="SvgjsLine1112" />
  <path
     style="stroke:#eeeeee;stroke-width:0.75"
     d="m 41,192 14.661053,3.17075"
     id="SvgjsLine1113" />
  <path
     style="stroke:#eeeeee;stroke-width:0.75"
     d="m 41,192 14.240963,4.71115"
     id="SvgjsLine1114" />
  <path
     style="stroke:#eeeeee;stroke-width:0.75"
     d="m 41,192 13.659523,6.19818"
     id="SvgjsLine1115" />
  <path
     style="stroke:#eeeeee;stroke-width:0.75"
     d="m 41,192 13.784866,8.12265"
     id="SvgjsLine1116" />
  <path
     style="stroke:#eeeeee;stroke-width:0.75"
     d="m 41,192 12.040676,8.94551"
     id="SvgjsLine1117" />
  <path
     style="stroke:#eeeeee;stroke-width:0.75"
     d="m 41,192 11.021614,10.17468"
     id="SvgjsLine1118" />
  <path
     style="stroke:#eeeeee;stroke-width:0.75"
     d="m 41,192 9.87767,11.28856"
     id="SvgjsLine1119" />
  <path
     style="stroke:#eeeeee;stroke-width:0.75"
     d="m 41,192 8.621811,12.27454"
     id="SvgjsLine1120" />
  <path
     style="stroke:#eeeeee;stroke-width:0.75"
     d="m 41,192 7.752815,13.99622"
     id="SvgjsLine1121" />
  <path
     style="stroke:#eeeeee;stroke-width:0.75"
     d="m 41,192 -8.486736,13.56375"
     id="SvgjsLine1122" />
  <path
     style="stroke:#eeeeee;stroke-width:0.75"
     d="m 41,192 -9.262869,11.79828"
     id="SvgjsLine1123" />
  <path
     style="stroke:#eeeeee;stroke-width:0.75"
     d="M 41,192 30.535526,202.74686"
     id="SvgjsLine1124" />
  <path
     style="stroke:#eeeeee;stroke-width:0.75"
     d="m 41,192 -11.54751,9.57367"
     id="SvgjsLine1125" />
  <path
     style="stroke:#eeeeee;stroke-width:0.75"
     d="m 41,192 -12.499708,8.29201"
     id="SvgjsLine1126" />
  <path
     style="stroke:#eeeeee;stroke-width:0.75"
     d="m 41,192 -14.197634,7.37749"
     id="SvgjsLine1127" />
  <path
     style="stroke:#eeeeee;stroke-width:0.75"
     d="m 41,192 -13.970043,5.4624"
     id="SvgjsLine1128" />
  <path
     style="stroke:#eeeeee;stroke-width:0.75"
     d="m 41,192 -14.471518,3.94653"
     id="SvgjsLine1129" />
  <path
     style="stroke:#eeeeee;stroke-width:0.75"
     d="m 41,192 -14.809025,2.38596"
     id="SvgjsLine1130" />
  <path
     style="stroke:#eeeeee;stroke-width:0.75"
     d="m 41,192 -14.978741,0.79834"
     id="SvgjsLine1131" />
  <path
     style="stroke:#eeeeee;stroke-width:0.75"
     d="M 41,192 25.022676,191.14845"
     id="SvgjsLine1132" />
  <path
     style="stroke:#eeeeee;stroke-width:0.75"
     d="M 41,192 26.190975,189.61404"
     id="SvgjsLine1133" />
  <path
     style="stroke:#eeeeee;stroke-width:0.75"
     d="M 41,192 26.528482,188.05347"
     id="SvgjsLine1134" />
  <path
     style="stroke:#eeeeee;stroke-width:0.75"
     d="M 41,192 27.029957,186.5376"
     id="SvgjsLine1135" />
  <path
     style="stroke:#eeeeee;stroke-width:0.75"
     d="M 41,192 27.689718,185.08362"
     id="SvgjsLine1136" />
  <path
     style="stroke:#eeeeee;stroke-width:0.75"
     d="M 41,192 27.666977,183.1552"
     id="SvgjsLine1137" />
  <path
     style="stroke:#eeeeee;stroke-width:0.75"
     d="M 41,192 29.45249,182.42633"
     id="SvgjsLine1138" />
  <path
     style="stroke:#eeeeee;stroke-width:0.75"
     d="M 41,192 30.535526,181.25314"
     id="SvgjsLine1139" />
  <path
     style="stroke:#eeeeee;stroke-width:0.75"
     d="M 41,192 31.737131,180.20172"
     id="SvgjsLine1140" />
  <path
     style="stroke:#eeeeee;stroke-width:0.75"
     d="M 41,192 33.043686,179.28398"
     id="SvgjsLine1141" />
  <path
     style="stroke:#eeeeee;stroke-width:0.75"
     d="M 41,192 34.003082,177.61101"
     id="SvgjsLine1142" />
  <path
     style="stroke:#eeeeee;stroke-width:0.75"
     d="M 41,192 35.911419,177.8895"
     id="SvgjsLine1143" />
  <path
     style="stroke:#eeeeee;stroke-width:0.75"
     d="M 41,192 37.440098,177.42856"
     id="SvgjsLine1144" />
  <path
     style="stroke:#eeeeee;stroke-width:0.75"
     d="M 41,192 39.009117,177.13271"
     id="SvgjsLine1145" />
  <path
     style="stroke:#eeeeee;stroke-width:0.75"
     d="M 41,192 40.600693,177.00531"
     id="SvgjsLine1146" />
  <path
     style="stroke:#eeeeee;stroke-width:0.75"
     d="m 41,192 1.276577,-15.94899"
     id="SvgjsLine1147" />
  <path
     style="stroke:#eeeeee;stroke-width:0.75"
     d="m 41,192 2.779331,-14.74026"
     id="SvgjsLine1148" />
  <path
     style="stroke:#eeeeee;stroke-width:0.75"
     d="m 41,192 4.330379,-14.36133"
     id="SvgjsLine1149" />
  <path
     style="stroke:#eeeeee;stroke-width:0.75"
     d="m 41,192 5.832363,-13.81969"
     id="SvgjsLine1150" />
  <path
     style="stroke:#eeeeee;stroke-width:0.75"
     d="m 41,192 7.268265,-13.12144"
     id="SvgjsLine1151" />
  <path
     style="stroke:#eeeeee;stroke-width:0.75"
     d="m 41,192 9.196598,-13.09285"
     id="SvgjsLine1152" />
  <path
     style="stroke:#eeeeee;stroke-width:0.75"
     d="m 41,192 9.87767,-11.28856"
     id="SvgjsLine1153" />
  <path
     style="stroke:#eeeeee;stroke-width:0.75"
     d="M 41,192 52.021614,181.82532"
     id="SvgjsLine1154" />
  <path
     style="stroke:#eeeeee;stroke-width:0.75"
     d="m 41,192 12.040676,-8.94551"
     id="SvgjsLine1155" />
  <path
     style="stroke:#eeeeee;stroke-width:0.75"
     d="m 41,192 12.923309,-7.61499"
     id="SvgjsLine1156" />
  <path
     style="stroke:#eeeeee;stroke-width:0.75"
     d="m 41,192 14.570156,-6.61139"
     id="SvgjsLine1157" />
  <path
     style="stroke:#eeeeee;stroke-width:0.75"
     d="m 41,192 14.240963,-4.71115"
     id="SvgjsLine1158" />
  <path
     style="stroke:#eeeeee;stroke-width:0.75"
     d="m 41,192 14.661053,-3.17075"
     id="SvgjsLine1159" />
  <path
     style="stroke:#eeeeee;stroke-width:0.75"
     d="m 41,192 14.915024,-1.59441"
     id="SvgjsLine1160" />
  <path
     style="stroke:#eeeeee;stroke-width:0.75"
     d="M 41,192 H 56"
     id="SvgjsLine1161" />
  <path
     style="fill:#000000;stroke:#eeeeee;stroke-width:0.75"
     d="M 54,192 A 13,13 0 0 1 41,205 13,13 0 0 1 28,192 13,13 0 0 1 41,179 13,13 0 0 1 54,192 Z"
     id="SvgjsCircle1162" />
  <path
     style="stroke:#eeeeee;stroke-width:0.75"
     d="M 41,242 H 57"
     id="SvgjsLine1163" />
  <path
     style="stroke:#eeeeee;stroke-width:0.75"
     d="m 41,242 14.915024,1.59441"
     id="SvgjsLine1164" />
  <path
     style="stroke:#eeeeee;stroke-width:0.75"
     d="m 41,242 14.661053,3.17075"
     id="SvgjsLine1165" />
  <path
     style="stroke:#eeeeee;stroke-width:0.75"
     d="m 41,242 14.240963,4.71115"
     id="SvgjsLine1166" />
  <path
     style="stroke:#eeeeee;stroke-width:0.75"
     d="m 41,242 13.659523,6.19818"
     id="SvgjsLine1167" />
  <path
     style="stroke:#eeeeee;stroke-width:0.75"
     d="m 41,242 13.784866,8.12265"
     id="SvgjsLine1168" />
  <path
     style="stroke:#eeeeee;stroke-width:0.75"
     d="m 41,242 12.040676,8.94551"
     id="SvgjsLine1169" />
  <path
     style="stroke:#eeeeee;stroke-width:0.75"
     d="m 41,242 11.021614,10.17468"
     id="SvgjsLine1170" />
  <path
     style="stroke:#eeeeee;stroke-width:0.75"
     d="m 41,242 9.87767,11.28856"
     id="SvgjsLine1171" />
  <path
     style="stroke:#eeeeee;stroke-width:0.75"
     d="m 41,242 8.621811,12.27454"
     id="SvgjsLine1172" />
  <path
     style="stroke:#eeeeee;stroke-width:0.75"
     d="m 41,242 7.752815,13.99622"
     id="SvgjsLine1173" />
  <path
     style="stroke:#eeeeee;stroke-width:0.75"
     d="m 41,242 -8.486736,13.56375"
     id="SvgjsLine1174" />
  <path
     style="stroke:#eeeeee;stroke-width:0.75"
     d="m 41,242 -9.262869,11.79828"
     id="SvgjsLine1175" />
  <path
     style="stroke:#eeeeee;stroke-width:0.75"
     d="M 41,242 30.535526,252.74686"
     id="SvgjsLine1176" />
  <path
     style="stroke:#eeeeee;stroke-width:0.75"
     d="m 41,242 -11.54751,9.57367"
     id="SvgjsLine1177" />
  <path
     style="stroke:#eeeeee;stroke-width:0.75"
     d="m 41,242 -12.499708,8.29201"
     id="SvgjsLine1178" />
  <path
     style="stroke:#eeeeee;stroke-width:0.75"
     d="m 41,242 -14.197634,7.37749"
     id="SvgjsLine1179" />
  <path
     style="stroke:#eeeeee;stroke-width:0.75"
     d="m 41,242 -13.970043,5.4624"
     id="SvgjsLine1180" />
  <path
     style="stroke:#eeeeee;stroke-width:0.75"
     d="m 41,242 -14.471518,3.94653"
     id="SvgjsLine1181" />
  <path
     style="stroke:#eeeeee;stroke-width:0.75"
     d="m 41,242 -14.809025,2.38596"
     id="SvgjsLine1182" />
  <path
     style="stroke:#eeeeee;stroke-width:0.75"
     d="m 41,242 -14.978741,0.79834"
     id="SvgjsLine1183" />
  <path
     style="stroke:#eeeeee;stroke-width:0.75"
     d="M 41,242 25.022676,241.14845"
     id="SvgjsLine1184" />
  <path
     style="stroke:#eeeeee;stroke-width:0.75"
     d="M 41,242 26.190975,239.61404"
     id="SvgjsLine1185" />
  <path
     style="stroke:#eeeeee;stroke-width:0.75"
     d="M 41,242 26.528482,238.05347"
     id="SvgjsLine1186" />
  <path
     style="stroke:#eeeeee;stroke-width:0.75"
     d="M 41,242 27.029957,236.5376"
     id="SvgjsLine1187" />
  <path
     style="stroke:#eeeeee;stroke-width:0.75"
     d="M 41,242 27.689718,235.08362"
     id="SvgjsLine1188" />
  <path
     style="stroke:#eeeeee;stroke-width:0.75"
     d="M 41,242 27.666977,233.1552"
     id="SvgjsLine1189" />
  <path
     style="stroke:#eeeeee;stroke-width:0.75"
     d="M 41,242 29.45249,232.42633"
     id="SvgjsLine1190" />
  <path
     style="stroke:#eeeeee;stroke-width:0.75"
     d="M 41,242 30.535526,231.25314"
     id="SvgjsLine1191" />
  <path
     style="stroke:#eeeeee;stroke-width:0.75"
     d="M 41,242 31.737131,230.20172"
     id="SvgjsLine1192" />
  <path
     style="stroke:#eeeeee;stroke-width:0.75"
     d="M 41,242 33.043686,229.28398"
     id="SvgjsLine1193" />
  <path
     style="stroke:#eeeeee;stroke-width:0.75"
     d="M 41,242 34.003082,227.61101"
     id="SvgjsLine1194" />
  <path
     style="stroke:#eeeeee;stroke-width:0.75"
     d="M 41,242 35.911419,227.8895"
     id="SvgjsLine1195" />
  <path
     style="stroke:#eeeeee;stroke-width:0.75"
     d="M 41,242 37.440098,227.42856"
     id="SvgjsLine1196" />
  <path
     style="stroke:#eeeeee;stroke-width:0.75"
     d="M 41,242 39.009117,227.13271"
     id="SvgjsLine1197" />
  <path
     style="stroke:#eeeeee;stroke-width:0.75"
     d="M 41,242 40.600693,227.00531"
     id="SvgjsLine1198" />
  <path
     style="stroke:#eeeeee;stroke-width:0.75"
     d="m 41,242 1.276577,-15.94899"
     id="SvgjsLine1199" />
  <path
     style="stroke:#eeeeee;stroke-width:0.75"
     d="m 41,242 2.779331,-14.74026"
     id="SvgjsLine1200" />
  <path
     style="stroke:#eeeeee;stroke-width:0.75"
     d="m 41,242 4.330379,-14.36133"
     id="SvgjsLine1201" />
  <path
     style="stroke:#eeeeee;stroke-width:0.75"
     d="m 41,242 5.832363,-13.81969"
     id="SvgjsLine1202" />
  <path
     style="stroke:#eeeeee;stroke-width:0.75"
     d="m 41,242 7.268265,-13.12144"
     id="SvgjsLine1203" />
  <path
     style="stroke:#eeeeee;stroke-width:0.75"
     d="m 41,242 9.196598,-13.09285"
     id="SvgjsLine1204" />
  <path
     style="stroke:#eeeeee;stroke-width:0.75"
     d="m 41,242 9.87767,-11.28856"
     id="SvgjsLine1205" />
  <path
     style="stroke:#eeeeee;stroke-width:0.75"
     d="M 41,242 52.021614,231.82532"
     id="SvgjsLine1206" />
  <path
     style="stroke:#eeeeee;stroke-width:0.75"
     d="m 41,242 12.040676,-8.94551"
     id="SvgjsLine1207" />
  <path
     style="stroke:#eeeeee;stroke-width:0.75"
     d="m 41,242 12.923309,-7.61499"
     id="SvgjsLine1208" />
  <path
     style="stroke:#eeeeee;stroke-width:0.75"
     d="m 41,242 14.570156,-6.61139"
     id="SvgjsLine1209" />
  <path
     style="stroke:#eeeeee;stroke-width:0.75"
     d="m 41,242 14.240963,-4.71115"
     id="SvgjsLine1210" />
  <path
     style="stroke:#eeeeee;stroke-width:0.75"
     d="m 41,242 14.661053,-3.17075"
     id="SvgjsLine1211" />
  <path
     style="stroke:#eeeeee;stroke-width:0.75"
     d="m 41,242 14.915024,-1.59441"
     id="SvgjsLine1212" />
  <path
     style="stroke:#eeeeee;stroke-width:0.75"
     d="M 41,242 H 56"
     id="SvgjsLine1213" />
  <path
     style="fill:#000000;stroke:#eeeeee;stroke-width:0.75"
     d="M 54,242 A 13,13 0 0 1 41,255 13,13 0 0 1 28,242 13,13 0 0 1 41,229 13,13 0 0 1 54,242 Z"
     id="SvgjsCircle1214" />
</svg>
