<svg xmlns:osb="http://www.openswatchbook.org/uri/2009/osb" xmlns="http://www.w3.org/2000/svg" xmlns:xlink="http://www.w3.org/1999/xlink" height="380" style="zoom:8" cursor="default" id="SvgjsSvg1006" width="45"><defs id="SvgjsDefs1007"><linearGradient id="linearGradient838"><stop offset="0" id="stop834" stop-color="#ff8600"/><stop offset="1" id="stop836" stop-color="#ff8600" stop-opacity="0"/></linearGradient><linearGradient id="linearGradient2396" osb:paint="gradient"><stop offset="0" id="stop2392" stop-color="#ff8f00"/><stop offset="1" id="stop2394" stop-color="#ff8f00" stop-opacity="0"/></linearGradient><linearGradient id="linearGradient2384" osb:paint="solid"><stop offset="0" id="stop2382" stop-color="#ff8f00"/></linearGradient><linearGradient id="linearGradient898" osb:paint="solid"><stop offset="0" id="stop896" stop-color="#ff8f00"/></linearGradient><linearGradient id="linearGradient915"><stop offset="0" id="stop911" stop-color="#404040"/><stop offset="1" id="stop913" stop-color="#202020"/></linearGradient><linearGradient xlink:href="#linearGradient915" id="linearGradient919" y1="190" x2="45" y2="190" gradientUnits="userSpaceOnUse"/><style id="OpenSans_Google_Webfont_import">@import url(https://fonts.googleapis.com/css?family=Open+Sans:600);</style><linearGradient xlink:href="#linearGradient838" id="linearGradient840" x1="19.992" y1="333.24" x2="27.785" y2="400.33" gradientUnits="userSpaceOnUse"/></defs><path d="M0 0h45v380H0z" id="SvgjsRect1008" fill="url(#linearGradient919)"/><path d="M41.005 342.877c-1.493-4.604-4.104-9.047-7.188-12.896-.426-.524-1.97-1.907-1.97-1.907 1.323 3.052 1.24 6.218.574 9.077-3.605-7.348-9.923-16.546-19.425-21.402 0 0 6.325 14.268-2.7 30.012-.498-2.122-1.004-5.171-.732-8.193 0 0-1.14.866-1.273.992-1.017.963-1.87 2.089-2.621 3.25-2.74 4.36-4.183 9.628-3.826 14.926.133 2.004.51 4.006 1.022 5.978 1.584 6.315 5.226 12.935 10.628 15.97-1.7-2.855-2.737-6.571-2.737-10.645 0-1.69.178-3.33.514-4.862.038.678.152 1.377.34 2.09.725 2.747 2.396 4.935 4.293 5.936-.858-2.22-1.167-5.153-.707-8.293.333-2.314 1.028-4.424 1.974-6.157 1.048-1.965 2.398-3.444 3.853-4.178-.606 1.026-1.06 2.353-1.294 3.85-.092.576-.145 1.18-.165 1.808-.009.142-.009.287-.009.442 0 .387.013.773.05 1.147.13 1.781.571 3.372 1.227 4.605l.104.189c.325.543.86.92 1.475.993h.006c.06.005.13.01.198.01.019 0 .043 0 .06-.005.929-.025 1.7-.762 1.908-1.739a2.5 2.5 0 0 0 .054-.496v-.037a8.53 8.53 0 0 0-.144-2.254 8.431 8.431 0 0 0-.314-1.202 8.222 8.222 0 0 0-.593-1.371c.38.07.762.18 1.13.348 1.404.61 2.66 1.854 3.53 3.489.144.278.279.567.397.87a10.21 10.21 0 0 1 .717 2.961c.382-.72.73-1.51 1.029-2.348.575-1.574.908-3.101 1.01-4.44 1.085 2.502 1.714 5.467 1.714 8.643 0 4.145-1.073 7.913-2.827 10.788a18.136 18.136 0 0 0 2.588-1.588c3.051-2.208 5.203-5.629 6.594-9.334.783-2.027 1.553-4.29 1.924-6.423 1.1-6.184 1.426-12.74-.388-18.604z" id="path2" stroke-width=".695" fill="url(#linearGradient840)"/><g aria-label="DTMF" id="text5" font-size="12" font-family="Open Sans" text-anchor="middle" fill="#eee" text-rendering="geometricPrecision"><path d="M7.94 17.225v6.802h1.43q1.81 0 2.648-.82.843-.82.843-2.59 0-1.758-.843-2.572-.838-.82-2.649-.82zm-1.184-.973h2.431q2.543 0 3.733 1.06 1.19 1.055 1.19 3.305 0 2.262-1.196 3.322Q11.72 25 9.188 25H6.755z" id="path837"/><path d="M14.777 16.252h7.4v.996h-3.105V25h-1.19v-7.752h-3.105z" id="path839"/><path d="M23.326 16.252h1.764l2.232 5.953 2.244-5.953h1.764V25h-1.154v-7.682l-2.256 6h-1.19l-2.255-6V25h-1.149z" id="path841"/><path d="M33.686 16.252h5.027v.996h-3.844v2.578h3.469v.996h-3.469V25h-1.183z" id="path843"/></g><g aria-label="GATE" id="text7" font-size="8" font-family="Open Sans" text-anchor="middle" fill="#eee" text-rendering="geometricPrecision"><path d="M16.762 66.168v-1.566h-1.29v-.649h2.071v2.504q-.457.324-1.008.492-.55.164-1.176.164-1.367 0-2.14-.797-.77-.8-.77-2.226 0-1.43.77-2.227.773-.8 2.14-.8.57 0 1.082.14.516.14.95.414v.84q-.438-.371-.93-.559-.492-.187-1.035-.187-1.07 0-1.61.598-.535.597-.535 1.78 0 1.18.535 1.778.54.598 1.61.598.418 0 .746-.07.328-.075.59-.227z" id="path846"/><path d="M20.938 61.945l-1.07 2.903h2.144zm-.446-.777h.895L23.609 67h-.82l-.531-1.496h-2.63L19.099 67h-.832z" id="path848"/><path d="M23.023 61.168h4.934v.664h-2.07V67h-.793v-5.168h-2.07z" id="path850"/><path d="M28.723 61.168h3.687v.664h-2.898v1.727h2.777v.664h-2.777v2.113h2.968V67h-3.757z" id="path852"/></g><g aria-label="V/OCT" id="text29" font-size="8" font-family="Open Sans" text-anchor="middle" fill="#eee" text-rendering="geometricPrecision"><path d="M12.313 117l-2.227-5.832h.824l1.848 4.91 1.851-4.91h.82L13.208 117z" id="path855"/><path d="M17.523 111.168h.665l-2.032 6.574h-.664z" id="path857"/><path d="M21.348 111.703q-.86 0-1.368.64-.503.641-.503 1.747 0 1.101.503 1.742.508.64 1.368.64.859 0 1.359-.64.504-.64.504-1.742 0-1.106-.504-1.746-.5-.64-1.36-.64zm0-.64q1.226 0 1.96.824.735.82.735 2.203 0 1.379-.734 2.203-.735.82-1.961.82-1.23 0-1.97-.82-.733-.82-.733-2.203t.734-2.203q.738-.825 1.969-.825z" id="path859"/><path d="M29.645 111.617v.832q-.399-.37-.852-.554-.45-.184-.957-.184-1 0-1.531.613-.532.61-.532 1.766 0 1.152.532 1.765.53.61 1.53.61.509 0 .958-.184.453-.183.852-.554v.824q-.415.281-.88.422-.46.14-.976.14-1.324 0-2.086-.808-.762-.813-.762-2.215 0-1.406.762-2.215.762-.812 2.086-.812.523 0 .984.14.465.137.872.414z" id="path861"/><path d="M30.063 111.168h4.933v.664h-2.07V117h-.793v-5.168h-2.07z" id="path863"/></g><g aria-label="OUT" id="text26" font-size="8" font-family="Open Sans" text-anchor="middle" fill="#eee" text-rendering="geometricPrecision"><path d="M17.129 161.703q-.86 0-1.367.64-.504.641-.504 1.747 0 1.101.504 1.742.508.64 1.367.64.86 0 1.36-.64.503-.64.503-1.742 0-1.106-.504-1.746-.5-.64-1.36-.64zm0-.64q1.226 0 1.96.824.735.82.735 2.203 0 1.379-.734 2.203-.735.82-1.961.82-1.23 0-1.969-.82-.734-.82-.734-2.203t.734-2.203q.738-.825 1.969-.825z" id="path866"/><path d="M20.969 161.168h.793v3.543q0 .937.34 1.351.34.41 1.101.41.758 0 1.098-.41.34-.414.34-1.351v-3.543h.793v3.64q0 1.141-.567 1.723-.562.582-1.664.582-1.105 0-1.672-.582-.562-.582-.562-1.722z" id="path868"/><path d="M26.11 161.168h4.933v.664h-2.07V167h-.793v-5.168h-2.07z" id="path870"/></g></svg>