<?xml version="1.0" encoding="UTF-8" standalone="no"?>
<svg
   xmlns:osb="http://www.openswatchbook.org/uri/2009/osb"
   xmlns:dc="http://purl.org/dc/elements/1.1/"
   xmlns:cc="http://creativecommons.org/ns#"
   xmlns:rdf="http://www.w3.org/1999/02/22-rdf-syntax-ns#"
   xmlns:svg="http://www.w3.org/2000/svg"
   xmlns="http://www.w3.org/2000/svg"
   xmlns:xlink="http://www.w3.org/1999/xlink"
   xmlns:sodipodi="http://sodipodi.sourceforge.net/DTD/sodipodi-0.dtd"
   xmlns:inkscape="http://www.inkscape.org/namespaces/inkscape"
   id="SvgjsSvg1006"
   width="45"
   height="380"
   version="1.1"
   sodipodi:docname="Eq.svg"
   inkscape:version="0.92.2 5c3e80d, 2017-08-06">
  <metadata
     id="metadata7215">
    <rdf:RDF>
      <cc:Work
         rdf:about="">
        <dc:format>image/svg+xml</dc:format>
        <dc:type
           rdf:resource="http://purl.org/dc/dcmitype/StillImage" />
        <dc:title />
      </cc:Work>
    </rdf:RDF>
  </metadata>
  <sodipodi:namedview
     pagecolor="#ffffff"
     bordercolor="#666666"
     borderopacity="1"
     objecttolerance="10"
     gridtolerance="10"
     guidetolerance="10"
     inkscape:pageopacity="0"
     inkscape:pageshadow="2"
     inkscape:window-width="901"
     inkscape:window-height="1006"
     id="namedview7213"
     showgrid="false"
     inkscape:pagecheckerboard="true"
     inkscape:zoom="2.9512404"
     inkscape:cx="-12.295886"
     inkscape:cy="236.89764"
     inkscape:window-x="147"
     inkscape:window-y="35"
     inkscape:window-maximized="0"
     inkscape:current-layer="SvgjsSvg1006"
     inkscape:measure-start="21.6858,252.097"
     inkscape:measure-end="21.0081,301.907" />
  <defs
     id="SvgjsDefs1007">
    <linearGradient
       inkscape:collect="always"
       id="linearGradient2335">
      <stop
         style="stop-color:#000000;stop-opacity:1;"
         offset="0"
         id="stop2331" />
      <stop
         style="stop-color:#000000;stop-opacity:0;"
         offset="1"
         id="stop2333" />
    </linearGradient>
    <linearGradient
       id="linearGradient2303"
       osb:paint="solid">
      <stop
         style="stop-color:#ff4a00;stop-opacity:1;"
         offset="0"
         id="stop2301" />
    </linearGradient>
    <linearGradient
       inkscape:collect="always"
       xlink:href="#linearGradient2335"
       id="linearGradient2355"
       x1="-95.150146"
       y1="190.60844"
       x2="-61.168144"
       y2="190.60844"
       gradientUnits="userSpaceOnUse"
       gradientTransform="translate(100.94386,171.40468)" />
    <linearGradient
       inkscape:collect="always"
       xlink:href="#linearGradient2335"
       id="linearGradient2357"
       x1="-0.00027546287"
       y1="348.72168"
       x2="42.705563"
       y2="348.72168"
       gradientUnits="userSpaceOnUse"
       gradientTransform="translate(1.9988884)" />
    <linearGradient
       inkscape:collect="always"
       xlink:href="#linearGradient2303"
       id="linearGradient2373"
       gradientUnits="userSpaceOnUse"
       gradientTransform="translate(1.4991663,13.492497)"
       x1="0.99944663"
       y1="335.22919"
       x2="42.705283"
       y2="335.22919" />
    <linearGradient
       inkscape:collect="always"
       xlink:href="#linearGradient2303"
       id="linearGradient888"
       gradientUnits="userSpaceOnUse"
       gradientTransform="translate(1.4991663,13.492497)"
       x1="0.99944663"
       y1="335.22919"
       x2="42.705283"
       y2="335.22919" />
    <linearGradient
       inkscape:collect="always"
       xlink:href="#linearGradient2335"
       id="linearGradient890"
       gradientUnits="userSpaceOnUse"
       gradientTransform="translate(1.9988884)"
       x1="-0.00027546287"
       y1="348.72168"
       x2="42.705563"
       y2="348.72168" />
    <linearGradient
       inkscape:collect="always"
       xlink:href="#linearGradient2303"
       id="linearGradient892"
       gradientUnits="userSpaceOnUse"
       gradientTransform="translate(1.4991663,13.492497)"
       x1="0.99944663"
       y1="335.22919"
       x2="42.705283"
       y2="335.22919" />
    <linearGradient
       inkscape:collect="always"
       xlink:href="#linearGradient2335"
       id="linearGradient894"
       gradientUnits="userSpaceOnUse"
       gradientTransform="translate(1.9988884)"
       x1="-0.00027546287"
       y1="348.72168"
       x2="42.705563"
       y2="348.72168" />
    <linearGradient
       inkscape:collect="always"
       xlink:href="#linearGradient2303"
       id="linearGradient896"
       gradientUnits="userSpaceOnUse"
       gradientTransform="translate(1.4991663,13.492497)"
       x1="0.99944663"
       y1="335.22919"
       x2="42.705283"
       y2="335.22919" />
    <linearGradient
       inkscape:collect="always"
       xlink:href="#linearGradient2335"
       id="linearGradient898"
       gradientUnits="userSpaceOnUse"
       gradientTransform="translate(1.9988884)"
       x1="-0.00027546287"
       y1="348.72168"
       x2="42.705563"
       y2="348.72168" />
    <linearGradient
       inkscape:collect="always"
       xlink:href="#linearGradient2303"
       id="linearGradient900"
       gradientUnits="userSpaceOnUse"
       gradientTransform="translate(1.4991663,13.492497)"
       x1="0.99944663"
       y1="335.22919"
       x2="42.705283"
       y2="335.22919" />
    <linearGradient
       inkscape:collect="always"
       xlink:href="#linearGradient2335"
       id="linearGradient902"
       gradientUnits="userSpaceOnUse"
       gradientTransform="translate(1.9988884)"
       x1="-0.00027546287"
       y1="348.72168"
       x2="42.705563"
       y2="348.72168" />
    <linearGradient
       inkscape:collect="always"
       xlink:href="#linearGradient2303"
       id="linearGradient904"
       gradientUnits="userSpaceOnUse"
       gradientTransform="translate(1.4991663,13.492497)"
       x1="0.99944663"
       y1="335.22919"
       x2="42.705283"
       y2="335.22919" />
    <linearGradient
       inkscape:collect="always"
       xlink:href="#linearGradient2335"
       id="linearGradient906"
       gradientUnits="userSpaceOnUse"
       gradientTransform="translate(1.9988884)"
       x1="-0.00027546287"
       y1="348.72168"
       x2="42.705563"
       y2="348.72168" />
    <linearGradient
       inkscape:collect="always"
       xlink:href="#linearGradient2303"
       id="linearGradient908"
       gradientUnits="userSpaceOnUse"
       gradientTransform="translate(1.4991663,13.492497)"
       x1="0.99944663"
       y1="335.22919"
       x2="42.705283"
       y2="335.22919" />
    <linearGradient
       inkscape:collect="always"
       xlink:href="#linearGradient2335"
       id="linearGradient910"
       gradientUnits="userSpaceOnUse"
       gradientTransform="translate(1.9988884)"
       x1="-0.00027546287"
       y1="348.72168"
       x2="42.705563"
       y2="348.72168" />
    <linearGradient
       inkscape:collect="always"
       xlink:href="#linearGradient2303"
       id="linearGradient912"
       gradientUnits="userSpaceOnUse"
       gradientTransform="translate(1.4991663,13.492497)"
       x1="0.99944663"
       y1="335.22919"
       x2="42.705283"
       y2="335.22919" />
    <linearGradient
       inkscape:collect="always"
       xlink:href="#linearGradient2335"
       id="linearGradient914"
       gradientUnits="userSpaceOnUse"
       gradientTransform="translate(1.9988884)"
       x1="-0.00027546287"
       y1="348.72168"
       x2="42.705563"
       y2="348.72168" />
    <linearGradient
       inkscape:collect="always"
       xlink:href="#linearGradient2335"
       id="linearGradient916"
       gradientUnits="userSpaceOnUse"
       gradientTransform="translate(100.94386,171.40468)"
       x1="-95.150146"
       y1="190.60844"
       x2="-61.168144"
       y2="190.60844" />
    <linearGradient
       inkscape:collect="always"
       xlink:href="#linearGradient2335"
       id="linearGradient918"
       gradientUnits="userSpaceOnUse"
       gradientTransform="translate(100.94386,171.40468)"
       x1="-95.150146"
       y1="190.60844"
       x2="-61.168144"
       y2="190.60844" />
    <linearGradient
       inkscape:collect="always"
       xlink:href="#linearGradient2335"
       id="linearGradient920"
       gradientUnits="userSpaceOnUse"
       gradientTransform="translate(100.94386,171.40468)"
       x1="-95.150146"
       y1="190.60844"
       x2="-61.168144"
       y2="190.60844" />
    <linearGradient
       inkscape:collect="always"
       xlink:href="#linearGradient2335"
       id="linearGradient922"
       gradientUnits="userSpaceOnUse"
       gradientTransform="translate(100.94386,171.40468)"
       x1="-95.150146"
       y1="190.60844"
       x2="-61.168144"
       y2="190.60844" />
    <linearGradient
       inkscape:collect="always"
       xlink:href="#linearGradient2335"
       id="linearGradient924"
       gradientUnits="userSpaceOnUse"
       gradientTransform="translate(100.94386,171.40468)"
       x1="-95.150146"
       y1="190.60844"
       x2="-61.168144"
       y2="190.60844" />
    <linearGradient
       inkscape:collect="always"
       xlink:href="#linearGradient2335"
       id="linearGradient926"
       gradientUnits="userSpaceOnUse"
       gradientTransform="translate(100.94386,171.40468)"
       x1="-95.150146"
       y1="190.60844"
       x2="-61.168144"
       y2="190.60844" />
  </defs>
  <path
     style="fill:#d4bb0d;fill-opacity:1;stroke:#68242b;stroke-opacity:1"
     d="M 0,0 H 45 V 380 H 0 Z"
     id="SvgjsRect1008" />
  <g
     aria-label="Charred"
     style="font-style:normal;font-variant:normal;font-weight:normal;font-stretch:normal;font-size:5.33333349px;line-height:1.25;font-family:Desert;-inkscape-font-specification:Desert;letter-spacing:0px;word-spacing:0px;opacity:1;fill:url(#linearGradient2373);fill-opacity:1;stroke:url(#linearGradient2357);stroke-opacity:1"
     id="text29"
     transform="translate(-0.67768112,-0.67768116)">
    <path
       d="m 8.8346131,349.96435 q -0.010667,0.58666 -0.010667,0.928 0,0.096 -0.096,0.096 -0.1066667,0 -0.1066667,-0.43734 -0.4906667,-0.0747 -0.4906667,-1.10933 0,-0.096 0.096,-0.096 0.1066666,0 0.1066666,0.21333 0,0.71467 0.2986667,0.78934 0.021333,-1.48267 0.021333,-1.52534 0,-0.10666 0.096,-0.10666 0.1066667,0 0.1066667,0.10666 0,0.33067 -0.010667,0.90667 0.1706667,-0.096 0.2133334,-0.352 0.042667,-0.224 0.128,-0.224 0.096,0 0.096,0.0747 0,0.48 -0.448,0.736 z m 1.6319999,-1.39734 H 2.4986129 v -0.21333 l 1.4293334,-0.448 q 0.2986666,0 0.96,0.21333 0.672,0.21334 0.9706667,0.21334 0.544,0 1.664,-0.192 1.1200001,-0.20267 1.6640001,-0.20267 0,0 1.2799999,0.416 z m -0.5866666,3.232 q -0.928,1.22667 -2.8053334,1.22667 -0.9813333,0 -1.824,-0.39467 -0.9280001,-0.42666 -1.3653334,-1.22666 l -0.224,0.24533 -0.16,-0.064 0.3413333,-0.24533 q -0.1173333,-0.352 -0.2453333,-0.704 -0.1706667,-0.416 -0.5226667,-0.448 l 0.064,-0.0853 h 0.2026667 v -0.0853 q 0,-0.29867 0.064,-0.94933 0.074667,-0.61867 0.053333,-0.94934 l -0.010667,-0.26666 -0.1706666,0.032 -0.064,-0.0747 q 0.2773333,-0.0427 0.4693333,-0.544 0.224,-0.608 0.3626667,-0.736 l -0.192,-0.256 v -0.128 l 0.064,-0.032 0.2346667,0.224 q 0,-0.0107 0.224,-0.26667 0.16,-0.192 0.16,-0.30933 0,-0.0533 -0.021333,-0.096 l 0.2133334,-0.0107 q 0.7253333,-0.672 1.6106667,-0.736 l 0.1706667,-0.40533 q 0.021333,-0.0107 0.042667,-0.0107 0.053333,-0.0107 0.053333,0.0747 0,0.10667 -0.1386667,0.32 0.5333333,0.096 1.0666667,0.18133 0.768,0.17067 0.8853334,0.416 l 0.256,-0.21333 0.1386666,0.064 -0.2346666,0.224 q 0.256,0.256 0.2986666,0.288 0.16,0.192 0.2133334,0.352 l 0.096,0.0427 0.3093333,-0.0533 0.021333,0.10667 q -0.042667,-0.032 -0.096,-0.032 -0.1280001,0 -0.2773334,0.224 -0.096,0.16 -0.192,0.30933 l 0.2346667,0.21334 -0.042667,0.128 q -0.192,-0.192 -0.5866667,-0.192 -0.3946667,0 -0.7466667,-0.352 l -0.1386666,0.16 -0.074667,-0.032 0.085333,-0.224 q -0.4053333,-0.416 -1.4506667,-0.416 -0.576,0 -1.0133333,0.78933 -0.2773334,0.64 -0.5653334,1.28 l 0.256,0.0747 0.064,0.096 -0.2986667,0.032 q -0.064,0.26666 -0.064,0.50133 0,0 0.032,0.23467 h 0.1813334 l 0.053333,0.0747 -0.085333,-0.0213 q -0.074667,0 -0.1493334,0.16 -0.074667,0.14933 -0.074667,0.23467 0,0.768 0.32,1.22666 0.2666667,0.37334 0.992,0.82134 l 0.256,-0.29867 0.074667,0.0427 -0.2346667,0.32 q 0.4053334,0.18133 0.9706667,0.18133 l -0.010667,-0.21333 0.074667,-0.032 q 0.042667,0.0747 0.096,0.14933 0.064,0.10667 0.128,0.10667 0.010667,0 0.1813334,-0.0533 0.1066666,-0.032 0.1706666,0.0213 0.256,-0.0853 0.7680001,-0.30934 l 0.085333,-0.30933 h 0.1386667 l -0.085333,0.192 0.042667,0.0747 q 0.224,-0.21334 0.8,-0.27734 l 0.288,-0.26666 h 0.1066667 l -0.2346667,0.27733 q 0.256,0.34133 0.256,0.416 0,0.0533 -0.021333,0.10667 z"
       style="font-size:10.66666698px;fill:url(#linearGradient888);fill-opacity:1;stroke:url(#linearGradient890);stroke-opacity:1"
       id="path2375"
       inkscape:connector-curvature="0" />
    <path
       d="m 16.59228,348.54568 -6.218667,0.0213 v -0.21333 l 0.736,-0.36267 1.130667,0.33067 q 0.512,0 1.557333,-0.20267 1.056,-0.20266 1.568,-0.20266 0,0 1.226667,0.416 z m -1.76,2.02667 q -0.01067,0.58666 -0.01067,0.91733 0,0.10667 -0.096,0.10667 -0.106667,0 -0.096,-0.43734 -0.48,-0.0853 -0.48,-1.10933 0,-0.096 0.096,-0.096 0.096,0 0.096,0.21333 0,0.704 0.288,0.78934 0.02133,-1.49334 0.02133,-1.536 0,-0.096 0.096,-0.096 0.096,0 0.096,0.096 0,0.34133 -0.01067,0.91733 0.16,-0.096 0.213333,-0.36267 0.04267,-0.224 0.117333,-0.224 0.096,0 0.096,0.0853 0,0.48 -0.426666,0.736 z m 1.322666,-1.46134 -0.352,0.16 -0.064,-0.0427 -0.128,0.11733 q 0,0.42667 0.16,1.312 0.170667,0.88533 0.170667,1.32267 0,0.43733 -0.16,0.736 -0.192,0.384 -0.597333,0.384 -0.810667,0 -0.810667,-1.056 0,-0.11734 0.01067,-0.24534 l -0.266667,-0.128 0.277333,-0.13866 q -0.01067,-0.0533 -0.01067,-0.512 0,-0.32 -0.096,-0.49067 l -0.16,0.0747 h -0.106667 l -0.07467,-0.13867 0.352,-0.24533 q -0.117333,-1.45067 -0.704,-1.45067 -0.501333,0 -1.034666,0.77867 l 0.426666,0.14933 -0.192,0.128 -0.256,-0.13867 q -0.117333,0.10667 -0.106666,1.13067 0.01067,0.62933 0.032,1.248 0,0.45867 -0.277334,0.77867 -0.277333,0.30933 -0.725333,0.30933 l -0.149333,-0.0107 q -0.298667,-0.40533 -0.298667,-0.65066 0,-0.256 0.07467,-0.75734 0.07467,-0.50133 0.07467,-0.74666 0,-0.17067 -0.149333,-0.27734 -0.234667,0.10667 -0.384,0.128 l -0.07467,-0.032 q 0.234667,-0.128 0.469334,-0.24533 0.202666,-0.13867 0.202666,-0.448 0,-0.896 -0.01067,-0.98133 -0.05333,-0.704 -0.298667,-0.8 0.096,-0.0533 0.234667,-0.0213 l 0.01067,-2.12266 -0.05333,-0.0533 -0.341333,-0.0533 -0.032,-0.13867 0.106666,-0.064 0.266667,0.0533 0.01067,-0.10667 q 0.01067,-0.21333 -0.106667,-0.46933 l -0.330667,0.16 -0.117333,-0.0107 -0.064,-0.10667 q 0.373333,-0.11733 0.48,-0.37333 0.106667,-0.26667 0.213333,-0.544 0.618667,-0.224 0.586667,-0.224 0.373333,0 0.64,0.544 l 0.330667,-0.16 0.064,0.0747 q -0.181334,0.20266 -0.394667,0.30933 0.01067,0.21333 0.04267,0.672 0.04267,0.448 0.04267,0.69333 0.138667,0.0747 0.405334,0.26667 l -0.202667,0.064 -0.138667,-0.0427 q -0.08533,0.34134 -0.08533,0.34134 l 0.02133,0.704 q 0.298667,-0.0533 0.853334,-0.27734 0.064,-0.24533 0.138666,-0.448 l 0.117334,0.0107 0.07467,0.10667 -0.149333,0.34133 q 0.416,0.10667 0.832,0.21333 0.362667,0.10667 0.576,0.30934 0.245333,0.23466 0.512,0.768 0.309333,-0.256 0.373333,-0.256 l 0.117334,0.0107 0.064,0.064 -0.512,0.34134 0.07467,0.20266 q 0.064,-0.0427 0.16,-0.0427 0.064,0 0.202667,0.0213 0.138667,0.0213 0.213333,0.0213 z"
       style="font-size:10.66666698px;fill:url(#linearGradient892);fill-opacity:1;stroke:url(#linearGradient894);stroke-opacity:1"
       id="path2377"
       inkscape:connector-curvature="0" />
    <path
       d="m 22.78178,348.52435 h -5.589333 q -0.106667,0.352 -0.362667,0.40533 l 0.01067,0.352 q 0,0.10667 -0.106667,0.10667 -0.064,0 -0.07467,-0.864 h -0.224 v -0.21334 l 0.16,-0.0427 q -0.32,-0.23467 -0.32,-0.72534 0,-0.096 0.08533,-0.096 0.07467,0 0.106666,0.23467 0.04267,0.27733 0.181334,0.384 l -0.01067,-0.97067 q 0,-0.10666 0.106667,-0.10666 0.05333,0 0.07467,1.216 l 0.256,-0.0747 q 0,-0.13867 0,-0.288 0.01067,-0.18133 0.106667,-0.18133 0.08533,0 0.064,0.42666 0.949333,-0.26666 0.949333,-0.26666 0.298667,0 0.938667,0.24533 0.650667,0.24533 0.949333,0.24533 0.181334,0 0.586667,-0.17066 0.405333,-0.17067 0.586667,-0.17067 0.266666,0 0.768,0.128 0.384,0.10667 0.757333,0.21333 z m -5.781333,0 H 16.82978 v 0.192 q 0.117333,-0.0427 0.170667,-0.192 z m 5.344,3.98933 q 0,0.192 -0.373334,0.352 -0.32,0.13867 -0.544,0.13867 -0.256,0 -0.810666,-0.39467 -0.512,0.448 -1.269334,0.448 -0.917333,0 -1.525333,-0.43733 -0.693333,-0.50134 -0.629333,-1.376 l -0.373334,-0.0853 0.192,-0.096 0.128,0.0427 0.096,-0.16 q -0.106666,-0.0853 -0.288,-0.27733 l 0.117334,-0.032 0.16,0.096 q 0.106666,-0.064 0.224,-0.29867 0.128,-0.24533 0.245333,-0.33067 0.245333,-0.17066 1.333333,-0.68266 l -0.01067,-0.21334 q 0.117333,0.13867 0.224,0.18134 0.02133,-0.0213 0.309333,-0.14934 0.234667,-0.10666 0.234667,-0.192 0,-0.096 -0.298667,-0.32 -0.288,-0.23466 -0.384,-0.23466 -0.256,0 -0.522667,0.48 -0.256,0.46933 -0.597333,0.46933 -0.629333,0 -0.565333,-0.87467 -0.07467,-0.096 -0.245334,-0.224 l 0.192,-0.032 0.117334,0.096 q 0.106666,-0.224 0.437333,-0.608 0.16,-0.0853 0.309333,-0.17066 0.256,-0.14934 0.256,-0.24534 0,-0.0213 -0.02133,-0.0427 l 0.138667,-0.032 0.181333,0.128 0.266667,-0.0213 q 0.32,-0.0213 0.821333,0.21334 0.512,0.224 0.757333,0.48 l 0.128,-0.0213 0.181334,0.0213 q -0.064,0.11733 -0.181334,0.192 0.405334,0.81066 0.405334,1.25866 l 0.224,-0.0213 0.170666,0.0747 q -0.01067,0.0107 -0.266666,0.096 -0.149334,0.0533 -0.149334,0.192 0,0.064 0.02133,0.224 0.02133,0.16 0.02133,0.24533 0.128,0.032 0.330667,0.13867 l -0.106667,0.064 -0.170667,-0.096 -0.096,0.13866 v 0.0427 q 0,0.11733 0.032,0.30933 0.04267,0.224 0.05333,0.29867 0.08533,0.16 0.277333,0.46933 0.266667,-0.18133 0.437333,-0.18133 0,0 0.117334,0.0427 -0.16,0.096 -0.48,0.27733 0,0.0747 0.384,0.26667 0.384,0.192 0.384,0.37333 z m -2.357334,-1.6 q 0,-0.0747 -0.01067,-0.27733 -0.01067,-0.17067 0,-0.27734 -0.501334,0.17067 -1.002667,0.34134 -0.746667,0.29866 -0.746667,0.53333 0,0.24533 0.181334,0.448 0.192,0.192 0.437333,0.23467 0.04267,0 0.064,0.032 0.032,0.032 0.064,0.032 0.330667,0 0.469333,-0.0533 0.149334,-0.064 0.373334,-0.29866 -0.16,-0.10667 -0.394667,-0.33067 0.170667,-0.0107 0.458667,0.18133 0.106666,-0.43733 0.106666,-0.56533 z"
       style="font-size:10.66666698px;fill:url(#linearGradient896);fill-opacity:1;stroke:url(#linearGradient898);stroke-opacity:1"
       id="path2379"
       inkscape:connector-curvature="0" />
    <path
       d="m 27.293114,348.54568 -4.565333,0.0213 v -0.21333 l 0.544,-0.36267 q 0.821333,0.33067 0.821333,0.33067 0.373334,0 1.141334,-0.20267 0.778666,-0.20266 1.152,-0.20266 0,0 0.906666,0.416 z m -1.290666,2.02667 q -0.01067,0.58666 -0.01067,0.928 0,0.096 -0.07467,0.096 -0.07467,0 -0.064,-0.43734 -0.352,-0.0853 -0.352,-1.10933 0,-0.096 0.07467,-0.096 0.064,0 0.064,0.21333 0,0.704 0.213333,0.78934 0.01067,-1.49334 0.01067,-1.536 0,-0.096 0.07467,-0.096 0.07467,0 0.07467,0.096 0,0.34133 -0.01067,0.91733 0.117333,-0.096 0.149333,-0.36267 0.032,-0.224 0.08533,-0.224 0.07467,0 0.07467,0.0853 0,0.48 -0.309333,0.736 z m 1.056,-2.79467 q -0.138667,0.224 -0.448,0.16 -0.05333,0.30933 -0.448,0.512 -0.544,0.27733 -0.629334,0.352 0.08533,0.096 0.234667,0.29867 l -0.096,0.0427 -0.245333,-0.14933 q -0.192,0.13867 -0.405334,0.68267 l 0.416,0.0853 q -0.08533,0.16 -0.202666,0.16 -0.05333,0 -0.224,-0.0533 -0.224,0.832 -0.224,1.216 l 0.07467,0.0747 q 0.128,0 0.309334,0.0427 -0.07467,0.0853 -0.213334,0.16 l -0.128,-0.0213 q -0.032,0.0427 -0.032,0.14933 0,0.096 0.032,0.27733 0.04267,0.18134 0.04267,0.27734 0,0.416 -0.170667,0.736 -0.213333,0.40533 -0.597333,0.40533 -0.544,0 -0.544,-0.87467 0,-0.16 0.02133,-0.30933 l -0.234666,-0.0213 q 0,0 -0.288001,0.11733 l -0.138666,-0.096 0.522667,-0.256 0.096,0.032 0.04267,-0.0747 q 0,-0.736 0,-1.48266 -0.02133,-0.928 -0.16,-1.44 -0.01067,-0.0427 -0.138666,-0.064 -0.128001,-0.0213 -0.128001,-0.10667 l 0.01067,-0.0427 q 0.149334,-0.064 0.234667,-0.11733 v -0.224 q 0,-0.0533 -0.04267,-0.18133 -0.04267,-0.128 -0.04267,-0.192 -0.309334,0 -0.426667,-0.256 l 0.07467,-0.064 q 0.117334,0.0213 0.298667,0.0853 0.469334,-0.352 0.832,-0.352 0.213334,0 0.341334,0.17067 0.128,0.17066 0.138666,0.384 0.512,-0.37334 0.906667,-0.50134 0.05333,-0.30933 0.192,-0.34133 l 0.064,0.032 q -0.08533,0.24533 -0.08533,0.24533 0,0.064 0.202666,0.0853 0.138667,0.0107 0.266667,0.032 0.16,0.0533 0.416,0.20266 0.213333,0.128 0.522667,0.20267 z"
       style="font-size:10.66666698px;fill:url(#linearGradient900);fill-opacity:1;stroke:url(#linearGradient902);stroke-opacity:1"
       id="path2381"
       inkscape:connector-curvature="0" />
    <path
       d="m 31.688946,348.54568 -4.565333,0.0213 v -0.21333 l 0.544,-0.36267 q 0.821333,0.33067 0.821333,0.33067 0.373334,0 1.141334,-0.20267 0.778666,-0.20266 1.152,-0.20266 0,0 0.906666,0.416 z m -1.290666,2.02667 q -0.01067,0.58666 -0.01067,0.928 0,0.096 -0.07467,0.096 -0.07467,0 -0.064,-0.43734 -0.352,-0.0853 -0.352,-1.10933 0,-0.096 0.07467,-0.096 0.064,0 0.064,0.21333 0,0.704 0.213333,0.78934 0.01067,-1.49334 0.01067,-1.536 0,-0.096 0.07467,-0.096 0.07467,0 0.07467,0.096 0,0.34133 -0.01067,0.91733 0.117333,-0.096 0.149333,-0.36267 0.032,-0.224 0.08533,-0.224 0.07467,0 0.07467,0.0853 0,0.48 -0.309333,0.736 z m 1.056,-2.79467 q -0.138667,0.224 -0.448,0.16 -0.05333,0.30933 -0.448,0.512 -0.544,0.27733 -0.629334,0.352 0.08533,0.096 0.234667,0.29867 l -0.096,0.0427 -0.245333,-0.14933 q -0.192,0.13867 -0.405334,0.68267 l 0.416,0.0853 q -0.08533,0.16 -0.202666,0.16 -0.05333,0 -0.224,-0.0533 -0.224,0.832 -0.224,1.216 l 0.07467,0.0747 q 0.128,0 0.309334,0.0427 -0.07467,0.0853 -0.213334,0.16 l -0.128,-0.0213 q -0.032,0.0427 -0.032,0.14933 0,0.096 0.032,0.27733 0.04267,0.18134 0.04267,0.27734 0,0.416 -0.170667,0.736 -0.213333,0.40533 -0.597333,0.40533 -0.544,0 -0.544,-0.87467 0,-0.16 0.02133,-0.30933 l -0.234666,-0.0213 q 0,0 -0.288,0.11733 l -0.138667,-0.096 0.522667,-0.256 0.096,0.032 0.04267,-0.0747 q 0,-0.736 0,-1.48266 -0.02133,-0.928 -0.16,-1.44 -0.01067,-0.0427 -0.138666,-0.064 -0.128,-0.0213 -0.128,-0.10667 l 0.01067,-0.0427 q 0.149334,-0.064 0.234667,-0.11733 v -0.224 q 0,-0.0533 -0.04267,-0.18133 -0.04267,-0.128 -0.04267,-0.192 -0.309334,0 -0.426667,-0.256 l 0.07467,-0.064 q 0.117333,0.0213 0.298666,0.0853 0.469334,-0.352 0.832,-0.352 0.213334,0 0.341334,0.17067 0.128,0.17066 0.138666,0.384 0.512,-0.37334 0.906667,-0.50134 0.05333,-0.30933 0.192,-0.34133 l 0.064,0.032 q -0.08533,0.24533 -0.08533,0.24533 0,0.064 0.202666,0.0853 0.138667,0.0107 0.266667,0.032 0.16,0.0533 0.416,0.20266 0.213333,0.128 0.522667,0.20267 z"
       style="font-size:10.66666698px;fill:url(#linearGradient904);fill-opacity:1;stroke:url(#linearGradient906);stroke-opacity:1"
       id="path2383"
       inkscape:connector-curvature="0" />
    <path
       d="m 37.727447,348.57768 h -5.237333 q -0.128,0.36267 -0.458667,0.416 v 0.37333 q 0,0.0427 -0.032,0.0747 -0.02133,0.032 -0.07467,0.032 l -0.106666,-0.10667 -0.01067,-0.78933 h -0.288 v -0.224 l 0.202667,-0.0533 q -0.405334,-0.23467 -0.405334,-0.74667 0,-0.096 0.117334,-0.096 l 0.096,0.0853 q 0.032,0.16 0.064,0.30934 0.032,0.14933 0.202666,0.24533 l -0.01067,-1.00267 q 0,-0.0427 0.032,-0.0747 0.032,-0.032 0.07467,-0.032 l 0.106667,0.10666 0.02133,1.13067 0.32,-0.0853 q 0,-0.128 0,-0.26667 0.02133,-0.192 0.117334,-0.192 l 0.106666,0.10667 v 0.29866 l 0.917334,-0.24533 1.472,0.512 1.504,-0.352 q 0,0 1.269333,0.352 z m -5.472,0 h -0.224 v 0.192 q 0.138667,-0.032 0.224,-0.192 z m 4.96,3.56267 q -0.213333,0.10666 -0.384,0.448 -0.04267,0.0107 -0.789333,0.352 -0.48,0.224 -0.821334,0.224 -1.344,0 -1.92,-0.34134 -0.64,-0.384 -1.034666,-1.536 l -0.213334,0.13867 -0.128,-0.064 v -0.10667 q 0.192,-0.0747 0.298667,-0.128 -0.117333,-0.53333 -0.117333,-0.78933 0,-0.736 0.426666,-1.49333 -0.07467,-0.0853 -0.341333,-0.37334 l 0.106667,-0.064 0.309333,0.192 q 0.096,-0.064 0.202667,-0.23466 l -0.128,-0.17067 v -0.128 l 0.106666,-0.032 0.149334,0.17067 q 0.426666,-0.416 1.013333,-0.65067 0.362667,-0.13867 1.162667,-0.32 0.01067,-0.0213 0.064,-0.24533 0.032,-0.13867 0.181333,-0.18134 l 0.106667,0.064 q -0.01067,0.0213 -0.181334,0.34134 0.16,0.128 0.693334,0.37333 0.416,0.192 0.586666,0.448 0.256,0.37333 0.256,1.10933 0,0.16 0.117334,0.21334 0.05333,0.0107 0.266666,0.0213 v 0.16 h -0.04267 q -0.181334,0 -0.394667,-0.10667 -0.181333,0.288 -0.373333,0.576 -0.213334,0.32 -0.458667,0.50134 l 0.08533,0.224 -0.096,0.0427 -0.170666,-0.18133 q -0.192,0.11733 -0.8,0.29867 -0.64,0.18133 -0.949334,0.18133 -0.096,0 -0.138666,-0.0213 l -0.05333,0.128 q 0.149334,0.32 0.256,0.42666 0.106667,0.10667 0.405334,0.192 0.064,-0.13866 0.202666,-0.40533 l 0.149334,0.0427 q -0.01067,0.0107 -0.181334,0.39466 0.277334,0.192 0.405334,0.192 0.106666,0 0.213333,-0.128 0.106667,-0.128 0.224,-0.16 l 0.07467,0.0427 q -0.07467,0.10667 -0.16,0.256 l 0.05333,0.0533 q 0.874667,-0.40533 1.034667,-0.40533 0.181333,0 0.384,0.17067 0.170666,0.14933 0.341333,0.288 z m -1.504,-3.09334 q 0,-0.064 -0.096,-0.0747 -0.064,0 -0.202667,0.0213 -0.128,0.0107 -0.149333,0.0107 -0.04267,0 -0.096,-0.0533 -0.04267,-0.0533 -0.04267,-0.096 0.181334,-0.032 0.522667,-0.10666 -0.106667,-0.13867 -0.352,-0.26667 -0.234667,-0.13867 -0.394667,-0.13867 -0.07467,0 -0.138666,0.064 l 0.01067,0.0427 q 0,0.0747 -0.05333,0.128 -0.032,0 -0.096,-0.032 -0.05333,-0.032 -0.08533,-0.032 -0.213334,0 -0.437334,0.24533 -0.192,0.20267 -0.288,0.43734 0.138667,0.032 0.309334,0.16 -0.05333,0.10666 -0.170667,0.10666 -0.064,0 -0.224,-0.0853 -0.05333,0.24533 -0.16,0.75733 0.032,0.0107 0.07467,0.0107 0.117333,0 0.341333,-0.0427 0.224,-0.0427 0.341333,-0.0427 0.08533,-0.096 0.48,-0.24534 0.437334,-0.16 0.608,-0.27733 0.298667,-0.20267 0.298667,-0.49067 z"
       style="font-size:10.66666698px;fill:url(#linearGradient908);fill-opacity:1;stroke:url(#linearGradient910);stroke-opacity:1"
       id="path2385"
       inkscape:connector-curvature="0" />
    <path
       d="m 44.204449,348.56701 h -5.525334 q -0.138666,0.36267 -0.48,0.416 v 0.36267 q 0,0.0427 -0.032,0.0747 -0.032,0.032 -0.08533,0.032 l -0.106667,-0.10667 -0.01067,-0.77867 h -0.309334 v -0.21333 l 0.213334,-0.0533 q -0.426667,-0.23467 -0.426667,-0.74667 0,-0.096 0.117333,-0.096 l 0.106667,0.0853 q 0.032,0.16 0.064,0.30934 0.04267,0.13866 0.224,0.24533 l -0.02133,-1.00267 q 0,-0.0427 0.032,-0.0747 0.04267,-0.032 0.08533,-0.032 l 0.117333,0.10666 0.02133,1.13067 0.341333,-0.0853 q 0,-0.13867 0,-0.27734 0.01067,-0.192 0.117333,-0.192 l 0.117334,0.10667 -0.01067,0.29867 0.970667,-0.23467 1.546667,0.512 1.589333,-0.36267 q 0,0 1.344,0.36267 z m -5.781334,0 h -0.234666 l 0.01067,0.192 q 0.149334,-0.032 0.224,-0.192 z m 5.450667,4.18134 q 0,0.16 -0.224,0.27733 -0.181333,0.10667 -0.352,0.10667 -0.458666,0 -1.184,-0.48 -0.618666,0.40533 -1.557333,0.40533 -0.554667,0 -1.269334,-0.45867 -0.768,-0.49066 -0.853333,-1.00266 l -0.224,0.23466 -0.096,-0.128 q 0.01067,-0.13866 0.277333,-0.24533 -0.202666,-0.49067 -0.202666,-1.14133 0,-0.384 0.07467,-0.82134 l -0.330666,-0.14933 0.01067,-0.16 0.106667,-0.064 0.213333,0.18133 h 0.08533 l 0.05333,-0.0533 v -0.192 l -0.298667,-0.11733 v -0.10667 h 0.32 q 0.362667,-0.71467 0.746667,-1.04533 l -0.245333,-0.23467 0.04267,-0.13867 0.309334,0.21334 q 0.384,-0.27734 0.96,-0.27734 0,0 0.501333,0.128 0.245334,-0.192 0.405334,-0.288 l 0.07467,0.13867 -0.192,0.17067 q 0.096,0.096 0.288,0.17066 0.277334,0.128 0.298667,0.14934 0.064,-0.33067 0.064,-0.512 0,-0.288 -0.04267,-0.69334 l -0.405333,-0.0427 q 0.245333,-0.0853 0.362667,-0.20267 0.02133,-0.32 0.05333,-0.64 0.032,-0.33067 0.192,-0.62933 l -0.266667,-0.23467 v -0.096 l 0.106667,-0.064 0.245333,0.23467 q 0.522667,-0.36267 0.714667,-0.36267 0.352,0 0.416,0.40533 0.032,0.33067 0.064,0.66134 -0.032,0.10666 -0.032,0.18133 0,0.13867 0.05333,0.18133 0.309334,-0.17066 0.309334,-0.17066 0.149333,0 0.170666,0.0853 -0.341333,0.24533 -0.533333,0.416 0.192,0.0213 0.554667,0.096 -0.07467,0.0747 -0.362667,0.128 -0.202667,0.032 -0.202667,0.21333 0,0.53334 0.032,1.41867 0.04267,1.09867 0.04267,1.42933 l 0.330667,0.0853 0.064,-0.0213 0.032,0.16 -0.117334,0.032 q -0.170666,-0.128 -0.309333,-0.096 l -0.02133,0.85334 q 0.032,0.0213 0.064,0.0427 0.064,-0.0107 0.07467,-0.0427 l 0.117334,0.0427 q -0.02133,0.0213 -0.170667,0.16 -0.08533,0.0853 -0.08533,0.21334 0,0.42666 0.373333,1.06666 l 0.181333,-0.17066 0.138667,0.0107 v 0.128 l -0.245333,0.17067 q 0.298666,0.37333 0.298666,0.49067 z m -2.005333,-1.888 q 0,-0.0213 -0.096,-0.48 -0.04267,-0.0213 -0.181333,-0.032 -0.07467,-0.0107 -0.149334,-0.0853 0.08533,-0.14933 0.341334,-0.096 -0.02133,-0.0853 -0.181334,-0.576 -0.032,0 -0.106666,0.0107 -0.064,0.0107 -0.096,0.0107 -0.08533,0 -0.128,-0.096 0.149333,-0.0427 0.245333,-0.13867 0,-0.224 -0.458667,-0.53333 -0.448,-0.32 -0.693333,-0.32 -0.501334,0 -0.501334,0.26666 0,0.0427 0.096,0.128 0.128,0.11734 0.149334,0.128 l -0.05333,0.0533 -0.149333,-0.0107 q -0.05333,-0.0533 -0.192,-0.14933 -0.330667,0.45866 -0.330667,0.88533 0,0.65067 0.181334,1.17333 0.266666,0.69334 0.789333,0.74667 0.064,0.0107 0.224,0.0747 0.16,0.0533 0.234667,0.0533 0.04267,0 0.266667,-0.10667 0.224,-0.11733 0.288,-0.11733 0.16,-0.0213 0.330666,-0.32 0.170667,-0.29867 0.170667,-0.46933 z"
       style="font-size:10.66666698px;fill:url(#linearGradient912);fill-opacity:1;stroke:url(#linearGradient914);stroke-opacity:1"
       id="path2387"
       inkscape:connector-curvature="0" />
  </g>
  <g
     aria-label="Desert"
     style="font-style:normal;font-variant:normal;font-weight:normal;font-stretch:normal;font-size:5.33333349px;line-height:1.25;font-family:Desert;-inkscape-font-specification:Desert;letter-spacing:0px;word-spacing:0px;fill:#000000;fill-opacity:1;stroke:url(#linearGradient2355)"
     id="text2345"
     transform="translate(0,-1.0165217)">
    <path
       d="M 14.464386,361.55978 H 7.4350523 q -0.1173334,0.36267 -0.4373334,0.416 v 0.36267 q 0,0.10667 -0.128,0.10667 -0.085333,0 -0.096,-0.39467 0,-0.24533 0,-0.49067 H 6.4963856 v -0.21333 l 0.2026666,-0.0533 q -0.4053333,-0.23467 -0.4053333,-0.74667 0,-0.096 0.1173333,-0.096 0.074667,0 0.128,0.24533 0.042667,0.288 0.224,0.39467 l -0.010667,-1.00267 q 0,-0.10666 0.128,-0.10666 0.085333,0 0.096,0.55466 0,0.352 0.010667,0.69334 l 0.3093333,-0.0747 q 0,-0.14933 0,-0.288 0.021333,-0.20267 0.1386667,-0.20267 0.1066666,0 0.074667,0.448 1.1946667,-0.27733 1.1946667,-0.27733 0.3733334,0 1.1840001,0.256 0.810666,0.256 1.184,0.256 0.224,0 0.736,-0.18133 0.512,-0.18134 0.736,-0.18134 0.330666,0 0.96,0.13867 0.48,0.10667 0.96,0.224 z m -7.2533337,0 h -0.224 l 0.010667,0.192 q 0.1386667,-0.032 0.213333,-0.192 z m 5.6639997,1.71734 -0.384,0.0853 q -0.117333,0.27733 -0.234666,0.55467 -0.149334,0.32 -0.309334,0.512 l 0.138667,0.27733 -0.202667,-0.18133 q -0.522666,0.512 -1.514666,0.98133 -1.0453337,0.49067 -1.7173337,0.49067 -0.9706667,0 -1.0133334,-1.00267 l -0.1706666,0.14933 -0.010667,-0.11733 q 0.1706667,-0.0747 0.1706667,-0.58667 0,-0.128 -0.032,-0.53333 -0.032,-0.34133 -0.010667,-0.53333 l -0.042667,-0.0427 -0.1493333,0.10667 -0.1386667,-0.032 0.2986667,-0.224 q 0,-0.0107 0,-0.544 -0.010667,-0.352 -0.2986667,-0.33067 0.256,-0.0213 0.256,-0.768 0,-0.68267 -0.128,-1.07733 l -0.042667,-0.0213 -0.32,0.21334 -0.085333,-0.16 q 0.1493334,-0.0533 0.4373334,-0.20267 0.1066666,-1.25867 0.1066666,-1.26933 l -0.224,-0.11734 0.2133334,-0.032 q 0.1066666,-0.21333 0.2026666,-0.71466 0.2453334,-0.14934 0.5546667,-0.224 l -0.042667,-0.14934 q 0.128,0.0853 0.2986666,0.10667 0.1173334,0.0213 0.32,0.0107 0.2560001,-0.0213 0.3200001,-0.0213 0.2346666,0 0.4373333,0.11734 l 0.128,-0.10667 H 9.803051 l -0.074667,0.13867 q 0.1386666,0.10666 0.448,0.18133 0.309333,0.064 0.437333,0.128 l 0.181333,-0.21333 0.08533,0.096 -0.128,0.128 q 0.725333,0.43733 1.418666,1.58933 l 0.117334,-0.10667 0.08533,0.064 -0.149333,0.16 q 0.07467,0.27734 0.16,0.55467 0.096,0.32 0.245333,0.50133 l -0.07467,0.13867 q 0.01067,0.0533 0.07467,0.72533 0.05333,0.52267 0.224,0.59734 l -0.08533,0.064 -0.128,-0.0533 -0.117334,0.59734 0.117334,-0.0107 h 0.234666 z m -1.397333,-0.544 -0.032,-0.064 -0.170667,0.10666 -0.04267,-0.0427 q 0.309333,-0.45867 0.309333,-0.672 0,-0.17067 -0.04267,-0.46934 -0.07467,-0.36266 -0.08533,-0.45866 l -0.16,-0.14934 0.096,-0.0213 q -0.245333,-0.88533 -0.96,-1.29067 l -0.096,0.16 -0.064,-0.096 0.07467,-0.17066 q -0.16,-0.0533 -0.4480003,-0.192 l -0.1066667,0.0427 -0.010667,0.17067 h -0.064 l -0.074667,-0.064 0.074667,-0.16 q -0.3946666,-0.16 -0.832,-0.16 0,0 -0.2133333,0.0213 0,1.728 0.1813333,2.88 l 0.3306667,-0.128 0.096,0.0213 v 0.064 q -0.1386667,0.064 -0.3733334,0.20266 l -0.053333,-0.0213 v 0.13867 q 0.021333,0.55466 0.021333,1.664 0.085333,0 0.1813334,0.0107 0.096,0.0107 0.1173333,0.0747 l -0.1173333,0.0747 -0.16,-0.0533 q -0.053333,0.256 -0.053333,0.36267 0,0.0853 0.053333,0.11733 0.053333,0.0213 0.074667,0.0427 0.7786667,0 1.7600003,-0.74667 l 0.05333,-0.17066 0.07467,0.0533 0.362666,-0.36267 -0.07467,-0.10666 0.170666,-0.0427 q 0.05333,-0.17067 0.202667,-0.56533 z"
       style="font-size:10.66666698px;opacity:0.56000001;fill:#df0000;fill-opacity:1;stroke:url(#linearGradient916)"
       id="path2390"
       inkscape:connector-curvature="0" />
    <path
       d="m 19.871053,361.57045 h -5.237334 q -0.128,0.36267 -0.458666,0.416 v 0.37333 q 0,0.0427 -0.032,0.0747 -0.02133,0.032 -0.07467,0.032 l -0.106667,-0.10667 -0.01067,-0.78933 h -0.288 v -0.224 l 0.202666,-0.0533 q -0.405333,-0.23467 -0.405333,-0.74667 0,-0.096 0.117333,-0.096 l 0.096,0.0853 q 0.032,0.16 0.064,0.30934 0.032,0.14933 0.202667,0.24533 l -0.01067,-1.00267 q 0,-0.0427 0.032,-0.0747 0.032,-0.032 0.07467,-0.032 l 0.106667,0.10666 0.02133,1.13067 0.32,-0.0853 q 0,-0.128 0,-0.26667 0.02133,-0.192 0.117333,-0.192 l 0.106667,0.10667 v 0.29866 l 0.917333,-0.24533 1.472,0.512 1.504,-0.352 q 0,0 1.269334,0.352 z m -5.472,0 h -0.224 v 0.192 q 0.138666,-0.032 0.224,-0.192 z m 4.96,3.56267 q -0.213334,0.10666 -0.384,0.448 -0.04267,0.0107 -0.789334,0.352 -0.48,0.224 -0.821333,0.224 -1.344,0 -1.92,-0.34134 -0.64,-0.384 -1.034667,-1.536 l -0.213333,0.13867 -0.128,-0.064 v -0.10667 q 0.192,-0.0747 0.298667,-0.128 -0.117334,-0.53333 -0.117334,-0.78933 0,-0.736 0.426667,-1.49333 -0.07467,-0.0853 -0.341333,-0.37334 l 0.106666,-0.064 0.309334,0.192 q 0.096,-0.064 0.202666,-0.23466 l -0.128,-0.17067 v -0.128 l 0.106667,-0.032 0.149333,0.17067 q 0.426667,-0.416 1.013334,-0.65067 0.362666,-0.13867 1.162666,-0.32 0.01067,-0.0213 0.064,-0.24533 0.032,-0.13867 0.181334,-0.18134 l 0.106666,0.064 q -0.01067,0.0213 -0.181333,0.34134 0.16,0.128 0.693333,0.37333 0.416,0.192 0.586667,0.448 0.256,0.37333 0.256,1.10933 0,0.16 0.117333,0.21334 0.05333,0.0107 0.266667,0.0213 v 0.16 h -0.04267 q -0.181333,0 -0.394666,-0.10667 -0.181334,0.288 -0.373334,0.576 -0.213333,0.32 -0.458666,0.50134 l 0.08533,0.224 -0.096,0.0427 -0.170667,-0.18133 q -0.192,0.11733 -0.8,0.29867 -0.64,0.18133 -0.949333,0.18133 -0.096,0 -0.138667,-0.0213 l -0.05333,0.128 q 0.149333,0.32 0.256,0.42666 0.106667,0.10667 0.405333,0.192 0.064,-0.13866 0.202667,-0.40533 l 0.149333,0.0427 q -0.01067,0.0107 -0.181333,0.39466 0.277333,0.192 0.405333,0.192 0.106667,0 0.213334,-0.128 0.106666,-0.128 0.224,-0.16 l 0.07467,0.0427 q -0.07467,0.10667 -0.16,0.256 l 0.05333,0.0533 q 0.874666,-0.40533 1.034666,-0.40533 0.181334,0 0.384,0.17067 0.170667,0.14933 0.341334,0.288 z m -1.504,-3.09334 q 0,-0.064 -0.096,-0.0747 -0.064,0 -0.202667,0.0213 -0.128,0.0107 -0.149333,0.0107 -0.04267,0 -0.096,-0.0533 -0.04267,-0.0533 -0.04267,-0.096 0.181333,-0.032 0.522667,-0.10666 -0.106667,-0.13867 -0.352,-0.26667 -0.234667,-0.13867 -0.394667,-0.13867 -0.07467,0 -0.138667,0.064 l 0.01067,0.0427 q 0,0.0747 -0.05333,0.128 -0.032,0 -0.096,-0.032 -0.05333,-0.032 -0.08533,-0.032 -0.213333,0 -0.437333,0.24533 -0.192,0.20267 -0.288,0.43734 0.138667,0.032 0.309333,0.16 -0.05333,0.10666 -0.170666,0.10666 -0.064,0 -0.224,-0.0853 -0.05333,0.24533 -0.16,0.75733 0.032,0.0107 0.07467,0.0107 0.117334,0 0.341334,-0.0427 0.224,-0.0427 0.341333,-0.0427 0.08533,-0.096 0.48,-0.24534 0.437333,-0.16 0.608,-0.27733 0.298667,-0.20267 0.298667,-0.49067 z"
       style="font-size:10.66666698px;opacity:0.56000001;fill:#df0000;fill-opacity:1;stroke:url(#linearGradient918)"
       id="path2392"
       inkscape:connector-curvature="0" />
    <path
       d="m 24.524053,361.51712 q -0.448,0 -0.48,0.0213 v 0.256 q 0,0.0747 -0.05333,0.0747 -0.064,0 -0.064,-0.352 l -4.138666,0.0107 v -0.20266 q 0.309333,-0.096 0.629333,-0.192 0.416,-0.128 0.629333,-0.128 0.04267,0 0.426667,0.17066 0.384,0.16 0.426667,0.16 0.213333,0 0.682666,-0.192 0.469334,-0.20266 0.682667,-0.20266 0,0 0.650667,0.192 v -0.0427 q -0.266667,-0.192 -0.266667,-0.55467 0,-0.064 0.05333,-0.064 0.05333,0 0.08533,0.17067 0.02133,0.20267 0.128,0.27733 l -0.01067,-0.704 q 0,-0.0747 0.064,-0.0747 0.05333,0 0.07467,1.024 l 0.138666,0.0427 q 0,-0.032 0.032,-0.34133 0.02133,-0.24533 0.064,-0.24533 0.08533,0 0.064,0.27733 -0.01067,0.21333 -0.04267,0.34133 l 0.224,0.064 z m -0.277334,3.50933 h -0.256 q 0,0 -0.170666,-0.0853 -0.02133,0.032 -0.181334,0.43733 -0.106666,0.24533 -0.288,0.384 -0.08533,0.064 -0.554666,0.192 -0.469334,0.128 -0.618667,0.128 -0.64,0 -1.152,-0.352 -0.512,-0.36267 -0.714667,-0.96 -0.117333,-0.0213 -0.362666,-0.064 l 0.181333,-0.16 0.16,0.032 q -0.02133,-0.24533 0.07467,-0.448 -0.128,-0.16 -0.224,-0.224 l 0.16,-0.192 q 0.064,0.10667 0.213333,0.30933 0.181333,-0.17066 0.32,-0.17066 0.202667,0 0.405333,0.288 0.341334,0.43733 0.426667,0.52266 0.309333,0.27734 0.736,0.27734 0.32,0 0.32,-0.59734 l -0.05333,-0.0427 -0.256,0.10666 -0.128,-0.0853 v -0.096 q 0.08533,-0.0533 0.298666,-0.13867 -0.170666,-0.39466 -0.981333,-1.14133 -0.693333,-0.65067 -0.736,-1.12 -0.07467,0.032 -0.16,0.032 -0.117333,0 -0.234667,-0.064 0.01067,-0.128 0.181334,-0.13867 0.181333,-0.0213 0.202666,-0.064 0.05333,-0.21333 0.202667,-0.64 l -0.106667,-0.096 v -0.21333 l 0.181334,-0.032 v 0.11733 l 0.07467,0.0533 q 0.07467,-0.14934 0.405334,-0.30934 0.298666,-0.13866 0.48,-0.13866 0.266666,0 0.992,0.30933 l 0.213333,-0.0853 0.064,0.064 q -0.04267,0.096 -0.170667,0.192 0.117334,0.34133 0.117334,0.34133 0,0.45867 -0.714667,0.45867 0,0 -0.416,-0.17067 l -0.117333,0.128 q 0,0.30933 0.757333,0.98133 0.128,-0.0747 0.245333,-0.192 l 0.128,0.032 -0.192,0.33067 q 0.096,0.0747 0.266667,0.24533 0.202667,-0.096 0.341333,-0.13866 v 0.10666 l -0.224,0.192 q 0.298667,0.36267 0.448,1.184 0.106667,0.59734 0.416,0.608 z"
       style="font-size:10.66666698px;opacity:0.56000001;fill:#df0000;fill-opacity:1;stroke:url(#linearGradient920)"
       id="path2394"
       inkscape:connector-curvature="0" />
    <path
       d="m 30.60022,361.57045 h -5.237334 q -0.128,0.36267 -0.458666,0.416 v 0.37333 q 0,0.0427 -0.032,0.0747 -0.02133,0.032 -0.07467,0.032 l -0.106667,-0.10667 -0.01067,-0.78933 h -0.288 v -0.224 l 0.202666,-0.0533 q -0.405333,-0.23467 -0.405333,-0.74667 0,-0.096 0.117333,-0.096 l 0.096,0.0853 q 0.032,0.16 0.064,0.30934 0.032,0.14933 0.202667,0.24533 l -0.01067,-1.00267 q 0,-0.0427 0.032,-0.0747 0.032,-0.032 0.07467,-0.032 l 0.106667,0.10666 0.02133,1.13067 0.32,-0.0853 q 0,-0.128 0,-0.26667 0.02133,-0.192 0.117333,-0.192 l 0.106667,0.10667 v 0.29866 l 0.917333,-0.24533 1.472,0.512 1.504,-0.352 q 0,0 1.269334,0.352 z m -5.472,0 h -0.224 v 0.192 q 0.138666,-0.032 0.224,-0.192 z m 4.96,3.56267 q -0.213334,0.10666 -0.384,0.448 -0.04267,0.0107 -0.789334,0.352 -0.48,0.224 -0.821333,0.224 -1.344,0 -1.92,-0.34134 -0.64,-0.384 -1.034667,-1.536 l -0.213333,0.13867 -0.128,-0.064 v -0.10667 q 0.192,-0.0747 0.298667,-0.128 -0.117334,-0.53333 -0.117334,-0.78933 0,-0.736 0.426667,-1.49333 -0.07467,-0.0853 -0.341333,-0.37334 l 0.106666,-0.064 0.309334,0.192 q 0.096,-0.064 0.202666,-0.23466 l -0.128,-0.17067 v -0.128 l 0.106667,-0.032 0.149333,0.17067 q 0.426667,-0.416 1.013334,-0.65067 0.362666,-0.13867 1.162666,-0.32 0.01067,-0.0213 0.064,-0.24533 0.032,-0.13867 0.181334,-0.18134 l 0.106666,0.064 q -0.01067,0.0213 -0.181333,0.34134 0.16,0.128 0.693333,0.37333 0.416,0.192 0.586667,0.448 0.256,0.37333 0.256,1.10933 0,0.16 0.117333,0.21334 0.05333,0.0107 0.266667,0.0213 v 0.16 h -0.04267 q -0.181333,0 -0.394666,-0.10667 -0.181334,0.288 -0.373334,0.576 -0.213333,0.32 -0.458666,0.50134 l 0.08533,0.224 -0.096,0.0427 -0.170667,-0.18133 q -0.192,0.11733 -0.8,0.29867 -0.64,0.18133 -0.949333,0.18133 -0.096,0 -0.138667,-0.0213 l -0.05333,0.128 q 0.149333,0.32 0.256,0.42666 0.106667,0.10667 0.405333,0.192 0.064,-0.13866 0.202667,-0.40533 l 0.149333,0.0427 q -0.01067,0.0107 -0.181333,0.39466 0.277333,0.192 0.405333,0.192 0.106667,0 0.213334,-0.128 0.106666,-0.128 0.224,-0.16 l 0.07467,0.0427 q -0.07467,0.10667 -0.16,0.256 l 0.05333,0.0533 q 0.874666,-0.40533 1.034666,-0.40533 0.181334,0 0.384,0.17067 0.170667,0.14933 0.341334,0.288 z m -1.504,-3.09334 q 0,-0.064 -0.096,-0.0747 -0.064,0 -0.202667,0.0213 -0.128,0.0107 -0.149333,0.0107 -0.04267,0 -0.096,-0.0533 -0.04267,-0.0533 -0.04267,-0.096 0.181333,-0.032 0.522667,-0.10666 -0.106667,-0.13867 -0.352,-0.26667 -0.234667,-0.13867 -0.394667,-0.13867 -0.07467,0 -0.138667,0.064 l 0.01067,0.0427 q 0,0.0747 -0.05333,0.128 -0.032,0 -0.096,-0.032 -0.05333,-0.032 -0.08533,-0.032 -0.213333,0 -0.437333,0.24533 -0.192,0.20267 -0.288,0.43734 0.138667,0.032 0.309333,0.16 -0.05333,0.10666 -0.170666,0.10666 -0.064,0 -0.224,-0.0853 -0.05333,0.24533 -0.16,0.75733 0.032,0.0107 0.07467,0.0107 0.117334,0 0.341334,-0.0427 0.224,-0.0427 0.341333,-0.0427 0.08533,-0.096 0.48,-0.24534 0.437333,-0.16 0.608,-0.27733 0.298667,-0.20267 0.298667,-0.49067 z"
       style="font-size:10.66666698px;opacity:0.56000001;fill:#df0000;fill-opacity:1;stroke:url(#linearGradient922)"
       id="path2396"
       inkscape:connector-curvature="0" />
    <path
       d="m 35.082553,361.53845 -4.565333,0.0213 v -0.21333 l 0.544,-0.36267 q 0.821333,0.33067 0.821333,0.33067 0.373333,0 1.141333,-0.20267 0.778667,-0.20266 1.152,-0.20266 0,0 0.906667,0.416 z m -1.290667,2.02667 q -0.01067,0.58666 -0.01067,0.928 0,0.096 -0.07467,0.096 -0.07467,0 -0.064,-0.43734 -0.352,-0.0853 -0.352,-1.10933 0,-0.096 0.07467,-0.096 0.064,0 0.064,0.21333 0,0.704 0.213333,0.78934 0.01067,-1.49334 0.01067,-1.536 0,-0.096 0.07467,-0.096 0.07467,0 0.07467,0.096 0,0.34133 -0.01067,0.91733 0.117334,-0.096 0.149334,-0.36267 0.032,-0.224 0.08533,-0.224 0.07467,0 0.07467,0.0853 0,0.48 -0.309334,0.736 z m 1.056,-2.79467 q -0.138666,0.224 -0.448,0.16 -0.05333,0.30933 -0.448,0.512 -0.544,0.27733 -0.629333,0.352 0.08533,0.096 0.234667,0.29867 l -0.096,0.0427 -0.245334,-0.14933 q -0.192,0.13867 -0.405333,0.68267 l 0.416,0.0853 q -0.08533,0.16 -0.202667,0.16 -0.05333,0 -0.224,-0.0533 -0.224,0.832 -0.224,1.216 l 0.07467,0.0747 q 0.128,0 0.309333,0.0427 -0.07467,0.0853 -0.213333,0.16 l -0.128,-0.0213 q -0.032,0.0427 -0.032,0.14933 0,0.096 0.032,0.27733 0.04267,0.18134 0.04267,0.27734 0,0.416 -0.170667,0.736 -0.213333,0.40533 -0.597333,0.40533 -0.544,0 -0.544,-0.87467 0,-0.16 0.02133,-0.30933 l -0.234667,-0.0213 q 0,0 -0.288,0.11733 l -0.138666,-0.096 0.522666,-0.256 0.096,0.032 0.04267,-0.0747 q 0,-0.736 0,-1.48266 -0.02133,-0.928 -0.16,-1.44 -0.01067,-0.0427 -0.138667,-0.064 -0.128,-0.0213 -0.128,-0.10667 l 0.01067,-0.0427 q 0.149333,-0.064 0.234667,-0.11733 v -0.224 q 0,-0.0533 -0.04267,-0.18133 -0.04267,-0.128 -0.04267,-0.192 -0.309333,0 -0.426666,-0.256 l 0.07467,-0.064 q 0.117334,0.0213 0.298667,0.0853 0.469333,-0.352 0.832,-0.352 0.213333,0 0.341333,0.17067 0.128,0.17066 0.138667,0.384 0.512,-0.37334 0.906667,-0.50134 0.05333,-0.30933 0.192,-0.34133 l 0.064,0.032 q -0.08533,0.24533 -0.08533,0.24533 0,0.064 0.202667,0.0853 0.138667,0.0107 0.266667,0.032 0.16,0.0533 0.416,0.20266 0.213333,0.128 0.522666,0.20267 z"
       style="font-size:10.66666698px;opacity:0.56000001;fill:#df0000;fill-opacity:1;stroke:url(#linearGradient924)"
       id="path2398"
       inkscape:connector-curvature="0" />
    <path
       d="m 39.27572,361.53845 -4.362666,0.0213 v -0.21333 l 2.634666,-0.512 1.728,0.49067 z m -0.362666,-1.04533 v 0.032 q 0.01067,0.064 -0.149334,0.10666 -0.149333,0.0427 -0.170666,0.096 -0.05333,0.17067 -0.224,0.50134 l 0.149333,0.13866 -0.096,0.096 -0.245333,-0.0747 q -0.117334,0 -0.309334,0.096 -0.192,0.096 -0.192,0.192 0,1.216 0.106667,1.39733 l 0.05333,0.032 q 0.224,-0.10667 0.373334,-0.13867 -0.02133,0.128 -0.256,0.24534 -0.224,0.11733 -0.224,0.23466 0,0.77867 0.02133,0.88534 0.08533,0.45866 0.490667,0.58666 v 0.096 q -0.213334,0.0213 -0.330667,-0.0213 -0.04267,0.40533 -0.08533,0.8 -0.106667,0.448 -0.565334,0.448 -0.224,0 -0.362666,-0.17067 -0.138667,-0.16 -0.266667,-0.33066 l 0.01067,-0.27734 q 0,-0.24533 -0.032,-0.71466 -0.032,-0.48 -0.032,-0.69334 l -0.05333,-0.0427 q -0.181333,0.16 -0.330666,0.10666 l -0.032,-0.128 0.362666,-0.17066 v -1.824 q -0.032,-0.0107 -0.08533,-0.0107 -0.096,0 -0.245333,0.10667 l -0.096,-0.096 0.394666,-0.23467 v -0.27733 q -0.266666,-0.0747 -0.522666,-0.16 -0.394667,-0.11734 -0.394667,-0.30934 0,-0.0533 0.032,-0.11733 -0.032,-0.0213 -0.416,-0.256 v -0.128 l 0.106667,-0.032 0.298666,0.17067 q 0.234667,-0.448 0.725334,-0.448 0.07467,0 0.138666,0.0213 l 0.02133,-0.18133 q 0,-0.096 -0.04267,-0.43734 l -0.298667,0.10667 -0.128,-0.064 v -0.128 q 0.138667,-0.032 0.416,-0.10667 0.032,-0.256 0.032,-0.39466 0,-0.0853 -0.138666,-0.192 -0.117334,-0.064 -0.224,-0.13867 l 0.117333,-0.128 0.224,0.11733 q 0,-0.128 0,-0.384 v -0.0427 q 0.170667,-0.11734 0.352,-0.224 0.181333,-0.11734 0.384,-0.11734 0.213333,0 0.512,0.672 0.138667,-0.11733 0.245333,-0.0747 l 0.07467,0.064 q -0.277333,0.21333 -0.32,0.37333 -0.02133,0.064 -0.02133,0.52267 0,0.128 0.02133,0.34133 0.02133,0.26667 0.02133,0.34133 0.04267,0.032 0.437334,0.128 0.256,0.0747 0.330666,0.288 l 0.330667,-0.13866 z"
       style="font-size:10.66666698px;opacity:0.56000001;fill:#df0000;fill-opacity:1;stroke:url(#linearGradient926)"
       id="path2400"
       inkscape:connector-curvature="0" />
  </g>
  <path
     d="m 41.004911,306.87682 c -1.492636,-4.60368 -4.104196,-9.04636 -7.187503,-12.89608 -0.426047,-0.52359 -1.969543,-1.90718 -1.969543,-1.90718 1.322365,3.05254 1.238335,6.21831 0.573467,9.07712 -3.605177,-7.34796 -9.922898,-16.54617 -19.424908,-21.40183 0,0 6.324354,14.26789 -2.700753,30.01165 -0.4975447,-2.12185 -1.0039357,-5.17047 -0.7312067,-8.1929 0,0 -1.141037,0.86654 -1.272979,0.9922 -1.017941,0.96276 -1.870771,2.08914 -2.62188,3.25085 -2.73908,4.35957 -4.1830671,9.62691 -3.8255711,14.925 0.133416,2.00471 0.5108131,4.0068 1.0216261,5.97878 1.584775,6.31452 5.226807,12.93469 10.6283087,15.96891 -1.699763,-2.85424 -2.736869,-6.57043 -2.736869,-10.64464 0,-1.68924 0.177642,-3.32938 0.513762,-4.86155 0.03833,0.67806 0.151844,1.37705 0.339805,2.08979 0.725311,2.74689 2.396326,4.93485 4.292896,5.93558 -0.857253,-2.21873 -1.166837,-5.15216 -0.706883,-8.2924 0.333171,-2.31362 1.02826,-4.42436 1.973965,-6.15745 1.048162,-1.96478 2.398537,-3.44327 3.853581,-4.17761 -0.6059,1.02624 -1.059956,2.35289 -1.294355,3.85037 -0.0914,0.5753 -0.14521,1.18005 -0.165111,1.8077 -0.0088,0.14203 -0.0088,0.28667 -0.0088,0.44178 0,0.38681 0.01327,0.77295 0.04939,1.14732 0.130467,1.78087 0.571993,3.37194 1.228016,4.60435 0.03612,0.0674 0.06929,0.12762 0.103931,0.18914 0.324326,0.54323 0.859464,0.91956 1.474209,0.99352 0,0 0,0 0.0066,0 0.06045,0.005 0.129731,0.01 0.197544,0.01 0.01916,0 0.04349,0 0.06045,-0.005 0.928751,-0.0249 1.699763,-0.76248 1.907626,-1.73897 0.03243,-0.15774 0.05455,-0.32857 0.05455,-0.49677 0,-0.013 0,-0.0255 0,-0.036 0.05528,-0.70554 0.0059,-1.46737 -0.144473,-2.25406 -0.08034,-0.41888 -0.18059,-0.81942 -0.314007,-1.2023 -0.163637,-0.49807 -0.363392,-0.94967 -0.592631,-1.37116 0.379608,0.0693 0.762165,0.18064 1.12998,0.34819 1.404184,0.60933 2.66021,1.85352 3.529256,3.48843 0.144472,0.27882 0.279362,0.56745 0.398036,0.86982 0.251353,0.61326 0.445948,1.26447 0.578627,1.95693 0.06266,0.34099 0.109829,0.67085 0.137838,1.00464 0.382557,-0.71929 0.729733,-1.50926 1.028998,-2.34766 0.574942,-1.57405 0.908112,-3.10163 1.009833,-4.44006 1.085755,2.50211 1.714504,5.46696 1.714504,8.64254 0,4.1449 -1.073223,7.9128 -2.826794,10.78863 0.900741,-0.45618 1.771261,-0.98501 2.587235,-1.58845 3.051612,-2.20825 5.20322,-5.62862 6.594135,-9.33369 0.783542,-2.02761 1.553079,-4.29019 1.92458,-6.42317 1.099759,-6.18428 1.425559,-12.74031 -0.388454,-18.60455 z"
     id="path2"
     inkscape:connector-curvature="0"
     style="clip-rule:evenodd;fill:#ff8f00;fill-opacity:1;fill-rule:evenodd;stroke-width:0.69457018" />
  <g
     aria-label="EQ"
     style="font-style:normal;font-variant:normal;font-weight:normal;font-stretch:normal;font-size:8px;line-height:1.25;font-family:FlameTime;-inkscape-font-specification:FlameTime;letter-spacing:0px;word-spacing:0px;fill:#e60000;fill-opacity:1;stroke:none"
     id="text881">
    <path
       d="m 14.285574,16.68627 q 0,0.07813 0.01302,0.195313 0,0.01302 0.0065,0.07162 -0.449219,-0.01953 -0.598959,-0.07162 0.0065,-0.09115 0.03906,-0.403646 0.02604,-0.247396 0.03906,-0.397135 0,-0.01953 0.01302,-0.104167 0.110677,-0.110677 0.46224,-0.14974 v 0.09115 q 0.01302,-0.03906 0.01953,-0.09766 0.01953,0 0.03906,0 -0.01302,0.423177 -0.03255,0.865885 z M 9.99521,13.906323 q 0,-0.01953 0,0.130208 -0.00651,0.03255 -0.013021,0.0651 -0.039063,-0.15625 -0.091146,-0.201823 0.019531,0 0.1041667,0.0065 z m 9.485677,3.815104 q -0.05208,0.07161 -0.09766,0.136718 0,-0.05208 -0.0065,-0.110677 0.07813,-0.0065 0.104167,-0.02604 z m -0.983073,1.816406 q -0.01302,0 -0.01953,0 0.0065,-0.02604 0.01302,-0.05208 0,0.01953 0.0065,0.05208 z m -0.3125,-0.917969 q 0.07161,0.143229 0.05859,0.540365 -0.0065,0.123698 0,0.358073 -1.783854,-0.123698 -5.013021,-0.09115 -3.111979,0.02604 -3.2747395,0.136719 0.3450525,-1.536459 0.1432295,-4.537761 0.01302,-0.0065 0.01953,0.0065 0.02604,0.02604 0.01953,0.123698 -0.0065,0.09766 0.01953,0.182291 0.03906,0.110677 0.04557,0.14974 0.0065,0.07161 0.05859,0.403646 0.03906,0.247395 0.05208,0.423177 0.01953,0.384114 0.07813,0.566406 0.02604,0.07813 0.01953,0.169271 -0.0065,0.136719 0.05208,0.416666 0.0651,0.319011 0.0651,0.384115 -0.0065,0.208333 0.05208,0.527344 0.01302,0.07813 0.02604,0.07161 0.02604,-0.0065 0.02604,-0.09766 -0.0065,-0.07162 0.0065,-0.07162 0.01953,-0.0065 0.123698,-0.397135 0.03255,-0.143229 0.07813,-0.15625 0.110677,-0.01953 0.195313,-0.371094 0.03906,-0.175781 0.104166,-0.208333 0.07161,-0.03906 0.09115,-0.247396 0,-0.01953 0.07813,-0.611979 0.0065,-0.0651 0.02604,-0.09115 0,-0.08463 0,-0.09766 -0.01953,-0.05208 -0.01953,-0.351563 0.0065,-0.03906 0.05859,-0.0651 0.0065,-0.0065 0.03255,-0.01302 0.02604,-0.0065 0.03906,-0.01302 0.03906,-0.02604 0.04557,-0.15625 0.0065,-0.05208 0.03255,-0.0651 0.0651,-0.02604 0.07161,-0.188802 0.0065,-0.08464 0.03906,-0.08464 0.01953,0 0.03255,0.08464 0.03255,0.15625 0.03906,0.30599 0.03255,1.106771 0.03255,1.210937 -0.01953,0.429688 0.05859,0.553386 0,-0.0065 0.273438,0.690104 0.03255,0.07813 0.05859,0.05208 0.03255,-0.02604 0.04557,-0.136718 0.0065,-0.07161 0.03255,-0.273438 0.02604,-0.169271 0.03255,-0.279948 0.0065,-0.117187 0.0651,-0.143229 0.07161,-0.03906 0.09766,0.08463 -0.0065,-0.03255 0.03906,0.266928 0.03906,-0.442709 0.04557,-0.481771 0.01302,-0.175782 0.0065,-0.247396 -0.0065,-0.09115 0.01953,-0.136719 0.01953,-0.03906 0.04557,-0.208333 0.01953,-0.117188 0.05208,-0.14974 0.09115,-0.07161 0.09115,-0.305989 0.0065,-0.162761 0.07161,-0.169271 0.08464,-0.0065 0.09766,0.117187 0.03906,0.416667 -0.02604,0.787761 0,0.0651 0,0.09766 0.0065,0.02604 0.01302,0.08464 0.0065,0.05859 0.01302,0.08464 0.02604,0.08463 0.0651,0.05208 0.01302,-0.01302 0.01953,0.09115 0.01302,0.143229 0.04557,0.16276 0.01953,0.0065 0.04557,-0.123698 0.0065,-0.03255 0.01953,-0.09766 0.01302,-0.07161 0.01953,-0.09766 0.01953,-0.09115 0.03255,-0.08463 0.02604,0.01302 0.03255,0.09766 0.01302,0.08463 0,0.221354 -0.01302,0.188802 -0.02604,0.585937 -0.01302,0.397136 -0.03255,0.592448 0,0.03255 0,0.07161 0,0.104167 0.01953,0.104167 0.0065,0 0.01302,-0.09115 0.03906,-0.3125 0.123698,-0.332032 0.09115,-0.01953 0.09115,0.234375 0,0.15625 0.01953,0.169271 0.01953,0.01302 0.05208,-0.110677 0.08464,-0.3125 0.15625,-0.592448 0.07161,-0.260416 0.09115,-0.507812 0.01302,-0.195313 0.03906,-0.475261 0.169271,0.403646 0.04557,0.839844 0.16276,-0.07161 0.585937,-0.09766 0,0.123698 -0.01302,0.234375 -0.02604,0.221354 0.0065,0.338542 0.01953,0.05859 0.0065,0.117187 -0.03255,0.16276 0.04557,0.195313 0.08464,0.03906 0.07813,0.03906 0.03906,0.0065 0.07813,-0.07162 0.01953,-0.05208 0.05859,0.0065 0.03906,0.05208 0.04557,0.136719 0,0.07813 0.03255,0.247395 0.03255,0.14974 0.03255,0.247396 0,0.04557 0.01302,0.05859 0.01953,0.01953 0.01953,-0.03906 0.01953,-0.130209 0.09766,-0.416667 0.04557,-0.182292 0.05208,-0.696615 0.0065,-0.390625 0.0065,-0.416666 0.266927,0 0.598959,0.0065 0.02604,0.03255 0.03255,0.14974 0.0065,0.0651 0.01953,0.175781 0.01953,0.136719 0.02604,0.182292 0.02604,0.214843 0.01302,0.332031 -0.0065,0.07813 0.01302,0.136719 0.02604,0.05859 0.01953,0.07161 -0.03906,0.130208 0.02604,0.14974 0.08464,0.02604 0.09766,-0.117188 0.02604,-0.279948 0.07813,-0.325521 0.01302,-0.01302 0.01302,-0.130208 -0.0065,-0.273437 0.03906,-0.488281 0.0065,-0.04557 0.0065,-0.09766 v -0.02604 q 0.07813,0 0.15625,0 0.01953,0.08464 0,0.214844 -0.03255,0.201823 0.03906,0.195312 0.03906,-0.0065 0.05859,0.15625 0.05208,0.566406 0.169271,0.690104 0.03906,0.05208 0.05208,-0.0651 0.02604,-0.214844 0.01302,-0.533854 -0.0065,-0.247396 -0.0651,-0.644531 0.136719,0.0065 0.266927,0.01302 0,-0.01302 0.0065,0.625 0.0065,0.15625 0,0.16927 -0.01953,0.08464 0,0.442709 0.0065,0.15625 0.07813,0.143229 0.05859,-0.01302 0.04557,-0.175781 -0.0065,-0.09115 0.03255,-0.110677 0.07813,-0.03255 0.123698,0.01953 0.07813,0.104166 0.130208,0.01302 0.05208,-0.09115 0.05859,-0.332032 0,-0.0651 0,-0.227864 0,-0.143229 0.0065,-0.227865 0,-0.110677 0.01302,-0.31901 0.716146,0.03255 0.885417,0.03906 l 0.0065,0.175782 q 0,0.07161 0.01302,0.182291 0.01302,0.175781 0.05208,0.169271 0.05859,0 0.07162,-0.182292 0,-0.05859 0.01302,-0.16927 0.01953,-0.117188 0.01953,-0.169271 -0.0065,0 0.0651,0 -0.0065,0.677083 -0.01302,0.709635 -0.01302,0.110677 0.01302,0.15625 z m -0.01953,-2.050781 q 0.0065,-0.644531 0.0065,-0.709635 0.01302,-0.169271 -0.01302,-0.332032 0.04557,-0.03906 0.07813,-0.08464 -0.05859,0.3125 -0.01953,0.774739 0.05208,0.494792 0.175781,0.429688 -0.03906,0.03255 -0.221354,0.0651 -0.01302,-0.05859 -0.0065,-0.143229 z m -0.546875,0.03255 q 0.01302,0.01953 0.0065,0.130208 0,0.0065 -0.0065,0.0651 -0.04557,0.0065 -0.104167,0.01302 0.03906,-0.01953 0.05859,-0.130208 0.01953,-0.09766 0.04557,-0.07813 z m 1.555989,1.595052 q -0.04557,0.221354 -0.110677,0.05208 -0.07161,-0.195312 -0.05859,-0.48177 0.136719,0 0.240886,-0.0065 -0.03255,0.247396 -0.07161,0.436198 z m -0.462239,0.266927 q -0.01953,-0.273437 -0.07162,-0.345052 0.0065,0.0065 0.0065,-0.07813 0,-0.0065 0.0065,-0.273437 0.15625,0.0065 0.279948,0.0065 -0.01302,0.07161 -0.03906,0.14974 v 0 q -0.03906,0.175781 -0.04557,0.149739 0.01953,0.07813 0.01953,0.260417 0,0.03255 -0.02604,0.403646 -0.01302,0.175781 -0.03255,0.195312 0.02604,-0.02604 -0.03255,-0.123698 -0.04557,-0.07813 -0.0651,-0.345052 z m -0.416667,0.787761 q -0.01953,0.02604 -0.01302,-0.14974 0,-0.08464 -0.0065,-0.227865 -0.0065,-0.182291 -0.0065,-0.234375 0,-0.227864 -0.03255,-0.885416 0.169271,0.0065 0.3125,0.01302 -0.01302,0.195312 -0.02604,0.364583 -0.01302,0.16276 -0.04557,0.429687 -0.03906,0.30599 -0.05208,0.429688 -0.0065,0.05859 -0.04557,0.208333 -0.01302,0.03906 -0.03906,0.03906 -0.03906,0 -0.04557,0.01302 z m 0.0065,-3.951823 q -0.01953,0.07813 -0.0651,0.143229 0.02604,-0.123698 0.0651,-0.143229 z m -4.016927,-0.696615 q 0.07813,0.325521 -0.03255,0.651042 0,0.04557 0,0.0651 -0.09114,0 -0.16927,0.0065 0.0065,-0.04557 0.08463,-0.32552 0.05208,-0.195313 0.0651,-0.364584 0,-0.05208 0.01953,-0.07161 0.01302,-0.01953 0.03255,0.03906 z m 0.963542,0.683594 q 0.03906,-0.260417 0.143229,-0.07161 0.01953,0.02604 0.03255,0.0651 -0.09114,0 -0.175781,0.0065 z m 4.147135,-1.061198 q -0.02604,0.01302 -0.143229,0.01953 0.0651,-0.07161 0.143229,-0.01953 z m -3.841145,2.402344 q -0.02604,-0.0065 -0.02604,-0.136719 0,-0.07813 0.0065,-0.345052 0,-0.208333 0.0065,-0.338542 0.03906,0 0.15625,0.0065 0.09766,0 0.15625,0 -0.0065,0.05859 -0.02604,0.240885 -0.01302,0.14974 -0.01302,0.247396 0,0.117187 -0.03255,0.3125 -0.02604,0.221354 -0.03255,0.325521 -0.07161,0 -0.16276,0.0065 -0.02604,-0.16276 -0.01302,-0.266927 0,-0.05208 -0.01953,-0.05208 z m 1.028646,-0.123698 q -0.07162,0.130208 -0.01953,0.3125 0.01302,0.03255 0.01953,0.07161 -0.169271,0.01302 -0.332032,0.02604 -0.02604,-0.638021 -0.04557,-0.917969 0,-0.0065 -0.01953,-0.143229 -0.03255,0.04557 -0.04557,0.182292 -0.01302,0.110677 -0.03255,0.351562 -0.02604,0.227865 -0.03906,0.351563 -0.0065,0.104166 -0.03906,0.123698 -0.04557,0.01953 -0.09766,-0.09766 -0.05208,-0.117187 -0.04557,-0.234375 0,-0.0651 -0.01302,-0.358072 -0.0065,-0.221355 0.01953,-0.358073 0.214844,0.0065 0.377605,0.01302 -0.01302,0.09766 -0.0065,0.195313 0.02604,0.514323 0.02604,0.449219 0,0.104166 0.04557,0.123698 0.02604,0.01302 0.04557,-0.07161 0.0065,-0.03255 0.05859,-0.234375 0.02604,-0.09115 0.05859,-0.07162 0.04557,0.03906 0.04557,0.130209 0,0.09115 0.03906,0.15625 z m 0.78776,-0.716146 q 0.01302,0.761719 0.01953,0.664062 -0.02604,0.345053 0.05859,0.364584 -0.169271,0.01953 -0.364583,0.03255 -0.0065,-0.182292 -0.01302,-0.325521 -0.02604,-0.299479 0.09115,-0.390625 0.04557,-0.03255 0.04557,-0.110677 0.0065,-0.07813 0.0065,-0.221354 0.07813,-0.0065 0.15625,-0.01302 z m -1.927083,0.533854 q -0.02604,0.332031 -0.01953,0.507813 0,0.07813 0,0.117187 -0.143229,0.0065 -0.286458,0.01302 0.0065,-0.30599 0.01302,-0.377604 0.01953,-0.423177 0.04557,-0.605469 0.01302,-0.07161 0.01953,-0.175781 0.117188,0 0.247396,0.0065 0,0.169271 -0.01953,0.514323 z m 3.404947,2.851563 q 0.01953,-0.05208 0.04557,-0.01302 0.05859,0.08463 0.09766,0.04557 0.02604,-0.03255 0.07813,-0.175782 0.07161,-0.182291 0.09766,-0.32552 0.03906,0.345052 0.279948,1.022135 -0.05859,-0.09115 -0.651042,-0.15625 0.05859,-0.07162 0.03906,-0.253906 -0.0065,-0.09115 0.01302,-0.143229 z m -4.680989,-4.772136 q -0.01302,0.0651 -0.03906,0.05859 -0.123697,-0.01953 -0.16276,-0.351563 v 0 q 0.130208,0.0065 0.260417,0.01302 0.0065,-0.03906 -0.05859,0.279948 z m 1.998698,0.859375 q -0.266927,0.0065 -0.598958,0.01953 0.01302,-0.299479 0.02604,-0.442708 0.03255,-0.566406 0.03255,-0.657552 0.338542,0.01302 0.61849,0.01953 0,0.03255 -0.04557,0.169271 -0.03255,0.09115 -0.03255,0.169271 -0.01302,0.227865 0,0.722656 z m -1.803386,0.05208 q 0,-0.05859 0.03906,-0.631511 0.01953,-0.266927 0,-0.345052 -0.02604,-0.09115 -0.02604,-0.208333 0.514323,0.01953 0.989584,0.03906 -0.01953,0.104167 -0.104167,0.46224 0.01953,-0.07813 -0.04557,0.501302 -0.0065,0.02604 -0.01302,0.07813 -0.0065,0.05208 -0.01302,0.07813 -0.572916,0.01302 -0.826823,0.02604 z m 0.130209,2.675781 q -0.07161,0.195312 -0.09766,-0.07162 -0.0065,-0.117187 -0.01302,-0.253906 0.08464,-0.0065 0.188802,-0.01302 -0.02604,0.09115 -0.03906,0.175781 -0.0065,0.07813 -0.03906,0.162761 z m -0.104167,-1.829427 q 0,-0.214844 0,-0.345052 0.279948,-0.01953 0.768229,-0.01302 -0.01302,0.08464 -0.01302,0.143229 -0.0065,0.117187 -0.09766,0.755208 -0.03906,0.260417 -0.130208,0.240886 -0.0065,0 -0.01953,0.01953 -0.279948,0 -0.501302,-0.0065 0,-0.273438 0,-0.449219 0,-0.09115 -0.0065,-0.345052 z m -2.447916,0.488281 q 0,-0.136719 -0.07813,-0.722656 -0.0651,-0.455729 -0.07161,-1.40625 -0.0065,-0.429688 -0.0065,-0.514323 1.054687,0.05208 2.115885,0.09766 0.01302,0.15625 0.01302,0.175781 0.01953,0.332032 -0.03906,0.46224 -0.01302,0.01953 -0.01953,0.117187 -0.03906,0.332032 -0.0651,0.533855 -0.0065,0.0065 0,0.01302 -0.01302,-0.208333 -0.02604,-0.08464 -0.01302,0.117187 -0.01953,0.397135 -0.01953,0.136719 -0.03255,0.221355 -0.02604,0.123697 -0.05859,0.579427 -0.01302,0.208333 -0.05208,0.722656 -0.01302,0.117187 -0.03906,0.03255 -0.03255,-0.104167 -0.0651,0.03906 0.0065,-0.01953 -0.04557,0.195313 -0.01302,0.07813 -0.03255,0.03255 -0.05859,-0.14974 -0.104167,0.09766 -0.02604,0.123698 -0.0651,0.09766 -0.03255,-0.02604 -0.03906,-0.16276 0,-0.149739 0.0065,-0.338542 0.02604,-0.546875 0.02604,-0.611979 -0.0065,-0.117187 0.0065,-0.143229 0.02604,-0.03906 -0.0065,-0.104167 -0.07813,-0.16927 -0.05208,-0.423177 0,-0.03255 -0.01302,-0.09766 -0.01953,-0.110677 -0.01302,-0.292969 0.01302,-0.31901 -0.0065,-0.410156 -0.05859,0.221354 -0.07813,0.507813 -0.01302,0.123698 -0.04557,0.143229 -0.01953,0.0065 -0.03255,-0.09766 -0.0065,-0.04557 -0.01302,-0.04557 -0.02604,0.0065 -0.05859,-0.15625 -0.03255,-0.195313 -0.03255,-0.377605 0,-0.09115 -0.02604,-0.104166 -0.01302,-0.01953 -0.03255,0.0651 -0.0065,0.01302 -0.01302,0.05859 -0.0065,0.03906 -0.01302,0.05859 -0.08464,0.332032 -0.149739,0.332032 -0.143229,0.0065 -0.169271,0.247396 0,0.0065 -0.01953,0.03906 -0.02604,0.03906 -0.175782,0.143229 -0.03255,0.02604 -0.04557,0.117188 -0.05859,0.364583 -0.117188,0.735677 -0.01953,0.09766 -0.07161,0.149739 -0.05208,0.05859 -0.05859,0 -0.0065,-0.04557 -0.03906,-0.16276 -0.02604,-0.09115 -0.02604,-0.15625 z m -1.738282,-2.226563 q -0.05859,-0.279947 -0.07813,-0.455729 0,-0.01302 -0.0065,-0.02604 -0.0065,-0.01302 -0.01302,-0.02604 0.488281,0.03255 1.523438,0.08464 -0.0065,0.162761 -0.05859,0.338542 -0.03906,0.143229 -0.0651,-0.01302 -0.02604,-0.143229 -0.07813,-0.175781 -0.05208,-0.03255 -0.06511,0.07813 -0.0065,0.03906 -0.09766,0.358073 -0.01953,0.05859 -0.01953,0.201823 0,0.05859 0.0065,0.201823 0.0065,0.130208 0.0065,0.214843 -0.03255,0.625 -0.03255,0.670573 0.02604,0.475261 -0.130209,0.664063 -0.03906,0.05208 -0.07161,0.02604 -0.123698,-0.110678 -0.15625,0.234375 -0.03255,0.32552 -0.08464,0.520833 -0.03906,0.0065 -0.0651,-0.136719 -0.0651,-0.345052 -0.136719,-0.364583 -0.01953,0 -0.02604,-0.09766 -0.01953,-0.240886 -0.09115,-0.273438 -0.01302,0 -0.02604,-0.03906 -0.05859,-0.123698 -0.05208,-0.234375 0,-0.110678 -0.01953,-0.286459 -0.02604,-0.201823 -0.02604,-0.273437 -0.01953,-0.481771 -0.05208,-0.742188 -0.01953,-0.15625 -0.08464,-0.449219 z m 6.634115,1.894532 q -0.05859,-0.14974 -0.05208,-0.260417 0.0065,-0.09766 0.0065,-0.234375 0.130208,0 0.247396,-0.0065 -0.0065,0.123698 -0.0065,0.08464 -0.0065,0.123698 -0.03255,0.04557 -0.03906,-0.143229 -0.05208,0.0651 -0.0065,0.09766 -0.01302,0.253906 -0.0065,0.195313 -0.0065,0.247396 -0.0065,0.143229 -0.01953,0.169271 -0.05208,-0.30599 -0.07161,-0.364583 z m 0.670573,-0.182292 q -0.0651,0.0065 -0.05208,-0.169271 0.0065,-0.07161 0.0065,-0.188802 0.04557,-0.0065 0.08463,-0.01302 -0.0065,0.162761 -0.03906,0.371094 z m 1.907552,-1.438802 q -0.15625,0.351562 -1.764323,0.488281 0.0065,-0.208333 0.01302,-0.748698 0,-0.09115 -0.0065,-0.188802 1.223959,0.03255 1.595052,0 -0.130208,0.14974 -0.08464,0.397136 0.03906,0.253906 0.247396,0.05208 z m -1.673177,1.035156 q -0.03255,0.03906 -0.07161,0.08464 -0.04557,0.05208 -0.02604,-0.04557 0,-0.0065 0,-0.02604 0.05859,-0.01302 0.110677,-0.02604 -0.0065,0.0065 -0.01302,0.01302 z m 0.117187,0.501302 q -0.02604,-0.227864 -0.02604,-0.364583 0,-0.136719 -0.03906,-0.16276 0.169271,-0.04557 0.286458,-0.117188 -0.01953,0.143229 -0.01953,0.208333 0,0.175782 -0.01953,0.690105 -0.0065,0.201822 -0.0065,0.182291 -0.0065,0.07813 -0.0651,-0.0065 -0.0065,-0.0065 -0.01953,0.01302 -0.05208,0.05859 -0.05859,-0.09115 0,-0.110677 -0.03255,-0.351563 z m -1.354166,-0.983073 q -0.0065,-0.05208 -0.0065,-0.05859 -0.01302,-0.08464 -0.01302,-0.253907 -0.0065,-0.188802 -0.01302,-0.253906 -0.01953,-0.201823 -0.04557,-0.47526 0.397135,0.01302 0.722656,0.02604 0,0.03906 0.02604,0.08464 0.03906,0.07161 0.0065,0.136719 -0.03906,0.07161 -0.05208,0.227864 -0.01302,0.09115 -0.01953,0.260417 -0.0065,0.182291 -0.01302,0.260416 -0.0065,0.03255 -0.0065,0.01953 -0.143229,0.0065 -0.30599,0.01953 0,-0.03255 -0.01302,-0.110677 -0.01953,-0.09766 -0.03906,-0.104167 -0.0065,0 -0.03255,0.104167 -0.01302,0.03906 -0.01302,0.110677 -0.08463,0.0065 -0.182291,0.0065 z m 0.273437,1.627605 q -0.02604,0 -0.0651,0.0065 -0.0065,-0.01302 -0.0065,-0.02604 -0.01953,-0.143229 -0.0065,-0.703125 0.0065,-0.149739 0.05859,-0.188802 0.01953,0.722656 0.01953,0.865886 z m 0.703125,-2.252605 q -0.0065,-0.201823 -0.05208,-0.221354 -0.05859,-0.02604 -0.03255,-0.16276 v 0 q 0.130208,0 0.201822,0.0065 -0.0065,0.03906 -0.0065,0.07161 0.0065,0.110677 -0.0065,0.345052 -0.0065,0.227864 -0.0065,0.345052 0.0065,0.07813 -0.0065,0.182292 -0.04557,0.0065 -0.104167,0.0065 0,-0.221354 0.0065,-0.338542 0.0065,-0.104166 0.0065,-0.234375 z m -0.169271,0.266927 q -0.01953,-0.04557 -0.0651,0.0065 -0.03255,0.03255 -0.02604,0.175781 0.0065,0.0651 0.0065,0.143229 0.05859,-0.0065 0.09115,-0.0065 0,-0.09115 0.0065,-0.136719 0,-0.16276 -0.01302,-0.182292 z"
       style="font-size:13.33333302px;fill:#e60000;fill-opacity:1"
       id="path893" />
    <path
       d="m 24.148855,16.276114 q 0,-0.136719 -0.07813,-0.722656 -0.0651,-0.455729 -0.07161,-1.40625 -0.0065,-0.501302 -0.01302,-0.644531 0.690104,-0.130209 2.089844,-0.136719 0.03255,0.325521 0.04557,0.533854 0,0.01953 0,0.05208 -0.716146,0.31901 -0.996094,1.087239 -0.01953,-0.143229 -0.01953,-0.286458 0,-0.09115 -0.02604,-0.110677 -0.01302,-0.01302 -0.03255,0.0651 -0.0065,0.01953 -0.01302,0.05859 -0.0065,0.04557 -0.01302,0.05859 -0.08463,0.332032 -0.149739,0.338542 -0.143229,0.0065 -0.169271,0.247396 0,0.0065 -0.01953,0.03906 -0.02604,0.03906 -0.175782,0.143229 -0.03255,0.02604 -0.05208,0.117188 -0.05208,0.364583 -0.110677,0.735677 -0.01953,0.09115 -0.07162,0.14974 -0.05208,0.05859 -0.0651,-0.0065 0,-0.03906 -0.03255,-0.15625 -0.02604,-0.09115 -0.02604,-0.15625 z m -1.529947,0.397136 q -0.0065,0.143229 0.05208,0.423177 0.0651,0.31901 0.0651,0.384114 0,0.01953 0,0.05859 -0.117187,-0.104167 -0.227865,-0.221354 -0.221354,0.0651 -0.455729,-0.0651 0.0065,-0.01302 0.0065,-0.02604 0.05208,-0.227865 0.03255,-0.397135 -0.01953,-0.169271 -0.01953,-0.29948 0,-0.09115 -0.01302,-0.117187 -0.07161,-0.130208 -0.07813,-0.579427 0,-0.14974 -0.01953,-0.377604 -0.01302,-0.117188 0.03255,-0.14974 0.09766,-0.07161 0.16276,0.104167 0.04557,0.143229 0.07162,-0.05859 0.01953,-0.175781 0.01953,-0.436198 0,-0.149739 0.02604,-0.214844 0.02604,-0.07161 0.05208,-0.04557 0.02604,0.03255 0.01953,0.130209 -0.0065,0.09766 0.01953,0.182291 0.03906,0.110678 0.04557,0.14974 0.0065,0.07161 0.05859,0.403646 0.03906,0.247396 0.05208,0.423177 0.01953,0.384115 0.07813,0.566406 0.02604,0.07813 0.01953,0.162761 z m 2.714843,0.813802 q -0.01302,0.397135 -0.03255,0.592448 0,0.01953 0,0.04557 -1.699219,0.03906 -2.363281,-0.429687 0.01953,-0.14974 0.02604,-0.182292 0.03906,-0.143229 0.08463,-0.15625 0.110677,-0.02604 0.195313,-0.371093 0.03906,-0.175782 0.09766,-0.208334 0.07813,-0.03906 0.09766,-0.247396 0,-0.01953 0.07813,-0.618489 0.0065,-0.05859 0.02604,-0.08464 v -0.09766 q -0.01953,-0.05859 -0.01953,-0.351562 0.0065,-0.03906 0.05859,-0.07161 0.0065,0 0.03255,-0.0065 0.02604,-0.0065 0.03906,-0.01302 0.03906,-0.03255 0.04557,-0.15625 0,-0.05859 0.03255,-0.0651 0.0651,-0.02604 0.07161,-0.195313 0,-0.07813 0.03906,-0.07813 0.01953,0 0.03255,0.08464 0.03255,0.15625 0.03906,0.299479 0.03255,1.106771 0.03255,1.217448 -0.01953,0.429687 0.05859,0.553385 0,-0.01302 0.273438,0.683594 0.03255,0.07813 0.05859,0.05859 0.03255,-0.02604 0.04557,-0.136719 0.0065,-0.07162 0.03255,-0.273438 0.02604,-0.16927 0.03255,-0.279948 0.0065,-0.117187 0.0651,-0.149739 0.0651,-0.03255 0.09766,0.08463 -0.0065,-0.02604 0.03906,0.273438 0.03906,-0.442709 0.04557,-0.481771 0.01302,-0.175781 0.0065,-0.253906 -0.0065,-0.08464 0.01953,-0.130209 0.01953,-0.03906 0.04557,-0.208333 0.01953,-0.117187 0.05208,-0.14974 0.09115,-0.07161 0.09115,-0.3125 0.0065,-0.15625 0.07162,-0.16276 0.0065,0 0.01302,-0.0065 -0.03906,0.214843 -0.0651,0.455729 0.04557,0.208333 0.130209,0.397135 -0.0065,0.05208 -0.0065,0.05208 0,0.03906 0,0.104166 0.0065,0.01953 0.01302,0.08464 0.0065,0.05859 0.01302,0.08464 0.02604,0.08463 0.0651,0.05208 0.01302,-0.01302 0.01953,0.08464 0.01302,0.149739 0.04557,0.16276 0.01953,0.0065 0.04557,-0.117187 0.0065,-0.03255 0.02604,-0.15625 0.03906,0.05208 0.08463,0.09766 0,0.04557 -0.0065,0.09115 -0.01302,0.195312 -0.02604,0.592448 z m -2.34375,-0.540365 q 0,-0.0065 0,-0.0065 z m -0.416666,-1.432292 q -0.02604,-0.201822 -0.02604,-0.279947 -0.01953,-0.475261 -0.05208,-0.735678 -0.01953,-0.15625 -0.07162,-0.397135 0.644531,-0.397135 1.41276,-0.566406 0.0065,0.214844 -0.05859,0.429687 -0.03906,0.143229 -0.0651,-0.01953 -0.02604,-0.136719 -0.07813,-0.169271 -0.05208,-0.03255 -0.06511,0.07813 -0.0065,0.03906 -0.09766,0.351563 -0.01953,0.0651 -0.01953,0.208333 0,0.05859 0.0065,0.201823 0.0065,0.130208 0.0065,0.208333 -0.03255,0.631511 -0.03255,0.670573 0.02604,0.481771 -0.130209,0.670573 -0.04557,0.04557 -0.07161,0.01953 -0.123698,-0.104166 -0.15625,0.240886 -0.03255,0.325521 -0.08464,0.514323 -0.03906,0.01302 -0.0651,-0.130209 -0.0651,-0.345052 -0.136719,-0.364583 -0.01953,-0.0065 -0.02604,-0.104167 -0.01953,-0.234375 -0.09115,-0.266927 -0.01302,-0.0065 -0.02604,-0.03906 -0.05859,-0.130209 -0.05208,-0.234375 0,-0.110677 -0.01953,-0.286459 z m -1.360677,0.46224 q 0.01953,-0.130208 -0.01302,-0.16276 -0.0065,-0.0065 -0.02604,0.110677 -0.0065,0.01302 -0.01302,0.07161 -0.214843,-0.481771 -0.358073,-1.002604 0.520834,-0.891927 1.321615,-0.846354 0,0.03906 0,0.01953 0,0.07813 -0.01953,0.07813 -0.04557,0.0065 -0.09766,0.292969 -0.03255,0.195312 -0.08463,0.01953 -0.03255,-0.08464 -0.03255,-0.0651 -0.01302,0.05208 -0.05208,-0.01953 -0.03906,-0.07161 -0.03906,-0.01953 0,0.05208 -0.01302,0.234375 -0.0065,0.136718 -0.0065,0.234375 0.0065,0.15625 0.05859,0.585937 0.04557,0.364583 0.03906,0.598958 0,0.0065 0,0.01953 0.01953,0.110677 0.01302,0.94401 0,0.03255 0,0.0651 -0.09766,-0.08463 -0.195313,-0.201823 -0.05208,-0.494791 -0.05859,-0.514323 0,0.02604 0,0.338542 0,0.05208 -0.01302,0.07813 -0.01953,-0.02604 -0.03255,-0.04557 -0.0065,-0.08464 -0.02604,-0.07161 -0.0065,0.0065 -0.0065,0.02604 -0.188802,-0.279948 -0.358073,-0.657552 0.0065,-0.05859 0.01302,-0.110677 z m 9.485676,3.138021 q 0.01302,0.117187 -0.0065,0.273437 -0.01302,0.117188 -0.0065,0.195313 -0.06511,-0.02604 -0.117188,-0.05208 0.01953,-0.08463 0.0651,-0.208333 0.04557,-0.136719 0.0651,-0.208333 z m -2.910156,-0.996094 q -0.0065,0.07813 0.01302,0.136719 0.02604,0.05208 0.01953,0.07161 0,0.0065 -0.0065,0.01953 -0.30599,-0.345052 -0.735677,-0.195313 0.01302,-0.130208 0.01302,-0.462239 0.0065,-0.423177 0.01302,-0.46875 v -0.0065 q 0.03906,-0.03255 0.0651,-0.05208 0.09766,0.143229 0.136718,-0.09115 0.14974,-0.08464 0.325521,-0.14974 0,0.104167 -0.0065,0.182292 -0.0065,0.123698 0.05208,0.162761 0.03906,0.01953 0.05208,0.15625 0.0065,0.07161 0.01953,0.182291 0.01953,0.130208 0.02604,0.182292 0.02604,0.214844 0.01302,0.332031 z m 3.867188,-1.451823 q -0.01302,0.136719 0.01302,0.221354 0.03906,0.09766 0.04557,0.292969 -0.07161,0.03906 -0.149739,0.08464 0,-0.03255 0,-0.05859 0,-0.05859 0.01302,-0.286459 0.0065,-0.175781 0.0065,-0.286458 0.0065,-0.143229 0.03255,-0.136719 0.04557,0.01302 0.03906,0.169271 z m -1.269532,1.582031 q 0.07813,0.136719 0.06511,0.540365 -0.0065,0.123698 0,0.338542 0.0065,0.234375 0.0065,0.332031 -0.14974,-0.08464 -0.384115,-0.260417 -0.234375,-0.169271 -0.31901,-0.221354 -0.3125,-0.188802 -0.429687,0.05208 -0.429688,-0.05859 -0.813803,-0.03255 -0.279947,0.01953 -0.305989,-0.0065 -0.14974,-0.319011 -0.292969,-0.520833 0.02604,-0.03255 0.03255,-0.110678 0.02604,-0.286458 0.07813,-0.32552 0.01302,-0.01302 0.01302,-0.130209 -0.0065,-0.273437 0.03906,-0.494791 0.0065,-0.04557 0.0065,-0.09115 0,-0.15625 0.01302,-0.182292 0.01302,-0.02604 0.0651,0.03255 0,0.0065 0.01953,0.01953 0.0065,0.01302 0.01953,0.02604 0.07161,0.09115 0.03906,0.292969 -0.03255,0.195312 0.03906,0.195312 0.03906,-0.0065 0.05859,0.15625 0.04557,0.559896 0.169271,0.690105 0.03906,0.04557 0.05208,-0.0651 0.02604,-0.214843 0.01302,-0.533854 -0.0065,-0.240885 -0.09766,-0.859375 0.0065,0.01302 -0.01302,-0.514323 -0.01302,-0.240885 -0.01302,-0.338541 0.02604,-0.07161 0.05208,-0.162761 v 0.01953 q 0,0.104166 0.04557,0.130208 0.02604,0.01302 0.04557,-0.07813 0.0065,-0.02604 0.05859,-0.234375 0.02604,-0.09115 0.05859,-0.0651 0.04557,0.03906 0.04557,0.130208 0,0.09115 0.03906,0.14974 -0.07813,0.136718 -0.01953,0.31901 0.02604,0.09115 0.02604,0.247396 -0.0065,0.201823 0,0.253906 0.0065,0.04557 -0.03906,0.110677 -0.01953,0.03255 -0.01302,0.09115 0.02604,0.104167 0.03255,0.794271 0.0065,0.15625 0,0.169271 -0.01953,0.08464 0,0.442708 0.0065,0.14974 0.07161,0.136719 0.0651,-0.0065 0.05208,-0.169271 -0.0065,-0.09766 0.03255,-0.110677 0.07813,-0.03255 0.123697,0.01953 0.07813,0.09766 0.130209,0.01302 0.05208,-0.09115 0.05859,-0.332031 0,-0.0651 0,-0.227865 0,-0.143229 0.0065,-0.227865 0.04557,-1.236979 0.01953,-1.503906 -0.01953,-0.305989 0.09766,-0.390625 0.04557,-0.03255 0.04557,-0.117187 0.01953,-0.826823 0.01302,-0.944011 -0.0065,-0.143229 0.02604,-0.175781 0.04557,-0.05208 0.0651,-0.01302 0.01302,0.01953 0.0065,0.188802 -0.0065,0.488282 0.04557,0.566407 0.0065,0.01953 0.0065,0.04557 -0.0065,0.110677 0.01302,0.377604 0.01953,0.240885 0.0065,0.384114 -0.01953,0.240886 0.0065,0.319011 0.02604,0.07161 0.110678,0.04557 0.04557,-0.01302 0.0651,-0.130209 0.01953,-0.09766 0.04557,-0.07813 0.01302,0.01302 0.0065,0.130209 -0.01953,0.345052 0.05208,0.410156 0.01302,0.0065 0.01953,0.03906 0,0.104167 0.03906,0.09766 0.03906,-0.0065 0.04557,-0.110677 0.0065,-0.117188 0.04557,-0.117188 0.08463,0 0.07813,0.227865 -0.0065,0.208333 0.01302,0.260416 0.02604,0.09115 0.03255,0.384115 0,0.07161 0.01302,0.182291 0.01302,0.169271 0.05208,0.169271 0.05859,-0.0065 0.0651,-0.182291 0.0065,-0.05859 0.02604,-0.208334 0.01953,-0.130208 0.01953,-0.221354 -0.0065,-0.104166 0.03255,-0.09115 0.02604,0.0065 0.02604,0.08464 -0.0065,0.08463 0,0.403646 0.0065,0.253906 -0.01302,0.403645 -0.01302,0.110677 0.0065,0.15625 z m -3.854166,-0.384114 q 0.01953,0.05859 0.0065,0.110677 -0.03255,0.143229 0.01953,0.188802 -0.416667,-0.04557 -0.9375,-0.04557 0.08463,-0.30599 0.15625,-0.585937 0.04557,-0.175782 0.07161,-0.351563 0.30599,0.169271 0.683594,0.260417 -0.0065,0.07161 -0.0065,0.07813 -0.02604,0.221354 0.0065,0.345052 z m 0.182292,0.31901 q 0.01302,-0.01953 0.02604,-0.03906 0.03255,-0.08464 0.08464,0.05208 -0.05859,-0.0065 -0.110677,-0.01302 z m -1.373698,-0.05859 q 0.03255,-0.273437 0.117187,-0.292968 0.09115,-0.01953 0.09115,0.234375 0,0.01302 0,0.05208 -0.09766,0 -0.208333,0.0065 z m 3.411458,-3.183593 q -0.02604,0.01302 -0.04557,-0.123698 -0.01302,-0.09115 -0.01302,-0.253906 -0.0065,-0.188802 -0.01302,-0.260417 -0.01953,-0.201823 -0.09115,-1.002604 1.139323,-0.0651 1.803386,0.149739 0,0.09115 0,0.286459 -0.0065,0.07161 0.01953,0.07161 0.01302,0 0.01302,-0.07161 0.0065,-0.208334 0.0065,-0.273438 0.364584,0.123698 0.703125,0.338542 0.442709,0.3125 0.989584,0.94401 0.566406,0.664063 0.546875,0.651042 -0.169271,1.217448 -0.807292,1.686198 -0.0065,0 -0.0065,0.0065 -0.03255,0.01953 -0.07162,0.04557 0,-0.01302 0,-0.03906 0.01953,-0.351563 -0.03906,-0.833334 -0.01953,-0.149739 -0.02604,-0.494791 -0.0065,-0.325521 -0.02604,-0.494792 -0.01953,-0.117187 -0.03255,-0.117187 -0.03906,0.0065 -0.03255,0.117187 0,0.169271 -0.01953,0.201823 -0.01953,0.02604 -0.05859,0.266927 -0.02604,0.123698 -0.01953,0.325521 0,0.273437 0,0.338542 -0.03255,0.585937 -0.07162,0.904947 -0.110677,0.05208 -0.253906,0.104167 l 0.0065,-0.03255 q 0,-0.05859 0,-0.14974 0,-0.07161 -0.01953,-0.08463 -0.01302,-0.01302 -0.02604,0.07161 -0.0065,0.110677 -0.03906,0.221354 -0.123698,0.04557 -0.273438,0.09115 0.0065,-0.319011 0,-0.45573 -0.01302,-0.09766 -0.03906,-0.117187 -0.02604,-0.01302 -0.02604,0.0651 -0.02604,0.286458 -0.04557,0.540365 -0.0651,0.01953 -0.123698,0.03255 0.03906,0.03255 0.117188,0.09766 -0.0065,0.09115 -0.0065,0.0651 -0.01302,0.162761 -0.04557,0.429688 -0.03906,0.305989 -0.05208,0.423177 -0.0065,0.05859 -0.04557,0.208333 -0.01302,0.04557 -0.04557,0.04557 -0.03255,0 -0.04557,0.01302 -0.01302,0.02604 -0.0065,-0.14974 0,-0.09115 -0.0065,-0.234375 -0.0065,-0.175781 -0.0065,-0.227864 0,-0.247396 -0.02604,-0.729167 -0.01953,-0.488281 -0.01953,-0.729167 -0.0065,-0.32552 -0.04557,-0.436198 -0.01953,-0.05208 -0.01302,-0.175781 0.0065,-0.651041 0.0065,-0.709635 0.01302,-0.247396 -0.04557,-0.455729 -0.01953,-0.08464 -0.02604,0 -0.0065,0.05859 -0.02604,0.201823 -0.01302,0.123697 -0.01302,0.188802 0,0.175781 -0.01953,0.683593 -0.0065,0.208334 -0.0065,0.188802 -0.0065,0.07813 -0.0651,-0.0065 -0.0065,-0.0065 -0.01953,0.01302 -0.05208,0.05859 -0.05859,-0.09115 0,-0.117187 -0.03255,-0.358073 -0.02604,-0.221354 -0.02604,-0.358073 0,-0.260416 -0.09115,-0.136719 -0.03255,0.03906 -0.07161,0.08464 -0.04557,0.04557 -0.02604,-0.04557 0.0065,-0.0651 0,-0.16276 -0.0065,-0.123698 -0.0065,-0.162761 0.01953,-0.299479 0.01953,-1.009114 0.0065,-0.162761 -0.01953,-0.403646 -0.04557,0.273437 -0.04557,0.286458 0,0.110677 -0.0065,0.345052 -0.0065,0.221354 -0.0065,0.345052 0.0065,0.09766 -0.01953,0.30599 -0.02604,0.188802 -0.01953,0.299479 0.01953,0.234375 -0.03255,0.514323 -0.0651,0.0065 -0.05208,-0.162761 0.0065,-0.08464 0.0065,-0.234375 0.0065,-0.175781 0.0065,-0.240885 0.0065,-0.09766 0,-0.3125 0,-0.208333 0.0065,-0.31901 0.0065,-0.104167 0.0065,-0.234375 -0.0065,-0.201823 -0.05208,-0.221354 -0.05859,-0.02604 -0.03255,-0.162761 0.01302,-0.0651 0.0065,-0.130208 0,-0.143229 -0.01953,-0.169271 -0.02604,-0.02604 -0.05208,0.07813 -0.05208,0.195312 -0.143229,0.175781 -0.03906,-0.0065 -0.03906,0.02604 -0.0065,0.03906 0.02604,0.09766 0.03906,0.07161 0.0065,0.136719 -0.03906,0.0651 -0.05859,0.221354 -0.0065,0.09115 -0.01302,0.260417 -0.0065,0.188802 -0.01302,0.266927 -0.01302,0.130208 -0.03255,0.345052 -0.02604,0.266927 -0.03255,0.351562 -0.0065,0.123698 -0.03255,0.03906 -0.03906,-0.136719 -0.05208,0.07161 -0.0065,0.09766 -0.01302,0.253907 -0.0065,0.195312 -0.0065,0.247395 -0.0065,0.14323 -0.01953,0.169271 -0.05208,-0.3125 -0.07813,-0.364583 -0.05208,-0.14974 -0.04557,-0.260417 0.0065,-0.130208 0.0065,-0.371093 -0.0065,-0.247396 0,-0.364584 0,-0.0651 -0.01953,-0.188802 -0.01953,-0.09766 -0.03906,-0.104167 -0.0065,-0.0065 -0.03255,0.09766 -0.01302,0.0651 -0.01953,0.214843 0,0.14974 -0.06511,0.182292 -0.05208,0.02604 -0.05859,-0.15625 0,-0.0651 -0.01302,-0.05208 z m -0.833333,1.901041 q -0.01302,0.03255 -0.04557,0.03255 -0.01302,0 -0.02604,-0.01302 0.04557,-0.01302 0.07161,-0.01953 z m 3.092447,1.71875 q 0.03255,-0.02604 -0.02604,-0.130208 -0.04557,-0.07162 -0.0651,-0.292969 -0.01302,-0.253906 -0.03906,-0.31901 0.09766,0.07813 0.195313,0.149739 0,0.02604 -0.02604,0.390625 -0.01302,0.182292 -0.03906,0.201823 z m -4.309895,-0.94401 q -0.07162,0.195312 -0.09766,-0.07813 0,-0.03255 -0.0065,-0.07813 0.0651,0.01302 0.143229,0.02604 -0.01302,0.05859 -0.03906,0.130208 z m 1.119791,-3.483073 q 0.01953,-0.279948 0.01302,-0.46875 -0.0065,-0.143229 0,-0.3125 0.01302,0 0.631511,-0.04557 -0.01302,0.540365 -0.01302,0.494792 0,0.04557 -0.04557,0.195312 -0.03255,0.09115 -0.03255,0.169271 -0.01302,0.208334 -0.0065,0.546875 -0.227864,-0.338541 -0.546875,-0.579427 z m -2.402343,3.059896 q 0,-0.143229 0.0065,-0.332031 0.117188,0.117187 0.253906,0.208333 -0.01302,0.03906 -0.01953,0.0651 -0.01953,0.07162 -0.03255,0.03255 -0.05859,-0.149739 -0.104167,0.09766 -0.02604,0.123697 -0.0651,0.09115 -0.03255,-0.01953 -0.03906,-0.16276 z m 0.996093,-3.346354 q -0.104166,0.03255 -0.201823,0.07161 -0.02604,-0.08464 -0.03906,-0.182291 -0.01302,-0.136719 -0.04557,-0.371094 h 0.377604 q -0.03255,0.15625 -0.05859,0.299479 -0.0065,0.07813 -0.03255,0.182292 z m 0.449219,-0.110677 q -0.143229,0.02604 -0.279948,0.0651 0,-0.0651 0.0065,-0.273438 0.0065,-0.08464 0.01302,-0.16276 0.117188,0 0.188803,0 0.384114,0.01302 0.846354,-0.0065 -0.03255,0.175781 -0.04557,0.279948 -0.01302,0.149739 -0.05208,0.31901 -0.31901,-0.169271 -0.677083,-0.221354 z m 5.833333,4.589843 q 0.04557,0.05859 0.09115,0.104167 -0.05208,-0.05208 -0.09766,-0.05859 v -0.01953 q 0.0065,-0.01302 0.0065,-0.02604 z m -0.03255,0.423177 q 0.09115,-0.01302 0.195313,-0.03255 -0.117188,0.08464 -0.195313,0.03255 z m -0.533854,-0.891927 q -0.01302,0.0651 -0.03906,0.05859 -0.01953,-0.01302 -0.02604,-0.09115 0.02604,0.01302 0.0651,0.02604 z m 0.527344,0.891927 q 0,0 0.0065,0 -0.01302,0 -0.0065,0 z m -0.260417,-0.585937 q -0.0065,0.03906 -0.0065,0.0651 0,0.01302 0.01953,0.572917 -1.061198,0.227864 -1.184896,0.924479 -0.169271,-0.0065 -0.351562,-0.0651 -0.02604,-0.319011 0.110677,-0.449219 0.07813,-0.07162 0.05859,-0.266927 -0.0065,-0.09115 0.01302,-0.143229 0.01953,-0.05859 0.04557,-0.01302 0.05859,0.08463 0.09766,0.04557 0.02604,-0.03255 0.07813,-0.175781 0.09115,-0.240886 0.110677,-0.449219 0.182291,0.136719 0.371093,0.260417 0.0065,-0.279948 0.03906,-0.429688 0.0065,0.03255 0.01953,0.130208 0.01302,0.08464 0.01953,0.136719 0,0.05208 0.01302,0.03906 0.01302,-0.01302 0.01302,-0.03906 0,0.0065 0.07162,-0.481771 0.02604,-0.0065 0.05859,-0.0065 0,0.02604 -0.0065,0.04557 -0.0065,0.03255 -0.01302,0.585937 0,0.104167 0.05859,0.182292 0.02604,0.03906 0.04557,-0.05208 0.03255,-0.136719 0.104166,-0.319011 0.08464,-0.214844 0.110677,-0.305989 0.05208,0.04557 0.117188,0.104166 -0.0065,0.02604 -0.01302,0.03906 0,0.01953 0,0.0651 z M 28.90797,15.781323 q 0.0065,-0.14974 0.05859,-0.188803 0.01953,0.716146 0.01953,0.865886 0,0.16276 -0.03255,0.175781 -0.01302,0.0065 -0.03906,-0.149739 -0.01953,-0.14974 -0.0065,-0.703125 z"
       style="font-size:13.33333302px;fill:#e60000;fill-opacity:1"
       id="path895" />
  </g>
  <path
     style="opacity:1;fill:#135400;fill-opacity:1;stroke:none;stroke-opacity:1"
     d="M 1.3553623,25.911596 H 43.371594 V 45.903191 H 1.3553623 Z"
     id="rect883" />
  <g
     aria-label="Freq"
     style="font-style:normal;font-variant:normal;font-weight:normal;font-stretch:normal;font-size:8px;line-height:1.25;font-family:Copperplate;-inkscape-font-specification:Copperplate;letter-spacing:0px;word-spacing:0px;fill:#000000;fill-opacity:1;stroke:none"
     id="text887"
     transform="translate(0,12)">
    <path
       d="m 16.734434,74.583826 q 0,-0.088 -0.072,-0.128 -0.064,-0.048 -0.232,-0.048 h -2.592 v 0.992 h 1.568 q 0.16,0 0.248,-0.032 0.088,-0.032 0.088,-0.144 h 0.144 v 1.152 h -0.144 q 0,-0.184 -0.088,-0.232 -0.088,-0.056 -0.248,-0.056 h -1.568 v 1.552 q 0,0.072 0.064,0.112 0.072,0.032 0.176,0.032 v 0.144 h -1.36 v -0.144 q 0.208,0 0.208,-0.144 v -3.632 q 0,-0.144 -0.208,-0.144 v -0.144 h 3.712 q 0.168,0 0.232,-0.048 0.072,-0.056 0.072,-0.144 h 0.144 v 1.056 z"
       id="path899"
       inkscape:connector-curvature="0" />
    <path
       d="m 19.897059,75.927826 q 0.784,0 0.784,-0.496 0,-0.2 -0.192,-0.312 -0.184,-0.12 -0.592,-0.12 h -1.264 v 0.928 z m 0.016,-1.52 q 0.712,0 1.112,0.24 0.4,0.232 0.4,0.8 0,0.216 -0.08,0.384 -0.08,0.168 -0.216,0.296 -0.128,0.12 -0.288,0.2 -0.16,0.072 -0.328,0.112 l 0.784,1.144 q 0.064,0.088 0.136,0.136 0.08,0.04 0.168,0.064 v 0.144 h -1.224 v -0.144 q 0.104,0 0.104,-0.072 0,-0.08 -0.12,-0.248 l -0.632,-0.944 h -1.112 v 1.144 q 0,0.064 0.048,0.096 0.056,0.024 0.104,0.024 v 0.144 h -1.064 v -0.144 q 0.144,0 0.144,-0.12 v -2.992 q 0,-0.12 -0.144,-0.12 v -0.144 z"
       id="path902"
       inkscape:connector-curvature="0" />
    <path
       d="m 25.715684,75.151826 q 0,-0.152 -0.248,-0.152 h -1.952 v 0.8 h 1.232 q 0.136,0 0.2,-0.016 0.064,-0.024 0.064,-0.112 h 0.144 v 0.848 h -0.16 q 0.024,-0.088 -0.064,-0.104 -0.088,-0.024 -0.248,-0.024 h -1.168 v 0.944 h 2.048 q 0.096,0 0.16,-0.04 0.064,-0.048 0.064,-0.12 h 0.144 v 0.84 h -0.144 q 0,-0.072 -0.064,-0.08 -0.064,-0.008 -0.16,-0.008 h -2.936 v -0.144 q 0.04,0 0.08,-0.024 0.04,-0.032 0.04,-0.096 v -2.992 q 0,-0.064 -0.04,-0.088 -0.04,-0.032 -0.08,-0.032 v -0.144 h 2.84 q 0.248,0 0.248,-0.144 h 0.144 v 0.888 z"
       id="path904"
       inkscape:connector-curvature="0" />
    <path
       d="m 28.864809,74.951826 q -0.256,0 -0.504,0.088 -0.24,0.08 -0.432,0.24 -0.192,0.152 -0.312,0.376 -0.112,0.224 -0.112,0.512 0,0.288 0.112,0.512 0.12,0.224 0.312,0.384 0.192,0.152 0.432,0.24 0.248,0.08 0.504,0.08 0.192,0 0.296,-0.032 -0.168,-0.232 -0.312,-0.36 -0.144,-0.128 -0.248,-0.192 -0.104,-0.072 -0.168,-0.104 -0.056,-0.032 -0.056,-0.064 0,-0.04 0.08,-0.064 0.088,-0.032 0.232,-0.032 0.28,0 0.496,0.152 0.224,0.152 0.536,0.432 0.224,-0.16 0.36,-0.4 0.144,-0.24 0.144,-0.552 0,-0.288 -0.12,-0.512 -0.112,-0.224 -0.304,-0.376 -0.192,-0.16 -0.44,-0.24 -0.24,-0.088 -0.496,-0.088 z m 1.144,3.648 q 0.024,-0.032 0.048,-0.072 0.032,-0.032 0.032,-0.08 0,-0.072 -0.128,-0.216 -0.128,-0.144 -0.344,-0.352 -0.376,0.072 -0.752,0.072 -0.44,0 -0.832,-0.096 -0.384,-0.104 -0.672,-0.328 -0.288,-0.224 -0.456,-0.56 -0.168,-0.344 -0.168,-0.8 0,-0.456 0.168,-0.792 0.168,-0.344 0.456,-0.568 0.288,-0.224 0.672,-0.336 0.392,-0.112 0.832,-0.112 0.44,0 0.824,0.112 0.392,0.112 0.68,0.336 0.288,0.224 0.456,0.568 0.168,0.336 0.168,0.792 0,0.528 -0.216,0.888 -0.208,0.36 -0.568,0.568 0.392,0.376 0.488,0.376 0.12,0 0.16,-0.04 l 0.08,0.072 -0.864,0.664 z"
       id="path906"
       inkscape:connector-curvature="0" />
  </g>
  <g
     aria-label="IN"
     style="font-style:normal;font-variant:normal;font-weight:normal;font-stretch:normal;font-size:8px;line-height:1.25;font-family:Copperplate;-inkscape-font-specification:Copperplate;letter-spacing:0px;word-spacing:0px;fill:#000000;fill-opacity:1;stroke:none"
     id="text891"
     transform="translate(0,20)">
    <path
       d="m 14.751595,238.87681 q 0.346666,0 0.346666,-0.24 v -6.05334 q 0,-0.24 -0.346666,-0.24 v -0.24 h 2.213333 v 0.24 q -0.346667,0 -0.346667,0.24 v 6.05334 q 0,0.24 0.346667,0.24 v 0.24 h -2.213333 z"
       style="font-size:13.33333302px"
       id="path909"
       inkscape:connector-curvature="0" />
    <path
       d="m 19.311386,238.87681 q 0.253334,0 0.253334,-0.24 v -6.05334 q 0,-0.24 -0.253334,-0.24 v -0.24 h 2.28 v 0.24 q -0.106666,0 -0.106666,0.13334 0,0.10666 0.266666,0.37333 l 3.826667,3.97333 v -4.24 q 0,-0.24 -0.346667,-0.24 v -0.24 h 2.013333 v 0.24 q -0.253333,0 -0.253333,0.24 v 6.05334 q 0,0.24 0.253333,0.24 v 0.24 h -2.16 v -0.24 q 0.173334,0 0.173334,-0.12 0,-0.0933 -0.213334,-0.30667 l -4.066666,-4.24 v 4.42667 q 0,0.24 0.306667,0.24 v 0.24 h -1.973334 z"
       style="font-size:13.33333302px"
       id="path911"
       inkscape:connector-curvature="0" />
  </g>
  <g
     aria-label="Q"
     style="font-style:normal;font-variant:normal;font-weight:normal;font-stretch:normal;font-size:8px;line-height:1.25;font-family:Copperplate;-inkscape-font-specification:Copperplate;letter-spacing:0px;word-spacing:0px;fill:#000000;fill-opacity:1;stroke:none"
     id="text920"
     transform="translate(1.6611594,36)">
    <path
       d="m 20.492581,167.19246 q -0.304,0 -0.608,0.096 -0.304,0.096 -0.552,0.28 -0.24,0.176 -0.392,0.44 -0.152,0.264 -0.152,0.6 0,0.336 0.152,0.6 0.152,0.264 0.392,0.448 0.248,0.176 0.552,0.272 0.304,0.096 0.608,0.096 0.192,0 0.328,-0.032 -0.176,-0.232 -0.328,-0.352 -0.152,-0.128 -0.264,-0.192 -0.104,-0.064 -0.168,-0.088 -0.056,-0.024 -0.056,-0.056 0,-0.064 0.168,-0.112 0.176,-0.048 0.376,-0.048 0.168,0 0.312,0.048 0.144,0.04 0.272,0.112 0.128,0.072 0.248,0.168 0.128,0.096 0.256,0.192 0.248,-0.184 0.4,-0.448 0.16,-0.264 0.16,-0.608 0,-0.336 -0.152,-0.6 -0.152,-0.264 -0.4,-0.44 -0.24,-0.184 -0.544,-0.28 -0.304,-0.096 -0.608,-0.096 z m 1.392,4.272 q 0.024,-0.032 0.04,-0.072 0.024,-0.04 0.024,-0.088 0,-0.048 -0.072,-0.136 -0.064,-0.08 -0.16,-0.184 -0.096,-0.096 -0.2,-0.192 -0.096,-0.088 -0.152,-0.16 -0.216,0.064 -0.44,0.08 -0.216,0.024 -0.432,0.024 -0.44,0 -0.896,-0.12 -0.456,-0.12 -0.832,-0.384 -0.376,-0.264 -0.616,-0.664 -0.24,-0.408 -0.24,-0.96 0,-0.552 0.24,-0.952 0.24,-0.408 0.616,-0.672 0.376,-0.264 0.832,-0.392 0.456,-0.136 0.896,-0.136 0.44,0 0.896,0.136 0.456,0.128 0.832,0.392 0.376,0.264 0.616,0.672 0.24,0.4 0.24,0.952 0,0.576 -0.256,0.984 -0.248,0.408 -0.656,0.672 0.048,0.04 0.112,0.112 0.064,0.072 0.128,0.144 0.072,0.072 0.136,0.128 0.064,0.048 0.104,0.048 0.096,0 0.16,-0.064 l 0.104,0.088 -0.928,0.808 z"
       id="path931"
       inkscape:connector-curvature="0" />
  </g>
  <g
     aria-label="Type"
     style="font-style:normal;font-variant:normal;font-weight:normal;font-stretch:normal;font-size:8px;line-height:1.25;font-family:Copperplate;-inkscape-font-specification:Copperplate;letter-spacing:0px;word-spacing:0px;fill:#000000;fill-opacity:1;stroke:none"
     id="text936"
     transform="translate(0.67768116,-38)">
    <path
       d="m 15.111073,200.70506 q 0,0.144 0.176,0.144 v 0.144 h -1.232 v -0.144 q 0.056,0 0.096,-0.032 0.048,-0.04 0.048,-0.112 v -3.184 h -1.32 q -0.072,0 -0.144,0.04 -0.064,0.04 -0.064,0.152 h -0.144 v -1.12 h 0.144 q 0,0.112 0.064,0.152 0.072,0.04 0.144,0.04 h 3.552 q 0.072,0 0.136,-0.04 0.072,-0.04 0.072,-0.152 h 0.144 v 1.12 h -0.144 q 0,-0.112 -0.072,-0.152 -0.064,-0.04 -0.136,-0.04 h -1.32 z"
       id="path938"
       inkscape:connector-curvature="0" />
    <path
       d="m 17.585698,197.75306 q -0.056,-0.072 -0.136,-0.104 -0.08,-0.032 -0.152,-0.032 v -0.144 h 1.32 v 0.144 q -0.04,0 -0.088,0.032 -0.048,0.024 -0.048,0.072 0,0.048 0.032,0.088 0.032,0.04 0.072,0.096 l 0.808,1.056 0.712,-0.992 q 0.072,-0.104 0.104,-0.152 0.04,-0.056 0.04,-0.104 0,-0.064 -0.04,-0.08 -0.04,-0.016 -0.08,-0.016 v -0.144 h 1.224 v 0.144 q -0.096,0 -0.216,0.112 -0.112,0.104 -0.2,0.216 l -1.224,1.584 v 1.2 q 0,0.12 0.152,0.12 v 0.144 h -1.064 v -0.144 q 0.144,0 0.144,-0.12 v -1.232 z"
       id="path940"
       inkscape:connector-curvature="0" />
    <path
       d="m 24.406823,198.93706 q 0.232,0 0.384,-0.08 0.16,-0.088 0.16,-0.344 0,-0.248 -0.16,-0.344 -0.152,-0.104 -0.384,-0.104 h -1.344 v 0.872 z m -2.112,-1.2 q 0,-0.12 -0.2,-0.12 v -0.144 h 2.328 q 0.648,0 0.968,0.232 0.328,0.232 0.328,0.808 0,0.576 -0.328,0.8 -0.32,0.216 -0.968,0.216 h -1.36 v 1.2 q 0,0.12 0.168,0.12 v 0.144 h -1.136 v -0.144 q 0.2,0 0.2,-0.12 z"
       id="path942"
       inkscape:connector-curvature="0" />
    <path
       d="m 29.755948,198.21706 q 0,-0.152 -0.248,-0.152 h -1.952 v 0.8 h 1.232 q 0.136,0 0.2,-0.016 0.064,-0.024 0.064,-0.112 h 0.144 v 0.848 h -0.16 q 0.024,-0.088 -0.064,-0.104 -0.088,-0.024 -0.248,-0.024 h -1.168 v 0.944 h 2.048 q 0.096,0 0.16,-0.04 0.064,-0.048 0.064,-0.12 h 0.144 v 0.84 h -0.144 q 0,-0.072 -0.064,-0.08 -0.064,-0.008 -0.16,-0.008 h -2.936 v -0.144 q 0.04,0 0.08,-0.024 0.04,-0.032 0.04,-0.096 v -2.992 q 0,-0.064 -0.04,-0.088 -0.04,-0.032 -0.08,-0.032 v -0.144 h 2.84 q 0.248,0 0.248,-0.144 h 0.144 v 0.888 z"
       id="path944"
       inkscape:connector-curvature="0" />
  </g>
  <g
     style="font-style:normal;font-variant:normal;font-weight:normal;font-stretch:normal;font-size:13.33333302px;line-height:1.25;font-family:Copperplate;-inkscape-font-specification:Copperplate;letter-spacing:0px;word-spacing:0px;fill:#000000;fill-opacity:1;stroke:none"
     id="text949" />
  <g
     style="font-style:normal;font-variant:normal;font-weight:normal;font-stretch:normal;font-size:13.33333302px;line-height:1.25;font-family:Copperplate;-inkscape-font-specification:Copperplate;letter-spacing:0px;word-spacing:0px;fill:#000000;fill-opacity:1;stroke:none"
     id="text953" />
  <g
     aria-label="OUT"
     style="font-style:normal;font-variant:normal;font-weight:normal;font-stretch:normal;font-size:16px;line-height:1.25;font-family:Copperplate;-inkscape-font-specification:Copperplate;letter-spacing:0px;word-spacing:0px;fill:#000000;fill-opacity:1;stroke:none"
     id="text957">
    <path
       d="m 12.691015,293.95304 q -0.506666,0 -1.013333,0.16 -0.506667,0.16 -0.92,0.46666 -0.4,0.29334 -0.653333,0.73334 -0.2533336,0.44 -0.2533336,1 0,0.56 0.2533336,1 0.253333,0.44 0.653333,0.74666 0.413333,0.29334 0.92,0.45334 0.506667,0.16 1.013333,0.16 0.506667,0 1.013334,-0.16 0.506666,-0.16 0.906666,-0.45334 0.413334,-0.30666 0.666667,-0.74666 0.253333,-0.44 0.253333,-1 0,-0.56 -0.253333,-1 -0.253333,-0.44 -0.666667,-0.73334 -0.4,-0.30666 -0.906666,-0.46666 -0.506667,-0.16 -1.013334,-0.16 z m 0,-1.22667 q 0.733334,0 1.493334,0.22667 0.76,0.21333 1.386666,0.65333 0.626667,0.44 1.026667,1.12 0.4,0.66667 0.4,1.58667 0,0.92 -0.4,1.6 -0.4,0.66666 -1.026667,1.10666 -0.626666,0.44 -1.386666,0.64 -0.76,0.2 -1.493334,0.2 -0.733333,0 -1.493333,-0.2 -0.76,-0.2 -1.3866666,-0.64 -0.6266667,-0.44 -1.0266667,-1.10666 -0.4,-0.68 -0.4,-1.6 0,-0.92 0.4,-1.58667 0.4,-0.68 1.0266667,-1.12 0.6266666,-0.44 1.3866666,-0.65333 0.76,-0.22667 1.493333,-0.22667 z"
       style="font-size:13.33333302px"
       id="path961" />
    <path
       d="m 20.935598,293.04637 q -0.293333,0 -0.293333,0.24 v 4 q 0,0.84 0.533333,1.16 0.546667,0.30667 1.586667,0.30667 1.04,0 1.573333,-0.30667 0.546667,-0.32 0.546667,-1.16 v -4 q 0,-0.24 -0.4,-0.24 v -0.24 h 2.133333 v 0.24 q -0.32,0 -0.32,0.24 v 3.93333 q 0,0.78667 -0.226666,1.30667 -0.226667,0.50667 -0.68,0.81333 -0.453334,0.30667 -1.133334,0.41334 -0.666666,0.10666 -1.546666,0.10666 -0.88,0 -1.56,-0.10666 -0.666667,-0.10667 -1.12,-0.41334 -0.453334,-0.30666 -0.68,-0.81333 -0.226667,-0.52 -0.226667,-1.30667 v -3.93333 q 0,-0.24 -0.373333,-0.24 v -0.24 h 2.186666 z"
       style="font-size:13.33333302px"
       id="path963" />
    <path
       d="m 32.331015,299.3397 q 0,0.24 0.293334,0.24 v 0.24 h -2.053334 v -0.24 q 0.09333,0 0.16,-0.0533 0.08,-0.0667 0.08,-0.18667 v -5.30666 h -2.2 q -0.12,0 -0.24,0.0667 -0.106666,0.0667 -0.106666,0.25334 h -0.24 v -1.86667 h 0.24 q 0,0.18667 0.106666,0.25333 0.12,0.0667 0.24,0.0667 h 5.92 q 0.12,0 0.226667,-0.0667 0.12,-0.0667 0.12,-0.25333 h 0.24 v 1.86667 h -0.24 q 0,-0.18667 -0.12,-0.25334 -0.106667,-0.0667 -0.226667,-0.0667 h -2.2 z"
       style="font-size:13.33333302px"
       id="path965" />
  </g>
  <path
     inkscape:connector-curvature="0"
     style="opacity:1;fill:#135400;fill-opacity:1;stroke:none;stroke-opacity:1"
     d="M 1.3553621,97.064495 H 43.371594 V 117.05609 H 1.3553621 Z"
     id="rect883-5" />
</svg>
