<svg xmlns:osb="http://www.openswatchbook.org/uri/2009/osb" xmlns="http://www.w3.org/2000/svg" xmlns:xlink="http://www.w3.org/1999/xlink" height="380" style="zoom:8" cursor="default" id="SvgjsSvg1006" width="45"><defs id="SvgjsDefs1007"><linearGradient id="linearGradient838"><stop offset="0" id="stop834" stop-color="#ff8600"/><stop offset="1" id="stop836" stop-color="#ff8600" stop-opacity="0"/></linearGradient><linearGradient id="linearGradient2396" osb:paint="gradient"><stop offset="0" id="stop2392" stop-color="#ff8f00"/><stop offset="1" id="stop2394" stop-color="#ff8f00" stop-opacity="0"/></linearGradient><linearGradient id="linearGradient2384" osb:paint="solid"><stop offset="0" id="stop2382" stop-color="#ff8f00"/></linearGradient><linearGradient id="linearGradient898" osb:paint="solid"><stop offset="0" id="stop896" stop-color="#ff8f00"/></linearGradient><linearGradient id="linearGradient915"><stop offset="0" id="stop911" stop-color="#404040"/><stop offset="1" id="stop913" stop-color="#202020"/></linearGradient><linearGradient xlink:href="#linearGradient915" id="linearGradient919" y1="190" x2="45" y2="190" gradientUnits="userSpaceOnUse"/><style id="OpenSans_Google_Webfont_import">@import url(https://fonts.googleapis.com/css?family=Open+Sans);</style><style id="style31">@import url(https://fonts.googleapis.com/css?family=&apos;Open Sans&apos;);</style><style id="style33">@import url(https://fonts.googleapis.com/css?family=&apos;Open Sans&apos;);</style><style id="style35">@import url(https://fonts.googleapis.com/css?family=&apos;Open Sans&apos;);</style><style id="style22">@import url(https://fonts.googleapis.com/css?family=&apos;Open Sans&apos;);</style><style id="style24">@import url(https://fonts.googleapis.com/css?family=&apos;Open Sans&apos;);</style><style id="style26">@import url(https://fonts.googleapis.com/css?family=&apos;Open Sans&apos;);</style><linearGradient xlink:href="#linearGradient838" id="linearGradient840" x1="19.992" y1="333.24" x2="27.785" y2="400.33" gradientUnits="userSpaceOnUse"/></defs><path d="M0 0h45v380H0z" id="SvgjsRect1008" fill="url(#linearGradient919)"/><path d="M41.005 342.877c-1.493-4.604-4.104-9.047-7.188-12.896-.426-.524-1.97-1.907-1.97-1.907 1.323 3.052 1.24 6.218.574 9.077-3.605-7.348-9.923-16.546-19.425-21.402 0 0 6.325 14.268-2.7 30.012-.498-2.122-1.004-5.171-.732-8.193 0 0-1.14.866-1.273.992-1.017.963-1.87 2.089-2.621 3.25-2.74 4.36-4.183 9.628-3.826 14.926.133 2.004.51 4.006 1.022 5.978 1.584 6.315 5.226 12.935 10.628 15.97-1.7-2.855-2.737-6.571-2.737-10.645 0-1.69.178-3.33.514-4.862.038.678.152 1.377.34 2.09.725 2.747 2.396 4.935 4.293 5.936-.858-2.22-1.167-5.153-.707-8.293.333-2.314 1.028-4.424 1.974-6.157 1.048-1.965 2.398-3.444 3.853-4.178-.606 1.026-1.06 2.353-1.294 3.85-.092.576-.145 1.18-.165 1.808-.009.142-.009.287-.009.442 0 .387.013.773.05 1.147.13 1.781.571 3.372 1.227 4.605l.104.189c.325.543.86.92 1.475.993h.006c.06.005.13.01.198.01.019 0 .043 0 .06-.005.929-.025 1.7-.762 1.908-1.739a2.5 2.5 0 0 0 .054-.496v-.037a8.53 8.53 0 0 0-.144-2.254c-.08-.418-.18-.819-.314-1.202a8.222 8.222 0 0 0-.593-1.371c.38.07.762.18 1.13.348 1.404.61 2.66 1.854 3.53 3.489.144.278.279.567.397.87a10.21 10.21 0 0 1 .717 2.961c.382-.72.73-1.51 1.029-2.348.575-1.574.908-3.101 1.01-4.44 1.085 2.502 1.714 5.467 1.714 8.643 0 4.145-1.073 7.913-2.827 10.788.901-.456 1.772-.985 2.588-1.588 3.051-2.208 5.203-5.629 6.594-9.334.783-2.027 1.553-4.29 1.924-6.423 1.1-6.184 1.426-12.74-.388-18.604z" id="path2" stroke-width=".695" fill="url(#linearGradient840)"/><g aria-label="EQ" id="text5" font-size="12" font-family="Open Sans" text-anchor="middle" fill="#eee" text-rendering="geometricPrecision"><path d="M15.158 16.252h5.531v.996h-4.347v2.59h4.166v.996h-4.166v3.17h4.453V25h-5.637z" id="path959"/><path d="M26.303 17.055q-1.29 0-2.051.96-.756.962-.756 2.62 0 1.652.756 2.613.762.961 2.05.961 1.29 0 2.04-.961.756-.96.756-2.613 0-1.658-.756-2.62-.75-.96-2.04-.96zm1.658 7.787l1.559 1.705h-1.43l-1.295-1.4-.299.017q-.1.006-.193.006-1.846 0-2.953-1.23-1.102-1.237-1.102-3.305 0-2.074 1.102-3.305 1.107-1.236 2.953-1.236 1.84 0 2.941 1.236 1.102 1.23 1.102 3.305 0 1.523-.616 2.607-.609 1.084-1.77 1.6z" id="path961"/></g><g aria-label="IN" id="text7" font-size="8" font-family="Open Sans" text-anchor="middle" fill="#eee" text-rendering="geometricPrecision"><path d="M8.113 61.168h.79V67h-.79z" id="path964"/><path d="M10.473 61.168h1.062l2.586 4.879v-4.879h.766V67h-1.063l-2.586-4.879V67h-.765z" id="path966"/></g><g aria-label="OUT" id="text31" font-size="8" font-family="Open Sans" text-anchor="middle" fill="#eee" text-rendering="geometricPrecision"><path d="M27.629 61.703q-.86 0-1.367.64-.504.641-.504 1.747 0 1.101.504 1.742.508.64 1.367.64.86 0 1.36-.64.503-.64.503-1.742 0-1.106-.504-1.746-.5-.64-1.36-.64zm0-.64q1.226 0 1.96.824.735.82.735 2.203 0 1.379-.734 2.203-.735.82-1.961.82-1.23 0-1.969-.82-.734-.82-.734-2.203t.734-2.203q.738-.825 1.969-.825z" id="path969"/><path d="M31.469 61.168h.793v3.543q0 .937.34 1.352.34.41 1.101.41.758 0 1.098-.41.34-.415.34-1.352v-3.543h.793v3.64q0 1.141-.567 1.723-.562.582-1.664.582-1.105 0-1.672-.582-.562-.582-.562-1.722z" id="path971"/><path d="M36.61 61.168h4.933v.664h-2.07V67h-.793v-5.168h-2.07z" id="path973"/></g><g aria-label="FREQ" id="text29" font-size="8" font-family="Open Sans" text-anchor="middle" fill="#eee" text-rendering="geometricPrecision"><path d="M12.52 136.168h3.351v.664H13.31v1.719h2.312v.664H13.31V142h-.79z" id="path976"/><path d="M19.895 139.266q.253.086.492.367.242.281.484.773l.8 1.594h-.847l-.746-1.496q-.289-.586-.562-.777-.27-.192-.739-.192h-.859V142h-.79v-5.832h1.782q1 0 1.492.418.493.418.493 1.262 0 .55-.258.914-.254.363-.742.504zm-1.977-2.45v2.07h.992q.57 0 .86-.261.293-.266.293-.777 0-.512-.293-.77-.29-.262-.86-.262z" id="path978"/><path d="M22.691 136.168h3.688v.664H23.48v1.727h2.778v.664H23.48v2.113h2.97V142H22.69z" id="path980"/><path d="M30.121 136.703q-.86 0-1.367.64-.504.641-.504 1.747 0 1.101.504 1.742.508.64 1.367.64.86 0 1.36-.64.503-.64.503-1.742 0-1.106-.504-1.746-.5-.64-1.359-.64zm1.106 5.192l1.039 1.136h-.953l-.864-.933-.199.011q-.066.004-.129.004-1.23 0-1.969-.82-.734-.824-.734-2.203 0-1.383.734-2.203.739-.824 1.97-.824 1.226 0 1.96.824.734.82.734 2.203 0 1.016-.41 1.738-.406.723-1.18 1.067z" id="path982"/></g><g aria-label="TYPE" id="text34" font-size="8" font-family="Open Sans" text-anchor="middle" fill="#eee" text-rendering="geometricPrecision"><path d="M12.64 211.168h4.934v.664h-2.07V217h-.793v-5.168h-2.07z" id="path985"/><path d="M17.54 211.168h.847l1.617 2.398 1.605-2.398h.848l-2.062 3.055V217h-.793v-2.777z" id="path987"/><path d="M24.02 211.816v2.192h.992q.55 0 .851-.285.301-.286.301-.813 0-.523-.3-.808-.302-.286-.852-.286zm-.79-.648h1.782q.98 0 1.48.445.504.442.504 1.297 0 .863-.504 1.305-.5.441-1.48.441h-.992V217h-.79z" id="path989"/><path d="M28.059 211.168h3.687v.664h-2.898v1.727h2.777v.664h-2.777v2.113h2.968V217H28.06z" id="path991"/></g><g aria-label="Q" id="text33" font-size="8" font-family="Open Sans" text-anchor="middle" fill="#eee" text-rendering="geometricPrecision"><path d="M22.504 261.703q-.86 0-1.367.64-.504.641-.504 1.747 0 1.101.504 1.742.508.64 1.367.64.86 0 1.36-.64.503-.64.503-1.742 0-1.106-.504-1.746-.5-.64-1.36-.64zm1.105 5.192l1.04 1.136h-.954l-.863-.933-.2.011q-.066.004-.128.004-1.23 0-1.969-.82-.734-.824-.734-2.203 0-1.383.734-2.203.738-.824 1.969-.824 1.226 0 1.96.824.735.82.735 2.203 0 1.016-.41 1.738-.406.723-1.18 1.067z" id="path994"/></g><path d="M2.5 82h40v15h-40z" id="rect37" fill="#004200"/><path d="M2.5 157h40v15h-40z" id="rect39" fill="#004200"/><path d="M22.5 192l-8.573 13.51" id="SvgjsLine1007" stroke="#fff" stroke-width=".75"/><path d="M22.5 192l-15.852 2.172" id="SvgjsLine1008" stroke="#fff" stroke-width=".75"/><path d="M22.5 192l-11.89-10.706" id="SvgjsLine1009" stroke="#fff" stroke-width=".75"/><path d="M22.5 192l-.453-15.994" id="SvgjsLine1010" stroke="#fff" stroke-width=".75"/><path d="M22.5 192l12.588-9.876" id="SvgjsLine1011" stroke="#fff" stroke-width=".75"/><path d="M22.5 192l15.654 3.309" id="SvgjsLine1012" stroke="#fff" stroke-width=".75"/><path d="M22.5 192l7.708 14.02" id="SvgjsLine1013" stroke="#fff" stroke-width=".75"/><path d="M35.5 192a13 13 0 0 1-13 13 13 13 0 0 1-13-13 13 13 0 0 1 13-13 13 13 0 0 1 13 13z" id="SvgjsCircle1014" stroke="#eee" stroke-width=".75"/><path d="M22.5 117h16" id="SvgjsLine1015" stroke="#eee" stroke-width=".75"/><path d="M22.5 117l14.915 1.594" id="SvgjsLine1016" stroke="#eee" stroke-width=".75"/><path d="M22.5 117l14.661 3.17" id="SvgjsLine1017" stroke="#eee" stroke-width=".75"/><path d="M22.5 117l14.241 4.711" id="SvgjsLine1018" stroke="#eee" stroke-width=".75"/><path d="M22.5 117l13.66 6.198" id="SvgjsLine1019" stroke="#eee" stroke-width=".75"/><path d="M22.5 117l13.785 8.123" id="SvgjsLine1020" stroke="#eee" stroke-width=".75"/><path d="M22.5 117l12.04 8.946" id="SvgjsLine1021" stroke="#eee" stroke-width=".75"/><path d="M22.5 117l11.022 10.175" id="SvgjsLine1022" stroke="#eee" stroke-width=".75"/><path d="M22.5 117l9.878 11.289" id="SvgjsLine1023" stroke="#eee" stroke-width=".75"/><path d="M22.5 117l8.622 12.275" id="SvgjsLine1024" stroke="#eee" stroke-width=".75"/><path d="M22.5 117l7.753 13.996" id="SvgjsLine1025" stroke="#eee" stroke-width=".75"/><path d="M22.5 117l-8.487 13.564" id="SvgjsLine1026" stroke="#eee" stroke-width=".75"/><path d="M22.5 117l-9.263 11.798" id="SvgjsLine1027" stroke="#eee" stroke-width=".75"/><path d="M22.5 117l-10.464 10.747" id="SvgjsLine1028" stroke="#eee" stroke-width=".75"/><path d="M22.5 117l-11.548 9.574" id="SvgjsLine1029" stroke="#eee" stroke-width=".75"/><path d="M22.5 117L10 125.292" id="SvgjsLine1030" stroke="#eee" stroke-width=".75"/><path d="M22.5 117l-14.198 7.377" id="SvgjsLine1031" stroke="#eee" stroke-width=".75"/><path d="M22.5 117l-13.97 5.462" id="SvgjsLine1032" stroke="#eee" stroke-width=".75"/><path d="M22.5 117l-14.472 3.947" id="SvgjsLine1033" stroke="#eee" stroke-width=".75"/><path d="M22.5 117l-14.809 2.386" id="SvgjsLine1034" stroke="#eee" stroke-width=".75"/><path d="M22.5 117l-14.979.798" id="SvgjsLine1035" stroke="#eee" stroke-width=".75"/><path d="M22.5 117l-15.977-.852" id="SvgjsLine1036" stroke="#eee" stroke-width=".75"/><path d="M22.5 117l-14.809-2.386" id="SvgjsLine1037" stroke="#eee" stroke-width=".75"/><path d="M22.5 117l-14.472-3.947" id="SvgjsLine1038" stroke="#eee" stroke-width=".75"/><path d="M22.5 117l-13.97-5.462" id="SvgjsLine1039" stroke="#eee" stroke-width=".75"/><path d="M22.5 117l-13.31-6.916" id="SvgjsLine1040" stroke="#eee" stroke-width=".75"/><path d="M22.5 117l-13.333-8.845" id="SvgjsLine1041" stroke="#eee" stroke-width=".75"/><path d="M22.5 117l-11.548-9.574" id="SvgjsLine1042" stroke="#eee" stroke-width=".75"/><path d="M22.5 117l-10.464-10.747" id="SvgjsLine1043" stroke="#eee" stroke-width=".75"/><path d="M22.5 117l-9.263-11.798" id="SvgjsLine1044" stroke="#eee" stroke-width=".75"/><path d="M22.5 117l-7.956-12.716" id="SvgjsLine1045" stroke="#eee" stroke-width=".75"/><path d="M22.5 117l-6.997-14.389" id="SvgjsLine1046" stroke="#eee" stroke-width=".75"/><path d="M22.5 117l-5.089-14.11" id="SvgjsLine1047" stroke="#eee" stroke-width=".75"/><path d="M22.5 117l-3.56-14.571" id="SvgjsLine1048" stroke="#eee" stroke-width=".75"/><path d="M22.5 117l-1.99-14.867" id="SvgjsLine1049" stroke="#eee" stroke-width=".75"/><path d="M22.5 117l-.4-14.995" id="SvgjsLine1050" stroke="#eee" stroke-width=".75"/><path d="M22.5 117l1.277-15.949" id="SvgjsLine1051" stroke="#eee" stroke-width=".75"/><path d="M22.5 117l2.78-14.74" id="SvgjsLine1052" stroke="#eee" stroke-width=".75"/><path d="M22.5 117l4.33-14.361" id="SvgjsLine1053" stroke="#eee" stroke-width=".75"/><path d="M22.5 117l5.832-13.82" id="SvgjsLine1054" stroke="#eee" stroke-width=".75"/><path d="M22.5 117l7.268-13.121" id="SvgjsLine1055" stroke="#eee" stroke-width=".75"/><path d="M22.5 117l9.197-13.093" id="SvgjsLine1056" stroke="#eee" stroke-width=".75"/><path d="M22.5 117l9.878-11.289" id="SvgjsLine1057" stroke="#eee" stroke-width=".75"/><path d="M22.5 117l11.022-10.175" id="SvgjsLine1058" stroke="#eee" stroke-width=".75"/><path d="M22.5 117l12.04-8.946" id="SvgjsLine1059" stroke="#eee" stroke-width=".75"/><path d="M22.5 117l12.923-7.615" id="SvgjsLine1060" stroke="#eee" stroke-width=".75"/><path d="M22.5 117l14.57-6.611" id="SvgjsLine1061" stroke="#eee" stroke-width=".75"/><path d="M22.5 117l14.241-4.711" id="SvgjsLine1062" stroke="#eee" stroke-width=".75"/><path d="M22.5 117l14.661-3.17" id="SvgjsLine1063" stroke="#eee" stroke-width=".75"/><path d="M22.5 117l14.915-1.594" id="SvgjsLine1064" stroke="#eee" stroke-width=".75"/><path d="M22.5 117h15" id="SvgjsLine1065" stroke="#eee" stroke-width=".75"/><path d="M35.5 117a13 13 0 0 1-13 13 13 13 0 0 1-13-13 13 13 0 0 1 13-13 13 13 0 0 1 13 13z" id="SvgjsCircle1066" stroke="#eee" stroke-width=".75"/><path d="M22.5 242h16" id="SvgjsLine1067" stroke="#eee" stroke-width=".75"/><path d="M22.5 242l14.915 1.594" id="SvgjsLine1068" stroke="#eee" stroke-width=".75"/><path d="M22.5 242l14.661 3.17" id="SvgjsLine1069" stroke="#eee" stroke-width=".75"/><path d="M22.5 242l14.241 4.711" id="SvgjsLine1070" stroke="#eee" stroke-width=".75"/><path d="M22.5 242l13.66 6.198" id="SvgjsLine1071" stroke="#eee" stroke-width=".75"/><path d="M22.5 242l13.785 8.123" id="SvgjsLine1072" stroke="#eee" stroke-width=".75"/><path d="M22.5 242l12.04 8.946" id="SvgjsLine1073" stroke="#eee" stroke-width=".75"/><path d="M22.5 242l11.022 10.175" id="SvgjsLine1074" stroke="#eee" stroke-width=".75"/><path d="M22.5 242l9.878 11.289" id="SvgjsLine1075" stroke="#eee" stroke-width=".75"/><path d="M22.5 242l8.622 12.275" id="SvgjsLine1076" stroke="#eee" stroke-width=".75"/><path d="M22.5 242l7.753 13.996" id="SvgjsLine1077" stroke="#eee" stroke-width=".75"/><path d="M22.5 242l-8.487 13.564" id="SvgjsLine1078" stroke="#eee" stroke-width=".75"/><path d="M22.5 242l-9.263 11.798" id="SvgjsLine1079" stroke="#eee" stroke-width=".75"/><path d="M22.5 242l-10.464 10.747" id="SvgjsLine1080" stroke="#eee" stroke-width=".75"/><path d="M22.5 242l-11.548 9.574" id="SvgjsLine1081" stroke="#eee" stroke-width=".75"/><path d="M22.5 242L10 250.292" id="SvgjsLine1082" stroke="#eee" stroke-width=".75"/><path d="M22.5 242l-14.198 7.377" id="SvgjsLine1083" stroke="#eee" stroke-width=".75"/><path d="M22.5 242l-13.97 5.462" id="SvgjsLine1084" stroke="#eee" stroke-width=".75"/><path d="M22.5 242l-14.472 3.947" id="SvgjsLine1085" stroke="#eee" stroke-width=".75"/><path d="M22.5 242l-14.809 2.386" id="SvgjsLine1086" stroke="#eee" stroke-width=".75"/><path d="M22.5 242l-14.979.798" id="SvgjsLine1087" stroke="#eee" stroke-width=".75"/><path d="M22.5 242l-15.977-.852" id="SvgjsLine1088" stroke="#eee" stroke-width=".75"/><path d="M22.5 242l-14.809-2.386" id="SvgjsLine1089" stroke="#eee" stroke-width=".75"/><path d="M22.5 242l-14.472-3.947" id="SvgjsLine1090" stroke="#eee" stroke-width=".75"/><path d="M22.5 242l-13.97-5.462" id="SvgjsLine1091" stroke="#eee" stroke-width=".75"/><path d="M22.5 242l-13.31-6.916" id="SvgjsLine1092" stroke="#eee" stroke-width=".75"/><path d="M22.5 242l-13.333-8.845" id="SvgjsLine1093" stroke="#eee" stroke-width=".75"/><path d="M22.5 242l-11.548-9.574" id="SvgjsLine1094" stroke="#eee" stroke-width=".75"/><path d="M22.5 242l-10.464-10.747" id="SvgjsLine1095" stroke="#eee" stroke-width=".75"/><path d="M22.5 242l-9.263-11.798" id="SvgjsLine1096" stroke="#eee" stroke-width=".75"/><path d="M22.5 242l-7.956-12.716" id="SvgjsLine1097" stroke="#eee" stroke-width=".75"/><path d="M22.5 242l-6.997-14.389" id="SvgjsLine1098" stroke="#eee" stroke-width=".75"/><path d="M22.5 242l-5.089-14.11" id="SvgjsLine1099" stroke="#eee" stroke-width=".75"/><path d="M22.5 242l-3.56-14.571" id="SvgjsLine1100" stroke="#eee" stroke-width=".75"/><path d="M22.5 242l-1.99-14.867" id="SvgjsLine1101" stroke="#eee" stroke-width=".75"/><path d="M22.5 242l-.4-14.995" id="SvgjsLine1102" stroke="#eee" stroke-width=".75"/><path d="M22.5 242l1.277-15.949" id="SvgjsLine1103" stroke="#eee" stroke-width=".75"/><path d="M22.5 242l2.78-14.74" id="SvgjsLine1104" stroke="#eee" stroke-width=".75"/><path d="M22.5 242l4.33-14.361" id="SvgjsLine1105" stroke="#eee" stroke-width=".75"/><path d="M22.5 242l5.832-13.82" id="SvgjsLine1106" stroke="#eee" stroke-width=".75"/><path d="M22.5 242l7.268-13.121" id="SvgjsLine1107" stroke="#eee" stroke-width=".75"/><path d="M22.5 242l9.197-13.093" id="SvgjsLine1108" stroke="#eee" stroke-width=".75"/><path d="M22.5 242l9.878-11.289" id="SvgjsLine1109" stroke="#eee" stroke-width=".75"/><path d="M22.5 242l11.022-10.175" id="SvgjsLine1110" stroke="#eee" stroke-width=".75"/><path d="M22.5 242l12.04-8.946" id="SvgjsLine1111" stroke="#eee" stroke-width=".75"/><path d="M22.5 242l12.923-7.615" id="SvgjsLine1112" stroke="#eee" stroke-width=".75"/><path d="M22.5 242l14.57-6.611" id="SvgjsLine1113" stroke="#eee" stroke-width=".75"/><path d="M22.5 242l14.241-4.711" id="SvgjsLine1114" stroke="#eee" stroke-width=".75"/><path d="M22.5 242l14.661-3.17" id="SvgjsLine1115" stroke="#eee" stroke-width=".75"/><path d="M22.5 242l14.915-1.594" id="SvgjsLine1116" stroke="#eee" stroke-width=".75"/><path d="M22.5 242h15" id="SvgjsLine1117" stroke="#eee" stroke-width=".75"/><path d="M35.5 242a13 13 0 0 1-13 13 13 13 0 0 1-13-13 13 13 0 0 1 13-13 13 13 0 0 1 13 13z" id="SvgjsCircle1118" stroke="#eee" stroke-width=".75"/></svg>