<?xml version="1.0" encoding="UTF-8" standalone="no"?>
<svg
   xmlns:osb="http://www.openswatchbook.org/uri/2009/osb"
   xmlns:dc="http://purl.org/dc/elements/1.1/"
   xmlns:cc="http://creativecommons.org/ns#"
   xmlns:rdf="http://www.w3.org/1999/02/22-rdf-syntax-ns#"
   xmlns:svg="http://www.w3.org/2000/svg"
   xmlns="http://www.w3.org/2000/svg"
   xmlns:xlink="http://www.w3.org/1999/xlink"
   xmlns:sodipodi="http://sodipodi.sourceforge.net/DTD/sodipodi-0.dtd"
   xmlns:inkscape="http://www.inkscape.org/namespaces/inkscape"
   height="380"
   style="zoom: 8;"
   cursor="default"
   id="SvgjsSvg1006"
   sodipodi:docname="M.svg"
   inkscape:version="0.92.2 5c3e80d, 2017-08-06"
   width="30"
   version="1.1">
  <metadata
     id="metadata7215">
    <rdf:RDF>
      <cc:Work
         rdf:about="">
        <dc:format>image/svg+xml</dc:format>
        <dc:type
           rdf:resource="http://purl.org/dc/dcmitype/StillImage" />
        <dc:title />
      </cc:Work>
    </rdf:RDF>
  </metadata>
  <sodipodi:namedview
     borderopacity="1"
     inkscape:zoom="2.9512404"
     inkscape:cy="94.584588"
     gridtolerance="10"
     inkscape:cx="-23.961451"
     inkscape:window-height="1006"
     inkscape:measure-start="21.6858,252.097"
     inkscape:pagecheckerboard="true"
     inkscape:window-width="901"
     guidetolerance="10"
     id="namedview7213"
     showgrid="false"
     inkscape:pageopacity="0"
     inkscape:pageshadow="2"
     bordercolor="#666666"
     inkscape:current-layer="SvgjsSvg1006"
     inkscape:window-maximized="0"
     inkscape:window-y="11"
     inkscape:measure-end="21.0081,301.907"
     objecttolerance="10"
     pagecolor="#ffffff"
     inkscape:window-x="496"
     visibility="visible" />
  <defs
     id="SvgjsDefs1007">
    <linearGradient
       inkscape:collect="always"
       id="linearGradient838">
      <stop
         style="stop-color:#ff8600;stop-opacity:1;"
         offset="0"
         id="stop834" />
      <stop
         style="stop-color:#ff8600;stop-opacity:0;"
         offset="1"
         id="stop836" />
    </linearGradient>
    <linearGradient
       id="linearGradient2396"
       osb:paint="gradient">
      <stop
         style="stop-color:#ff8f00;stop-opacity:1;"
         offset="0"
         id="stop2392" />
      <stop
         style="stop-color:#ff8f00;stop-opacity:0;"
         offset="1"
         id="stop2394" />
    </linearGradient>
    <linearGradient
       id="linearGradient2384"
       osb:paint="solid">
      <stop
         style="stop-color:#ff8f00;stop-opacity:1;"
         offset="0"
         id="stop2382" />
    </linearGradient>
    <linearGradient
       id="linearGradient898"
       osb:paint="solid">
      <stop
         style="stop-color:#ff8f00;stop-opacity:1;"
         offset="0"
         id="stop896" />
    </linearGradient>
    <linearGradient
       inkscape:collect="always"
       id="linearGradient915">
      <stop
         style="stop-color:#1b1b1b;stop-opacity:1;"
         offset="0"
         id="stop911" />
      <stop
         style="stop-color:#1d1d1d;stop-opacity:1;"
         offset="1"
         id="stop913" />
    </linearGradient>
    <linearGradient
       inkscape:collect="always"
       xlink:href="#linearGradient915"
       id="linearGradient919"
       x1="0"
       y1="190"
       x2="30"
       y2="190"
       gradientUnits="userSpaceOnUse" />
    <style
       id="OpenSans_Google_Webfont_import">@import url(https://fonts.googleapis.com/css?family=Open+Sans);</style>
    <style
       id="style31">@import url(https://fonts.googleapis.com/css?family='Open Sans');</style>
    <style
       id="style33">@import url(https://fonts.googleapis.com/css?family='Open Sans');</style>
    <style
       id="style35">@import url(https://fonts.googleapis.com/css?family='Open Sans');</style>
    <style
       id="style22">@import url(https://fonts.googleapis.com/css?family='Open Sans');</style>
    <style
       id="style24">@import url(https://fonts.googleapis.com/css?family='Open Sans');</style>
    <style
       id="style26">@import url(https://fonts.googleapis.com/css?family='Open Sans');</style>
    <linearGradient
       inkscape:collect="always"
       xlink:href="#linearGradient838"
       id="linearGradient840"
       x1="19.991594"
       y1="333.23999"
       x2="27.784927"
       y2="400.33044"
       gradientUnits="userSpaceOnUse"
       gradientTransform="translate(-6)" />
  </defs>
  <path
     d="M0,0 H30 V380 H0 Z"
     id="SvgjsRect1008"
     style="fill:url(#linearGradient919);fill-opacity:1;stroke:none;stroke-opacity:1"
     visibility="visible" />
  <path
     d="m 35.004911,342.87682 c -1.492639,-4.60366 -4.104196,-9.04635 -7.187505,-12.89608 -0.426049,-0.52359 -1.969544,-1.90716 -1.969544,-1.90716 1.322369,3.05255 1.238339,6.21832 0.573467,9.07712 -3.605176,-7.34797 -9.922897,-16.54618 -19.424907,-21.40183 1e-6,0 6.324356,14.26788 -2.700752,30.01166 -0.497545,-2.12189 -1.003936,-5.1705 -0.731207,-8.19293 1e-6,0 -1.141036,0.86654 -1.272978,0.99218 -1.017942,0.9628 -1.870772,2.08918 -2.621881,3.25089 -2.73908,4.35956 -4.183067,9.62692 -3.825571,14.92499 0.133416,2.0047 0.510813,4.0068 1.021626,5.97879 1.584775,6.31451 5.226807,12.93469 10.628308,15.9689 -1.699762,-2.85425 -2.736868,-6.57044 -2.736868,-10.64465 -1e-6,-1.68924 0.177641,-3.32938 0.513762,-4.86154 0.03833,0.67807 0.151844,1.37704 0.339804,2.08978 0.725312,2.74688 2.396326,4.93484 4.292896,5.93557 -0.857252,-2.21868 -1.166836,-5.15213 -0.706883,-8.29235 0.333171,-2.31366 1.028259,-4.42438 1.973965,-6.15747 1.048162,-1.96479 2.398537,-3.44327 3.85358,-4.17762 -0.605899,1.02625 -1.059955,2.35291 -1.294355,3.85038 -0.0914,0.57528 -0.145208,1.18005 -0.16511,1.8077 -0.0088,0.14203 -0.0088,0.28669 -0.0088,0.44178 0,0.38681 0.01327,0.77295 0.04939,1.1473 0.130466,1.78089 0.571992,3.37195 1.228015,4.60435 0.03612,0.0674 0.06929,0.12765 0.103932,0.18917 0.324325,0.54322 0.859465,0.91953 1.474209,0.9935 0,0 0,0 0.0066,0 0.06045,0.005 0.12973,0.01 0.197544,0.01 0.01916,0 0.04349,0 0.06045,-0.005 0.928751,-0.0249 1.699762,-0.76248 1.907625,-1.73899 0.03243,-0.15774 0.05455,-0.32858 0.05455,-0.49676 0,-0.013 0,-0.0255 0,-0.036 0.05528,-0.70554 0.0059,-1.46738 -0.144472,-2.25406 -0.08034,-0.41888 -0.180592,-0.81943 -0.314009,-1.2023 -0.163637,-0.49808 -0.363392,-0.94968 -0.59263,-1.37116 0.379608,0.0693 0.762165,0.18064 1.12998,0.34818 1.404184,0.60937 2.66021,1.85354 3.529257,3.48846 0.14447,0.27881 0.27936,0.56745 0.398035,0.86982 0.251352,0.61325 0.445948,1.26446 0.578627,1.95694 0.06266,0.341 0.109828,0.67083 0.137838,1.00463 0.382557,-0.7193 0.729732,-1.50924 1.028997,-2.34765 0.574942,-1.57407 0.908112,-3.10166 1.009833,-4.4401 1.085754,2.50214 1.714504,5.46698 1.714504,8.64258 0,4.14487 -1.073223,7.91278 -2.826794,10.78861 0.900742,-0.45618 1.77126,-0.98502 2.587235,-1.58844 3.051613,-2.20825 5.20322,-5.62864 6.594135,-9.33368 0.783543,-2.02765 1.553078,-4.29023 1.92458,-6.42319 1.099758,-6.18427 1.42556,-12.7403 -0.388455,-18.60455 z"
     id="path2"
     style="visibility:visible;fill:url(#linearGradient840);fill-opacity:1;stroke:none;stroke-width:0.69457018;stroke-opacity:1"
     inkscape:connector-curvature="0"
     visibility="visible" />
  <g
     aria-label="M"
     style="font-size:12px;font-family:'Open Sans';text-anchor:middle;fill:#eeeeee;stroke:none;stroke-width:1px;text-rendering:geometricPrecision"
     id="text5">
    <path
       d="m 10.998047,16.251953 h 1.763672 l 2.232422,5.953125 2.24414,-5.953125 h 1.763672 V 25 h -1.154297 v -7.681641 l -2.255859,6 h -1.189453 l -2.25586,-6 V 25 h -1.148437 z"
       style="font-size:12px;font-family:'Open Sans';text-anchor:middle;fill:#eeeeee;stroke:none;stroke-width:1px;text-rendering:geometricPrecision"
       id="path151" />
  </g>
  <g
     aria-label="IN"
     style="font-size:8px;font-family:'Open Sans';text-anchor:middle;fill:#eeeeee;stroke:none;stroke-width:1px;text-rendering:geometricPrecision"
     id="text7">
    <path
       d="m 11.613281,54.167969 h 0.789063 V 60 h -0.789063 z"
       style="font-size:8px;font-family:'Open Sans';text-anchor:middle;fill:#eeeeee;stroke:none;stroke-width:1px;text-rendering:geometricPrecision"
       id="path154" />
    <path
       d="m 13.972656,54.167969 h 1.0625 l 2.585938,4.878906 v -4.878906 h 0.765625 V 60 h -1.0625 L 14.738281,55.121094 V 60 h -0.765625 z"
       style="font-size:8px;font-family:'Open Sans';text-anchor:middle;fill:#eeeeee;stroke:none;stroke-width:1px;text-rendering:geometricPrecision"
       id="path156" />
  </g>
  <g
     aria-label="IN"
     style="font-size:8px;font-family:'Open Sans';text-anchor:middle;fill:#eeeeee;stroke:none;stroke-width:1px;text-rendering:geometricPrecision"
     id="text29">
    <path
       d="m 11.613281,89.167969 h 0.789063 V 95 h -0.789063 z"
       style="font-size:8px;font-family:'Open Sans';text-anchor:middle;fill:#eeeeee;stroke:none;stroke-width:1px;text-rendering:geometricPrecision"
       id="path159" />
    <path
       d="m 13.972656,89.167969 h 1.0625 l 2.585938,4.878906 v -4.878906 h 0.765625 V 95 h -1.0625 L 14.738281,90.121094 V 95 h -0.765625 z"
       style="font-size:8px;font-family:'Open Sans';text-anchor:middle;fill:#eeeeee;stroke:none;stroke-width:1px;text-rendering:geometricPrecision"
       id="path161" />
  </g>
  <g
     aria-label="MIX"
     style="font-size:8px;font-family:'Open Sans';text-anchor:middle;fill:#eeeeee;stroke:none;stroke-width:1px;text-rendering:geometricPrecision"
     id="text31">
    <path
       d="m 8.4101563,129.16797 h 1.1757812 l 1.4882815,3.96875 1.496094,-3.96875 h 1.175781 V 135 h -0.769531 v -5.12109 l -1.503907,4 h -0.792968 l -1.5039067,-4 V 135 h -0.765625 z"
       style="font-size:8px;font-family:'Open Sans';text-anchor:middle;fill:#eeeeee;stroke:none;stroke-width:1px;text-rendering:geometricPrecision"
       id="path164" />
    <path
       d="m 15.316406,129.16797 h 0.789063 V 135 h -0.789063 z"
       style="font-size:8px;font-family:'Open Sans';text-anchor:middle;fill:#eeeeee;stroke:none;stroke-width:1px;text-rendering:geometricPrecision"
       id="path166" />
    <path
       d="m 17.394531,129.16797 h 0.847656 l 1.449219,2.16797 1.457031,-2.16797 h 0.847657 l -1.875,2.80078 2,3.03125 H 21.273437 L 19.632812,132.51953 17.980469,135 h -0.851563 l 2.082031,-3.11328 z"
       style="font-size:8px;font-family:'Open Sans';text-anchor:middle;fill:#eeeeee;stroke:none;stroke-width:1px;text-rendering:geometricPrecision"
       id="path168" />
  </g>
  <g
     aria-label="OUT"
     style="font-size:8px;font-family:'Open Sans';text-anchor:middle;fill:#eeeeee;stroke:none;stroke-width:1px;text-rendering:geometricPrecision"
     id="text33">
    <path
       d="m 9.6289063,164.70312 q -0.859375,0 -1.3671875,0.64063 -0.5039063,0.64062 -0.5039063,1.74609 0,1.10157 0.5039063,1.74219 0.5078125,0.64063 1.3671875,0.64063 0.8593747,0 1.3593747,-0.64063 0.503907,-0.64062 0.503907,-1.74219 0,-1.10547 -0.503907,-1.74609 -0.5,-0.64063 -1.3593747,-0.64063 z m 0,-0.64062 q 1.2265627,0 1.9609377,0.82422 0.734375,0.82031 0.734375,2.20312 0,1.37891 -0.734375,2.20313 -0.734375,0.82031 -1.9609377,0.82031 -1.2304688,0 -1.9687501,-0.82031 -0.734375,-0.82031 -0.734375,-2.20313 0,-1.38281 0.734375,-2.20312 0.7382813,-0.82422 1.9687501,-0.82422 z"
       style="font-size:8px;font-family:'Open Sans';text-anchor:middle;fill:#eeeeee;stroke:none;stroke-width:1px;text-rendering:geometricPrecision"
       id="path171" />
    <path
       d="m 13.46875,164.16797 h 0.792969 v 3.54297 q 0,0.9375 0.339844,1.35156 0.339843,0.41016 1.101562,0.41016 0.757812,0 1.097656,-0.41016 0.339844,-0.41406 0.339844,-1.35156 v -3.54297 h 0.792969 v 3.64062 q 0,1.14063 -0.566407,1.72266 -0.5625,0.58203 -1.664062,0.58203 -1.105469,0 -1.671875,-0.58203 -0.5625,-0.58203 -0.5625,-1.72266 z"
       style="font-size:8px;font-family:'Open Sans';text-anchor:middle;fill:#eeeeee;stroke:none;stroke-width:1px;text-rendering:geometricPrecision"
       id="path173" />
    <path
       d="m 18.609375,164.16797 h 4.933594 v 0.66406 H 21.472656 V 170 h -0.792969 v -5.16797 h -2.070312 z"
       style="font-size:8px;font-family:'Open Sans';text-anchor:middle;fill:#eeeeee;stroke:none;stroke-width:1px;text-rendering:geometricPrecision"
       id="path175" />
  </g>
  <path
     style="stroke:#eeeeee"
     d="M 0,190 H 30"
     id="line35" />
  <g
     aria-label="M"
     style="font-size:12px;font-family:'Open Sans';text-anchor:middle;fill:#eeeeee;stroke:none;stroke-width:1px;text-rendering:geometricPrecision"
     id="text37">
    <path
       d="m 10.998047,206.25195 h 1.763672 l 2.232422,5.95313 2.24414,-5.95313 h 1.763672 V 215 h -1.154297 v -7.68164 l -2.255859,6 h -1.189453 l -2.25586,-6 V 215 h -1.148437 z"
       style="font-size:12px;font-family:'Open Sans';text-anchor:middle;fill:#eeeeee;stroke:none;stroke-width:1px;text-rendering:geometricPrecision"
       id="path179" />
  </g>
  <g
     aria-label="IN"
     style="font-size:8px;font-family:'Open Sans';text-anchor:middle;fill:#eeeeee;stroke:none;stroke-width:1px;text-rendering:geometricPrecision"
     id="text39">
    <path
       d="m 11.613281,244.16797 h 0.789063 V 250 h -0.789063 z"
       style="font-size:8px;font-family:'Open Sans';text-anchor:middle;fill:#eeeeee;stroke:none;stroke-width:1px;text-rendering:geometricPrecision"
       id="path182" />
    <path
       d="m 13.972656,244.16797 h 1.0625 l 2.585938,4.8789 v -4.8789 h 0.765625 V 250 h -1.0625 l -2.585938,-4.87891 V 250 h -0.765625 z"
       style="font-size:8px;font-family:'Open Sans';text-anchor:middle;fill:#eeeeee;stroke:none;stroke-width:1px;text-rendering:geometricPrecision"
       id="path184" />
  </g>
  <g
     aria-label="IN"
     style="font-size:8px;font-family:'Open Sans';text-anchor:middle;fill:#eeeeee;stroke:none;stroke-width:1px;text-rendering:geometricPrecision"
     id="text35">
    <path
       d="m 11.613281,279.16797 h 0.789063 V 285 h -0.789063 z"
       style="font-size:8px;font-family:'Open Sans';text-anchor:middle;fill:#eeeeee;stroke:none;stroke-width:1px;text-rendering:geometricPrecision"
       id="path187" />
    <path
       d="m 13.972656,279.16797 h 1.0625 l 2.585938,4.8789 v -4.8789 h 0.765625 V 285 h -1.0625 l -2.585938,-4.87891 V 285 h -0.765625 z"
       style="font-size:8px;font-family:'Open Sans';text-anchor:middle;fill:#eeeeee;stroke:none;stroke-width:1px;text-rendering:geometricPrecision"
       id="path189" />
  </g>
  <g
     aria-label="MIX"
     style="font-size:8px;font-family:'Open Sans';text-anchor:middle;fill:#eeeeee;stroke:none;stroke-width:1px;text-rendering:geometricPrecision"
     id="text42">
    <path
       d="m 8.4101563,319.16797 h 1.1757812 l 1.4882815,3.96875 1.496094,-3.96875 h 1.175781 V 325 h -0.769531 v -5.12109 l -1.503907,4 h -0.792968 l -1.5039067,-4 V 325 h -0.765625 z"
       style="font-size:8px;font-family:'Open Sans';text-anchor:middle;fill:#eeeeee;stroke:none;stroke-width:1px;text-rendering:geometricPrecision"
       id="path192" />
    <path
       d="m 15.316406,319.16797 h 0.789063 V 325 h -0.789063 z"
       style="font-size:8px;font-family:'Open Sans';text-anchor:middle;fill:#eeeeee;stroke:none;stroke-width:1px;text-rendering:geometricPrecision"
       id="path194" />
    <path
       d="m 17.394531,319.16797 h 0.847656 l 1.449219,2.16797 1.457031,-2.16797 h 0.847657 l -1.875,2.80078 2,3.03125 H 21.273437 L 19.632812,322.51953 17.980469,325 h -0.851563 l 2.082031,-3.11328 z"
       style="font-size:8px;font-family:'Open Sans';text-anchor:middle;fill:#eeeeee;stroke:none;stroke-width:1px;text-rendering:geometricPrecision"
       id="path196" />
  </g>
  <g
     aria-label="OUT"
     style="font-size:8px;font-family:'Open Sans';text-anchor:middle;fill:#eeeeee;stroke:none;stroke-width:1px;text-rendering:geometricPrecision"
     id="text44">
    <path
       d="m 9.6289063,354.70312 q -0.859375,0 -1.3671875,0.64063 -0.5039063,0.64062 -0.5039063,1.74609 0,1.10157 0.5039063,1.74219 0.5078125,0.64063 1.3671875,0.64063 0.8593747,0 1.3593747,-0.64063 0.503907,-0.64062 0.503907,-1.74219 0,-1.10547 -0.503907,-1.74609 -0.5,-0.64063 -1.3593747,-0.64063 z m 0,-0.64062 q 1.2265627,0 1.9609377,0.82422 0.734375,0.82031 0.734375,2.20312 0,1.37891 -0.734375,2.20313 -0.734375,0.82031 -1.9609377,0.82031 -1.2304688,0 -1.9687501,-0.82031 -0.734375,-0.82031 -0.734375,-2.20313 0,-1.38281 0.734375,-2.20312 0.7382813,-0.82422 1.9687501,-0.82422 z"
       style="font-size:8px;font-family:'Open Sans';text-anchor:middle;fill:#eeeeee;stroke:none;stroke-width:1px;text-rendering:geometricPrecision"
       id="path199" />
    <path
       d="m 13.46875,354.16797 h 0.792969 v 3.54297 q 0,0.9375 0.339844,1.35156 0.339843,0.41016 1.101562,0.41016 0.757812,0 1.097656,-0.41016 0.339844,-0.41406 0.339844,-1.35156 v -3.54297 h 0.792969 v 3.64062 q 0,1.14063 -0.566407,1.72266 -0.5625,0.58203 -1.664062,0.58203 -1.105469,0 -1.671875,-0.58203 -0.5625,-0.58203 -0.5625,-1.72266 z"
       style="font-size:8px;font-family:'Open Sans';text-anchor:middle;fill:#eeeeee;stroke:none;stroke-width:1px;text-rendering:geometricPrecision"
       id="path201" />
    <path
       d="m 18.609375,354.16797 h 4.933594 v 0.66406 H 21.472656 V 360 h -0.792969 v -5.16797 h -2.070312 z"
       style="font-size:8px;font-family:'Open Sans';text-anchor:middle;fill:#eeeeee;stroke:none;stroke-width:1px;text-rendering:geometricPrecision"
       id="path203" />
  </g>
  <path
     style="stroke:#eeeeee;stroke-width:0.75"
     d="M 15,112 H 29"
     id="SvgjsLine1007" />
  <path
     style="stroke:#eeeeee;stroke-width:0.75"
     d="m 15,112 12.926352,1.38181"
     id="SvgjsLine1008" />
  <path
     style="stroke:#eeeeee;stroke-width:0.75"
     d="m 15,112 12.706244,2.74797"
     id="SvgjsLine1009" />
  <path
     style="stroke:#eeeeee;stroke-width:0.75"
     d="m 15,112 12.342169,4.083"
     id="SvgjsLine1010" />
  <path
     style="stroke:#eeeeee;stroke-width:0.75"
     d="m 15,112 11.838251,5.37176"
     id="SvgjsLine1011" />
  <path
     style="stroke:#eeeeee;stroke-width:0.75"
     d="m 15,112 12.061758,7.10732"
     id="SvgjsLine1012" />
  <path
     style="stroke:#eeeeee;stroke-width:0.75"
     d="m 15,112 10.435251,7.75278"
     id="SvgjsLine1013" />
  <path
     style="stroke:#eeeeee;stroke-width:0.75"
     d="m 15,112 9.552065,8.81805"
     id="SvgjsLine1014" />
  <path
     style="stroke:#eeeeee;stroke-width:0.75"
     d="m 15,112 8.560648,9.78342"
     id="SvgjsLine1015" />
  <path
     style="stroke:#eeeeee;stroke-width:0.75"
     d="m 15,112 7.472237,10.63794"
     id="SvgjsLine1016" />
  <path
     style="stroke:#eeeeee;stroke-width:0.75"
     d="m 15,112 6.783712,12.24668"
     id="SvgjsLine1017" />
  <path
     style="stroke:#eeeeee;stroke-width:0.75"
     d="M 15,112 7.5741072,123.86828"
     id="SvgjsLine1018" />
  <path
     style="stroke:#eeeeee;stroke-width:0.75"
     d="M 15,112 6.9721799,122.22517"
     id="SvgjsLine1019" />
  <path
     style="stroke:#eeeeee;stroke-width:0.75"
     d="m 15,112 -9.0692096,9.31393"
     id="SvgjsLine1020" />
  <path
     style="stroke:#eeeeee;stroke-width:0.75"
     d="M 15,112 4.9921584,120.29717"
     id="SvgjsLine1021" />
  <path
     style="stroke:#eeeeee;stroke-width:0.75"
     d="M 15,112 4.1669192,119.1864"
     id="SvgjsLine1022" />
  <path
     style="stroke:#eeeeee;stroke-width:0.75"
     d="M 15,112 2.577071,118.45529"
     id="SvgjsLine1023" />
  <path
     style="stroke:#eeeeee;stroke-width:0.75"
     d="M 15,112 2.8926296,116.73409"
     id="SvgjsLine1024" />
  <path
     style="stroke:#eeeeee;stroke-width:0.75"
     d="M 15,112 2.4580176,115.42033"
     id="SvgjsLine1025" />
  <path
     style="stroke:#eeeeee;stroke-width:0.75"
     d="M 15,112 2.1655114,114.06783"
     id="SvgjsLine1026" />
  <path
     style="stroke:#eeeeee;stroke-width:0.75"
     d="M 15,112 2.018425,112.69189"
     id="SvgjsLine1027" />
  <path
     style="stroke:#eeeeee;stroke-width:0.75"
     d="M 15,112 1.0198423,111.25489"
     id="SvgjsLine1028" />
  <path
     style="stroke:#eeeeee;stroke-width:0.75"
     d="M 15,112 2.1655114,109.93217"
     id="SvgjsLine1029" />
  <path
     style="stroke:#eeeeee;stroke-width:0.75"
     d="M 15,112 2.4580176,108.57967"
     id="SvgjsLine1030" />
  <path
     style="stroke:#eeeeee;stroke-width:0.75"
     d="M 15,112 2.8926296,107.26591"
     id="SvgjsLine1031" />
  <path
     style="stroke:#eeeeee;stroke-width:0.75"
     d="M 15,112 3.4644229,106.0058"
     id="SvgjsLine1032" />
  <path
     style="stroke:#eeeeee;stroke-width:0.75"
     d="M 15,112 3.3336051,104.2608"
     id="SvgjsLine1033" />
  <path
     style="stroke:#eeeeee;stroke-width:0.75"
     d="M 15,112 4.9921584,103.70283"
     id="SvgjsLine1034" />
  <path
     style="stroke:#eeeeee;stroke-width:0.75"
     d="M 15,112 5.9307904,102.68607"
     id="SvgjsLine1035" />
  <path
     style="stroke:#eeeeee;stroke-width:0.75"
     d="M 15,112 6.9721799,101.77483"
     id="SvgjsLine1036" />
  <path
     style="stroke:#eeeeee;stroke-width:0.75"
     d="M 15,112 8.1045284,100.97945"
     id="SvgjsLine1037" />
  <path
     style="stroke:#eeeeee;stroke-width:0.75"
     d="M 15,112 8.8776979,99.40963"
     id="SvgjsLine1038" />
  <path
     style="stroke:#eeeeee;stroke-width:0.75"
     d="M 15,112 10.589894,99.770897"
     id="SvgjsLine1039" />
  <path
     style="stroke:#eeeeee;stroke-width:0.75"
     d="M 15,112 11.914753,99.371414"
     id="SvgjsLine1040" />
  <path
     style="stroke:#eeeeee;stroke-width:0.75"
     d="M 15,112 13.274569,99.115013"
     id="SvgjsLine1041" />
  <path
     style="stroke:#eeeeee;stroke-width:0.75"
     d="M 15,112 14.653934,99.004608"
     id="SvgjsLine1042" />
  <path
     style="stroke:#eeeeee;stroke-width:0.75"
     d="M 15,112 16.117006,98.044632"
     id="SvgjsLine1043" />
  <path
     style="stroke:#eeeeee;stroke-width:0.75"
     d="M 15,112 17.408754,99.225105"
     id="SvgjsLine1044" />
  <path
     style="stroke:#eeeeee;stroke-width:0.75"
     d="M 15,112 18.752995,99.553513"
     id="SvgjsLine1045" />
  <path
     style="stroke:#eeeeee;stroke-width:0.75"
     d="m 15,112 5.054714,-11.97706"
     id="SvgjsLine1046" />
  <path
     style="stroke:#eeeeee;stroke-width:0.75"
     d="m 15,112 6.299162,-11.37192"
     id="SvgjsLine1047" />
  <path
     style="stroke:#eeeeee;stroke-width:0.75"
     d="m 15,112 8.047024,-11.45624"
     id="SvgjsLine1048" />
  <path
     style="stroke:#eeeeee;stroke-width:0.75"
     d="m 15,112 8.560648,-9.78342"
     id="SvgjsLine1049" />
  <path
     style="stroke:#eeeeee;stroke-width:0.75"
     d="m 15,112 9.552065,-8.81805"
     id="SvgjsLine1050" />
  <path
     style="stroke:#eeeeee;stroke-width:0.75"
     d="m 15,112 10.435251,-7.75278"
     id="SvgjsLine1051" />
  <path
     style="stroke:#eeeeee;stroke-width:0.75"
     d="m 15,112 11.200203,-6.59966"
     id="SvgjsLine1052" />
  <path
     style="stroke:#eeeeee;stroke-width:0.75"
     d="m 15,112 12.748886,-5.78497"
     id="SvgjsLine1053" />
  <path
     style="stroke:#eeeeee;stroke-width:0.75"
     d="m 15,112 12.342169,-4.083"
     id="SvgjsLine1054" />
  <path
     style="stroke:#eeeeee;stroke-width:0.75"
     d="m 15,112 12.706244,-2.74797"
     id="SvgjsLine1055" />
  <path
     style="stroke:#eeeeee;stroke-width:0.75"
     d="m 15,112 12.926352,-1.38181"
     id="SvgjsLine1056" />
  <path
     style="stroke:#eeeeee;stroke-width:0.75"
     d="M 15,112 H 28"
     id="SvgjsLine1057" />
  <path
     style="fill:#000000;stroke:#eeeeee;stroke-width:0.75"
     d="M 26,112 A 11,11 0 0 1 15,123 11,11 0 0 1 4,112 11,11 0 0 1 15,101 11,11 0 0 1 26,112 Z"
     id="SvgjsCircle1058" />
  <path
     style="stroke:#eeeeee;stroke-width:0.75"
     d="M 15,302 H 29"
     id="SvgjsLine1059" />
  <path
     style="stroke:#eeeeee;stroke-width:0.75"
     d="m 15,302 12.926352,1.38181"
     id="SvgjsLine1060" />
  <path
     style="stroke:#eeeeee;stroke-width:0.75"
     d="m 15,302 12.706244,2.74799"
     id="SvgjsLine1061" />
  <path
     style="stroke:#eeeeee;stroke-width:0.75"
     d="m 15,302 12.342169,4.08301"
     id="SvgjsLine1062" />
  <path
     style="stroke:#eeeeee;stroke-width:0.75"
     d="m 15,302 11.838251,5.37177"
     id="SvgjsLine1063" />
  <path
     style="stroke:#eeeeee;stroke-width:0.75"
     d="m 15,302 12.061758,7.10733"
     id="SvgjsLine1064" />
  <path
     style="stroke:#eeeeee;stroke-width:0.75"
     d="m 15,302 10.435251,7.75278"
     id="SvgjsLine1065" />
  <path
     style="stroke:#eeeeee;stroke-width:0.75"
     d="m 15,302 9.552065,8.81805"
     id="SvgjsLine1066" />
  <path
     style="stroke:#eeeeee;stroke-width:0.75"
     d="m 15,302 8.560648,9.78342"
     id="SvgjsLine1067" />
  <path
     style="stroke:#eeeeee;stroke-width:0.75"
     d="m 15,302 7.472237,10.63794"
     id="SvgjsLine1068" />
  <path
     style="stroke:#eeeeee;stroke-width:0.75"
     d="m 15,302 6.783712,12.24667"
     id="SvgjsLine1069" />
  <path
     style="stroke:#eeeeee;stroke-width:0.75"
     d="M 15,302 7.5741072,313.86829"
     id="SvgjsLine1070" />
  <path
     style="stroke:#eeeeee;stroke-width:0.75"
     d="M 15,302 6.9721799,312.22516"
     id="SvgjsLine1071" />
  <path
     style="stroke:#eeeeee;stroke-width:0.75"
     d="m 15,302 -9.0692096,9.31393"
     id="SvgjsLine1072" />
  <path
     style="stroke:#eeeeee;stroke-width:0.75"
     d="M 15,302 4.9921584,310.29718"
     id="SvgjsLine1073" />
  <path
     style="stroke:#eeeeee;stroke-width:0.75"
     d="M 15,302 4.1669192,309.1864"
     id="SvgjsLine1074" />
  <path
     style="stroke:#eeeeee;stroke-width:0.75"
     d="M 15,302 2.577071,308.45529"
     id="SvgjsLine1075" />
  <path
     style="stroke:#eeeeee;stroke-width:0.75"
     d="M 15,302 2.8926296,306.7341"
     id="SvgjsLine1076" />
  <path
     style="stroke:#eeeeee;stroke-width:0.75"
     d="M 15,302 2.4580176,305.42032"
     id="SvgjsLine1077" />
  <path
     style="stroke:#eeeeee;stroke-width:0.75"
     d="M 15,302 2.1655114,304.06784"
     id="SvgjsLine1078" />
  <path
     style="stroke:#eeeeee;stroke-width:0.75"
     d="M 15,302 2.018425,302.69189"
     id="SvgjsLine1079" />
  <path
     style="stroke:#eeeeee;stroke-width:0.75"
     d="M 15,302 1.0198423,301.25488"
     id="SvgjsLine1080" />
  <path
     style="stroke:#eeeeee;stroke-width:0.75"
     d="M 15,302 2.1655114,299.93216"
     id="SvgjsLine1081" />
  <path
     style="stroke:#eeeeee;stroke-width:0.75"
     d="M 15,302 2.4580176,298.57968"
     id="SvgjsLine1082" />
  <path
     style="stroke:#eeeeee;stroke-width:0.75"
     d="M 15,302 2.8926296,297.2659"
     id="SvgjsLine1083" />
  <path
     style="stroke:#eeeeee;stroke-width:0.75"
     d="M 15,302 3.4644229,296.0058"
     id="SvgjsLine1084" />
  <path
     style="stroke:#eeeeee;stroke-width:0.75"
     d="M 15,302 3.3336051,294.2608"
     id="SvgjsLine1085" />
  <path
     style="stroke:#eeeeee;stroke-width:0.75"
     d="M 15,302 4.9921584,293.70282"
     id="SvgjsLine1086" />
  <path
     style="stroke:#eeeeee;stroke-width:0.75"
     d="M 15,302 5.9307904,292.68607"
     id="SvgjsLine1087" />
  <path
     style="stroke:#eeeeee;stroke-width:0.75"
     d="M 15,302 6.9721799,291.77484"
     id="SvgjsLine1088" />
  <path
     style="stroke:#eeeeee;stroke-width:0.75"
     d="M 15,302 8.1045284,290.97946"
     id="SvgjsLine1089" />
  <path
     style="stroke:#eeeeee;stroke-width:0.75"
     d="M 15,302 8.8776979,289.40964"
     id="SvgjsLine1090" />
  <path
     style="stroke:#eeeeee;stroke-width:0.75"
     d="M 15,302 10.589894,289.7709"
     id="SvgjsLine1091" />
  <path
     style="stroke:#eeeeee;stroke-width:0.75"
     d="M 15,302 11.914753,289.3714"
     id="SvgjsLine1092" />
  <path
     style="stroke:#eeeeee;stroke-width:0.75"
     d="M 15,302 13.274569,289.11502"
     id="SvgjsLine1093" />
  <path
     style="stroke:#eeeeee;stroke-width:0.75"
     d="M 15,302 14.653934,289.00461"
     id="SvgjsLine1094" />
  <path
     style="stroke:#eeeeee;stroke-width:0.75"
     d="m 15,302 1.117006,-13.95538"
     id="SvgjsLine1095" />
  <path
     style="stroke:#eeeeee;stroke-width:0.75"
     d="m 15,302 2.408754,-12.7749"
     id="SvgjsLine1096" />
  <path
     style="stroke:#eeeeee;stroke-width:0.75"
     d="m 15,302 3.752995,-12.44647"
     id="SvgjsLine1097" />
  <path
     style="stroke:#eeeeee;stroke-width:0.75"
     d="m 15,302 5.054714,-11.97705"
     id="SvgjsLine1098" />
  <path
     style="stroke:#eeeeee;stroke-width:0.75"
     d="m 15,302 6.299162,-11.37192"
     id="SvgjsLine1099" />
  <path
     style="stroke:#eeeeee;stroke-width:0.75"
     d="m 15,302 8.047024,-11.45624"
     id="SvgjsLine1100" />
  <path
     style="stroke:#eeeeee;stroke-width:0.75"
     d="m 15,302 8.560648,-9.78342"
     id="SvgjsLine1101" />
  <path
     style="stroke:#eeeeee;stroke-width:0.75"
     d="m 15,302 9.552065,-8.81805"
     id="SvgjsLine1102" />
  <path
     style="stroke:#eeeeee;stroke-width:0.75"
     d="m 15,302 10.435251,-7.75278"
     id="SvgjsLine1103" />
  <path
     style="stroke:#eeeeee;stroke-width:0.75"
     d="m 15,302 11.200203,-6.59967"
     id="SvgjsLine1104" />
  <path
     style="stroke:#eeeeee;stroke-width:0.75"
     d="m 15,302 12.748886,-5.78497"
     id="SvgjsLine1105" />
  <path
     style="stroke:#eeeeee;stroke-width:0.75"
     d="m 15,302 12.342169,-4.08301"
     id="SvgjsLine1106" />
  <path
     style="stroke:#eeeeee;stroke-width:0.75"
     d="m 15,302 12.706244,-2.74799"
     id="SvgjsLine1107" />
  <path
     style="stroke:#eeeeee;stroke-width:0.75"
     d="m 15,302 12.926352,-1.38181"
     id="SvgjsLine1108" />
  <path
     style="stroke:#eeeeee;stroke-width:0.75"
     d="M 15,302 H 28"
     id="SvgjsLine1109" />
  <path
     style="fill:#000000;stroke:#eeeeee;stroke-width:0.75"
     d="M 26,302 A 11,11 0 0 1 15,313 11,11 0 0 1 4,302 11,11 0 0 1 15,291 11,11 0 0 1 26,302 Z"
     id="SvgjsCircle1110" />
</svg>
