<svg xmlns:osb="http://www.openswatchbook.org/uri/2009/osb" xmlns="http://www.w3.org/2000/svg" xmlns:xlink="http://www.w3.org/1999/xlink" height="380" style="zoom:8" cursor="default" id="SvgjsSvg1006" width="45"><defs id="SvgjsDefs1007"><linearGradient id="linearGradient838"><stop offset="0" id="stop834" stop-color="#ff8600"/><stop offset="1" id="stop836" stop-color="#ff8600" stop-opacity="0"/></linearGradient><linearGradient id="linearGradient2396" osb:paint="gradient"><stop offset="0" id="stop2392" stop-color="#ff8f00"/><stop offset="1" id="stop2394" stop-color="#ff8f00" stop-opacity="0"/></linearGradient><linearGradient id="linearGradient2384" osb:paint="solid"><stop offset="0" id="stop2382" stop-color="#ff8f00"/></linearGradient><linearGradient id="linearGradient898" osb:paint="solid"><stop offset="0" id="stop896" stop-color="#ff8f00"/></linearGradient><linearGradient id="linearGradient915"><stop offset="0" id="stop911" stop-color="#404040"/><stop offset="1" id="stop913" stop-color="#202020"/></linearGradient><linearGradient xlink:href="#linearGradient915" id="linearGradient919" y1="190" x2="45" y2="190" gradientUnits="userSpaceOnUse"/><style id="OpenSans_Google_Webfont_import">@import url(https://fonts.googleapis.com/css?family=Open+Sans);</style><style id="style31">@import url(https://fonts.googleapis.com/css?family=&apos;Open Sans&apos;);</style><style id="style33">@import url(https://fonts.googleapis.com/css?family=&apos;Open Sans&apos;);</style><style id="style35">@import url(https://fonts.googleapis.com/css?family=&apos;Open Sans&apos;);</style><style id="style22">@import url(https://fonts.googleapis.com/css?family=&apos;Open Sans&apos;);</style><style id="style24">@import url(https://fonts.googleapis.com/css?family=&apos;Open Sans&apos;);</style><style id="style26">@import url(https://fonts.googleapis.com/css?family=&apos;Open Sans&apos;);</style><linearGradient xlink:href="#linearGradient838" id="linearGradient840" x1="19.992" y1="333.24" x2="27.785" y2="400.33" gradientUnits="userSpaceOnUse"/></defs><path d="M0 0h45v380H0z" id="SvgjsRect1008" fill="url(#linearGradient919)"/><path d="M41.005 342.877c-1.493-4.604-4.104-9.047-7.188-12.896-.426-.524-1.97-1.907-1.97-1.907 1.323 3.052 1.24 6.218.574 9.077-3.605-7.348-9.923-16.546-19.425-21.402 0 0 6.325 14.268-2.7 30.012-.498-2.122-1.004-5.171-.732-8.193 0 0-1.14.866-1.273.992-1.017.963-1.87 2.089-2.621 3.25-2.74 4.36-4.183 9.628-3.826 14.926.133 2.004.51 4.006 1.022 5.978 1.584 6.315 5.226 12.935 10.628 15.97-1.7-2.855-2.737-6.571-2.737-10.645 0-1.69.178-3.33.514-4.862.038.678.152 1.377.34 2.09.725 2.747 2.396 4.935 4.293 5.936-.858-2.22-1.167-5.153-.707-8.293.333-2.314 1.028-4.424 1.974-6.157 1.048-1.965 2.398-3.444 3.853-4.178-.606 1.026-1.06 2.353-1.294 3.85-.092.576-.145 1.18-.165 1.808-.009.142-.009.287-.009.442 0 .387.013.773.05 1.147.13 1.781.571 3.372 1.227 4.605l.104.189c.325.543.86.92 1.475.993h.006c.06.005.13.01.198.01.019 0 .043 0 .06-.005.929-.025 1.7-.762 1.908-1.739a2.5 2.5 0 0 0 .054-.496v-.037a8.53 8.53 0 0 0-.144-2.254c-.08-.418-.18-.819-.314-1.202a8.222 8.222 0 0 0-.593-1.371c.38.07.762.18 1.13.348 1.404.61 2.66 1.854 3.53 3.489.144.278.279.567.397.87a10.21 10.21 0 0 1 .717 2.961c.382-.72.73-1.51 1.029-2.348.575-1.574.908-3.101 1.01-4.44 1.085 2.502 1.714 5.467 1.714 8.643 0 4.145-1.073 7.913-2.827 10.788.901-.456 1.772-.985 2.588-1.588 3.051-2.208 5.203-5.629 6.594-9.334.783-2.027 1.553-4.29 1.924-6.423 1.1-6.184 1.426-12.74-.388-18.604z" id="path2" stroke-width=".695" fill="url(#linearGradient840)"/><g aria-label="NOISE" id="text5" font-size="12" font-family="Open Sans" text-anchor="middle" fill="#eee" text-rendering="geometricPrecision"><path d="M5.092 16.252h1.594l3.878 7.318v-7.318h1.149V25h-1.594L6.24 17.682V25H5.092z" id="path843"/><path d="M17.62 17.055q-1.29 0-2.052.96-.756.962-.756 2.62 0 1.652.756 2.613.762.961 2.051.961 1.29 0 2.04-.961.755-.96.755-2.613 0-1.658-.756-2.62-.75-.96-2.039-.96zm0-.961q1.839 0 2.94 1.236 1.102 1.23 1.102 3.305 0 2.068-1.101 3.304-1.102 1.23-2.942 1.23-1.846 0-2.953-1.23-1.102-1.23-1.102-3.304t1.102-3.305q1.107-1.236 2.953-1.236z" id="path845"/><path d="M23.514 16.252h1.183V25h-1.183z" id="path847"/><path d="M32.297 16.54v1.153q-.674-.322-1.272-.48-.597-.158-1.154-.158-.967 0-1.494.375-.522.375-.522 1.066 0 .58.346.879.352.293 1.324.475l.715.146q1.324.252 1.951.89.633.634.633 1.7 0 1.271-.855 1.928-.85.656-2.496.656-.621 0-1.325-.14-.697-.141-1.447-.417v-1.218q.72.404 1.412.609.692.205 1.36.205 1.013 0 1.564-.398.55-.399.55-1.137 0-.645-.398-1.008-.392-.363-1.294-.545l-.721-.14q-1.324-.264-1.916-.827-.592-.562-.592-1.564 0-1.16.814-1.828.82-.668 2.256-.668.616 0 1.254.111.639.111 1.307.334z" id="path849"/><path d="M34.67 16.252H40.2v.996h-4.347v2.59h4.166v.996h-4.166v3.17h4.453V25H34.67z" id="path851"/></g><g aria-label="GATE" id="text7" font-size="8" font-family="Open Sans" text-anchor="middle" fill="#eee" text-rendering="geometricPrecision"><path d="M16.762 66.168v-1.566h-1.29v-.649h2.071v2.504q-.457.324-1.008.492-.55.164-1.176.164-1.367 0-2.14-.797-.77-.8-.77-2.226 0-1.43.77-2.227.773-.8 2.14-.8.57 0 1.082.14.516.14.95.414v.84q-.438-.371-.93-.559-.492-.187-1.035-.187-1.07 0-1.61.598-.535.597-.535 1.78 0 1.18.535 1.778.54.598 1.61.598.418 0 .746-.07.328-.075.59-.227z" id="path854"/><path d="M20.938 61.945l-1.07 2.903h2.144zm-.446-.777h.895L23.609 67h-.82l-.531-1.496h-2.63L19.099 67h-.832z" id="path856"/><path d="M23.023 61.168h4.934v.664h-2.07V67h-.793v-5.168h-2.07z" id="path858"/><path d="M28.723 61.168h3.687v.664h-2.898v1.727h2.777v.664h-2.777v2.113h2.968V67h-3.757z" id="path860"/></g><g aria-label="WHITE" id="text99" font-size="6" font-family="Open Sans" text-anchor="middle" fill="#eee" text-rendering="geometricPrecision"><path d="M12.861 82.626h.598l.92 3.697.917-3.697h.665l.92 3.697.917-3.697h.6L17.3 87h-.744l-.923-3.797L14.7 87h-.744z" id="path863"/><path d="M19.18 82.626h.592v1.793h2.15v-1.793h.593V87h-.592v-2.083h-2.15V87h-.592z" id="path865"/><path d="M23.692 82.626h.592V87h-.592z" id="path867"/><path d="M24.855 82.626h3.7v.498h-1.552V87h-.595v-3.876h-1.553z" id="path869"/><path d="M29.13 82.626h2.766v.498h-2.174v1.295h2.083v.498h-2.083v1.585h2.226V87H29.13z" id="path871"/></g><g aria-label="PINK" id="text29" font-size="6" font-family="Open Sans" text-anchor="middle" fill="#eee" text-rendering="geometricPrecision"><path d="M16.772 123.112v1.644h.745q.413 0 .638-.214.226-.214.226-.61 0-.392-.226-.606-.225-.214-.638-.214zm-.591-.486h1.336q.735 0 1.11.334.378.331.378.973 0 .647-.378.978-.375.331-1.11.331h-.745V127h-.591z" id="path874"/><path d="M19.802 122.626h.592V127h-.592z" id="path876"/><path d="M21.571 122.626h.797l1.94 3.66v-3.66h.574V127h-.797l-1.94-3.66V127h-.574z" id="path878"/><path d="M26.06 122.626h.591v1.849l1.963-1.849h.762l-2.17 2.039L29.53 127h-.779l-2.1-2.106V127h-.592z" id="path880"/></g><g aria-label="OUT" id="text31" font-size="8" font-family="Open Sans" text-anchor="middle" fill="#eee" text-rendering="geometricPrecision"><path d="M17.129 161.703q-.86 0-1.367.64-.504.641-.504 1.747 0 1.101.504 1.742.508.64 1.367.64.86 0 1.36-.64.503-.64.503-1.742 0-1.106-.504-1.746-.5-.64-1.36-.64zm0-.64q1.226 0 1.96.824.735.82.735 2.203 0 1.379-.734 2.203-.735.82-1.961.82-1.23 0-1.969-.82-.734-.82-.734-2.203t.734-2.203q.738-.825 1.969-.825z" id="path883"/><path d="M20.969 161.168h.793v3.543q0 .937.34 1.351.34.41 1.101.41.758 0 1.098-.41.34-.414.34-1.351v-3.543h.793v3.64q0 1.141-.567 1.723-.562.582-1.664.582-1.105 0-1.672-.582-.562-.582-.562-1.722z" id="path885"/><path d="M26.11 161.168h4.933v.664h-2.07V167h-.793v-5.168h-2.07z" id="path887"/></g></svg>