<svg xmlns:osb="http://www.openswatchbook.org/uri/2009/osb" xmlns="http://www.w3.org/2000/svg" xmlns:xlink="http://www.w3.org/1999/xlink" height="380" style="zoom:8" cursor="default" id="SvgjsSvg1006" width="45"><defs id="SvgjsDefs1007"><linearGradient id="linearGradient838"><stop offset="0" id="stop834" stop-color="#ff8600"/><stop offset="1" id="stop836" stop-color="#ff8600" stop-opacity="0"/></linearGradient><linearGradient id="linearGradient2396" osb:paint="gradient"><stop offset="0" id="stop2392" stop-color="#ff8f00"/><stop offset="1" id="stop2394" stop-color="#ff8f00" stop-opacity="0"/></linearGradient><linearGradient id="linearGradient2384" osb:paint="solid"><stop offset="0" id="stop2382" stop-color="#ff8f00"/></linearGradient><linearGradient id="linearGradient898" osb:paint="solid"><stop offset="0" id="stop896" stop-color="#ff8f00"/></linearGradient><linearGradient id="linearGradient915"><stop offset="0" id="stop911" stop-color="#404040"/><stop offset="1" id="stop913" stop-color="#202020"/></linearGradient><linearGradient xlink:href="#linearGradient915" id="linearGradient919" y1="190" x2="45" y2="190" gradientUnits="userSpaceOnUse"/><style id="OpenSans_Google_Webfont_import">@import url(https://fonts.googleapis.com/css?family=Open+Sans);</style><style id="style31">@import url(https://fonts.googleapis.com/css?family=&apos;Open Sans&apos;);</style><style id="style33">@import url(https://fonts.googleapis.com/css?family=&apos;Open Sans&apos;);</style><style id="style35">@import url(https://fonts.googleapis.com/css?family=&apos;Open Sans&apos;);</style><style id="style22">@import url(https://fonts.googleapis.com/css?family=&apos;Open Sans&apos;);</style><style id="style24">@import url(https://fonts.googleapis.com/css?family=&apos;Open Sans&apos;);</style><style id="style26">@import url(https://fonts.googleapis.com/css?family=&apos;Open Sans&apos;);</style><linearGradient xlink:href="#linearGradient838" id="linearGradient840" x1="19.992" y1="333.24" x2="27.785" y2="400.33" gradientUnits="userSpaceOnUse"/></defs><path d="M0 0h45v380H0z" id="SvgjsRect1008" fill="url(#linearGradient919)"/><path d="M41.005 342.877c-1.493-4.604-4.104-9.047-7.188-12.896-.426-.524-1.97-1.907-1.97-1.907 1.323 3.052 1.24 6.218.574 9.077-3.605-7.348-9.923-16.546-19.425-21.402 0 0 6.325 14.268-2.7 30.012-.498-2.122-1.004-5.171-.732-8.193 0 0-1.14.866-1.273.992-1.017.963-1.87 2.089-2.621 3.25-2.74 4.36-4.183 9.628-3.826 14.926.133 2.004.51 4.006 1.022 5.978 1.584 6.315 5.226 12.935 10.628 15.97-1.7-2.855-2.737-6.571-2.737-10.645 0-1.69.178-3.33.514-4.862.038.678.152 1.377.34 2.09.725 2.747 2.396 4.935 4.293 5.936-.858-2.22-1.167-5.153-.707-8.293.333-2.314 1.028-4.424 1.974-6.157 1.048-1.965 2.398-3.444 3.853-4.178-.606 1.026-1.06 2.353-1.294 3.85-.092.576-.145 1.18-.165 1.808-.009.142-.009.287-.009.442 0 .387.013.773.05 1.147.13 1.781.571 3.372 1.227 4.605l.104.189c.325.543.86.92 1.475.993h.006c.06.005.13.01.198.01.019 0 .043 0 .06-.005.929-.025 1.7-.762 1.908-1.739a2.5 2.5 0 0 0 .054-.496v-.037a8.53 8.53 0 0 0-.144-2.254c-.08-.418-.18-.819-.314-1.202a8.222 8.222 0 0 0-.593-1.371c.38.07.762.18 1.13.348 1.404.61 2.66 1.854 3.53 3.489.144.278.279.567.397.87a10.21 10.21 0 0 1 .717 2.961c.382-.72.73-1.51 1.029-2.348.575-1.574.908-3.101 1.01-4.44 1.085 2.502 1.714 5.467 1.714 8.643 0 4.145-1.073 7.913-2.827 10.788.901-.456 1.772-.985 2.588-1.588 3.051-2.208 5.203-5.629 6.594-9.334.783-2.027 1.553-4.29 1.924-6.423 1.1-6.184 1.426-12.74-.388-18.604z" id="path2" stroke-width=".695" fill="url(#linearGradient840)"/><g aria-label="NOT" id="text5" font-size="12" font-family="Open Sans" text-anchor="middle" fill="#eee" text-rendering="geometricPrecision"><path d="M10.799 16.252h1.594l3.878 7.318v-7.318h1.149V25h-1.594l-3.879-7.318V25H10.8z" id="path843"/><path d="M23.326 17.055q-1.289 0-2.05.96-.756.962-.756 2.62 0 1.652.755 2.613.762.961 2.051.961 1.29 0 2.04-.961.755-.96.755-2.613 0-1.658-.756-2.62-.75-.96-2.039-.96zm0-.961q1.84 0 2.942 1.236 1.101 1.23 1.101 3.305 0 2.068-1.101 3.304-1.102 1.23-2.942 1.23-1.846 0-2.953-1.23-1.102-1.23-1.102-3.304t1.102-3.305q1.107-1.236 2.953-1.236z" id="path845"/><path d="M28.008 16.252h7.4v.996h-3.105V25h-1.19v-7.752h-3.105z" id="path847"/></g><g aria-label="IN" id="text7" font-size="8" font-family="Open Sans" text-anchor="middle" fill="#eee" text-rendering="geometricPrecision"><path d="M19.113 61.168h.79V67h-.79z" id="path850"/><path d="M21.473 61.168h1.062l2.586 4.879v-4.879h.766V67h-1.063l-2.586-4.879V67h-.765z" id="path852"/></g><g aria-label="CV" id="text99" font-size="6" font-family="Open Sans" text-anchor="middle" fill="#eee" text-rendering="geometricPrecision"><path d="M22.216 82.963v.624q-.299-.278-.639-.416-.337-.138-.718-.138-.75 0-1.148.46-.398.457-.398 1.324 0 .865.398 1.325.398.457 1.148.457.381 0 .718-.138.34-.138.639-.416v.618q-.31.211-.66.316-.345.106-.732.106-.993 0-1.564-.606-.572-.61-.572-1.662 0-1.054.572-1.66.571-.61 1.564-.61.393 0 .738.105.35.103.654.31z" id="path855"/><path d="M24.264 87l-1.67-4.374h.618l1.386 3.683 1.388-3.683h.616L24.935 87z" id="path857"/></g><g aria-label="V/OCT" id="text29" font-size="6" font-family="Open Sans" text-anchor="middle" fill="#eee" text-rendering="geometricPrecision"><path d="M14.86 127l-1.67-4.374h.618l1.385 3.683 1.389-3.683h.615L15.53 127z" id="path860"/><path d="M18.768 122.626h.498l-1.524 4.93h-.498z" id="path862"/><path d="M21.636 123.027q-.645 0-1.026.48-.378.481-.378 1.31 0 .827.378 1.307.381.48 1.026.48.644 0 1.02-.48.377-.48.377-1.307 0-.829-.378-1.31-.375-.48-1.02-.48zm0-.48q.92 0 1.47.618.551.615.551 1.652 0 1.035-.55 1.653-.551.615-1.471.615-.923 0-1.477-.615-.55-.616-.55-1.653t.55-1.652q.554-.618 1.477-.618z" id="path864"/><path d="M27.858 122.963v.624q-.298-.278-.638-.416-.337-.138-.718-.138-.75 0-1.148.46-.399.457-.399 1.324 0 .865.399 1.325.398.457 1.148.457.38 0 .718-.138.34-.138.638-.416v.618q-.31.211-.659.316-.345.106-.732.106-.993 0-1.565-.606-.57-.61-.57-1.662 0-1.054.57-1.66.572-.61 1.565-.61.392 0 .738.105.349.103.653.31z" id="path866"/><path d="M28.172 122.626h3.7v.498H30.32V127h-.594v-3.876h-1.553z" id="path868"/></g><g aria-label="OUT" id="text31" font-size="8" font-family="Open Sans" text-anchor="middle" fill="#eee" text-rendering="geometricPrecision"><path d="M17.129 161.703q-.86 0-1.367.64-.504.641-.504 1.747 0 1.101.504 1.742.508.64 1.367.64.86 0 1.36-.64.503-.64.503-1.742 0-1.106-.504-1.746-.5-.64-1.36-.64zm0-.64q1.226 0 1.96.824.735.82.735 2.203 0 1.379-.734 2.203-.735.82-1.961.82-1.23 0-1.969-.82-.734-.82-.734-2.203t.734-2.203q.738-.825 1.969-.825z" id="path871"/><path d="M20.969 161.168h.793v3.543q0 .937.34 1.351.34.41 1.101.41.758 0 1.098-.41.34-.414.34-1.351v-3.543h.793v3.64q0 1.141-.567 1.723-.562.582-1.664.582-1.105 0-1.672-.582-.562-.582-.562-1.722z" id="path873"/><path d="M26.11 161.168h4.933v.664h-2.07V167h-.793v-5.168h-2.07z" id="path875"/></g></svg>