<svg xmlns:osb="http://www.openswatchbook.org/uri/2009/osb" xmlns="http://www.w3.org/2000/svg" xmlns:xlink="http://www.w3.org/1999/xlink" height="380" style="zoom:8" cursor="default" id="SvgjsSvg1006" width="150"><defs id="SvgjsDefs1007"><linearGradient id="linearGradient2396" osb:paint="gradient"><stop offset="0" id="stop2392" stop-color="#ff8f00"/><stop offset="1" id="stop2394" stop-color="#ff8f00" stop-opacity="0"/></linearGradient><linearGradient id="linearGradient2384" osb:paint="solid"><stop offset="0" id="stop2382" stop-color="#ff8f00"/></linearGradient><linearGradient id="linearGradient898" osb:paint="solid"><stop offset="0" id="stop896" stop-color="#ff8f00"/></linearGradient><linearGradient id="linearGradient915"><stop offset="0" id="stop911" stop-color="#404040"/><stop offset="1" id="stop913" stop-color="#202020"/></linearGradient><linearGradient xlink:href="#linearGradient915" id="linearGradient919" y1="190" x2="150" y2="190" gradientUnits="userSpaceOnUse"/><style id="'Open Sans'_Google_Webfont_import">@import url(https://fonts.googleapis.com/css?family=&apos;Open+Sans:600&apos;);</style><linearGradient gradientTransform="translate(53.182)" xlink:href="#linearGradient838" id="linearGradient840" x1="19.992" y1="333.24" x2="27.785" y2="400.33" gradientUnits="userSpaceOnUse"/><linearGradient id="linearGradient838"><stop offset="0" id="stop834" stop-color="#ff8600"/><stop offset="1" id="stop836" stop-color="#ff8600" stop-opacity="0"/></linearGradient></defs><path d="M0 0h150v380H0z" id="SvgjsRect1008" fill="url(#linearGradient919)"/><g aria-label="OSCAR^2" id="text5" font-size="12" font-family="Open Sans" text-anchor="middle" fill="#eee" text-rendering="geometricPrecision"><path d="M49.88 17.055q-1.288 0-2.05.96-.756.962-.756 2.62 0 1.652.756 2.613.762.961 2.05.961 1.29 0 2.04-.961.756-.96.756-2.613 0-1.658-.756-2.62-.75-.96-2.04-.96zm0-.961q1.84 0 2.942 1.236 1.102 1.23 1.102 3.305 0 2.068-1.102 3.304-1.101 1.23-2.941 1.23-1.846 0-2.953-1.23-1.102-1.23-1.102-3.304t1.102-3.305q1.107-1.236 2.953-1.236z" id="path1243"/><path d="M61.02 16.54v1.153q-.674-.322-1.272-.48-.598-.158-1.154-.158-.967 0-1.494.375-.522.375-.522 1.066 0 .58.346.879.351.293 1.324.475l.715.146q1.324.252 1.951.89.633.634.633 1.7 0 1.271-.856 1.928-.85.656-2.496.656-.62 0-1.324-.14-.697-.141-1.447-.417v-1.218q.72.404 1.412.609.691.205 1.36.205 1.013 0 1.564-.398.55-.399.55-1.137 0-.645-.398-1.008-.392-.363-1.295-.545l-.72-.14q-1.325-.264-1.917-.827-.591-.562-.591-1.564 0-1.16.814-1.828.82-.668 2.256-.668.615 0 1.254.111t1.307.334z" id="path1245"/><path d="M69.943 16.926v1.248q-.597-.557-1.277-.832-.674-.276-1.436-.276-1.5 0-2.296.92-.797.914-.797 2.649 0 1.728.797 2.648.796.914 2.296.914.762 0 1.436-.275.68-.276 1.277-.832v1.236q-.62.422-1.318.633-.691.21-1.465.21-1.986 0-3.129-1.212-1.142-1.219-1.142-3.322 0-2.11 1.142-3.323 1.143-1.218 3.13-1.218.784 0 1.476.21.697.206 1.306.622z" id="path1247"/><path d="M74.707 17.418l-1.605 4.353h3.216zm-.668-1.166h1.342L78.715 25h-1.23l-.797-2.244h-3.944L71.947 25H70.7z" id="path1249"/><path d="M84.135 20.898q.38.13.738.551.363.422.727 1.16L86.8 25h-1.27l-1.12-2.244q-.433-.879-.844-1.166-.404-.287-1.107-.287h-1.29V25h-1.183v-8.748h2.672q1.5 0 2.238.627.739.627.739 1.892 0 .827-.387 1.372-.38.544-1.113.755zm-2.965-3.673v3.105h1.488q.856 0 1.29-.392.439-.399.439-1.167 0-.767-.44-1.154-.433-.392-1.289-.392z" id="path1251"/><path d="M92.754 16.252l3.182 3.264h-1.178L92.18 17.2l-2.578 2.315h-1.178l3.181-3.264z" id="path1253"/><path d="M99.51 24.004h4.13V25h-5.554v-.996q.674-.697 1.834-1.87 1.166-1.177 1.465-1.517.568-.638.79-1.078.23-.445.23-.873 0-.697-.493-1.137-.486-.44-1.271-.44-.557 0-1.178.194-.615.194-1.318.586v-1.195q.714-.287 1.335-.434.622-.146 1.137-.146 1.36 0 2.168.68.809.68.809 1.816 0 .539-.205 1.025-.2.48-.733 1.137-.146.17-.931.984-.786.809-2.215 2.268z" id="path1255"/></g><g aria-label="SHAPE" id="text7" font-size="8" font-family="Open Sans" text-anchor="middle" fill="#eee" text-rendering="geometricPrecision"><path d="M21.055 111.36v.769q-.45-.215-.848-.32-.398-.106-.77-.106-.644 0-.996.25-.347.25-.347.711 0 .387.23.586.235.195.883.316l.477.098q.882.168 1.3.594.422.422.422 1.133 0 .847-.57 1.285-.566.437-1.664.437-.414 0-.883-.093-.465-.094-.965-.278v-.812q.48.27.942.406.46.137.906.137.676 0 1.043-.266.367-.265.367-.758 0-.43-.266-.672-.261-.242-.863-.363l-.48-.094q-.883-.175-1.278-.55-.394-.375-.394-1.043 0-.774.543-1.219.547-.445 1.504-.445.41 0 .836.074.425.074.87.223z" id="path1258"/><path d="M22.637 111.168h.789v2.39h2.867v-2.39h.789V117h-.789v-2.777h-2.867V117h-.79z" id="path1260"/><path d="M30.602 111.945l-1.07 2.903h2.144zm-.446-.777h.895L33.273 117h-.82l-.531-1.496h-2.629L28.762 117h-.832z" id="path1262"/><path d="M34.91 111.816v2.192h.992q.551 0 .852-.285.3-.285.3-.813 0-.523-.3-.808-.3-.286-.852-.286zm-.789-.648h1.781q.98 0 1.48.445.505.442.505 1.297 0 .863-.504 1.305-.5.441-1.48.441h-.993V117h-.789z" id="path1264"/><path d="M38.95 111.168h3.687v.664h-2.899v1.727h2.778v.664h-2.778v2.113h2.969V117h-3.758z" id="path1266"/></g><g aria-label="SHIFT" id="text29" font-size="8" font-family="Open Sans" text-anchor="middle" fill="#eee" text-rendering="geometricPrecision"><path d="M22.867 161.36v.769q-.449-.215-.847-.32-.399-.106-.77-.106-.645 0-.996.25-.348.25-.348.711 0 .387.23.586.235.195.884.316l.476.098q.883.168 1.3.594.423.422.423 1.133 0 .847-.57 1.285-.567.437-1.665.437-.414 0-.882-.093-.465-.094-.965-.278v-.812q.48.27.941.406.461.137.906.137.676 0 1.043-.266.368-.265.368-.758 0-.43-.266-.672-.262-.242-.863-.363l-.48-.094q-.884-.175-1.278-.55-.395-.375-.395-1.043 0-.774.543-1.219.547-.445 1.504-.445.41 0 .836.074t.871.222z" id="path1269"/><path d="M24.45 161.168h.788v2.39h2.867v-2.39h.79V167h-.79v-2.777h-2.867V167h-.789z" id="path1271"/><path d="M30.465 161.168h.789V167h-.79z" id="path1273"/><path d="M32.824 161.168h3.352v.664h-2.563v1.719h2.313v.664h-2.313V167h-.789z" id="path1275"/><path d="M36.492 161.168h4.934v.664h-2.07V167h-.794v-5.168h-2.07z" id="path1277"/></g><g aria-label="OCTAVE" id="text31" font-size="8" font-family="Open Sans" text-anchor="middle" fill="#eee" text-rendering="geometricPrecision"><path d="M17.324 211.703q-.86 0-1.367.64-.504.641-.504 1.747 0 1.101.504 1.742.508.64 1.367.64.86 0 1.36-.64.503-.64.503-1.742 0-1.106-.503-1.746-.5-.64-1.36-.64zm0-.64q1.227 0 1.961.824.735.82.735 2.203 0 1.379-.735 2.203-.734.82-1.96.82-1.231 0-1.97-.82-.734-.82-.734-2.203t.734-2.203q.739-.825 1.97-.825z" id="path1280"/><path d="M25.621 211.617v.832q-.398-.37-.851-.554-.45-.184-.957-.184-1 0-1.532.613-.531.61-.531 1.766 0 1.152.531 1.765.532.61 1.532.61.507 0 .957-.184.453-.183.851-.554v.824q-.414.281-.879.422-.46.14-.976.14-1.325 0-2.086-.808-.762-.813-.762-2.215 0-1.406.762-2.215.761-.813 2.086-.813.523 0 .984.141.465.137.871.414z" id="path1282"/><path d="M26.04 211.168h4.933v.664h-2.07V217h-.794v-5.168h-2.07z" id="path1284"/><path d="M33.063 211.945l-1.07 2.903h2.144zm-.446-.777h.895L35.734 217h-.82l-.531-1.496h-2.63l-.53 1.496h-.832z" id="path1286"/><path d="M37.578 217l-2.226-5.832h.824l1.847 4.91 1.852-4.91h.82L38.473 217z" id="path1288"/><path d="M41.55 211.168h3.688v.664H42.34v1.727h2.777v.664H42.34v2.113h2.969V217H41.55z" id="path1290"/></g><g aria-label="FINE" id="text33" font-size="8" font-family="Open Sans" text-anchor="middle" fill="#eee" text-rendering="geometricPrecision"><path d="M21.777 261.168h3.352v.664h-2.563v1.719h2.313v.664h-2.313V267h-.789z" id="path1293"/><path d="M26.387 261.168h.789V267h-.79z" id="path1295"/><path d="M28.746 261.168h1.063l2.586 4.879v-4.879h.765V267h-1.062l-2.586-4.879V267h-.766z" id="path1297"/><path d="M34.73 261.168h3.688v.664H35.52v1.727h2.777v.664H35.52v2.113h2.968V267H34.73z" id="path1299"/></g><g aria-label="RANDOM" id="text35" font-size="8" font-family="Open Sans" text-anchor="middle" fill="#eee" text-rendering="geometricPrecision"><path d="M15.52 314.266q.253.086.492.367.242.281.484.773l.8 1.594h-.847l-.746-1.496q-.289-.586-.562-.777-.27-.192-.739-.192h-.859V317h-.79v-5.832h1.782q1 0 1.492.418.493.418.493 1.262 0 .55-.258.914-.254.363-.742.504zm-1.977-2.45v2.07h.992q.57 0 .86-.261.293-.266.293-.777 0-.512-.293-.77-.29-.262-.86-.262z" id="path1302"/><path d="M19.945 311.945l-1.07 2.903h2.145zm-.445-.777h.895L22.617 317h-.82l-.531-1.496h-2.63l-.53 1.496h-.833z" id="path1304"/><path d="M23.473 311.168h1.062l2.586 4.879v-4.879h.766V317h-1.063l-2.586-4.879V317h-.765z" id="path1306"/><path d="M30.246 311.816v4.536h.953q1.207 0 1.766-.547.562-.547.562-1.727 0-1.172-.562-1.715-.559-.547-1.766-.547zm-.789-.648h1.621q1.695 0 2.488.707.793.703.793 2.203 0 1.508-.797 2.215-.796.707-2.484.707h-1.621z" id="path1308"/><path d="M37.98 311.703q-.859 0-1.367.64-.504.641-.504 1.747 0 1.101.504 1.742.508.64 1.367.64.86 0 1.36-.64.504-.64.504-1.742 0-1.106-.504-1.746-.5-.64-1.36-.64zm0-.64q1.227 0 1.961.824.735.82.735 2.203 0 1.379-.735 2.203-.734.82-1.96.82-1.231 0-1.97-.82-.734-.82-.734-2.203t.735-2.203q.738-.824 1.968-.824z" id="path1310"/><path d="M41.91 311.168h1.176l1.488 3.969 1.496-3.969h1.176V317h-.77v-5.121l-1.503 4h-.793l-1.504-4V317h-.766z" id="path1312"/></g><g aria-label="SHAPE" id="text36" font-size="8" font-family="Open Sans" text-anchor="middle" fill="#eee" text-rendering="geometricPrecision"><path d="M111.055 111.36v.769q-.45-.215-.848-.32-.398-.106-.77-.106-.644 0-.996.25-.347.25-.347.711 0 .387.23.586.235.195.883.316l.477.098q.882.168 1.3.594.422.422.422 1.133 0 .847-.57 1.285-.566.437-1.664.437-.414 0-.883-.093-.465-.094-.965-.278v-.812q.48.27.942.406.46.137.906.137.676 0 1.043-.266.367-.265.367-.758 0-.43-.266-.672-.261-.242-.863-.363l-.48-.094q-.883-.175-1.278-.55-.394-.375-.394-1.043 0-.774.543-1.219.547-.445 1.504-.445.41 0 .836.074.425.074.87.223z" id="path1315"/><path d="M112.637 111.168h.789v2.39h2.867v-2.39h.789V117h-.789v-2.777h-2.867V117h-.79z" id="path1317"/><path d="M120.602 111.945l-1.07 2.903h2.144zm-.446-.777h.895l2.222 5.832h-.82l-.531-1.496h-2.629l-.531 1.496h-.832z" id="path1319"/><path d="M124.91 111.816v2.192h.992q.551 0 .852-.285.3-.285.3-.813 0-.523-.3-.808-.3-.286-.852-.286zm-.789-.648h1.781q.98 0 1.48.445.505.442.505 1.297 0 .863-.504 1.305-.5.441-1.48.441h-.993V117h-.789z" id="path1321"/><path d="M128.95 111.168h3.687v.664h-2.899v1.727h2.778v.664h-2.778v2.113h2.969V117h-3.758z" id="path1323"/></g><g aria-label="SHIFT" id="text38" font-size="8" font-family="Open Sans" text-anchor="middle" fill="#eee" text-rendering="geometricPrecision"><path d="M112.867 161.36v.769q-.449-.215-.847-.32-.399-.106-.77-.106-.645 0-.996.25-.348.25-.348.711 0 .387.23.586.235.195.884.316l.476.098q.883.168 1.3.594.423.422.423 1.133 0 .847-.57 1.285-.567.437-1.665.437-.414 0-.882-.093-.465-.094-.965-.278v-.812q.48.27.941.406.461.137.906.137.676 0 1.043-.266.368-.265.368-.758 0-.43-.266-.672-.262-.242-.863-.363l-.48-.094q-.884-.175-1.278-.55-.395-.375-.395-1.043 0-.774.543-1.219.547-.445 1.504-.445.41 0 .836.074t.871.222z" id="path1326"/><path d="M114.45 161.168h.788v2.39h2.867v-2.39h.79V167h-.79v-2.777h-2.867V167h-.789z" id="path1328"/><path d="M120.465 161.168h.789V167h-.79z" id="path1330"/><path d="M122.824 161.168h3.352v.664h-2.563v1.719h2.313v.664h-2.313V167h-.789z" id="path1332"/><path d="M126.492 161.168h4.934v.664h-2.07V167h-.793v-5.168h-2.07z" id="path1334"/></g><g aria-label="OCTAVE" id="text40" font-size="8" font-family="Open Sans" text-anchor="middle" fill="#eee" text-rendering="geometricPrecision"><path d="M107.324 211.703q-.86 0-1.367.64-.504.641-.504 1.747 0 1.101.504 1.742.508.64 1.367.64.86 0 1.36-.64.503-.64.503-1.742 0-1.106-.503-1.746-.5-.64-1.36-.64zm0-.64q1.227 0 1.961.824.735.82.735 2.203 0 1.379-.735 2.203-.734.82-1.96.82-1.231 0-1.97-.82-.734-.82-.734-2.203t.734-2.203q.739-.825 1.97-.825z" id="path1337"/><path d="M115.621 211.617v.832q-.398-.37-.851-.554-.45-.184-.958-.184-1 0-1.53.613-.532.61-.532 1.766 0 1.152.531 1.765.531.61 1.531.61.508 0 .958-.184.453-.183.851-.554v.824q-.414.281-.879.422-.46.14-.976.14-1.325 0-2.086-.808-.762-.813-.762-2.215 0-1.406.762-2.215.761-.813 2.086-.813.523 0 .984.141.465.137.871.414z" id="path1339"/><path d="M116.04 211.168h4.933v.664h-2.07V217h-.794v-5.168h-2.07z" id="path1341"/><path d="M123.063 211.945l-1.07 2.903h2.144zm-.446-.777h.895l2.222 5.832h-.82l-.531-1.496h-2.63l-.53 1.496h-.832z" id="path1343"/><path d="M127.578 217l-2.226-5.832h.824l1.847 4.91 1.852-4.91h.82L128.473 217z" id="path1345"/><path d="M131.55 211.168h3.688v.664h-2.898v1.727h2.777v.664h-2.777v2.113h2.969V217h-3.758z" id="path1347"/></g><g aria-label="FINE" id="text42" font-size="8" font-family="Open Sans" text-anchor="middle" fill="#eee" text-rendering="geometricPrecision"><path d="M111.777 261.168h3.352v.664h-2.563v1.719h2.313v.664h-2.313V267h-.789z" id="path1350"/><path d="M116.387 261.168h.789V267h-.79z" id="path1352"/><path d="M118.746 261.168h1.063l2.586 4.879v-4.879h.765V267h-1.062l-2.586-4.879V267h-.766z" id="path1354"/><path d="M124.73 261.168h3.688v.664h-2.898v1.727h2.777v.664h-2.777v2.113h2.968V267h-3.758z" id="path1356"/></g><g aria-label="RANDOM" id="text44" font-size="8" font-family="Open Sans" text-anchor="middle" fill="#eee" text-rendering="geometricPrecision"><path d="M105.52 314.266q.253.086.492.367.242.281.484.773l.8 1.594h-.847l-.746-1.496q-.289-.586-.562-.777-.27-.192-.739-.192h-.859V317h-.79v-5.832h1.782q1 0 1.492.418.493.418.493 1.262 0 .55-.258.914-.254.363-.742.504zm-1.977-2.45v2.07h.992q.57 0 .86-.261.292-.266.292-.777 0-.512-.292-.77-.29-.262-.86-.262z" id="path1359"/><path d="M109.945 311.945l-1.07 2.903h2.145zm-.445-.777h.895l2.222 5.832h-.82l-.531-1.496h-2.63l-.53 1.496h-.833z" id="path1361"/><path d="M113.473 311.168h1.062l2.586 4.879v-4.879h.766V317h-1.063l-2.586-4.879V317h-.765z" id="path1363"/><path d="M120.246 311.816v4.536h.953q1.207 0 1.766-.547.562-.547.562-1.727 0-1.172-.562-1.715-.559-.547-1.766-.547zm-.789-.648h1.621q1.695 0 2.488.707.793.703.793 2.203 0 1.508-.797 2.215-.796.707-2.484.707h-1.621z" id="path1365"/><path d="M127.98 311.703q-.859 0-1.367.64-.504.641-.504 1.747 0 1.101.504 1.742.508.64 1.367.64.86 0 1.36-.64.504-.64.504-1.742 0-1.106-.504-1.746-.5-.64-1.36-.64zm0-.64q1.227 0 1.961.824.735.82.735 2.203 0 1.379-.735 2.203-.734.82-1.96.82-1.231 0-1.97-.82-.734-.82-.734-2.203t.735-2.203q.738-.824 1.968-.824z" id="path1367"/><path d="M131.91 311.168h1.176l1.488 3.969 1.496-3.969h1.176V317h-.77v-5.121l-1.503 4h-.793l-1.504-4V317h-.766z" id="path1369"/></g><g aria-label="INVERT" id="text37" font-size="8" font-family="Open Sans" text-anchor="middle" fill="#eee" text-rendering="geometricPrecision"><path d="M61.402 184.168h.79V190h-.79z" id="path1372"/><path d="M63.762 184.168h1.062l2.586 4.879v-4.879h.766V190h-1.063l-2.586-4.879V190h-.765z" id="path1374"/><path d="M71.25 190l-2.227-5.832h.825l1.847 4.91 1.852-4.91h.82L72.145 190z" id="path1376"/><path d="M75.215 184.168h3.687v.664h-2.898v1.727h2.777v.664h-2.777v2.113h2.969V190h-3.758z" id="path1378"/><path d="M83.043 187.266q.254.086.492.367.242.281.485.773l.8 1.594h-.847l-.746-1.496q-.29-.586-.563-.777-.27-.192-.738-.192h-.86V190h-.789v-5.832h1.782q1 0 1.492.418t.492 1.262q0 .55-.258.914-.254.363-.742.504zm-1.977-2.45v2.07h.993q.57 0 .859-.261.293-.266.293-.777 0-.512-.293-.77-.29-.262-.86-.262z" id="path1380"/><path d="M84.46 184.168h4.935v.664h-2.07V190h-.794v-5.168h-2.07z" id="path1382"/></g><g aria-label="(RIGHT)" id="text39" font-size="8" font-family="Open Sans" text-anchor="middle" fill="#eee" text-rendering="geometricPrecision"><path d="M61.84 191.93q-.524.898-.778 1.777-.253.879-.253 1.781 0 .903.254 1.79.257.882.777 1.777h-.625q-.586-.918-.88-1.805-.288-.887-.288-1.762 0-.87.289-1.754.289-.882.879-1.804z" id="path1385"/><path d="M66.035 195.266q.254.086.492.367.243.281.485.773l.8 1.594h-.847l-.746-1.496q-.29-.586-.563-.777-.27-.192-.738-.192h-.86V198h-.788v-5.832h1.78q1 0 1.493.418.492.418.492 1.262 0 .55-.258.914-.254.363-.742.504zm-1.976-2.45v2.07h.992q.57 0 .86-.261.292-.266.292-.777 0-.512-.293-.77-.289-.262-.86-.262z" id="path1387"/><path d="M68.832 192.168h.79V198h-.79z" id="path1389"/><path d="M75.168 197.168v-1.566h-1.29v-.649h2.071v2.504q-.457.324-1.008.492-.55.164-1.175.164-1.368 0-2.141-.797-.77-.8-.77-2.226 0-1.43.77-2.227.773-.8 2.14-.8.57 0 1.083.14.515.14.949.414v.84q-.438-.371-.93-.559-.492-.187-1.035-.187-1.07 0-1.61.598-.534.597-.534 1.78 0 1.18.535 1.778.539.598 1.609.598.418 0 .746-.07.328-.075.59-.227z" id="path1391"/><path d="M77.395 192.168h.789v2.39h2.867v-2.39h.789V198h-.79v-2.777h-2.866V198h-.79z" id="path1393"/><path d="M82.602 192.168h4.933v.664h-2.07V198h-.793v-5.168h-2.07z" id="path1395"/><path d="M88.156 191.93h.625q.586.922.875 1.804.293.883.293 1.754 0 .875-.293 1.762-.289.887-.875 1.805h-.625q.52-.895.774-1.778.257-.886.257-1.789 0-.902-.257-1.781-.254-.879-.774-1.777z" id="path1397"/></g><g aria-label="INVERT" id="text41" font-size="8" font-family="Open Sans" text-anchor="middle" fill="#eee" text-rendering="geometricPrecision"><path d="M61.402 134.168h.79V140h-.79z" id="path1400"/><path d="M63.762 134.168h1.062l2.586 4.879v-4.879h.766V140h-1.063l-2.586-4.879V140h-.765z" id="path1402"/><path d="M71.25 140l-2.227-5.832h.825l1.847 4.91 1.852-4.91h.82L72.145 140z" id="path1404"/><path d="M75.215 134.168h3.687v.664h-2.898v1.727h2.777v.664h-2.777v2.113h2.969V140h-3.758z" id="path1406"/><path d="M83.043 137.266q.254.086.492.367.242.281.485.773l.8 1.594h-.847l-.746-1.496q-.29-.586-.563-.777-.27-.192-.738-.192h-.86V140h-.789v-5.832h1.782q1 0 1.492.418t.492 1.262q0 .55-.258.914-.254.363-.742.504zm-1.977-2.45v2.07h.993q.57 0 .859-.261.293-.266.293-.777 0-.512-.293-.77-.29-.262-.86-.262z" id="path1408"/><path d="M84.46 134.168h4.935v.664h-2.07V140h-.794v-5.168h-2.07z" id="path1410"/></g><g aria-label="(LEFT)" id="text43" font-size="8" font-family="Open Sans" text-anchor="middle" fill="#eee" text-rendering="geometricPrecision"><path d="M64.91 141.93q-.523.898-.777 1.777-.254.879-.254 1.781 0 .903.254 1.79.258.882.777 1.777h-.625q-.586-.918-.879-1.805-.289-.887-.289-1.762 0-.87.29-1.754.288-.882.878-1.804z" id="path1413"/><path d="M66.34 142.168h.789v5.168h2.84V148h-3.63z" id="path1415"/><path d="M70.793 142.168h3.687v.664h-2.898v1.727h2.777v.664h-2.777v2.113h2.969V148h-3.758z" id="path1417"/><path d="M75.855 142.168h3.352v.664h-2.562v1.719h2.312v.664h-2.312V148h-.79z" id="path1419"/><path d="M79.523 142.168h4.934v.664h-2.07V148h-.793v-5.168h-2.07z" id="path1421"/><path d="M85.086 141.93h.625q.586.922.875 1.804.293.883.293 1.754 0 .875-.293 1.762-.29.887-.875 1.805h-.625q.52-.895.773-1.778.258-.886.258-1.789 0-.902-.258-1.781-.254-.879-.773-1.777z" id="path1423"/></g><g aria-label="MIX" id="text45" font-size="8" font-family="Open Sans" text-anchor="middle" fill="#eee" text-rendering="geometricPrecision"><path d="M68.41 284.168h1.176l1.488 3.969 1.496-3.969h1.176V290h-.77v-5.121l-1.503 4h-.793l-1.504-4V290h-.766z" id="path1426"/><path d="M75.316 284.168h.79V290h-.79z" id="path1428"/><path d="M77.395 284.168h.847l1.45 2.168 1.456-2.168h.848l-1.875 2.8 2 3.032h-.848l-1.64-2.48L77.98 290h-.851l2.082-3.113z" id="path1430"/></g><g aria-label="V/OCT" id="text47" font-size="8" font-family="Open Sans" text-anchor="middle" fill="#eee" text-rendering="geometricPrecision"><path d="M24.813 362l-2.227-5.832h.824l1.848 4.91 1.851-4.91h.82L25.708 362z" id="path1433"/><path d="M30.023 356.168h.665l-2.032 6.574h-.664z" id="path1435"/><path d="M33.848 356.703q-.86 0-1.368.64-.503.641-.503 1.747 0 1.101.503 1.742.508.64 1.368.64.859 0 1.359-.64.504-.64.504-1.742 0-1.106-.504-1.746-.5-.64-1.36-.64zm0-.64q1.226 0 1.96.824.735.82.735 2.203 0 1.379-.734 2.203-.735.82-1.961.82-1.23 0-1.97-.82-.733-.82-.733-2.203t.734-2.203q.738-.824 1.969-.824z" id="path1437"/><path d="M42.145 356.617v.832q-.399-.37-.852-.554-.45-.184-.957-.184-1 0-1.531.613-.532.61-.532 1.766 0 1.152.532 1.765.53.61 1.53.61.509 0 .958-.184.453-.183.852-.554v.824q-.415.281-.88.422-.46.14-.976.14-1.324 0-2.086-.808-.762-.813-.762-2.215 0-1.406.762-2.215.762-.812 2.086-.812.523 0 .984.14.465.137.872.414z" id="path1439"/><path d="M42.563 356.168h4.933v.664h-2.07V362h-.793v-5.168h-2.07z" id="path1441"/></g><g aria-label="OUT" id="text49" font-size="8" font-family="Open Sans" text-anchor="middle" fill="#eee" text-rendering="geometricPrecision"><path d="M109.629 356.703q-.86 0-1.367.64-.504.641-.504 1.747 0 1.101.504 1.742.508.64 1.367.64.86 0 1.36-.64.503-.64.503-1.742 0-1.106-.504-1.746-.5-.64-1.36-.64zm0-.64q1.226 0 1.96.824.735.82.735 2.203 0 1.379-.734 2.203-.735.82-1.961.82-1.23 0-1.969-.82-.734-.82-.734-2.203t.734-2.203q.738-.824 1.969-.824z" id="path1444"/><path d="M113.469 356.168h.793v3.543q0 .937.34 1.352.34.41 1.101.41.758 0 1.098-.41.34-.415.34-1.352v-3.543h.793v3.64q0 1.141-.567 1.723-.562.582-1.664.582-1.105 0-1.672-.582-.562-.582-.562-1.722z" id="path1446"/><path d="M118.61 356.168h4.933v.664h-2.07V362h-.793v-5.168h-2.07z" id="path1448"/></g><path d="M105 56h30v15h-30z" id="rectangle1-7" fill="#004200"/><path d="M15 56h30v15H15z" id="rectangle1" fill="#004200"/><path d="M94.187 342.877c-1.493-4.604-4.104-9.047-7.188-12.896-.426-.524-1.97-1.907-1.97-1.907 1.323 3.052 1.24 6.218.574 9.077-3.605-7.348-9.923-16.546-19.425-21.402 0 0 6.325 14.268-2.7 30.012-.498-2.122-1.004-5.171-.732-8.193 0 0-1.14.866-1.273.992-1.017.963-1.87 2.089-2.621 3.25-2.74 4.36-4.183 9.628-3.826 14.926.133 2.004.51 4.006 1.022 5.978 1.584 6.315 5.226 12.935 10.628 15.97-1.7-2.855-2.737-6.571-2.737-10.645 0-1.69.178-3.33.514-4.862.038.678.152 1.377.34 2.09.725 2.747 2.396 4.935 4.293 5.936-.858-2.22-1.167-5.153-.707-8.293.333-2.313 1.028-4.424 1.974-6.157 1.048-1.965 2.398-3.444 3.853-4.178-.606 1.026-1.06 2.353-1.294 3.85-.092.576-.145 1.18-.165 1.808-.01.142-.01.287-.01.442 0 .387.014.773.05 1.147.13 1.781.572 3.372 1.228 4.605l.104.189c.325.543.86.92 1.474.993h.007c.06.005.13.01.198.01.019 0 .043 0 .06-.005.929-.025 1.7-.762 1.908-1.739a2.5 2.5 0 0 0 .054-.496v-.036a8.53 8.53 0 0 0-.144-2.255c-.08-.418-.18-.819-.314-1.202a8.222 8.222 0 0 0-.593-1.371c.38.07.762.18 1.13.348 1.404.61 2.66 1.854 3.53 3.489.144.278.279.567.397.87a10.21 10.21 0 0 1 .717 2.961c.382-.72.73-1.51 1.029-2.348.575-1.574.908-3.101 1.01-4.44 1.085 2.502 1.714 5.467 1.714 8.643 0 4.145-1.073 7.913-2.827 10.788.901-.456 1.772-.985 2.588-1.588 3.051-2.208 5.203-5.629 6.594-9.334.783-2.027 1.553-4.29 1.924-6.423 1.1-6.184 1.426-12.74-.388-18.604z" id="path2-7" fill="url(#linearGradient840)" stroke-width=".695"/><path d="M41 92l-8.573 13.51" id="SvgjsLine1007" stroke="#fff" stroke-width=".75"/><path d="M41 92L29.11 81.294" id="SvgjsLine1008" stroke="#fff" stroke-width=".75"/><path d="M41 92l12.112-10.455" id="SvgjsLine1009" stroke="#fff" stroke-width=".75"/><path d="M41 92l8 13.856" id="SvgjsLine1010" stroke="#fff" stroke-width=".75"/><path d="M54 92a13 13 0 0 1-13 13 13 13 0 0 1-13-13 13 13 0 0 1 13-13 13 13 0 0 1 13 13z" id="SvgjsCircle1011" stroke="#eee" stroke-width=".75"/><path d="M131 92l-8.573 13.51" id="SvgjsLine1012" stroke="#fff" stroke-width=".75"/><path d="M131 92l-11.89-10.706" id="SvgjsLine1013" stroke="#fff" stroke-width=".75"/><path d="M131 92l12.112-10.455" id="SvgjsLine1014" stroke="#fff" stroke-width=".75"/><path d="M131 92l8 13.856" id="SvgjsLine1015" stroke="#fff" stroke-width=".75"/><path d="M144 92a13 13 0 0 1-13 13 13 13 0 0 1-13-13 13 13 0 0 1 13-13 13 13 0 0 1 13 13z" id="SvgjsCircle1016" stroke="#eee" stroke-width=".75"/><path d="M41 192l-8.573 13.51" id="SvgjsLine1017" stroke="#fff" stroke-width=".75"/><path d="M41 192l-14.967 5.656" id="SvgjsLine1018" stroke="#fff" stroke-width=".75"/><path d="M41 192l-15.365-4.464" id="SvgjsLine1019" stroke="#fff" stroke-width=".75"/><path d="M41 192l-9.607-12.795" id="SvgjsLine1020" stroke="#fff" stroke-width=".75"/><path d="M41 192v-16" id="SvgjsLine1021" stroke="#fff" stroke-width=".75"/><path d="M41 192l9.607-12.795" id="SvgjsLine1022" stroke="#fff" stroke-width=".75"/><path d="M41 192l15.433-4.222" id="SvgjsLine1023" stroke="#fff" stroke-width=".75"/><path d="M41 192l14.876 5.89" id="SvgjsLine1024" stroke="#fff" stroke-width=".75"/><path d="M41 192l8.36 13.642" id="SvgjsLine1025" stroke="#fff" stroke-width=".75"/><path d="M54 192a13 13 0 0 1-13 13 13 13 0 0 1-13-13 13 13 0 0 1 13-13 13 13 0 0 1 13 13z" id="SvgjsCircle1026" stroke="#eee" stroke-width=".75"/><path d="M131 192l-8.573 13.51" id="SvgjsLine1027" stroke="#fff" stroke-width=".75"/><path d="M131 192l-14.967 5.656" id="SvgjsLine1028" stroke="#fff" stroke-width=".75"/><path d="M131 192l-15.365-4.464" id="SvgjsLine1029" stroke="#fff" stroke-width=".75"/><path d="M131 192l-9.607-12.795" id="SvgjsLine1030" stroke="#fff" stroke-width=".75"/><path d="M131 192v-16" id="SvgjsLine1031" stroke="#fff" stroke-width=".75"/><path d="M131 192l9.607-12.795" id="SvgjsLine1032" stroke="#fff" stroke-width=".75"/><path d="M131 192l15.433-4.222" id="SvgjsLine1033" stroke="#fff" stroke-width=".75"/><path d="M131 192l14.876 5.89" id="SvgjsLine1034" stroke="#fff" stroke-width=".75"/><path d="M131 192l8.36 13.642" id="SvgjsLine1035" stroke="#fff" stroke-width=".75"/><path d="M144 192a13 13 0 0 1-13 13 13 13 0 0 1-13-13 13 13 0 0 1 13-13 13 13 0 0 1 13 13z" id="SvgjsCircle1036" stroke="#eee" stroke-width=".75"/><path d="M41 142h16" id="SvgjsLine1037" stroke="#eee" stroke-width=".75"/><path d="M41 142l14.915 1.594" id="SvgjsLine1038" stroke="#eee" stroke-width=".75"/><path d="M41 142l14.661 3.17" id="SvgjsLine1039" stroke="#eee" stroke-width=".75"/><path d="M41 142l14.241 4.711" id="SvgjsLine1040" stroke="#eee" stroke-width=".75"/><path d="M41 142l13.66 6.198" id="SvgjsLine1041" stroke="#eee" stroke-width=".75"/><path d="M41 142l13.785 8.123" id="SvgjsLine1042" stroke="#eee" stroke-width=".75"/><path d="M41 142l12.04 8.946" id="SvgjsLine1043" stroke="#eee" stroke-width=".75"/><path d="M41 142l11.022 10.175" id="SvgjsLine1044" stroke="#eee" stroke-width=".75"/><path d="M41 142l9.878 11.289" id="SvgjsLine1045" stroke="#eee" stroke-width=".75"/><path d="M41 142l8.622 12.275" id="SvgjsLine1046" stroke="#eee" stroke-width=".75"/><path d="M41 142l7.753 13.996" id="SvgjsLine1047" stroke="#eee" stroke-width=".75"/><path d="M41 142l-8.487 13.564" id="SvgjsLine1048" stroke="#eee" stroke-width=".75"/><path d="M41 142l-9.263 11.798" id="SvgjsLine1049" stroke="#eee" stroke-width=".75"/><path d="M41 142l-10.464 10.747" id="SvgjsLine1050" stroke="#eee" stroke-width=".75"/><path d="M41 142l-11.548 9.574" id="SvgjsLine1051" stroke="#eee" stroke-width=".75"/><path d="M41 142l-12.5 8.292" id="SvgjsLine1052" stroke="#eee" stroke-width=".75"/><path d="M41 142l-14.198 7.377" id="SvgjsLine1053" stroke="#eee" stroke-width=".75"/><path d="M41 142l-13.97 5.462" id="SvgjsLine1054" stroke="#eee" stroke-width=".75"/><path d="M41 142l-14.472 3.947" id="SvgjsLine1055" stroke="#eee" stroke-width=".75"/><path d="M41 142l-14.809 2.386" id="SvgjsLine1056" stroke="#eee" stroke-width=".75"/><path d="M41 142l-14.979.798" id="SvgjsLine1057" stroke="#eee" stroke-width=".75"/><path d="M41 142l-15.977-.852" id="SvgjsLine1058" stroke="#eee" stroke-width=".75"/><path d="M41 142l-14.809-2.386" id="SvgjsLine1059" stroke="#eee" stroke-width=".75"/><path d="M41 142l-14.472-3.947" id="SvgjsLine1060" stroke="#eee" stroke-width=".75"/><path d="M41 142l-13.97-5.462" id="SvgjsLine1061" stroke="#eee" stroke-width=".75"/><path d="M41 142l-13.31-6.916" id="SvgjsLine1062" stroke="#eee" stroke-width=".75"/><path d="M41 142l-13.333-8.845" id="SvgjsLine1063" stroke="#eee" stroke-width=".75"/><path d="M41 142l-11.548-9.574" id="SvgjsLine1064" stroke="#eee" stroke-width=".75"/><path d="M41 142l-10.464-10.747" id="SvgjsLine1065" stroke="#eee" stroke-width=".75"/><path d="M41 142l-9.263-11.798" id="SvgjsLine1066" stroke="#eee" stroke-width=".75"/><path d="M41 142l-7.956-12.716" id="SvgjsLine1067" stroke="#eee" stroke-width=".75"/><path d="M41 142l-6.997-14.389" id="SvgjsLine1068" stroke="#eee" stroke-width=".75"/><path d="M41 142l-5.089-14.11" id="SvgjsLine1069" stroke="#eee" stroke-width=".75"/><path d="M41 142l-3.56-14.571" id="SvgjsLine1070" stroke="#eee" stroke-width=".75"/><path d="M41 142l-1.99-14.867" id="SvgjsLine1071" stroke="#eee" stroke-width=".75"/><path d="M41 142l-.4-14.995" id="SvgjsLine1072" stroke="#eee" stroke-width=".75"/><path d="M41 142l1.277-15.949" id="SvgjsLine1073" stroke="#eee" stroke-width=".75"/><path d="M41 142l2.78-14.74" id="SvgjsLine1074" stroke="#eee" stroke-width=".75"/><path d="M41 142l4.33-14.361" id="SvgjsLine1075" stroke="#eee" stroke-width=".75"/><path d="M41 142l5.832-13.82" id="SvgjsLine1076" stroke="#eee" stroke-width=".75"/><path d="M41 142l7.268-13.121" id="SvgjsLine1077" stroke="#eee" stroke-width=".75"/><path d="M41 142l9.197-13.093" id="SvgjsLine1078" stroke="#eee" stroke-width=".75"/><path d="M41 142l9.878-11.289" id="SvgjsLine1079" stroke="#eee" stroke-width=".75"/><path d="M41 142l11.022-10.175" id="SvgjsLine1080" stroke="#eee" stroke-width=".75"/><path d="M41 142l12.04-8.946" id="SvgjsLine1081" stroke="#eee" stroke-width=".75"/><path d="M41 142l12.923-7.615" id="SvgjsLine1082" stroke="#eee" stroke-width=".75"/><path d="M41 142l14.57-6.611" id="SvgjsLine1083" stroke="#eee" stroke-width=".75"/><path d="M41 142l14.241-4.711" id="SvgjsLine1084" stroke="#eee" stroke-width=".75"/><path d="M41 142l14.661-3.17" id="SvgjsLine1085" stroke="#eee" stroke-width=".75"/><path d="M41 142l14.915-1.594" id="SvgjsLine1086" stroke="#eee" stroke-width=".75"/><path d="M41 142h15" id="SvgjsLine1087" stroke="#eee" stroke-width=".75"/><path d="M54 142a13 13 0 0 1-13 13 13 13 0 0 1-13-13 13 13 0 0 1 13-13 13 13 0 0 1 13 13z" id="SvgjsCircle1088" stroke="#eee" stroke-width=".75"/><path d="M41 242h16" id="SvgjsLine1089" stroke="#eee" stroke-width=".75"/><path d="M41 242l14.915 1.594" id="SvgjsLine1090" stroke="#eee" stroke-width=".75"/><path d="M41 242l14.661 3.17" id="SvgjsLine1091" stroke="#eee" stroke-width=".75"/><path d="M41 242l14.241 4.711" id="SvgjsLine1092" stroke="#eee" stroke-width=".75"/><path d="M41 242l13.66 6.198" id="SvgjsLine1093" stroke="#eee" stroke-width=".75"/><path d="M41 242l13.785 8.123" id="SvgjsLine1094" stroke="#eee" stroke-width=".75"/><path d="M41 242l12.04 8.946" id="SvgjsLine1095" stroke="#eee" stroke-width=".75"/><path d="M41 242l11.022 10.175" id="SvgjsLine1096" stroke="#eee" stroke-width=".75"/><path d="M41 242l9.878 11.289" id="SvgjsLine1097" stroke="#eee" stroke-width=".75"/><path d="M41 242l8.622 12.275" id="SvgjsLine1098" stroke="#eee" stroke-width=".75"/><path d="M41 242l7.753 13.996" id="SvgjsLine1099" stroke="#eee" stroke-width=".75"/><path d="M41 242l-8.487 13.564" id="SvgjsLine1100" stroke="#eee" stroke-width=".75"/><path d="M41 242l-9.263 11.798" id="SvgjsLine1101" stroke="#eee" stroke-width=".75"/><path d="M41 242l-10.464 10.747" id="SvgjsLine1102" stroke="#eee" stroke-width=".75"/><path d="M41 242l-11.548 9.574" id="SvgjsLine1103" stroke="#eee" stroke-width=".75"/><path d="M41 242l-12.5 8.292" id="SvgjsLine1104" stroke="#eee" stroke-width=".75"/><path d="M41 242l-14.198 7.377" id="SvgjsLine1105" stroke="#eee" stroke-width=".75"/><path d="M41 242l-13.97 5.462" id="SvgjsLine1106" stroke="#eee" stroke-width=".75"/><path d="M41 242l-14.472 3.947" id="SvgjsLine1107" stroke="#eee" stroke-width=".75"/><path d="M41 242l-14.809 2.386" id="SvgjsLine1108" stroke="#eee" stroke-width=".75"/><path d="M41 242l-14.979.798" id="SvgjsLine1109" stroke="#eee" stroke-width=".75"/><path d="M41 242l-15.977-.852" id="SvgjsLine1110" stroke="#eee" stroke-width=".75"/><path d="M41 242l-14.809-2.386" id="SvgjsLine1111" stroke="#eee" stroke-width=".75"/><path d="M41 242l-14.472-3.947" id="SvgjsLine1112" stroke="#eee" stroke-width=".75"/><path d="M41 242l-13.97-5.462" id="SvgjsLine1113" stroke="#eee" stroke-width=".75"/><path d="M41 242l-13.31-6.916" id="SvgjsLine1114" stroke="#eee" stroke-width=".75"/><path d="M41 242l-13.333-8.845" id="SvgjsLine1115" stroke="#eee" stroke-width=".75"/><path d="M41 242l-11.548-9.574" id="SvgjsLine1116" stroke="#eee" stroke-width=".75"/><path d="M41 242l-10.464-10.747" id="SvgjsLine1117" stroke="#eee" stroke-width=".75"/><path d="M41 242l-9.263-11.798" id="SvgjsLine1118" stroke="#eee" stroke-width=".75"/><path d="M41 242l-7.956-12.716" id="SvgjsLine1119" stroke="#eee" stroke-width=".75"/><path d="M41 242l-6.997-14.389" id="SvgjsLine1120" stroke="#eee" stroke-width=".75"/><path d="M41 242l-5.089-14.11" id="SvgjsLine1121" stroke="#eee" stroke-width=".75"/><path d="M41 242l-3.56-14.571" id="SvgjsLine1122" stroke="#eee" stroke-width=".75"/><path d="M41 242l-1.99-14.867" id="SvgjsLine1123" stroke="#eee" stroke-width=".75"/><path d="M41 242l-.4-14.995" id="SvgjsLine1124" stroke="#eee" stroke-width=".75"/><path d="M41 242l1.277-15.949" id="SvgjsLine1125" stroke="#eee" stroke-width=".75"/><path d="M41 242l2.78-14.74" id="SvgjsLine1126" stroke="#eee" stroke-width=".75"/><path d="M41 242l4.33-14.361" id="SvgjsLine1127" stroke="#eee" stroke-width=".75"/><path d="M41 242l5.832-13.82" id="SvgjsLine1128" stroke="#eee" stroke-width=".75"/><path d="M41 242l7.268-13.121" id="SvgjsLine1129" stroke="#eee" stroke-width=".75"/><path d="M41 242l9.197-13.093" id="SvgjsLine1130" stroke="#eee" stroke-width=".75"/><path d="M41 242l9.878-11.289" id="SvgjsLine1131" stroke="#eee" stroke-width=".75"/><path d="M41 242l11.022-10.175" id="SvgjsLine1132" stroke="#eee" stroke-width=".75"/><path d="M41 242l12.04-8.946" id="SvgjsLine1133" stroke="#eee" stroke-width=".75"/><path d="M41 242l12.923-7.615" id="SvgjsLine1134" stroke="#eee" stroke-width=".75"/><path d="M41 242l14.57-6.611" id="SvgjsLine1135" stroke="#eee" stroke-width=".75"/><path d="M41 242l14.241-4.711" id="SvgjsLine1136" stroke="#eee" stroke-width=".75"/><path d="M41 242l14.661-3.17" id="SvgjsLine1137" stroke="#eee" stroke-width=".75"/><path d="M41 242l14.915-1.594" id="SvgjsLine1138" stroke="#eee" stroke-width=".75"/><path d="M41 242h15" id="SvgjsLine1139" stroke="#eee" stroke-width=".75"/><path d="M54 242a13 13 0 0 1-13 13 13 13 0 0 1-13-13 13 13 0 0 1 13-13 13 13 0 0 1 13 13z" id="SvgjsCircle1140" stroke="#eee" stroke-width=".75"/><path d="M41 292h16" id="SvgjsLine1141" stroke="#eee" stroke-width=".75"/><path d="M41 292l14.915 1.594" id="SvgjsLine1142" stroke="#eee" stroke-width=".75"/><path d="M41 292l14.661 3.17" id="SvgjsLine1143" stroke="#eee" stroke-width=".75"/><path d="M41 292l14.241 4.711" id="SvgjsLine1144" stroke="#eee" stroke-width=".75"/><path d="M41 292l13.66 6.198" id="SvgjsLine1145" stroke="#eee" stroke-width=".75"/><path d="M41 292l13.785 8.123" id="SvgjsLine1146" stroke="#eee" stroke-width=".75"/><path d="M41 292l12.04 8.945" id="SvgjsLine1147" stroke="#eee" stroke-width=".75"/><path d="M41 292l11.022 10.175" id="SvgjsLine1148" stroke="#eee" stroke-width=".75"/><path d="M41 292l9.878 11.289" id="SvgjsLine1149" stroke="#eee" stroke-width=".75"/><path d="M41 292l8.622 12.275" id="SvgjsLine1150" stroke="#eee" stroke-width=".75"/><path d="M41 292l7.753 13.996" id="SvgjsLine1151" stroke="#eee" stroke-width=".75"/><path d="M41 292l-8.487 13.564" id="SvgjsLine1152" stroke="#eee" stroke-width=".75"/><path d="M41 292l-9.263 11.798" id="SvgjsLine1153" stroke="#eee" stroke-width=".75"/><path d="M41 292l-10.464 10.747" id="SvgjsLine1154" stroke="#eee" stroke-width=".75"/><path d="M41 292l-11.548 9.574" id="SvgjsLine1155" stroke="#eee" stroke-width=".75"/><path d="M41 292l-12.5 8.292" id="SvgjsLine1156" stroke="#eee" stroke-width=".75"/><path d="M41 292l-14.198 7.377" id="SvgjsLine1157" stroke="#eee" stroke-width=".75"/><path d="M41 292l-13.97 5.462" id="SvgjsLine1158" stroke="#eee" stroke-width=".75"/><path d="M41 292l-14.472 3.947" id="SvgjsLine1159" stroke="#eee" stroke-width=".75"/><path d="M41 292l-14.809 2.386" id="SvgjsLine1160" stroke="#eee" stroke-width=".75"/><path d="M41 292l-14.979.798" id="SvgjsLine1161" stroke="#eee" stroke-width=".75"/><path d="M41 292l-15.977-.852" id="SvgjsLine1162" stroke="#eee" stroke-width=".75"/><path d="M41 292l-14.809-2.386" id="SvgjsLine1163" stroke="#eee" stroke-width=".75"/><path d="M41 292l-14.472-3.947" id="SvgjsLine1164" stroke="#eee" stroke-width=".75"/><path d="M41 292l-13.97-5.462" id="SvgjsLine1165" stroke="#eee" stroke-width=".75"/><path d="M41 292l-13.31-6.916" id="SvgjsLine1166" stroke="#eee" stroke-width=".75"/><path d="M41 292l-13.333-8.845" id="SvgjsLine1167" stroke="#eee" stroke-width=".75"/><path d="M41 292l-11.548-9.574" id="SvgjsLine1168" stroke="#eee" stroke-width=".75"/><path d="M41 292l-10.464-10.747" id="SvgjsLine1169" stroke="#eee" stroke-width=".75"/><path d="M41 292l-9.263-11.798" id="SvgjsLine1170" stroke="#eee" stroke-width=".75"/><path d="M41 292l-7.956-12.716" id="SvgjsLine1171" stroke="#eee" stroke-width=".75"/><path d="M41 292l-6.997-14.389" id="SvgjsLine1172" stroke="#eee" stroke-width=".75"/><path d="M41 292l-5.089-14.11" id="SvgjsLine1173" stroke="#eee" stroke-width=".75"/><path d="M41 292l-3.56-14.571" id="SvgjsLine1174" stroke="#eee" stroke-width=".75"/><path d="M41 292l-1.99-14.867" id="SvgjsLine1175" stroke="#eee" stroke-width=".75"/><path d="M41 292l-.4-14.995" id="SvgjsLine1176" stroke="#eee" stroke-width=".75"/><path d="M41 292l1.277-15.949" id="SvgjsLine1177" stroke="#eee" stroke-width=".75"/><path d="M41 292l2.78-14.74" id="SvgjsLine1178" stroke="#eee" stroke-width=".75"/><path d="M41 292l4.33-14.361" id="SvgjsLine1179" stroke="#eee" stroke-width=".75"/><path d="M41 292l5.832-13.82" id="SvgjsLine1180" stroke="#eee" stroke-width=".75"/><path d="M41 292l7.268-13.121" id="SvgjsLine1181" stroke="#eee" stroke-width=".75"/><path d="M41 292l9.197-13.093" id="SvgjsLine1182" stroke="#eee" stroke-width=".75"/><path d="M41 292l9.878-11.289" id="SvgjsLine1183" stroke="#eee" stroke-width=".75"/><path d="M41 292l11.022-10.175" id="SvgjsLine1184" stroke="#eee" stroke-width=".75"/><path d="M41 292l12.04-8.945" id="SvgjsLine1185" stroke="#eee" stroke-width=".75"/><path d="M41 292l12.923-7.615" id="SvgjsLine1186" stroke="#eee" stroke-width=".75"/><path d="M41 292l14.57-6.611" id="SvgjsLine1187" stroke="#eee" stroke-width=".75"/><path d="M41 292l14.241-4.711" id="SvgjsLine1188" stroke="#eee" stroke-width=".75"/><path d="M41 292l14.661-3.17" id="SvgjsLine1189" stroke="#eee" stroke-width=".75"/><path d="M41 292l14.915-1.594" id="SvgjsLine1190" stroke="#eee" stroke-width=".75"/><path d="M41 292h15" id="SvgjsLine1191" stroke="#eee" stroke-width=".75"/><path d="M54 292a13 13 0 0 1-13 13 13 13 0 0 1-13-13 13 13 0 0 1 13-13 13 13 0 0 1 13 13z" id="SvgjsCircle1192" stroke="#eee" stroke-width=".75"/><path d="M131 142h16" id="SvgjsLine1193" stroke="#eee" stroke-width=".75"/><path d="M131 142l14.915 1.594" id="SvgjsLine1194" stroke="#eee" stroke-width=".75"/><path d="M131 142l14.661 3.17" id="SvgjsLine1195" stroke="#eee" stroke-width=".75"/><path d="M131 142l14.241 4.711" id="SvgjsLine1196" stroke="#eee" stroke-width=".75"/><path d="M131 142l13.66 6.198" id="SvgjsLine1197" stroke="#eee" stroke-width=".75"/><path d="M131 142l13.785 8.123" id="SvgjsLine1198" stroke="#eee" stroke-width=".75"/><path d="M131 142l12.04 8.946" id="SvgjsLine1199" stroke="#eee" stroke-width=".75"/><path d="M131 142l11.022 10.175" id="SvgjsLine1200" stroke="#eee" stroke-width=".75"/><path d="M131 142l9.878 11.289" id="SvgjsLine1201" stroke="#eee" stroke-width=".75"/><path d="M131 142l8.622 12.275" id="SvgjsLine1202" stroke="#eee" stroke-width=".75"/><path d="M131 142l7.753 13.996" id="SvgjsLine1203" stroke="#eee" stroke-width=".75"/><path d="M131 142l-8.487 13.564" id="SvgjsLine1204" stroke="#eee" stroke-width=".75"/><path d="M131 142l-9.263 11.798" id="SvgjsLine1205" stroke="#eee" stroke-width=".75"/><path d="M131 142l-10.464 10.747" id="SvgjsLine1206" stroke="#eee" stroke-width=".75"/><path d="M131 142l-11.548 9.574" id="SvgjsLine1207" stroke="#eee" stroke-width=".75"/><path d="M131 142l-12.5 8.292" id="SvgjsLine1208" stroke="#eee" stroke-width=".75"/><path d="M131 142l-14.198 7.377" id="SvgjsLine1209" stroke="#eee" stroke-width=".75"/><path d="M131 142l-13.97 5.462" id="SvgjsLine1210" stroke="#eee" stroke-width=".75"/><path d="M131 142l-14.472 3.947" id="SvgjsLine1211" stroke="#eee" stroke-width=".75"/><path d="M131 142l-14.809 2.386" id="SvgjsLine1212" stroke="#eee" stroke-width=".75"/><path d="M131 142l-14.979.798" id="SvgjsLine1213" stroke="#eee" stroke-width=".75"/><path d="M131 142l-15.977-.852" id="SvgjsLine1214" stroke="#eee" stroke-width=".75"/><path d="M131 142l-14.809-2.386" id="SvgjsLine1215" stroke="#eee" stroke-width=".75"/><path d="M131 142l-14.472-3.947" id="SvgjsLine1216" stroke="#eee" stroke-width=".75"/><path d="M131 142l-13.97-5.462" id="SvgjsLine1217" stroke="#eee" stroke-width=".75"/><path d="M131 142l-13.31-6.916" id="SvgjsLine1218" stroke="#eee" stroke-width=".75"/><path d="M131 142l-13.333-8.845" id="SvgjsLine1219" stroke="#eee" stroke-width=".75"/><path d="M131 142l-11.548-9.574" id="SvgjsLine1220" stroke="#eee" stroke-width=".75"/><path d="M131 142l-10.464-10.747" id="SvgjsLine1221" stroke="#eee" stroke-width=".75"/><path d="M131 142l-9.263-11.798" id="SvgjsLine1222" stroke="#eee" stroke-width=".75"/><path d="M131 142l-7.956-12.716" id="SvgjsLine1223" stroke="#eee" stroke-width=".75"/><path d="M131 142l-6.997-14.389" id="SvgjsLine1224" stroke="#eee" stroke-width=".75"/><path d="M131 142l-5.089-14.11" id="SvgjsLine1225" stroke="#eee" stroke-width=".75"/><path d="M131 142l-3.56-14.571" id="SvgjsLine1226" stroke="#eee" stroke-width=".75"/><path d="M131 142l-1.99-14.867" id="SvgjsLine1227" stroke="#eee" stroke-width=".75"/><path d="M131 142l-.4-14.995" id="SvgjsLine1228" stroke="#eee" stroke-width=".75"/><path d="M131 142l1.277-15.949" id="SvgjsLine1229" stroke="#eee" stroke-width=".75"/><path d="M131 142l2.78-14.74" id="SvgjsLine1230" stroke="#eee" stroke-width=".75"/><path d="M131 142l4.33-14.361" id="SvgjsLine1231" stroke="#eee" stroke-width=".75"/><path d="M131 142l5.832-13.82" id="SvgjsLine1232" stroke="#eee" stroke-width=".75"/><path d="M131 142l7.268-13.121" id="SvgjsLine1233" stroke="#eee" stroke-width=".75"/><path d="M131 142l9.197-13.093" id="SvgjsLine1234" stroke="#eee" stroke-width=".75"/><path d="M131 142l9.878-11.289" id="SvgjsLine1235" stroke="#eee" stroke-width=".75"/><path d="M131 142l11.022-10.175" id="SvgjsLine1236" stroke="#eee" stroke-width=".75"/><path d="M131 142l12.04-8.946" id="SvgjsLine1237" stroke="#eee" stroke-width=".75"/><path d="M131 142l12.923-7.615" id="SvgjsLine1238" stroke="#eee" stroke-width=".75"/><path d="M131 142l14.57-6.611" id="SvgjsLine1239" stroke="#eee" stroke-width=".75"/><path d="M131 142l14.241-4.711" id="SvgjsLine1240" stroke="#eee" stroke-width=".75"/><path d="M131 142l14.661-3.17" id="SvgjsLine1241" stroke="#eee" stroke-width=".75"/><path d="M131 142l14.915-1.594" id="SvgjsLine1242" stroke="#eee" stroke-width=".75"/><path d="M131 142h15" id="SvgjsLine1243" stroke="#eee" stroke-width=".75"/><path d="M144 142a13 13 0 0 1-13 13 13 13 0 0 1-13-13 13 13 0 0 1 13-13 13 13 0 0 1 13 13z" id="SvgjsCircle1244" stroke="#eee" stroke-width=".75"/><path d="M131 242h16" id="SvgjsLine1245" stroke="#eee" stroke-width=".75"/><path d="M131 242l14.915 1.594" id="SvgjsLine1246" stroke="#eee" stroke-width=".75"/><path d="M131 242l14.661 3.17" id="SvgjsLine1247" stroke="#eee" stroke-width=".75"/><path d="M131 242l14.241 4.711" id="SvgjsLine1248" stroke="#eee" stroke-width=".75"/><path d="M131 242l13.66 6.198" id="SvgjsLine1249" stroke="#eee" stroke-width=".75"/><path d="M131 242l13.785 8.123" id="SvgjsLine1250" stroke="#eee" stroke-width=".75"/><path d="M131 242l12.04 8.946" id="SvgjsLine1251" stroke="#eee" stroke-width=".75"/><path d="M131 242l11.022 10.175" id="SvgjsLine1252" stroke="#eee" stroke-width=".75"/><path d="M131 242l9.878 11.289" id="SvgjsLine1253" stroke="#eee" stroke-width=".75"/><path d="M131 242l8.622 12.275" id="SvgjsLine1254" stroke="#eee" stroke-width=".75"/><path d="M131 242l7.753 13.996" id="SvgjsLine1255" stroke="#eee" stroke-width=".75"/><path d="M131 242l-8.487 13.564" id="SvgjsLine1256" stroke="#eee" stroke-width=".75"/><path d="M131 242l-9.263 11.798" id="SvgjsLine1257" stroke="#eee" stroke-width=".75"/><path d="M131 242l-10.464 10.747" id="SvgjsLine1258" stroke="#eee" stroke-width=".75"/><path d="M131 242l-11.548 9.574" id="SvgjsLine1259" stroke="#eee" stroke-width=".75"/><path d="M131 242l-12.5 8.292" id="SvgjsLine1260" stroke="#eee" stroke-width=".75"/><path d="M131 242l-14.198 7.377" id="SvgjsLine1261" stroke="#eee" stroke-width=".75"/><path d="M131 242l-13.97 5.462" id="SvgjsLine1262" stroke="#eee" stroke-width=".75"/><path d="M131 242l-14.472 3.947" id="SvgjsLine1263" stroke="#eee" stroke-width=".75"/><path d="M131 242l-14.809 2.386" id="SvgjsLine1264" stroke="#eee" stroke-width=".75"/><path d="M131 242l-14.979.798" id="SvgjsLine1265" stroke="#eee" stroke-width=".75"/><path d="M131 242l-15.977-.852" id="SvgjsLine1266" stroke="#eee" stroke-width=".75"/><path d="M131 242l-14.809-2.386" id="SvgjsLine1267" stroke="#eee" stroke-width=".75"/><path d="M131 242l-14.472-3.947" id="SvgjsLine1268" stroke="#eee" stroke-width=".75"/><path d="M131 242l-13.97-5.462" id="SvgjsLine1269" stroke="#eee" stroke-width=".75"/><path d="M131 242l-13.31-6.916" id="SvgjsLine1270" stroke="#eee" stroke-width=".75"/><path d="M131 242l-13.333-8.845" id="SvgjsLine1271" stroke="#eee" stroke-width=".75"/><path d="M131 242l-11.548-9.574" id="SvgjsLine1272" stroke="#eee" stroke-width=".75"/><path d="M131 242l-10.464-10.747" id="SvgjsLine1273" stroke="#eee" stroke-width=".75"/><path d="M131 242l-9.263-11.798" id="SvgjsLine1274" stroke="#eee" stroke-width=".75"/><path d="M131 242l-7.956-12.716" id="SvgjsLine1275" stroke="#eee" stroke-width=".75"/><path d="M131 242l-6.997-14.389" id="SvgjsLine1276" stroke="#eee" stroke-width=".75"/><path d="M131 242l-5.089-14.11" id="SvgjsLine1277" stroke="#eee" stroke-width=".75"/><path d="M131 242l-3.56-14.571" id="SvgjsLine1278" stroke="#eee" stroke-width=".75"/><path d="M131 242l-1.99-14.867" id="SvgjsLine1279" stroke="#eee" stroke-width=".75"/><path d="M131 242l-.4-14.995" id="SvgjsLine1280" stroke="#eee" stroke-width=".75"/><path d="M131 242l1.277-15.949" id="SvgjsLine1281" stroke="#eee" stroke-width=".75"/><path d="M131 242l2.78-14.74" id="SvgjsLine1282" stroke="#eee" stroke-width=".75"/><path d="M131 242l4.33-14.361" id="SvgjsLine1283" stroke="#eee" stroke-width=".75"/><path d="M131 242l5.832-13.82" id="SvgjsLine1284" stroke="#eee" stroke-width=".75"/><path d="M131 242l7.268-13.121" id="SvgjsLine1285" stroke="#eee" stroke-width=".75"/><path d="M131 242l9.197-13.093" id="SvgjsLine1286" stroke="#eee" stroke-width=".75"/><path d="M131 242l9.878-11.289" id="SvgjsLine1287" stroke="#eee" stroke-width=".75"/><path d="M131 242l11.022-10.175" id="SvgjsLine1288" stroke="#eee" stroke-width=".75"/><path d="M131 242l12.04-8.946" id="SvgjsLine1289" stroke="#eee" stroke-width=".75"/><path d="M131 242l12.923-7.615" id="SvgjsLine1290" stroke="#eee" stroke-width=".75"/><path d="M131 242l14.57-6.611" id="SvgjsLine1291" stroke="#eee" stroke-width=".75"/><path d="M131 242l14.241-4.711" id="SvgjsLine1292" stroke="#eee" stroke-width=".75"/><path d="M131 242l14.661-3.17" id="SvgjsLine1293" stroke="#eee" stroke-width=".75"/><path d="M131 242l14.915-1.594" id="SvgjsLine1294" stroke="#eee" stroke-width=".75"/><path d="M131 242h15" id="SvgjsLine1295" stroke="#eee" stroke-width=".75"/><path d="M144 242a13 13 0 0 1-13 13 13 13 0 0 1-13-13 13 13 0 0 1 13-13 13 13 0 0 1 13 13z" id="SvgjsCircle1296" stroke="#eee" stroke-width=".75"/><path d="M131 292h16" id="SvgjsLine1297" stroke="#eee" stroke-width=".75"/><path d="M131 292l14.915 1.594" id="SvgjsLine1298" stroke="#eee" stroke-width=".75"/><path d="M131 292l14.661 3.17" id="SvgjsLine1299" stroke="#eee" stroke-width=".75"/><path d="M131 292l14.241 4.711" id="SvgjsLine1300" stroke="#eee" stroke-width=".75"/><path d="M131 292l13.66 6.198" id="SvgjsLine1301" stroke="#eee" stroke-width=".75"/><path d="M131 292l13.785 8.123" id="SvgjsLine1302" stroke="#eee" stroke-width=".75"/><path d="M131 292l12.04 8.945" id="SvgjsLine1303" stroke="#eee" stroke-width=".75"/><path d="M131 292l11.022 10.175" id="SvgjsLine1304" stroke="#eee" stroke-width=".75"/><path d="M131 292l9.878 11.289" id="SvgjsLine1305" stroke="#eee" stroke-width=".75"/><path d="M131 292l8.622 12.275" id="SvgjsLine1306" stroke="#eee" stroke-width=".75"/><path d="M131 292l7.753 13.996" id="SvgjsLine1307" stroke="#eee" stroke-width=".75"/><path d="M131 292l-8.487 13.564" id="SvgjsLine1308" stroke="#eee" stroke-width=".75"/><path d="M131 292l-9.263 11.798" id="SvgjsLine1309" stroke="#eee" stroke-width=".75"/><path d="M131 292l-10.464 10.747" id="SvgjsLine1310" stroke="#eee" stroke-width=".75"/><path d="M131 292l-11.548 9.574" id="SvgjsLine1311" stroke="#eee" stroke-width=".75"/><path d="M131 292l-12.5 8.292" id="SvgjsLine1312" stroke="#eee" stroke-width=".75"/><path d="M131 292l-14.198 7.377" id="SvgjsLine1313" stroke="#eee" stroke-width=".75"/><path d="M131 292l-13.97 5.462" id="SvgjsLine1314" stroke="#eee" stroke-width=".75"/><path d="M131 292l-14.472 3.947" id="SvgjsLine1315" stroke="#eee" stroke-width=".75"/><path d="M131 292l-14.809 2.386" id="SvgjsLine1316" stroke="#eee" stroke-width=".75"/><path d="M131 292l-14.979.798" id="SvgjsLine1317" stroke="#eee" stroke-width=".75"/><path d="M131 292l-15.977-.852" id="SvgjsLine1318" stroke="#eee" stroke-width=".75"/><path d="M131 292l-14.809-2.386" id="SvgjsLine1319" stroke="#eee" stroke-width=".75"/><path d="M131 292l-14.472-3.947" id="SvgjsLine1320" stroke="#eee" stroke-width=".75"/><path d="M131 292l-13.97-5.462" id="SvgjsLine1321" stroke="#eee" stroke-width=".75"/><path d="M131 292l-13.31-6.916" id="SvgjsLine1322" stroke="#eee" stroke-width=".75"/><path d="M131 292l-13.333-8.845" id="SvgjsLine1323" stroke="#eee" stroke-width=".75"/><path d="M131 292l-11.548-9.574" id="SvgjsLine1324" stroke="#eee" stroke-width=".75"/><path d="M131 292l-10.464-10.747" id="SvgjsLine1325" stroke="#eee" stroke-width=".75"/><path d="M131 292l-9.263-11.798" id="SvgjsLine1326" stroke="#eee" stroke-width=".75"/><path d="M131 292l-7.956-12.716" id="SvgjsLine1327" stroke="#eee" stroke-width=".75"/><path d="M131 292l-6.997-14.389" id="SvgjsLine1328" stroke="#eee" stroke-width=".75"/><path d="M131 292l-5.089-14.11" id="SvgjsLine1329" stroke="#eee" stroke-width=".75"/><path d="M131 292l-3.56-14.571" id="SvgjsLine1330" stroke="#eee" stroke-width=".75"/><path d="M131 292l-1.99-14.867" id="SvgjsLine1331" stroke="#eee" stroke-width=".75"/><path d="M131 292l-.4-14.995" id="SvgjsLine1332" stroke="#eee" stroke-width=".75"/><path d="M131 292l1.277-15.949" id="SvgjsLine1333" stroke="#eee" stroke-width=".75"/><path d="M131 292l2.78-14.74" id="SvgjsLine1334" stroke="#eee" stroke-width=".75"/><path d="M131 292l4.33-14.361" id="SvgjsLine1335" stroke="#eee" stroke-width=".75"/><path d="M131 292l5.832-13.82" id="SvgjsLine1336" stroke="#eee" stroke-width=".75"/><path d="M131 292l7.268-13.121" id="SvgjsLine1337" stroke="#eee" stroke-width=".75"/><path d="M131 292l9.197-13.093" id="SvgjsLine1338" stroke="#eee" stroke-width=".75"/><path d="M131 292l9.878-11.289" id="SvgjsLine1339" stroke="#eee" stroke-width=".75"/><path d="M131 292l11.022-10.175" id="SvgjsLine1340" stroke="#eee" stroke-width=".75"/><path d="M131 292l12.04-8.945" id="SvgjsLine1341" stroke="#eee" stroke-width=".75"/><path d="M131 292l12.923-7.615" id="SvgjsLine1342" stroke="#eee" stroke-width=".75"/><path d="M131 292l14.57-6.611" id="SvgjsLine1343" stroke="#eee" stroke-width=".75"/><path d="M131 292l14.241-4.711" id="SvgjsLine1344" stroke="#eee" stroke-width=".75"/><path d="M131 292l14.661-3.17" id="SvgjsLine1345" stroke="#eee" stroke-width=".75"/><path d="M131 292l14.915-1.594" id="SvgjsLine1346" stroke="#eee" stroke-width=".75"/><path d="M131 292h15" id="SvgjsLine1347" stroke="#eee" stroke-width=".75"/><path d="M144 292a13 13 0 0 1-13 13 13 13 0 0 1-13-13 13 13 0 0 1 13-13 13 13 0 0 1 13 13z" id="SvgjsCircle1348" stroke="#eee" stroke-width=".75"/><path d="M75 265h16" id="SvgjsLine1349" stroke="#eee" stroke-width=".75"/><path d="M75 265l14.915 1.594" id="SvgjsLine1350" stroke="#eee" stroke-width=".75"/><path d="M75 265l14.661 3.17" id="SvgjsLine1351" stroke="#eee" stroke-width=".75"/><path d="M75 265l14.241 4.711" id="SvgjsLine1352" stroke="#eee" stroke-width=".75"/><path d="M75 265l13.66 6.198" id="SvgjsLine1353" stroke="#eee" stroke-width=".75"/><path d="M75 265l13.785 8.123" id="SvgjsLine1354" stroke="#eee" stroke-width=".75"/><path d="M75 265l12.04 8.945" id="SvgjsLine1355" stroke="#eee" stroke-width=".75"/><path d="M75 265l11.022 10.175" id="SvgjsLine1356" stroke="#eee" stroke-width=".75"/><path d="M75 265l9.878 11.289" id="SvgjsLine1357" stroke="#eee" stroke-width=".75"/><path d="M75 265l8.622 12.275" id="SvgjsLine1358" stroke="#eee" stroke-width=".75"/><path d="M75 265l7.753 13.996" id="SvgjsLine1359" stroke="#eee" stroke-width=".75"/><path d="M75 265l-8.487 13.564" id="SvgjsLine1360" stroke="#eee" stroke-width=".75"/><path d="M75 265l-9.263 11.798" id="SvgjsLine1361" stroke="#eee" stroke-width=".75"/><path d="M75 265l-10.464 10.747" id="SvgjsLine1362" stroke="#eee" stroke-width=".75"/><path d="M75 265l-11.548 9.574" id="SvgjsLine1363" stroke="#eee" stroke-width=".75"/><path d="M75 265l-12.5 8.292" id="SvgjsLine1364" stroke="#eee" stroke-width=".75"/><path d="M75 265l-14.198 7.377" id="SvgjsLine1365" stroke="#eee" stroke-width=".75"/><path d="M75 265l-13.97 5.462" id="SvgjsLine1366" stroke="#eee" stroke-width=".75"/><path d="M75 265l-14.472 3.947" id="SvgjsLine1367" stroke="#eee" stroke-width=".75"/><path d="M75 265l-14.809 2.386" id="SvgjsLine1368" stroke="#eee" stroke-width=".75"/><path d="M75 265l-14.979.798" id="SvgjsLine1369" stroke="#eee" stroke-width=".75"/><path d="M75 265l-15.977-.852" id="SvgjsLine1370" stroke="#eee" stroke-width=".75"/><path d="M75 265l-14.809-2.386" id="SvgjsLine1371" stroke="#eee" stroke-width=".75"/><path d="M75 265l-14.472-3.947" id="SvgjsLine1372" stroke="#eee" stroke-width=".75"/><path d="M75 265l-13.97-5.462" id="SvgjsLine1373" stroke="#eee" stroke-width=".75"/><path d="M75 265l-13.31-6.916" id="SvgjsLine1374" stroke="#eee" stroke-width=".75"/><path d="M75 265l-13.333-8.845" id="SvgjsLine1375" stroke="#eee" stroke-width=".75"/><path d="M75 265l-11.548-9.574" id="SvgjsLine1376" stroke="#eee" stroke-width=".75"/><path d="M75 265l-10.464-10.747" id="SvgjsLine1377" stroke="#eee" stroke-width=".75"/><path d="M75 265l-9.263-11.798" id="SvgjsLine1378" stroke="#eee" stroke-width=".75"/><path d="M75 265l-7.956-12.716" id="SvgjsLine1379" stroke="#eee" stroke-width=".75"/><path d="M75 265l-6.997-14.389" id="SvgjsLine1380" stroke="#eee" stroke-width=".75"/><path d="M75 265l-5.089-14.11" id="SvgjsLine1381" stroke="#eee" stroke-width=".75"/><path d="M75 265l-3.56-14.571" id="SvgjsLine1382" stroke="#eee" stroke-width=".75"/><path d="M75 265l-1.99-14.867" id="SvgjsLine1383" stroke="#eee" stroke-width=".75"/><path d="M75 265l-.4-14.995" id="SvgjsLine1384" stroke="#eee" stroke-width=".75"/><path d="M75 265l1.277-15.949" id="SvgjsLine1385" stroke="#eee" stroke-width=".75"/><path d="M75 265l2.78-14.74" id="SvgjsLine1386" stroke="#eee" stroke-width=".75"/><path d="M75 265l4.33-14.361" id="SvgjsLine1387" stroke="#eee" stroke-width=".75"/><path d="M75 265l5.832-13.82" id="SvgjsLine1388" stroke="#eee" stroke-width=".75"/><path d="M75 265l7.268-13.121" id="SvgjsLine1389" stroke="#eee" stroke-width=".75"/><path d="M75 265l9.197-13.093" id="SvgjsLine1390" stroke="#eee" stroke-width=".75"/><path d="M75 265l9.878-11.289" id="SvgjsLine1391" stroke="#eee" stroke-width=".75"/><path d="M75 265l11.022-10.175" id="SvgjsLine1392" stroke="#eee" stroke-width=".75"/><path d="M75 265l12.04-8.945" id="SvgjsLine1393" stroke="#eee" stroke-width=".75"/><path d="M75 265l12.923-7.615" id="SvgjsLine1394" stroke="#eee" stroke-width=".75"/><path d="M75 265l14.57-6.611" id="SvgjsLine1395" stroke="#eee" stroke-width=".75"/><path d="M75 265l14.241-4.711" id="SvgjsLine1396" stroke="#eee" stroke-width=".75"/><path d="M75 265l14.661-3.17" id="SvgjsLine1397" stroke="#eee" stroke-width=".75"/><path d="M75 265l14.915-1.594" id="SvgjsLine1398" stroke="#eee" stroke-width=".75"/><path d="M75 265h15" id="SvgjsLine1399" stroke="#eee" stroke-width=".75"/><path d="M88 265a13 13 0 0 1-13 13 13 13 0 0 1-13-13 13 13 0 0 1 13-13 13 13 0 0 1 13 13z" id="SvgjsCircle1400" stroke="#eee" stroke-width=".75"/></svg>