<svg xmlns:osb="http://www.openswatchbook.org/uri/2009/osb" xmlns="http://www.w3.org/2000/svg" xmlns:xlink="http://www.w3.org/1999/xlink" height="380" style="zoom:8" cursor="default" id="SvgjsSvg1006" width="60"><defs id="SvgjsDefs1007"><linearGradient id="linearGradient838"><stop offset="0" id="stop834" stop-color="#ff8600"/><stop offset="1" id="stop836" stop-color="#ff8600" stop-opacity="0"/></linearGradient><linearGradient id="linearGradient2396" osb:paint="gradient"><stop offset="0" id="stop2392" stop-color="#ff8f00"/><stop offset="1" id="stop2394" stop-color="#ff8f00" stop-opacity="0"/></linearGradient><linearGradient id="linearGradient2384" osb:paint="solid"><stop offset="0" id="stop2382" stop-color="#ff8f00"/></linearGradient><linearGradient id="linearGradient898" osb:paint="solid"><stop offset="0" id="stop896" stop-color="#ff8f00"/></linearGradient><linearGradient id="linearGradient915"><stop offset="0" id="stop911" stop-color="#404040"/><stop offset="1" id="stop913" stop-color="#202020"/></linearGradient><linearGradient xlink:href="#linearGradient915" id="linearGradient919" y1="190" x2="45" y2="190" gradientUnits="userSpaceOnUse"/><style id="OpenSans_Google_Webfont_import">@import url(https://fonts.googleapis.com/css?family=Open+Sans);</style><style id="style31">@import url(https://fonts.googleapis.com/css?family=&apos;Open Sans&apos;);</style><style id="style33">@import url(https://fonts.googleapis.com/css?family=&apos;Open Sans&apos;);</style><style id="style35">@import url(https://fonts.googleapis.com/css?family=&apos;Open Sans&apos;);</style><style id="style22">@import url(https://fonts.googleapis.com/css?family=&apos;Open Sans&apos;);</style><style id="style24">@import url(https://fonts.googleapis.com/css?family=&apos;Open Sans&apos;);</style><style id="style26">@import url(https://fonts.googleapis.com/css?family=&apos;Open Sans&apos;);</style><linearGradient xlink:href="#linearGradient838" id="linearGradient840" x1="19.992" y1="333.24" x2="27.785" y2="400.33" gradientUnits="userSpaceOnUse" gradientTransform="translate(8)"/></defs><path d="M0 0h60v380H0z" id="SvgjsRect1008" fill="url(#linearGradient919)"/><path d="M49.005 342.877c-1.493-4.604-4.104-9.047-7.188-12.896-.426-.524-1.97-1.907-1.97-1.907 1.323 3.052 1.24 6.218.574 9.077-3.605-7.348-9.923-16.546-19.425-21.402 0 0 6.325 14.268-2.7 30.012-.498-2.122-1.004-5.171-.732-8.193 0 0-1.14.866-1.273.992-1.017.963-1.87 2.089-2.621 3.25-2.74 4.36-4.183 9.628-3.826 14.926.133 2.004.51 4.006 1.022 5.978 1.584 6.315 5.226 12.935 10.628 15.97-1.7-2.855-2.737-6.571-2.737-10.645 0-1.69.178-3.33.514-4.862.038.678.152 1.377.34 2.09.725 2.747 2.396 4.935 4.293 5.936-.858-2.22-1.167-5.153-.707-8.293.333-2.313 1.028-4.424 1.974-6.157 1.048-1.965 2.398-3.444 3.853-4.178-.606 1.026-1.06 2.353-1.294 3.85-.092.576-.145 1.18-.165 1.808-.009.142-.009.287-.009.442 0 .387.013.773.05 1.147.13 1.781.571 3.372 1.227 4.605l.104.189c.325.543.86.92 1.475.993h.006c.06.005.13.01.198.01.019 0 .043 0 .06-.005.929-.025 1.7-.762 1.908-1.739a2.5 2.5 0 0 0 .054-.496v-.036a8.53 8.53 0 0 0-.144-2.255c-.08-.418-.18-.819-.314-1.202a8.222 8.222 0 0 0-.593-1.371c.38.07.762.18 1.13.348 1.404.61 2.66 1.854 3.53 3.489.144.278.279.567.397.87a10.21 10.21 0 0 1 .717 2.961c.382-.72.73-1.51 1.029-2.348.575-1.574.908-3.101 1.01-4.44 1.085 2.502 1.714 5.467 1.714 8.643 0 4.145-1.073 7.913-2.827 10.788.901-.456 1.772-.985 2.588-1.588 3.051-2.208 5.203-5.629 6.594-9.334.783-2.027 1.553-4.29 1.924-6.423 1.1-6.184 1.426-12.74-.388-18.604z" id="path2" fill="url(#linearGradient840)" stroke-width=".695"/><g aria-label="PAN" id="text5" font-size="12" font-family="Open Sans" text-anchor="middle" fill="#eee" text-rendering="geometricPrecision"><path d="M20.525 17.225v3.287h1.489q.826 0 1.277-.428.451-.428.451-1.219 0-.785-.451-1.213-.451-.427-1.277-.427zm-1.183-.973h2.672q1.47 0 2.22.668.756.662.756 1.945 0 1.295-.756 1.957-.75.662-2.22.662h-1.489V25h-1.183z" id="path895"/><path d="M28.746 17.418l-1.605 4.353h3.216zm-.668-1.166h1.342L32.754 25h-1.23l-.797-2.244h-3.944L25.986 25h-1.248z" id="path897"/><path d="M34.037 16.252h1.594l3.879 7.318v-7.318h1.148V25h-1.594l-3.878-7.318V25h-1.149z" id="path899"/></g><g aria-label="IN" id="text31" font-size="8" font-family="Open Sans" text-anchor="middle" fill="#eee" text-rendering="geometricPrecision"><path d="M26.613 61.168h.79V67h-.79z" id="path902"/><path d="M28.973 61.168h1.062l2.586 4.879v-4.879h.766V67h-1.063l-2.586-4.879V67h-.765z" id="path904"/></g><g aria-label="PAN" id="text29" font-size="8" font-family="Open Sans" text-anchor="middle" fill="#eee" text-rendering="geometricPrecision"><path d="M23.684 111.816v2.192h.992q.55 0 .851-.285.301-.285.301-.813 0-.523-.3-.808-.301-.286-.852-.286zm-.79-.648h1.782q.98 0 1.48.445.504.442.504 1.297 0 .863-.504 1.305-.5.441-1.48.441h-.992V117h-.79z" id="path907"/><path d="M29.164 111.945l-1.07 2.903h2.144zm-.445-.777h.894L31.836 117h-.82l-.532-1.496h-2.629l-.53 1.496h-.833z" id="path909"/><path d="M32.691 111.168h1.063l2.586 4.879v-4.879h.765V117h-1.062l-2.586-4.879V117h-.766z" id="path911"/></g><g aria-label="OUT" id="text34" font-size="8" font-family="Open Sans" text-anchor="middle" fill="#eee" text-rendering="geometricPrecision"><path d="M24.629 161.703q-.86 0-1.367.64-.504.641-.504 1.747 0 1.101.504 1.742.508.64 1.367.64.86 0 1.36-.64.503-.64.503-1.742 0-1.106-.504-1.746-.5-.64-1.36-.64zm0-.64q1.226 0 1.96.824.735.82.735 2.203 0 1.379-.734 2.203-.735.82-1.961.82-1.23 0-1.969-.82-.734-.82-.734-2.203t.734-2.203q.738-.825 1.969-.825z" id="path914"/><path d="M28.469 161.168h.793v3.543q0 .937.34 1.351.34.41 1.101.41.758 0 1.098-.41.34-.414.34-1.351v-3.543h.793v3.64q0 1.141-.567 1.723-.562.582-1.664.582-1.105 0-1.672-.582-.562-.582-.562-1.722z" id="path916"/><path d="M33.61 161.168h4.933v.664h-2.07V167h-.793v-5.168h-2.07z" id="path918"/></g><g aria-label="OUT" id="text33" font-size="8" font-family="Open Sans" text-anchor="middle" fill="#eee" text-rendering="geometricPrecision"><path d="M24.629 211.703q-.86 0-1.367.64-.504.641-.504 1.747 0 1.101.504 1.742.508.64 1.367.64.86 0 1.36-.64.503-.64.503-1.742 0-1.106-.504-1.746-.5-.64-1.36-.64zm0-.64q1.226 0 1.96.824.735.82.735 2.203 0 1.379-.734 2.203-.735.82-1.961.82-1.23 0-1.969-.82-.734-.82-.734-2.203t.734-2.203q.738-.825 1.969-.825z" id="path921"/><path d="M28.469 211.168h.793v3.543q0 .937.34 1.351.34.41 1.101.41.758 0 1.098-.41.34-.414.34-1.351v-3.543h.793v3.64q0 1.141-.567 1.723-.562.582-1.664.582-1.105 0-1.672-.582-.562-.582-.562-1.722z" id="path923"/><path d="M33.61 211.168h4.933v.664h-2.07V217h-.793v-5.168h-2.07z" id="path925"/></g><path d="M41 92h16" id="SvgjsLine1007" stroke="#eee" stroke-width=".75"/><path d="M41 92l14.915 1.594" id="SvgjsLine1008" stroke="#eee" stroke-width=".75"/><path d="M41 92l14.661 3.17" id="SvgjsLine1009" stroke="#eee" stroke-width=".75"/><path d="M41 92l14.241 4.711" id="SvgjsLine1010" stroke="#eee" stroke-width=".75"/><path d="M41 92l13.66 6.198" id="SvgjsLine1011" stroke="#eee" stroke-width=".75"/><path d="M41 92l13.785 8.123" id="SvgjsLine1012" stroke="#eee" stroke-width=".75"/><path d="M41 92l12.04 8.946" id="SvgjsLine1013" stroke="#eee" stroke-width=".75"/><path d="M41 92l11.022 10.175" id="SvgjsLine1014" stroke="#eee" stroke-width=".75"/><path d="M41 92l9.878 11.289" id="SvgjsLine1015" stroke="#eee" stroke-width=".75"/><path d="M41 92l8.622 12.275" id="SvgjsLine1016" stroke="#eee" stroke-width=".75"/><path d="M41 92l7.753 13.996" id="SvgjsLine1017" stroke="#eee" stroke-width=".75"/><path d="M41 92l-8.487 13.564" id="SvgjsLine1018" stroke="#eee" stroke-width=".75"/><path d="M41 92l-9.263 11.798" id="SvgjsLine1019" stroke="#eee" stroke-width=".75"/><path d="M41 92l-10.464 10.747" id="SvgjsLine1020" stroke="#eee" stroke-width=".75"/><path d="M41 92l-11.548 9.574" id="SvgjsLine1021" stroke="#eee" stroke-width=".75"/><path d="M41 92l-12.5 8.292" id="SvgjsLine1022" stroke="#eee" stroke-width=".75"/><path d="M41 92l-14.198 7.377" id="SvgjsLine1023" stroke="#eee" stroke-width=".75"/><path d="M41 92l-13.97 5.462" id="SvgjsLine1024" stroke="#eee" stroke-width=".75"/><path d="M41 92l-14.472 3.947" id="SvgjsLine1025" stroke="#eee" stroke-width=".75"/><path d="M41 92l-14.809 2.386" id="SvgjsLine1026" stroke="#eee" stroke-width=".75"/><path d="M41 92l-14.979.798" id="SvgjsLine1027" stroke="#eee" stroke-width=".75"/><path d="M41 92l-15.977-.852" id="SvgjsLine1028" stroke="#eee" stroke-width=".75"/><path d="M41 92l-14.809-2.386" id="SvgjsLine1029" stroke="#eee" stroke-width=".75"/><path d="M41 92l-14.472-3.947" id="SvgjsLine1030" stroke="#eee" stroke-width=".75"/><path d="M41 92l-13.97-5.462" id="SvgjsLine1031" stroke="#eee" stroke-width=".75"/><path d="M41 92l-13.31-6.916" id="SvgjsLine1032" stroke="#eee" stroke-width=".75"/><path d="M41 92l-13.333-8.845" id="SvgjsLine1033" stroke="#eee" stroke-width=".75"/><path d="M41 92l-11.548-9.574" id="SvgjsLine1034" stroke="#eee" stroke-width=".75"/><path d="M41 92L30.536 81.253" id="SvgjsLine1035" stroke="#eee" stroke-width=".75"/><path d="M41 92l-9.263-11.798" id="SvgjsLine1036" stroke="#eee" stroke-width=".75"/><path d="M41 92l-7.956-12.716" id="SvgjsLine1037" stroke="#eee" stroke-width=".75"/><path d="M41 92l-6.997-14.389" id="SvgjsLine1038" stroke="#eee" stroke-width=".75"/><path d="M41 92l-5.089-14.11" id="SvgjsLine1039" stroke="#eee" stroke-width=".75"/><path d="M41 92l-3.56-14.571" id="SvgjsLine1040" stroke="#eee" stroke-width=".75"/><path d="M41 92l-1.99-14.867" id="SvgjsLine1041" stroke="#eee" stroke-width=".75"/><path d="M41 92l-.4-14.995" id="SvgjsLine1042" stroke="#eee" stroke-width=".75"/><path d="M41 92l1.277-15.949" id="SvgjsLine1043" stroke="#eee" stroke-width=".75"/><path d="M41 92l2.78-14.74" id="SvgjsLine1044" stroke="#eee" stroke-width=".75"/><path d="M41 92l4.33-14.361" id="SvgjsLine1045" stroke="#eee" stroke-width=".75"/><path d="M41 92l5.832-13.82" id="SvgjsLine1046" stroke="#eee" stroke-width=".75"/><path d="M41 92l7.268-13.121" id="SvgjsLine1047" stroke="#eee" stroke-width=".75"/><path d="M41 92l9.197-13.093" id="SvgjsLine1048" stroke="#eee" stroke-width=".75"/><path d="M41 92l9.878-11.289" id="SvgjsLine1049" stroke="#eee" stroke-width=".75"/><path d="M41 92l11.022-10.175" id="SvgjsLine1050" stroke="#eee" stroke-width=".75"/><path d="M41 92l12.04-8.946" id="SvgjsLine1051" stroke="#eee" stroke-width=".75"/><path d="M41 92l12.923-7.615" id="SvgjsLine1052" stroke="#eee" stroke-width=".75"/><path d="M41 92l14.57-6.611" id="SvgjsLine1053" stroke="#eee" stroke-width=".75"/><path d="M41 92l14.241-4.711" id="SvgjsLine1054" stroke="#eee" stroke-width=".75"/><path d="M41 92l14.661-3.17" id="SvgjsLine1055" stroke="#eee" stroke-width=".75"/><path d="M41 92l14.915-1.594" id="SvgjsLine1056" stroke="#eee" stroke-width=".75"/><path d="M41 92h15" id="SvgjsLine1057" stroke="#eee" stroke-width=".75"/><path d="M54 92a13 13 0 0 1-13 13 13 13 0 0 1-13-13 13 13 0 0 1 13-13 13 13 0 0 1 13 13z" id="SvgjsCircle1058" stroke="#eee" stroke-width=".75"/></svg>