<?xml version="1.0" encoding="UTF-8" standalone="no"?>
<svg
   xmlns:osb="http://www.openswatchbook.org/uri/2009/osb"
   xmlns:dc="http://purl.org/dc/elements/1.1/"
   xmlns:cc="http://creativecommons.org/ns#"
   xmlns:rdf="http://www.w3.org/1999/02/22-rdf-syntax-ns#"
   xmlns:svg="http://www.w3.org/2000/svg"
   xmlns="http://www.w3.org/2000/svg"
   xmlns:xlink="http://www.w3.org/1999/xlink"
   xmlns:sodipodi="http://sodipodi.sourceforge.net/DTD/sodipodi-0.dtd"
   xmlns:inkscape="http://www.inkscape.org/namespaces/inkscape"
   height="380"
   style="zoom: 8;"
   cursor="default"
   id="SvgjsSvg1006"
   sodipodi:docname="Pan.svg"
   inkscape:version="0.92.2 5c3e80d, 2017-08-06"
   width="60"
   version="1.1">
  <metadata
     id="metadata7215">
    <rdf:RDF>
      <cc:Work
         rdf:about="">
        <dc:format>image/svg+xml</dc:format>
        <dc:type
           rdf:resource="http://purl.org/dc/dcmitype/StillImage" />
        <dc:title />
      </cc:Work>
    </rdf:RDF>
  </metadata>
  <sodipodi:namedview
     borderopacity="1"
     inkscape:zoom="2.9512404"
     inkscape:cy="94.584588"
     gridtolerance="10"
     inkscape:cx="-46.833191"
     inkscape:window-height="1006"
     inkscape:measure-start="21.6858,252.097"
     inkscape:pagecheckerboard="true"
     inkscape:window-width="901"
     guidetolerance="10"
     id="namedview7213"
     showgrid="false"
     inkscape:pageopacity="0"
     inkscape:pageshadow="2"
     bordercolor="#666666"
     inkscape:current-layer="SvgjsSvg1006"
     inkscape:window-maximized="0"
     inkscape:window-y="11"
     inkscape:measure-end="21.0081,301.907"
     objecttolerance="10"
     pagecolor="#ffffff"
     inkscape:window-x="496"
     visibility="visible" />
  <defs
     id="SvgjsDefs1007">
    <linearGradient
       inkscape:collect="always"
       id="linearGradient838">
      <stop
         style="stop-color:#ff8600;stop-opacity:1;"
         offset="0"
         id="stop834" />
      <stop
         style="stop-color:#ff8600;stop-opacity:0;"
         offset="1"
         id="stop836" />
    </linearGradient>
    <linearGradient
       id="linearGradient2396"
       osb:paint="gradient">
      <stop
         style="stop-color:#ff8f00;stop-opacity:1;"
         offset="0"
         id="stop2392" />
      <stop
         style="stop-color:#ff8f00;stop-opacity:0;"
         offset="1"
         id="stop2394" />
    </linearGradient>
    <linearGradient
       id="linearGradient2384"
       osb:paint="solid">
      <stop
         style="stop-color:#ff8f00;stop-opacity:1;"
         offset="0"
         id="stop2382" />
    </linearGradient>
    <linearGradient
       id="linearGradient898"
       osb:paint="solid">
      <stop
         style="stop-color:#ff8f00;stop-opacity:1;"
         offset="0"
         id="stop896" />
    </linearGradient>
    <linearGradient
       inkscape:collect="always"
       id="linearGradient915">
      <stop
         style="stop-color:#303035;stop-opacity:1;"
         offset="0"
         id="stop911" />
      <stop
         style="stop-color:#202025;stop-opacity:1;"
         offset="1"
         id="stop913" />
    </linearGradient>
    <linearGradient
       inkscape:collect="always"
       xlink:href="#linearGradient915"
       id="linearGradient919"
       x1="0"
       y1="190"
       x2="45"
       y2="190"
       gradientUnits="userSpaceOnUse" />
    <style
       id="OpenSans_Google_Webfont_import">@import url(https://fonts.googleapis.com/css?family=Open+Sans);</style>
    <style
       id="style31">@import url(https://fonts.googleapis.com/css?family='Open Sans');</style>
    <style
       id="style33">@import url(https://fonts.googleapis.com/css?family='Open Sans');</style>
    <style
       id="style35">@import url(https://fonts.googleapis.com/css?family='Open Sans');</style>
    <style
       id="style22">@import url(https://fonts.googleapis.com/css?family='Open Sans');</style>
    <style
       id="style24">@import url(https://fonts.googleapis.com/css?family='Open Sans');</style>
    <style
       id="style26">@import url(https://fonts.googleapis.com/css?family='Open Sans');</style>
    <linearGradient
       inkscape:collect="always"
       xlink:href="#linearGradient838"
       id="linearGradient840"
       x1="19.991594"
       y1="333.23999"
       x2="27.784927"
       y2="400.33044"
       gradientUnits="userSpaceOnUse"
       gradientTransform="translate(8)" />
  </defs>
  <path
     d="M0,0 H60 V380 H0 Z"
     id="SvgjsRect1008"
     style="fill:url(#linearGradient919);fill-opacity:1;stroke:none;stroke-opacity:1"
     visibility="visible" />
  <path
     d="m 49.004911,342.87682 c -1.492639,-4.60366 -4.104196,-9.04635 -7.187505,-12.89608 -0.426049,-0.52359 -1.969544,-1.90716 -1.969544,-1.90716 1.322369,3.05255 1.238339,6.21832 0.573467,9.07712 -3.605176,-7.34797 -9.922897,-16.54618 -19.424907,-21.40183 1e-6,0 6.324356,14.26788 -2.700752,30.01166 -0.497545,-2.12189 -1.003936,-5.1705 -0.731207,-8.19293 1e-6,0 -1.141036,0.86654 -1.272978,0.99218 -1.017942,0.9628 -1.870772,2.08918 -2.621881,3.25089 -2.73908,4.35956 -4.183067,9.62692 -3.825571,14.92499 0.133416,2.0047 0.510813,4.0068 1.021626,5.97879 1.584775,6.31451 5.226807,12.93469 10.628308,15.9689 -1.699762,-2.85425 -2.736868,-6.57044 -2.736868,-10.64465 -1e-6,-1.68924 0.177641,-3.32938 0.513762,-4.86154 0.03833,0.67807 0.151844,1.37704 0.339804,2.08978 0.725312,2.74688 2.396326,4.93484 4.292896,5.93557 -0.857252,-2.21868 -1.166836,-5.15213 -0.706883,-8.29235 0.333171,-2.31366 1.028259,-4.42438 1.973965,-6.15747 1.048162,-1.96479 2.398537,-3.44327 3.85358,-4.17762 -0.605899,1.02625 -1.059955,2.35291 -1.294355,3.85038 -0.0914,0.57528 -0.145208,1.18005 -0.16511,1.8077 -0.0088,0.14203 -0.0088,0.28669 -0.0088,0.44178 0,0.38681 0.01327,0.77295 0.04939,1.1473 0.130466,1.78089 0.571992,3.37195 1.228015,4.60435 0.03612,0.0674 0.06929,0.12765 0.103932,0.18917 0.324325,0.54322 0.859465,0.91953 1.474209,0.9935 0,0 0,0 0.0066,0 0.06045,0.005 0.12973,0.01 0.197544,0.01 0.01916,0 0.04349,0 0.06045,-0.005 0.928751,-0.0249 1.699762,-0.76248 1.907625,-1.73899 0.03243,-0.15774 0.05455,-0.32858 0.05455,-0.49676 0,-0.013 0,-0.0255 0,-0.036 0.05528,-0.70554 0.0059,-1.46738 -0.144472,-2.25406 -0.08034,-0.41888 -0.180592,-0.81943 -0.314009,-1.2023 -0.163637,-0.49808 -0.363392,-0.94968 -0.59263,-1.37116 0.379608,0.0693 0.762165,0.18064 1.12998,0.34818 1.404184,0.60937 2.66021,1.85354 3.529257,3.48846 0.14447,0.27881 0.27936,0.56745 0.398035,0.86982 0.251352,0.61325 0.445948,1.26446 0.578627,1.95694 0.06266,0.341 0.109828,0.67083 0.137838,1.00463 0.382557,-0.7193 0.729732,-1.50924 1.028997,-2.34765 0.574942,-1.57407 0.908112,-3.10166 1.009833,-4.4401 1.085754,2.50214 1.714504,5.46698 1.714504,8.64258 0,4.14487 -1.073223,7.91278 -2.826794,10.78861 0.900742,-0.45618 1.77126,-0.98502 2.587235,-1.58844 3.051613,-2.20825 5.20322,-5.62864 6.594135,-9.33368 0.783543,-2.02765 1.553078,-4.29023 1.92458,-6.42319 1.099758,-6.18427 1.42556,-12.7403 -0.388455,-18.60455 z"
     id="path2"
     style="visibility:visible;fill:url(#linearGradient840);fill-opacity:1;stroke:none;stroke-width:0.69457018;stroke-opacity:1"
     inkscape:connector-curvature="0"
     visibility="visible" />
  <g
     aria-label="PAN"
     style="font-size:12px;font-family:'Open Sans';text-anchor:middle;fill:#eeeeee;stroke:none;stroke-width:1px;text-rendering:geometricPrecision"
     id="text5">
    <path
       d="m 20.525391,17.224609 v 3.28711 h 1.488281 q 0.826172,0 1.277344,-0.427735 0.451171,-0.427734 0.451171,-1.21875 0,-0.785156 -0.451171,-1.21289 -0.451172,-0.427735 -1.277344,-0.427735 z m -1.183594,-0.972656 h 2.671875 q 1.470703,0 2.220703,0.667969 0.755859,0.662109 0.755859,1.945312 0,1.294922 -0.755859,1.957032 -0.75,0.662109 -2.220703,0.662109 H 20.525391 V 25 h -1.183594 z"
       style="font-size:12px;font-family:'Open Sans';text-anchor:middle;fill:#eeeeee;stroke:none;stroke-width:1px;text-rendering:geometricPrecision"
       id="path895" />
    <path
       d="m 28.746094,17.417969 -1.605469,4.353515 h 3.216797 z m -0.667969,-1.166016 h 1.341797 L 32.753906,25 H 31.523437 L 30.726562,22.755859 H 26.783203 L 25.986328,25 h -1.248047 z"
       style="font-size:12px;font-family:'Open Sans';text-anchor:middle;fill:#eeeeee;stroke:none;stroke-width:1px;text-rendering:geometricPrecision"
       id="path897" />
    <path
       d="m 34.037109,16.251953 h 1.59375 l 3.878907,7.318359 v -7.318359 h 1.148437 V 25 h -1.59375 L 35.185547,17.681641 V 25 h -1.148438 z"
       style="font-size:12px;font-family:'Open Sans';text-anchor:middle;fill:#eeeeee;stroke:none;stroke-width:1px;text-rendering:geometricPrecision"
       id="path899" />
  </g>
  <g
     aria-label="IN"
     style="font-size:8px;font-family:'Open Sans';text-anchor:middle;fill:#eeeeee;stroke:none;stroke-width:1px;text-rendering:geometricPrecision"
     id="text31">
    <path
       d="m 26.613281,61.167969 h 0.789063 V 67 h -0.789063 z"
       style="font-size:8px;font-family:'Open Sans';text-anchor:middle;fill:#eeeeee;stroke:none;stroke-width:1px;text-rendering:geometricPrecision"
       id="path902" />
    <path
       d="m 28.972656,61.167969 h 1.0625 l 2.585938,4.878906 v -4.878906 h 0.765625 V 67 h -1.0625 L 29.738281,62.121094 V 67 h -0.765625 z"
       style="font-size:8px;font-family:'Open Sans';text-anchor:middle;fill:#eeeeee;stroke:none;stroke-width:1px;text-rendering:geometricPrecision"
       id="path904" />
  </g>
  <g
     aria-label="PAN"
     style="font-size:8px;font-family:'Open Sans';text-anchor:middle;fill:#eeeeee;stroke:none;stroke-width:1px;text-rendering:geometricPrecision"
     id="text29">
    <path
       d="m 23.683594,111.81641 v 2.1914 h 0.992187 q 0.550781,0 0.851563,-0.28515 0.300781,-0.28516 0.300781,-0.8125 0,-0.52344 -0.300781,-0.8086 -0.300782,-0.28515 -0.851563,-0.28515 z m -0.789063,-0.64844 h 1.78125 q 0.980469,0 1.480469,0.44531 0.503906,0.44141 0.503906,1.29688 0,0.86328 -0.503906,1.30468 -0.5,0.44141 -1.480469,0.44141 H 23.683594 V 117 h -0.789063 z"
       style="font-size:8px;font-family:'Open Sans';text-anchor:middle;fill:#eeeeee;stroke:none;stroke-width:1px;text-rendering:geometricPrecision"
       id="path907" />
    <path
       d="m 29.164062,111.94531 -1.070312,2.90235 h 2.144531 z m -0.445312,-0.77734 h 0.894531 L 31.835937,117 h -0.820312 l -0.53125,-1.49609 H 27.855469 L 27.324219,117 h -0.832032 z"
       style="font-size:8px;font-family:'Open Sans';text-anchor:middle;fill:#eeeeee;stroke:none;stroke-width:1px;text-rendering:geometricPrecision"
       id="path909" />
    <path
       d="m 32.691406,111.16797 h 1.0625 l 2.585938,4.87891 v -4.87891 h 0.765625 V 117 h -1.0625 l -2.585938,-4.87891 V 117 h -0.765625 z"
       style="font-size:8px;font-family:'Open Sans';text-anchor:middle;fill:#eeeeee;stroke:none;stroke-width:1px;text-rendering:geometricPrecision"
       id="path911" />
  </g>
  <g
     aria-label="OUT"
     style="font-size:8px;font-family:'Open Sans';text-anchor:middle;fill:#eeeeee;stroke:none;stroke-width:1px;text-rendering:geometricPrecision"
     id="text34">
    <path
       d="m 24.628906,161.70312 q -0.859375,0 -1.367187,0.64063 -0.503907,0.64062 -0.503907,1.74609 0,1.10157 0.503907,1.74219 0.507812,0.64063 1.367187,0.64063 0.859375,0 1.359375,-0.64063 0.503906,-0.64062 0.503906,-1.74219 0,-1.10547 -0.503906,-1.74609 -0.5,-0.64063 -1.359375,-0.64063 z m 0,-0.64062 q 1.226563,0 1.960938,0.82422 0.734375,0.82031 0.734375,2.20312 0,1.37891 -0.734375,2.20313 -0.734375,0.82031 -1.960938,0.82031 -1.230469,0 -1.96875,-0.82031 -0.734375,-0.82031 -0.734375,-2.20313 0,-1.38281 0.734375,-2.20312 0.738281,-0.82422 1.96875,-0.82422 z"
       style="font-size:8px;font-family:'Open Sans';text-anchor:middle;fill:#eeeeee;stroke:none;stroke-width:1px;text-rendering:geometricPrecision"
       id="path914" />
    <path
       d="m 28.46875,161.16797 h 0.792969 v 3.54297 q 0,0.9375 0.339843,1.35156 0.339844,0.41016 1.101563,0.41016 0.757812,0 1.097656,-0.41016 0.339844,-0.41406 0.339844,-1.35156 v -3.54297 h 0.792969 v 3.64062 q 0,1.14063 -0.566407,1.72266 -0.5625,0.58203 -1.664062,0.58203 -1.105469,0 -1.671875,-0.58203 -0.5625,-0.58203 -0.5625,-1.72266 z"
       style="font-size:8px;font-family:'Open Sans';text-anchor:middle;fill:#eeeeee;stroke:none;stroke-width:1px;text-rendering:geometricPrecision"
       id="path916" />
    <path
       d="m 33.609375,161.16797 h 4.933594 v 0.66406 H 36.472656 V 167 h -0.792969 v -5.16797 h -2.070312 z"
       style="font-size:8px;font-family:'Open Sans';text-anchor:middle;fill:#eeeeee;stroke:none;stroke-width:1px;text-rendering:geometricPrecision"
       id="path918" />
  </g>
  <g
     aria-label="OUT"
     style="font-size:8px;font-family:'Open Sans';text-anchor:middle;fill:#eeeeee;stroke:none;stroke-width:1px;text-rendering:geometricPrecision"
     id="text33">
    <path
       d="m 24.628906,211.70312 q -0.859375,0 -1.367187,0.64063 -0.503907,0.64062 -0.503907,1.74609 0,1.10157 0.503907,1.74219 0.507812,0.64063 1.367187,0.64063 0.859375,0 1.359375,-0.64063 0.503906,-0.64062 0.503906,-1.74219 0,-1.10547 -0.503906,-1.74609 -0.5,-0.64063 -1.359375,-0.64063 z m 0,-0.64062 q 1.226563,0 1.960938,0.82422 0.734375,0.82031 0.734375,2.20312 0,1.37891 -0.734375,2.20313 -0.734375,0.82031 -1.960938,0.82031 -1.230469,0 -1.96875,-0.82031 -0.734375,-0.82031 -0.734375,-2.20313 0,-1.38281 0.734375,-2.20312 0.738281,-0.82422 1.96875,-0.82422 z"
       style="font-size:8px;font-family:'Open Sans';text-anchor:middle;fill:#eeeeee;stroke:none;stroke-width:1px;text-rendering:geometricPrecision"
       id="path921" />
    <path
       d="m 28.46875,211.16797 h 0.792969 v 3.54297 q 0,0.9375 0.339843,1.35156 0.339844,0.41016 1.101563,0.41016 0.757812,0 1.097656,-0.41016 0.339844,-0.41406 0.339844,-1.35156 v -3.54297 h 0.792969 v 3.64062 q 0,1.14063 -0.566407,1.72266 -0.5625,0.58203 -1.664062,0.58203 -1.105469,0 -1.671875,-0.58203 -0.5625,-0.58203 -0.5625,-1.72266 z"
       style="font-size:8px;font-family:'Open Sans';text-anchor:middle;fill:#eeeeee;stroke:none;stroke-width:1px;text-rendering:geometricPrecision"
       id="path923" />
    <path
       d="m 33.609375,211.16797 h 4.933594 v 0.66406 H 36.472656 V 217 h -0.792969 v -5.16797 h -2.070312 z"
       style="font-size:8px;font-family:'Open Sans';text-anchor:middle;fill:#eeeeee;stroke:none;stroke-width:1px;text-rendering:geometricPrecision"
       id="path925" />
  </g>
  <path
     style="stroke:#eeeeee;stroke-width:0.75"
     d="M 41,92 H 57"
     id="SvgjsLine1007" />
  <path
     style="stroke:#eeeeee;stroke-width:0.75"
     d="m 41,92 14.915024,1.594398"
     id="SvgjsLine1008" />
  <path
     style="stroke:#eeeeee;stroke-width:0.75"
     d="m 41,92 14.661053,3.170738"
     id="SvgjsLine1009" />
  <path
     style="stroke:#eeeeee;stroke-width:0.75"
     d="m 41,92 14.240963,4.711151"
     id="SvgjsLine1010" />
  <path
     style="stroke:#eeeeee;stroke-width:0.75"
     d="m 41,92 13.659523,6.198181"
     id="SvgjsLine1011" />
  <path
     style="stroke:#eeeeee;stroke-width:0.75"
     d="m 41,92 13.784866,8.12265"
     id="SvgjsLine1012" />
  <path
     style="stroke:#eeeeee;stroke-width:0.75"
     d="m 41,92 12.040676,8.94551"
     id="SvgjsLine1013" />
  <path
     style="stroke:#eeeeee;stroke-width:0.75"
     d="m 41,92 11.021614,10.17467"
     id="SvgjsLine1014" />
  <path
     style="stroke:#eeeeee;stroke-width:0.75"
     d="m 41,92 9.87767,11.28856"
     id="SvgjsLine1015" />
  <path
     style="stroke:#eeeeee;stroke-width:0.75"
     d="m 41,92 8.621811,12.27454"
     id="SvgjsLine1016" />
  <path
     style="stroke:#eeeeee;stroke-width:0.75"
     d="m 41,92 7.752815,13.99621"
     id="SvgjsLine1017" />
  <path
     style="stroke:#eeeeee;stroke-width:0.75"
     d="m 41,92 -8.486736,13.56375"
     id="SvgjsLine1018" />
  <path
     style="stroke:#eeeeee;stroke-width:0.75"
     d="m 41,92 -9.262869,11.79827"
     id="SvgjsLine1019" />
  <path
     style="stroke:#eeeeee;stroke-width:0.75"
     d="M 41,92 30.535526,102.74685"
     id="SvgjsLine1020" />
  <path
     style="stroke:#eeeeee;stroke-width:0.75"
     d="m 41,92 -11.54751,9.57366"
     id="SvgjsLine1021" />
  <path
     style="stroke:#eeeeee;stroke-width:0.75"
     d="m 41,92 -12.499708,8.292"
     id="SvgjsLine1022" />
  <path
     style="stroke:#eeeeee;stroke-width:0.75"
     d="M 41,92 26.802366,99.37748"
     id="SvgjsLine1023" />
  <path
     style="stroke:#eeeeee;stroke-width:0.75"
     d="M 41,92 27.029957,97.46241"
     id="SvgjsLine1024" />
  <path
     style="stroke:#eeeeee;stroke-width:0.75"
     d="M 41,92 26.528482,95.946541"
     id="SvgjsLine1025" />
  <path
     style="stroke:#eeeeee;stroke-width:0.75"
     d="M 41,92 26.190975,94.385956"
     id="SvgjsLine1026" />
  <path
     style="stroke:#eeeeee;stroke-width:0.75"
     d="M 41,92 26.021259,92.798332"
     id="SvgjsLine1027" />
  <path
     style="stroke:#eeeeee;stroke-width:0.75"
     d="M 41,92 25.022676,91.148445"
     id="SvgjsLine1028" />
  <path
     style="stroke:#eeeeee;stroke-width:0.75"
     d="M 41,92 26.190975,89.614044"
     id="SvgjsLine1029" />
  <path
     style="stroke:#eeeeee;stroke-width:0.75"
     d="M 41,92 26.528482,88.053459"
     id="SvgjsLine1030" />
  <path
     style="stroke:#eeeeee;stroke-width:0.75"
     d="M 41,92 27.029957,86.53759"
     id="SvgjsLine1031" />
  <path
     style="stroke:#eeeeee;stroke-width:0.75"
     d="M 41,92 27.689718,85.083611"
     id="SvgjsLine1032" />
  <path
     style="stroke:#eeeeee;stroke-width:0.75"
     d="M 41,92 27.666977,83.155197"
     id="SvgjsLine1033" />
  <path
     style="stroke:#eeeeee;stroke-width:0.75"
     d="M 41,92 29.45249,82.426338"
     id="SvgjsLine1034" />
  <path
     style="stroke:#eeeeee;stroke-width:0.75"
     d="M 41,92 30.535526,81.253151"
     id="SvgjsLine1035" />
  <path
     style="stroke:#eeeeee;stroke-width:0.75"
     d="M 41,92 31.737131,80.201729"
     id="SvgjsLine1036" />
  <path
     style="stroke:#eeeeee;stroke-width:0.75"
     d="M 41,92 33.043686,79.283981"
     id="SvgjsLine1037" />
  <path
     style="stroke:#eeeeee;stroke-width:0.75"
     d="M 41,92 34.003082,77.611008"
     id="SvgjsLine1038" />
  <path
     style="stroke:#eeeeee;stroke-width:0.75"
     d="M 41,92 35.911419,77.889496"
     id="SvgjsLine1039" />
  <path
     style="stroke:#eeeeee;stroke-width:0.75"
     d="M 41,92 37.440098,77.428551"
     id="SvgjsLine1040" />
  <path
     style="stroke:#eeeeee;stroke-width:0.75"
     d="M 41,92 39.009117,77.132706"
     id="SvgjsLine1041" />
  <path
     style="stroke:#eeeeee;stroke-width:0.75"
     d="M 41,92 40.600693,77.005318"
     id="SvgjsLine1042" />
  <path
     style="stroke:#eeeeee;stroke-width:0.75"
     d="M 41,92 42.276577,76.05101"
     id="SvgjsLine1043" />
  <path
     style="stroke:#eeeeee;stroke-width:0.75"
     d="M 41,92 43.779331,77.259735"
     id="SvgjsLine1044" />
  <path
     style="stroke:#eeeeee;stroke-width:0.75"
     d="M 41,92 45.330379,77.638672"
     id="SvgjsLine1045" />
  <path
     style="stroke:#eeeeee;stroke-width:0.75"
     d="M 41,92 46.832363,78.180321"
     id="SvgjsLine1046" />
  <path
     style="stroke:#eeeeee;stroke-width:0.75"
     d="M 41,92 48.268265,78.878555"
     id="SvgjsLine1047" />
  <path
     style="stroke:#eeeeee;stroke-width:0.75"
     d="M 41,92 50.196598,78.907158"
     id="SvgjsLine1048" />
  <path
     style="stroke:#eeeeee;stroke-width:0.75"
     d="M 41,92 50.87767,80.711441"
     id="SvgjsLine1049" />
  <path
     style="stroke:#eeeeee;stroke-width:0.75"
     d="M 41,92 52.021614,81.825325"
     id="SvgjsLine1050" />
  <path
     style="stroke:#eeeeee;stroke-width:0.75"
     d="M 41,92 53.040676,83.054489"
     id="SvgjsLine1051" />
  <path
     style="stroke:#eeeeee;stroke-width:0.75"
     d="M 41,92 53.923309,84.38501"
     id="SvgjsLine1052" />
  <path
     style="stroke:#eeeeee;stroke-width:0.75"
     d="M 41,92 55.570156,85.388603"
     id="SvgjsLine1053" />
  <path
     style="stroke:#eeeeee;stroke-width:0.75"
     d="M 41,92 55.240963,87.288849"
     id="SvgjsLine1054" />
  <path
     style="stroke:#eeeeee;stroke-width:0.75"
     d="M 41,92 55.661053,88.829262"
     id="SvgjsLine1055" />
  <path
     style="stroke:#eeeeee;stroke-width:0.75"
     d="M 41,92 55.915024,90.405602"
     id="SvgjsLine1056" />
  <path
     style="stroke:#eeeeee;stroke-width:0.75"
     d="M 41,92 H 56"
     id="SvgjsLine1057" />
  <path
     style="fill:#000000;stroke:#eeeeee;stroke-width:0.75"
     d="M 54,92 A 13,13 0 0 1 41,105 13,13 0 0 1 28,92 13,13 0 0 1 41,79 13,13 0 0 1 54,92 Z"
     id="SvgjsCircle1058" />
</svg>
