<?xml version="1.0" encoding="UTF-8" standalone="no"?>
<svg
   xmlns:osb="http://www.openswatchbook.org/uri/2009/osb"
   xmlns:dc="http://purl.org/dc/elements/1.1/"
   xmlns:cc="http://creativecommons.org/ns#"
   xmlns:rdf="http://www.w3.org/1999/02/22-rdf-syntax-ns#"
   xmlns:svg="http://www.w3.org/2000/svg"
   xmlns="http://www.w3.org/2000/svg"
   xmlns:xlink="http://www.w3.org/1999/xlink"
   xmlns:sodipodi="http://sodipodi.sourceforge.net/DTD/sodipodi-0.dtd"
   xmlns:inkscape="http://www.inkscape.org/namespaces/inkscape"
   height="380"
   style="zoom: 8;"
   cursor="default"
   id="SvgjsSvg1006"
   sodipodi:docname="Shift.svg"
   inkscape:version="0.92.2 5c3e80d, 2017-08-06"
   width="60"
   version="1.1">
  <metadata
     id="metadata7215">
    <rdf:RDF>
      <cc:Work
         rdf:about="">
        <dc:format>image/svg+xml</dc:format>
        <dc:type
           rdf:resource="http://purl.org/dc/dcmitype/StillImage" />
        <dc:title />
      </cc:Work>
    </rdf:RDF>
  </metadata>
  <sodipodi:namedview
     borderopacity="1"
     inkscape:zoom="2.9512404"
     inkscape:cy="94.584588"
     gridtolerance="10"
     inkscape:cx="-6.1723216"
     inkscape:window-height="1006"
     inkscape:measure-start="21.6858,252.097"
     inkscape:pagecheckerboard="true"
     inkscape:window-width="901"
     guidetolerance="10"
     id="namedview7213"
     showgrid="false"
     inkscape:pageopacity="0"
     inkscape:pageshadow="2"
     bordercolor="#666666"
     inkscape:current-layer="SvgjsSvg1006"
     inkscape:window-maximized="0"
     inkscape:window-y="11"
     inkscape:measure-end="21.0081,301.907"
     objecttolerance="10"
     pagecolor="#ffffff"
     inkscape:window-x="496"
     visibility="visible" />
  <defs
     id="SvgjsDefs1007">
    <linearGradient
       inkscape:collect="always"
       id="linearGradient838">
      <stop
         style="stop-color:#ff8600;stop-opacity:1;"
         offset="0"
         id="stop834" />
      <stop
         style="stop-color:#ff8600;stop-opacity:0;"
         offset="1"
         id="stop836" />
    </linearGradient>
    <linearGradient
       id="linearGradient2396"
       osb:paint="gradient">
      <stop
         style="stop-color:#ff8f00;stop-opacity:1;"
         offset="0"
         id="stop2392" />
      <stop
         style="stop-color:#ff8f00;stop-opacity:0;"
         offset="1"
         id="stop2394" />
    </linearGradient>
    <linearGradient
       id="linearGradient2384"
       osb:paint="solid">
      <stop
         style="stop-color:#ff8f00;stop-opacity:1;"
         offset="0"
         id="stop2382" />
    </linearGradient>
    <linearGradient
       id="linearGradient898"
       osb:paint="solid">
      <stop
         style="stop-color:#ff8f00;stop-opacity:1;"
         offset="0"
         id="stop896" />
    </linearGradient>
    <linearGradient
       inkscape:collect="always"
       id="linearGradient915">
      <stop
         style="stop-color:#303035;stop-opacity:1;"
         offset="0"
         id="stop911" />
      <stop
         style="stop-color:#202025;stop-opacity:1;"
         offset="1"
         id="stop913" />
    </linearGradient>
    <linearGradient
       inkscape:collect="always"
       xlink:href="#linearGradient915"
       id="linearGradient919"
       x1="0"
       y1="190"
       x2="45"
       y2="190"
       gradientUnits="userSpaceOnUse" />
    <style
       id="OpenSans_Google_Webfont_import">@import url(https://fonts.googleapis.com/css?family=Open+Sans);</style>
    <style
       id="style31">@import url(https://fonts.googleapis.com/css?family='Open Sans');</style>
    <style
       id="style33">@import url(https://fonts.googleapis.com/css?family='Open Sans');</style>
    <style
       id="style35">@import url(https://fonts.googleapis.com/css?family='Open Sans');</style>
    <style
       id="style22">@import url(https://fonts.googleapis.com/css?family='Open Sans');</style>
    <style
       id="style24">@import url(https://fonts.googleapis.com/css?family='Open Sans');</style>
    <style
       id="style26">@import url(https://fonts.googleapis.com/css?family='Open Sans');</style>
    <linearGradient
       inkscape:collect="always"
       xlink:href="#linearGradient838"
       id="linearGradient840"
       x1="19.991594"
       y1="333.23999"
       x2="27.784927"
       y2="400.33044"
       gradientUnits="userSpaceOnUse"
       gradientTransform="translate(8)" />
  </defs>
  <path
     d="M0,0 H60 V380 H0 Z"
     id="SvgjsRect1008"
     style="fill:url(#linearGradient919);fill-opacity:1;stroke:none;stroke-opacity:1"
     visibility="visible" />
  <path
     d="m 49.004911,342.87682 c -1.492639,-4.60366 -4.104196,-9.04635 -7.187505,-12.89608 -0.426049,-0.52359 -1.969544,-1.90716 -1.969544,-1.90716 1.322369,3.05255 1.238339,6.21832 0.573467,9.07712 -3.605176,-7.34797 -9.922897,-16.54618 -19.424907,-21.40183 1e-6,0 6.324356,14.26788 -2.700752,30.01166 -0.497545,-2.12189 -1.003936,-5.1705 -0.731207,-8.19293 1e-6,0 -1.141036,0.86654 -1.272978,0.99218 -1.017942,0.9628 -1.870772,2.08918 -2.621881,3.25089 -2.73908,4.35956 -4.183067,9.62692 -3.825571,14.92499 0.133416,2.0047 0.510813,4.0068 1.021626,5.97879 1.584775,6.31451 5.226807,12.93469 10.628308,15.9689 -1.699762,-2.85425 -2.736868,-6.57044 -2.736868,-10.64465 -1e-6,-1.68924 0.177641,-3.32938 0.513762,-4.86154 0.03833,0.67807 0.151844,1.37704 0.339804,2.08978 0.725312,2.74688 2.396326,4.93484 4.292896,5.93557 -0.857252,-2.21868 -1.166836,-5.15213 -0.706883,-8.29235 0.333171,-2.31366 1.028259,-4.42438 1.973965,-6.15747 1.048162,-1.96479 2.398537,-3.44327 3.85358,-4.17762 -0.605899,1.02625 -1.059955,2.35291 -1.294355,3.85038 -0.0914,0.57528 -0.145208,1.18005 -0.16511,1.8077 -0.0088,0.14203 -0.0088,0.28669 -0.0088,0.44178 0,0.38681 0.01327,0.77295 0.04939,1.1473 0.130466,1.78089 0.571992,3.37195 1.228015,4.60435 0.03612,0.0674 0.06929,0.12765 0.103932,0.18917 0.324325,0.54322 0.859465,0.91953 1.474209,0.9935 0,0 0,0 0.0066,0 0.06045,0.005 0.12973,0.01 0.197544,0.01 0.01916,0 0.04349,0 0.06045,-0.005 0.928751,-0.0249 1.699762,-0.76248 1.907625,-1.73899 0.03243,-0.15774 0.05455,-0.32858 0.05455,-0.49676 0,-0.013 0,-0.0255 0,-0.036 0.05528,-0.70554 0.0059,-1.46738 -0.144472,-2.25406 -0.08034,-0.41888 -0.180592,-0.81943 -0.314009,-1.2023 -0.163637,-0.49808 -0.363392,-0.94968 -0.59263,-1.37116 0.379608,0.0693 0.762165,0.18064 1.12998,0.34818 1.404184,0.60937 2.66021,1.85354 3.529257,3.48846 0.14447,0.27881 0.27936,0.56745 0.398035,0.86982 0.251352,0.61325 0.445948,1.26446 0.578627,1.95694 0.06266,0.341 0.109828,0.67083 0.137838,1.00463 0.382557,-0.7193 0.729732,-1.50924 1.028997,-2.34765 0.574942,-1.57407 0.908112,-3.10166 1.009833,-4.4401 1.085754,2.50214 1.714504,5.46698 1.714504,8.64258 0,4.14487 -1.073223,7.91278 -2.826794,10.78861 0.900742,-0.45618 1.77126,-0.98502 2.587235,-1.58844 3.051613,-2.20825 5.20322,-5.62864 6.594135,-9.33368 0.783543,-2.02765 1.553078,-4.29023 1.92458,-6.42319 1.099758,-6.18427 1.42556,-12.7403 -0.388455,-18.60455 z"
     id="path2"
     style="visibility:visible;fill:url(#linearGradient840);fill-opacity:1;stroke:none;stroke-width:0.69457018;stroke-opacity:1"
     inkscape:connector-curvature="0"
     visibility="visible" />
  <g
     aria-label="SHIFT"
     style="font-size:12px;font-family:'Open Sans';text-anchor:middle;fill:#eeeeee;stroke:none;stroke-width:1px;text-rendering:geometricPrecision"
     id="text5">
    <path
       d="m 19.300781,16.539062 v 1.154297 Q 18.626953,17.371094 18.029297,17.212891 17.431641,17.054687 16.875,17.054687 q -0.966797,0 -1.494141,0.375 -0.521484,0.375 -0.521484,1.066407 0,0.580078 0.345703,0.878906 0.351563,0.292969 1.324219,0.474609 l 0.714844,0.146485 q 1.324218,0.251953 1.951171,0.890625 0.632813,0.632812 0.632813,1.699218 0,1.271485 -0.855469,1.927735 -0.849609,0.65625 -2.496094,0.65625 -0.621093,0 -1.324218,-0.140625 -0.697266,-0.140625 -1.447266,-0.416016 v -1.21875 q 0.720703,0.404297 1.41211,0.609375 0.691406,0.205078 1.359374,0.205078 1.013672,0 1.564454,-0.398437 0.550781,-0.398438 0.550781,-1.136719 0,-0.644531 -0.398438,-1.007812 -0.392578,-0.363282 -1.294922,-0.544922 l -0.720703,-0.140625 q -1.324218,-0.263672 -1.916015,-0.826172 -0.591797,-0.5625 -0.591797,-1.564453 0,-1.160157 0.814453,-1.828125 0.820313,-0.667969 2.255859,-0.667969 0.615235,0 1.253907,0.111328 0.638671,0.111328 1.30664,0.333984 z"
       style="font-size:12px;font-family:'Open Sans';text-anchor:middle;fill:#eeeeee;stroke:none;stroke-width:1px;text-rendering:geometricPrecision"
       id="path893" />
    <path
       d="m 21.673828,16.251953 h 1.183594 v 3.585938 h 4.300781 v -3.585938 h 1.183594 V 25 H 27.158203 V 20.833984 H 22.857422 V 25 h -1.183594 z"
       style="font-size:12px;font-family:'Open Sans';text-anchor:middle;fill:#eeeeee;stroke:none;stroke-width:1px;text-rendering:geometricPrecision"
       id="path895" />
    <path
       d="m 30.697266,16.251953 h 1.183593 V 25 h -1.183593 z"
       style="font-size:12px;font-family:'Open Sans';text-anchor:middle;fill:#eeeeee;stroke:none;stroke-width:1px;text-rendering:geometricPrecision"
       id="path897" />
    <path
       d="m 34.236328,16.251953 h 5.027344 v 0.996094 h -3.84375 v 2.578125 h 3.46875 v 0.996094 h -3.46875 V 25 h -1.183594 z"
       style="font-size:12px;font-family:'Open Sans';text-anchor:middle;fill:#eeeeee;stroke:none;stroke-width:1px;text-rendering:geometricPrecision"
       id="path899" />
    <path
       d="m 39.738281,16.251953 h 7.400391 v 0.996094 H 44.033203 V 25 H 42.84375 v -7.751953 h -3.105469 z"
       style="font-size:12px;font-family:'Open Sans';text-anchor:middle;fill:#eeeeee;stroke:none;stroke-width:1px;text-rendering:geometricPrecision"
       id="path901" />
  </g>
  <g
     aria-label="IN"
     style="font-size:8px;font-family:'Open Sans';text-anchor:middle;fill:#eeeeee;stroke:none;stroke-width:1px;text-rendering:geometricPrecision"
     id="text7">
    <path
       d="m 26.613281,61.167969 h 0.789063 V 67 h -0.789063 z"
       style="font-size:8px;font-family:'Open Sans';text-anchor:middle;fill:#eeeeee;stroke:none;stroke-width:1px;text-rendering:geometricPrecision"
       id="path904" />
    <path
       d="m 28.972656,61.167969 h 1.0625 l 2.585938,4.878906 v -4.878906 h 0.765625 V 67 h -1.0625 L 29.738281,62.121094 V 67 h -0.765625 z"
       style="font-size:8px;font-family:'Open Sans';text-anchor:middle;fill:#eeeeee;stroke:none;stroke-width:1px;text-rendering:geometricPrecision"
       id="path906" />
  </g>
  <g
     aria-label="CLIP"
     style="font-size:6px;font-family:'Open Sans';text-anchor:middle;fill:#eeeeee;stroke:none;stroke-width:1px;text-rendering:geometricPrecision"
     id="text99">
    <path
       d="m 27.401367,82.962891 v 0.624023 q -0.298828,-0.27832 -0.638672,-0.416016 -0.336914,-0.137695 -0.717773,-0.137695 -0.75,0 -1.148438,0.459961 -0.398437,0.457031 -0.398437,1.324219 0,0.864258 0.398437,1.324219 0.398438,0.457031 1.148438,0.457031 0.380859,0 0.717773,-0.137696 0.339844,-0.137695 0.638672,-0.416015 v 0.618164 q -0.310547,0.210937 -0.65918,0.316406 -0.345703,0.105469 -0.732421,0.105469 -0.993164,0 -1.564454,-0.606445 -0.571289,-0.609375 -0.571289,-1.661133 0,-1.054688 0.571289,-1.661133 0.57129,-0.609375 1.564454,-0.609375 0.392578,0 0.738281,0.105469 0.348633,0.102539 0.65332,0.310547 z"
       style="font-size:6px;font-family:'Open Sans';text-anchor:middle;fill:#eeeeee;stroke:none;stroke-width:1px;text-rendering:geometricPrecision"
       id="path909" />
    <path
       d="m 28.321289,82.625977 h 0.591797 v 3.875976 h 2.129883 V 87 h -2.72168 z"
       style="font-size:6px;font-family:'Open Sans';text-anchor:middle;fill:#eeeeee;stroke:none;stroke-width:1px;text-rendering:geometricPrecision"
       id="path911" />
    <path
       d="M 31.661133,82.625977 H 32.25293 V 87 h -0.591797 z"
       style="font-size:6px;font-family:'Open Sans';text-anchor:middle;fill:#eeeeee;stroke:none;stroke-width:1px;text-rendering:geometricPrecision"
       id="path913" />
    <path
       d="m 34.022461,83.112305 v 1.643554 h 0.744141 q 0.413085,0 0.638671,-0.213867 0.225586,-0.213867 0.225586,-0.609375 0,-0.392578 -0.225586,-0.606445 -0.225586,-0.213867 -0.638671,-0.213867 z m -0.591797,-0.486328 h 1.335938 q 0.735351,0 1.110351,0.333984 0.37793,0.331055 0.37793,0.972656 0,0.647461 -0.37793,0.978516 -0.375,0.331054 -1.110351,0.331054 H 34.022461 V 87 h -0.591797 z"
       style="font-size:6px;font-family:'Open Sans';text-anchor:middle;fill:#eeeeee;stroke:none;stroke-width:1px;text-rendering:geometricPrecision"
       id="path915" />
  </g>
  <g
     aria-label="NATURAL"
     style="font-size:6px;font-family:'Open Sans';text-anchor:middle;fill:#eeeeee;stroke:none;stroke-width:1px;text-rendering:geometricPrecision"
     id="text29">
    <path
       d="m 16.807617,122.62598 h 0.796875 l 1.939453,3.65918 v -3.65918 h 0.574219 V 127 h -0.796875 l -1.939453,-3.65918 V 127 h -0.574219 z"
       style="font-size:6px;font-family:'Open Sans';text-anchor:middle;fill:#eeeeee;stroke:none;stroke-width:1px;text-rendering:geometricPrecision"
       id="path918" />
    <path
       d="m 22.757812,123.20898 -0.802734,2.17676 h 1.608399 z m -0.333984,-0.583 h 0.670899 L 24.761719,127 h -0.615235 l -0.398437,-1.12207 h -1.97168 L 21.37793,127 h -0.624024 z"
       style="font-size:6px;font-family:'Open Sans';text-anchor:middle;fill:#eeeeee;stroke:none;stroke-width:1px;text-rendering:geometricPrecision"
       id="path920" />
    <path
       d="m 24.322266,122.62598 h 3.700195 v 0.49804 H 26.469727 V 127 H 25.875 v -3.87598 h -1.552734 z"
       style="font-size:6px;font-family:'Open Sans';text-anchor:middle;fill:#eeeeee;stroke:none;stroke-width:1px;text-rendering:geometricPrecision"
       id="path922" />
    <path
       d="m 28.529297,122.62598 h 0.594726 v 2.65722 q 0,0.70313 0.254883,1.01368 0.254883,0.30761 0.826172,0.30761 0.568359,0 0.823242,-0.30761 0.254883,-0.31055 0.254883,-1.01368 v -2.65722 h 0.594727 v 2.73047 q 0,0.85546 -0.424805,1.29199 -0.421875,0.43652 -1.248047,0.43652 -0.829101,0 -1.253906,-0.43652 -0.421875,-0.43653 -0.421875,-1.29199 z"
       style="font-size:6px;font-family:'Open Sans';text-anchor:middle;fill:#eeeeee;stroke:none;stroke-width:1px;text-rendering:geometricPrecision"
       id="path924" />
    <path
       d="m 35.06543,124.94922 q 0.190429,0.0645 0.36914,0.27539 0.181641,0.21094 0.363282,0.58008 L 36.398437,127 h -0.635742 l -0.55957,-1.12207 q -0.216797,-0.43945 -0.421875,-0.58301 -0.202148,-0.14355 -0.553711,-0.14355 H 33.583008 V 127 h -0.591797 v -4.37402 h 1.335937 q 0.75,0 1.119141,0.31347 0.369141,0.31348 0.369141,0.94629 0,0.41309 -0.19336,0.68555 -0.190429,0.27246 -0.55664,0.37793 z m -1.482422,-1.83692 v 1.55274 h 0.74414 q 0.427735,0 0.644532,-0.19629 0.219726,-0.19922 0.219726,-0.58301 0,-0.38379 -0.219726,-0.57715 -0.216797,-0.19629 -0.644532,-0.19629 z"
       style="font-size:6px;font-family:'Open Sans';text-anchor:middle;fill:#eeeeee;stroke:none;stroke-width:1px;text-rendering:geometricPrecision"
       id="path926" />
    <path
       d="m 38.384766,123.20898 -0.802735,2.17676 h 1.608399 z m -0.333985,-0.583 H 38.72168 L 40.388672,127 H 39.773437 L 39.375,125.87793 H 37.40332 L 37.004883,127 h -0.624024 z"
       style="font-size:6px;font-family:'Open Sans';text-anchor:middle;fill:#eeeeee;stroke:none;stroke-width:1px;text-rendering:geometricPrecision"
       id="path928" />
    <path
       d="m 41.030273,122.62598 h 0.591797 v 3.87597 h 2.129883 V 127 h -2.72168 z"
       style="font-size:6px;font-family:'Open Sans';text-anchor:middle;fill:#eeeeee;stroke:none;stroke-width:1px;text-rendering:geometricPrecision"
       id="path930" />
  </g>
  <g
     aria-label="SHIFT"
     style="font-size:8px;font-family:'Open Sans';text-anchor:middle;fill:#eeeeee;stroke:none;stroke-width:1px;text-rendering:geometricPrecision"
     id="text34">
    <path
       d="m 22.867187,211.35937 v 0.76954 q -0.449218,-0.21485 -0.847656,-0.32032 -0.398437,-0.10547 -0.769531,-0.10547 -0.644531,0 -0.996094,0.25 -0.347656,0.25 -0.347656,0.71094 0,0.38672 0.230469,0.58594 0.234375,0.19531 0.882812,0.31641 l 0.476563,0.0977 q 0.882812,0.16797 1.300781,0.59375 0.421875,0.42188 0.421875,1.13281 0,0.84766 -0.570313,1.28516 -0.566406,0.4375 -1.664062,0.4375 -0.414063,0 -0.882813,-0.0937 -0.464843,-0.0937 -0.964843,-0.27734 v -0.8125 q 0.480468,0.26953 0.941406,0.40625 0.460937,0.13672 0.90625,0.13672 0.675781,0 1.042969,-0.26563 0.367187,-0.26562 0.367187,-0.75781 0,-0.42969 -0.265625,-0.67188 -0.261719,-0.24218 -0.863281,-0.36328 l -0.480469,-0.0937 q -0.882812,-0.17578 -1.277344,-0.55078 -0.394531,-0.375 -0.394531,-1.04297 0,-0.77344 0.542969,-1.21875 0.546875,-0.44531 1.503906,-0.44531 0.410156,0 0.835938,0.0742 0.425781,0.0742 0.871093,0.22265 z"
       style="font-size:8px;font-family:'Open Sans';text-anchor:middle;fill:#eeeeee;stroke:none;stroke-width:1px;text-rendering:geometricPrecision"
       id="path933" />
    <path
       d="m 24.449219,211.16797 h 0.789062 v 2.39062 h 2.867188 v -2.39062 h 0.789062 V 217 h -0.789062 v -2.77734 H 25.238281 V 217 h -0.789062 z"
       style="font-size:8px;font-family:'Open Sans';text-anchor:middle;fill:#eeeeee;stroke:none;stroke-width:1px;text-rendering:geometricPrecision"
       id="path935" />
    <path
       d="m 30.464844,211.16797 h 0.789062 V 217 h -0.789062 z"
       style="font-size:8px;font-family:'Open Sans';text-anchor:middle;fill:#eeeeee;stroke:none;stroke-width:1px;text-rendering:geometricPrecision"
       id="path937" />
    <path
       d="m 32.824219,211.16797 h 3.351562 v 0.66406 h -2.5625 v 1.71875 h 2.3125 v 0.66406 h -2.3125 V 217 h -0.789062 z"
       style="font-size:8px;font-family:'Open Sans';text-anchor:middle;fill:#eeeeee;stroke:none;stroke-width:1px;text-rendering:geometricPrecision"
       id="path939" />
    <path
       d="m 36.492187,211.16797 h 4.933594 v 0.66406 H 39.355469 V 217 H 38.5625 v -5.16797 h -2.070313 z"
       style="font-size:8px;font-family:'Open Sans';text-anchor:middle;fill:#eeeeee;stroke:none;stroke-width:1px;text-rendering:geometricPrecision"
       id="path941" />
  </g>
  <g
     aria-label="OUT"
     style="font-size:8px;font-family:'Open Sans';text-anchor:middle;fill:#eeeeee;stroke:none;stroke-width:1px;text-rendering:geometricPrecision"
     id="text33">
    <path
       d="m 24.628906,261.70312 q -0.859375,0 -1.367187,0.64063 -0.503907,0.64062 -0.503907,1.74609 0,1.10157 0.503907,1.74219 0.507812,0.64063 1.367187,0.64063 0.859375,0 1.359375,-0.64063 0.503906,-0.64062 0.503906,-1.74219 0,-1.10547 -0.503906,-1.74609 -0.5,-0.64063 -1.359375,-0.64063 z m 0,-0.64062 q 1.226563,0 1.960938,0.82422 0.734375,0.82031 0.734375,2.20312 0,1.37891 -0.734375,2.20313 -0.734375,0.82031 -1.960938,0.82031 -1.230469,0 -1.96875,-0.82031 -0.734375,-0.82031 -0.734375,-2.20313 0,-1.38281 0.734375,-2.20312 0.738281,-0.82422 1.96875,-0.82422 z"
       style="font-size:8px;font-family:'Open Sans';text-anchor:middle;fill:#eeeeee;stroke:none;stroke-width:1px;text-rendering:geometricPrecision"
       id="path944" />
    <path
       d="m 28.46875,261.16797 h 0.792969 v 3.54297 q 0,0.9375 0.339843,1.35156 0.339844,0.41016 1.101563,0.41016 0.757812,0 1.097656,-0.41016 0.339844,-0.41406 0.339844,-1.35156 v -3.54297 h 0.792969 v 3.64062 q 0,1.14063 -0.566407,1.72266 -0.5625,0.58203 -1.664062,0.58203 -1.105469,0 -1.671875,-0.58203 -0.5625,-0.58203 -0.5625,-1.72266 z"
       style="font-size:8px;font-family:'Open Sans';text-anchor:middle;fill:#eeeeee;stroke:none;stroke-width:1px;text-rendering:geometricPrecision"
       id="path946" />
    <path
       d="m 33.609375,261.16797 h 4.933594 v 0.66406 H 36.472656 V 267 h -0.792969 v -5.16797 h -2.070312 z"
       style="font-size:8px;font-family:'Open Sans';text-anchor:middle;fill:#eeeeee;stroke:none;stroke-width:1px;text-rendering:geometricPrecision"
       id="path948" />
  </g>
  <path
     style="stroke:#eeeeee;stroke-width:0.75"
     d="M 41,192 H 57"
     id="SvgjsLine1007" />
  <path
     style="stroke:#eeeeee;stroke-width:0.75"
     d="m 41,192 14.915024,1.59441"
     id="SvgjsLine1008" />
  <path
     style="stroke:#eeeeee;stroke-width:0.75"
     d="m 41,192 14.661053,3.17075"
     id="SvgjsLine1009" />
  <path
     style="stroke:#eeeeee;stroke-width:0.75"
     d="m 41,192 14.240963,4.71115"
     id="SvgjsLine1010" />
  <path
     style="stroke:#eeeeee;stroke-width:0.75"
     d="m 41,192 13.659523,6.19818"
     id="SvgjsLine1011" />
  <path
     style="stroke:#eeeeee;stroke-width:0.75"
     d="m 41,192 13.784866,8.12265"
     id="SvgjsLine1012" />
  <path
     style="stroke:#eeeeee;stroke-width:0.75"
     d="m 41,192 12.040676,8.94551"
     id="SvgjsLine1013" />
  <path
     style="stroke:#eeeeee;stroke-width:0.75"
     d="m 41,192 11.021614,10.17468"
     id="SvgjsLine1014" />
  <path
     style="stroke:#eeeeee;stroke-width:0.75"
     d="m 41,192 9.87767,11.28856"
     id="SvgjsLine1015" />
  <path
     style="stroke:#eeeeee;stroke-width:0.75"
     d="m 41,192 8.621811,12.27454"
     id="SvgjsLine1016" />
  <path
     style="stroke:#eeeeee;stroke-width:0.75"
     d="m 41,192 7.752815,13.99622"
     id="SvgjsLine1017" />
  <path
     style="stroke:#eeeeee;stroke-width:0.75"
     d="m 41,192 -8.486736,13.56375"
     id="SvgjsLine1018" />
  <path
     style="stroke:#eeeeee;stroke-width:0.75"
     d="m 41,192 -9.262869,11.79828"
     id="SvgjsLine1019" />
  <path
     style="stroke:#eeeeee;stroke-width:0.75"
     d="M 41,192 30.535526,202.74686"
     id="SvgjsLine1020" />
  <path
     style="stroke:#eeeeee;stroke-width:0.75"
     d="m 41,192 -11.54751,9.57367"
     id="SvgjsLine1021" />
  <path
     style="stroke:#eeeeee;stroke-width:0.75"
     d="m 41,192 -12.499708,8.29201"
     id="SvgjsLine1022" />
  <path
     style="stroke:#eeeeee;stroke-width:0.75"
     d="m 41,192 -14.197634,7.37749"
     id="SvgjsLine1023" />
  <path
     style="stroke:#eeeeee;stroke-width:0.75"
     d="m 41,192 -13.970043,5.4624"
     id="SvgjsLine1024" />
  <path
     style="stroke:#eeeeee;stroke-width:0.75"
     d="m 41,192 -14.471518,3.94653"
     id="SvgjsLine1025" />
  <path
     style="stroke:#eeeeee;stroke-width:0.75"
     d="m 41,192 -14.809025,2.38596"
     id="SvgjsLine1026" />
  <path
     style="stroke:#eeeeee;stroke-width:0.75"
     d="m 41,192 -14.978741,0.79834"
     id="SvgjsLine1027" />
  <path
     style="stroke:#eeeeee;stroke-width:0.75"
     d="M 41,192 25.022676,191.14845"
     id="SvgjsLine1028" />
  <path
     style="stroke:#eeeeee;stroke-width:0.75"
     d="M 41,192 26.190975,189.61404"
     id="SvgjsLine1029" />
  <path
     style="stroke:#eeeeee;stroke-width:0.75"
     d="M 41,192 26.528482,188.05347"
     id="SvgjsLine1030" />
  <path
     style="stroke:#eeeeee;stroke-width:0.75"
     d="M 41,192 27.029957,186.5376"
     id="SvgjsLine1031" />
  <path
     style="stroke:#eeeeee;stroke-width:0.75"
     d="M 41,192 27.689718,185.08362"
     id="SvgjsLine1032" />
  <path
     style="stroke:#eeeeee;stroke-width:0.75"
     d="M 41,192 27.666977,183.1552"
     id="SvgjsLine1033" />
  <path
     style="stroke:#eeeeee;stroke-width:0.75"
     d="M 41,192 29.45249,182.42633"
     id="SvgjsLine1034" />
  <path
     style="stroke:#eeeeee;stroke-width:0.75"
     d="M 41,192 30.535526,181.25314"
     id="SvgjsLine1035" />
  <path
     style="stroke:#eeeeee;stroke-width:0.75"
     d="M 41,192 31.737131,180.20172"
     id="SvgjsLine1036" />
  <path
     style="stroke:#eeeeee;stroke-width:0.75"
     d="M 41,192 33.043686,179.28398"
     id="SvgjsLine1037" />
  <path
     style="stroke:#eeeeee;stroke-width:0.75"
     d="M 41,192 34.003082,177.61101"
     id="SvgjsLine1038" />
  <path
     style="stroke:#eeeeee;stroke-width:0.75"
     d="M 41,192 35.911419,177.8895"
     id="SvgjsLine1039" />
  <path
     style="stroke:#eeeeee;stroke-width:0.75"
     d="M 41,192 37.440098,177.42856"
     id="SvgjsLine1040" />
  <path
     style="stroke:#eeeeee;stroke-width:0.75"
     d="M 41,192 39.009117,177.13271"
     id="SvgjsLine1041" />
  <path
     style="stroke:#eeeeee;stroke-width:0.75"
     d="M 41,192 40.600693,177.00531"
     id="SvgjsLine1042" />
  <path
     style="stroke:#eeeeee;stroke-width:0.75"
     d="m 41,192 1.276577,-15.94899"
     id="SvgjsLine1043" />
  <path
     style="stroke:#eeeeee;stroke-width:0.75"
     d="m 41,192 2.779331,-14.74026"
     id="SvgjsLine1044" />
  <path
     style="stroke:#eeeeee;stroke-width:0.75"
     d="m 41,192 4.330379,-14.36133"
     id="SvgjsLine1045" />
  <path
     style="stroke:#eeeeee;stroke-width:0.75"
     d="m 41,192 5.832363,-13.81969"
     id="SvgjsLine1046" />
  <path
     style="stroke:#eeeeee;stroke-width:0.75"
     d="m 41,192 7.268265,-13.12144"
     id="SvgjsLine1047" />
  <path
     style="stroke:#eeeeee;stroke-width:0.75"
     d="m 41,192 9.196598,-13.09285"
     id="SvgjsLine1048" />
  <path
     style="stroke:#eeeeee;stroke-width:0.75"
     d="m 41,192 9.87767,-11.28856"
     id="SvgjsLine1049" />
  <path
     style="stroke:#eeeeee;stroke-width:0.75"
     d="M 41,192 52.021614,181.82532"
     id="SvgjsLine1050" />
  <path
     style="stroke:#eeeeee;stroke-width:0.75"
     d="m 41,192 12.040676,-8.94551"
     id="SvgjsLine1051" />
  <path
     style="stroke:#eeeeee;stroke-width:0.75"
     d="m 41,192 12.923309,-7.61499"
     id="SvgjsLine1052" />
  <path
     style="stroke:#eeeeee;stroke-width:0.75"
     d="m 41,192 14.570156,-6.61139"
     id="SvgjsLine1053" />
  <path
     style="stroke:#eeeeee;stroke-width:0.75"
     d="m 41,192 14.240963,-4.71115"
     id="SvgjsLine1054" />
  <path
     style="stroke:#eeeeee;stroke-width:0.75"
     d="m 41,192 14.661053,-3.17075"
     id="SvgjsLine1055" />
  <path
     style="stroke:#eeeeee;stroke-width:0.75"
     d="m 41,192 14.915024,-1.59441"
     id="SvgjsLine1056" />
  <path
     style="stroke:#eeeeee;stroke-width:0.75"
     d="M 41,192 H 56"
     id="SvgjsLine1057" />
  <path
     style="fill:#000000;stroke:#eeeeee;stroke-width:0.75"
     d="M 54,192 A 13,13 0 0 1 41,205 13,13 0 0 1 28,192 13,13 0 0 1 41,179 13,13 0 0 1 54,192 Z"
     id="SvgjsCircle1058" />
</svg>
