<svg xmlns:osb="http://www.openswatchbook.org/uri/2009/osb" xmlns="http://www.w3.org/2000/svg" xmlns:xlink="http://www.w3.org/1999/xlink" height="380" style="zoom:8" cursor="default" id="SvgjsSvg1006" width="60"><defs id="SvgjsDefs1007"><linearGradient id="linearGradient838"><stop offset="0" id="stop834" stop-color="#ff8600"/><stop offset="1" id="stop836" stop-color="#ff8600" stop-opacity="0"/></linearGradient><linearGradient id="linearGradient2396" osb:paint="gradient"><stop offset="0" id="stop2392" stop-color="#ff8f00"/><stop offset="1" id="stop2394" stop-color="#ff8f00" stop-opacity="0"/></linearGradient><linearGradient id="linearGradient2384" osb:paint="solid"><stop offset="0" id="stop2382" stop-color="#ff8f00"/></linearGradient><linearGradient id="linearGradient898" osb:paint="solid"><stop offset="0" id="stop896" stop-color="#ff8f00"/></linearGradient><linearGradient id="linearGradient915"><stop offset="0" id="stop911" stop-color="#404040"/><stop offset="1" id="stop913" stop-color="#202020"/></linearGradient><linearGradient xlink:href="#linearGradient915" id="linearGradient919" y1="190" x2="45" y2="190" gradientUnits="userSpaceOnUse"/><style id="OpenSans_Google_Webfont_import">@import url(https://fonts.googleapis.com/css?family=Open+Sans);</style><style id="style31">@import url(https://fonts.googleapis.com/css?family=&apos;Open Sans&apos;);</style><style id="style33">@import url(https://fonts.googleapis.com/css?family=&apos;Open Sans&apos;);</style><style id="style35">@import url(https://fonts.googleapis.com/css?family=&apos;Open Sans&apos;);</style><style id="style22">@import url(https://fonts.googleapis.com/css?family=&apos;Open Sans&apos;);</style><style id="style24">@import url(https://fonts.googleapis.com/css?family=&apos;Open Sans&apos;);</style><style id="style26">@import url(https://fonts.googleapis.com/css?family=&apos;Open Sans&apos;);</style><linearGradient xlink:href="#linearGradient838" id="linearGradient840" x1="19.992" y1="333.24" x2="27.785" y2="400.33" gradientUnits="userSpaceOnUse" gradientTransform="translate(8)"/></defs><path d="M0 0h60v380H0z" id="SvgjsRect1008" fill="url(#linearGradient919)"/><path d="M49.005 342.877c-1.493-4.604-4.104-9.047-7.188-12.896-.426-.524-1.97-1.907-1.97-1.907 1.323 3.052 1.24 6.218.574 9.077-3.605-7.348-9.923-16.546-19.425-21.402 0 0 6.325 14.268-2.7 30.012-.498-2.122-1.004-5.171-.732-8.193 0 0-1.14.866-1.273.992-1.017.963-1.87 2.089-2.621 3.25-2.74 4.36-4.183 9.628-3.826 14.926.133 2.004.51 4.006 1.022 5.978 1.584 6.315 5.226 12.935 10.628 15.97-1.7-2.855-2.737-6.571-2.737-10.645 0-1.69.178-3.33.514-4.862.038.678.152 1.377.34 2.09.725 2.747 2.396 4.935 4.293 5.936-.858-2.22-1.167-5.153-.707-8.293.333-2.313 1.028-4.424 1.974-6.157 1.048-1.965 2.398-3.444 3.853-4.178-.606 1.026-1.06 2.353-1.294 3.85-.092.576-.145 1.18-.165 1.808-.009.142-.009.287-.009.442 0 .387.013.773.05 1.147.13 1.781.571 3.372 1.227 4.605l.104.189c.325.543.86.92 1.475.993h.006c.06.005.13.01.198.01.019 0 .043 0 .06-.005.929-.025 1.7-.762 1.908-1.739a2.5 2.5 0 0 0 .054-.496v-.036a8.53 8.53 0 0 0-.144-2.255 8.431 8.431 0 0 0-.314-1.202 8.222 8.222 0 0 0-.593-1.371c.38.07.762.18 1.13.348 1.404.61 2.66 1.854 3.53 3.489.144.278.279.567.397.87a10.21 10.21 0 0 1 .717 2.961c.382-.72.73-1.51 1.029-2.348.575-1.574.908-3.101 1.01-4.44 1.085 2.502 1.714 5.467 1.714 8.643 0 4.145-1.073 7.913-2.827 10.788a18.136 18.136 0 0 0 2.588-1.588c3.051-2.208 5.203-5.629 6.594-9.334.783-2.027 1.553-4.29 1.924-6.423 1.1-6.184 1.426-12.74-.388-18.604z" id="path2" fill="url(#linearGradient840)" stroke-width=".695"/><g aria-label="SHIFT" id="text5" font-size="12" font-family="Open Sans" text-anchor="middle" fill="#eee" text-rendering="geometricPrecision"><path d="M19.3 16.54v1.153q-.673-.322-1.27-.48-.598-.158-1.155-.158-.967 0-1.494.375-.522.375-.522 1.066 0 .58.346.879.352.293 1.324.475l.715.146q1.324.252 1.951.89.633.634.633 1.7 0 1.271-.855 1.928-.85.656-2.496.656-.622 0-1.325-.14-.697-.141-1.447-.417v-1.218q.72.404 1.412.609.692.205 1.36.205 1.013 0 1.564-.398.55-.399.55-1.137 0-.645-.398-1.008-.392-.363-1.295-.545l-.72-.14q-1.324-.264-1.916-.827-.592-.562-.592-1.564 0-1.16.814-1.828.82-.668 2.256-.668.615 0 1.254.111t1.307.334z" id="path893"/><path d="M21.674 16.252h1.183v3.586h4.301v-3.586h1.184V25h-1.184v-4.166h-4.3V25h-1.184z" id="path895"/><path d="M30.697 16.252h1.184V25h-1.184z" id="path897"/><path d="M34.236 16.252h5.028v.996H35.42v2.578h3.469v.996h-3.47V25h-1.183z" id="path899"/><path d="M39.738 16.252h7.4v.996h-3.105V25h-1.19v-7.752h-3.105z" id="path901"/></g><g aria-label="IN" id="text7" font-size="8" font-family="Open Sans" text-anchor="middle" fill="#eee" text-rendering="geometricPrecision"><path d="M26.613 61.168h.79V67h-.79z" id="path904"/><path d="M28.973 61.168h1.062l2.586 4.879v-4.879h.766V67h-1.063l-2.586-4.879V67h-.765z" id="path906"/></g><g aria-label="CLIP" id="text99" font-size="6" font-family="Open Sans" text-anchor="middle" fill="#eee" text-rendering="geometricPrecision"><path d="M27.401 82.963v.624q-.298-.278-.638-.416-.337-.138-.718-.138-.75 0-1.149.46-.398.457-.398 1.324 0 .865.398 1.325.399.457 1.149.457.38 0 .718-.138.34-.138.638-.416v.618q-.31.211-.659.316-.346.106-.732.106-.993 0-1.565-.606-.571-.61-.571-1.662 0-1.054.571-1.66.572-.61 1.565-.61.392 0 .738.105.349.103.653.31z" id="path909"/><path d="M28.321 82.626h.592v3.876h2.13V87h-2.722z" id="path911"/><path d="M31.661 82.626h.592V87h-.592z" id="path913"/><path d="M34.022 83.112v1.644h.745q.413 0 .638-.214.226-.214.226-.61 0-.392-.226-.606-.225-.214-.638-.214zm-.591-.486h1.336q.735 0 1.11.334.378.331.378.973 0 .647-.378.978-.375.331-1.11.331h-.745V87h-.591z" id="path915"/></g><g aria-label="NATURAL" id="text29" font-size="6" font-family="Open Sans" text-anchor="middle" fill="#eee" text-rendering="geometricPrecision"><path d="M16.808 122.626h.796l1.94 3.66v-3.66h.574V127h-.797l-1.94-3.66V127h-.573z" id="path918"/><path d="M22.758 123.209l-.803 2.177h1.608zm-.334-.583h.67L24.763 127h-.616l-.398-1.122h-1.972L21.378 127h-.624z" id="path920"/><path d="M24.322 122.626h3.7v.498H26.47V127h-.595v-3.876h-1.553z" id="path922"/><path d="M28.53 122.626h.594v2.657q0 .703.255 1.014.255.307.826.307.568 0 .823-.307.255-.31.255-1.014v-2.657h.595v2.73q0 .856-.425 1.292-.422.437-1.248.437-.829 0-1.254-.437-.422-.436-.422-1.292z" id="path924"/><path d="M35.065 124.95q.19.064.37.275.181.21.363.58l.6 1.195h-.635l-.56-1.122q-.217-.44-.422-.583-.202-.144-.553-.144h-.645V127h-.592v-4.374h1.336q.75 0 1.12.313.368.314.368.947 0 .413-.193.685-.19.273-.557.378zm-1.482-1.838v1.553h.744q.428 0 .645-.196.22-.2.22-.583 0-.384-.22-.577-.217-.197-.645-.197z" id="path926"/><path d="M38.385 123.209l-.803 2.177h1.608zm-.334-.583h.67L40.39 127h-.616l-.398-1.122h-1.972L37.005 127h-.624z" id="path928"/><path d="M41.03 122.626h.592v3.876h2.13V127H41.03z" id="path930"/></g><g aria-label="SHIFT" id="text34" font-size="8" font-family="Open Sans" text-anchor="middle" fill="#eee" text-rendering="geometricPrecision"><path d="M22.867 211.36v.769q-.449-.215-.847-.32-.399-.106-.77-.106-.645 0-.996.25-.348.25-.348.711 0 .387.23.586.235.195.884.316l.476.098q.883.168 1.3.594.423.422.423 1.133 0 .847-.57 1.285-.567.437-1.665.437-.414 0-.882-.093-.465-.094-.965-.278v-.812q.48.27.941.406.461.137.906.137.676 0 1.043-.266.368-.265.368-.758 0-.43-.266-.672-.262-.242-.863-.363l-.48-.094q-.884-.175-1.278-.55-.395-.375-.395-1.043 0-.774.543-1.219.547-.445 1.504-.445.41 0 .836.074t.871.222z" id="path933"/><path d="M24.45 211.168h.788v2.39h2.867v-2.39h.79V217h-.79v-2.777h-2.867V217h-.789z" id="path935"/><path d="M30.465 211.168h.789V217h-.79z" id="path937"/><path d="M32.824 211.168h3.352v.664h-2.563v1.719h2.313v.664h-2.313V217h-.789z" id="path939"/><path d="M36.492 211.168h4.934v.664h-2.07V217h-.794v-5.168h-2.07z" id="path941"/></g><g aria-label="OUT" id="text33" font-size="8" font-family="Open Sans" text-anchor="middle" fill="#eee" text-rendering="geometricPrecision"><path d="M24.629 261.703q-.86 0-1.367.64-.504.641-.504 1.747 0 1.101.504 1.742.508.64 1.367.64.86 0 1.36-.64.503-.64.503-1.742 0-1.106-.504-1.746-.5-.64-1.36-.64zm0-.64q1.226 0 1.96.824.735.82.735 2.203 0 1.379-.734 2.203-.735.82-1.961.82-1.23 0-1.969-.82-.734-.82-.734-2.203t.734-2.203q.738-.824 1.969-.824z" id="path944"/><path d="M28.469 261.168h.793v3.543q0 .937.34 1.352.34.41 1.101.41.758 0 1.098-.41.34-.415.34-1.352v-3.543h.793v3.64q0 1.141-.567 1.723-.562.582-1.664.582-1.105 0-1.672-.582-.562-.582-.562-1.722z" id="path946"/><path d="M33.61 261.168h4.933v.664h-2.07V267h-.793v-5.168h-2.07z" id="path948"/></g><path d="M41 192h16" id="SvgjsLine1007" stroke="#eee" stroke-width=".75"/><path d="M41 192l14.915 1.594" id="SvgjsLine1008" stroke="#eee" stroke-width=".75"/><path d="M41 192l14.661 3.17" id="SvgjsLine1009" stroke="#eee" stroke-width=".75"/><path d="M41 192l14.241 4.711" id="SvgjsLine1010" stroke="#eee" stroke-width=".75"/><path d="M41 192l13.66 6.198" id="SvgjsLine1011" stroke="#eee" stroke-width=".75"/><path d="M41 192l13.785 8.123" id="SvgjsLine1012" stroke="#eee" stroke-width=".75"/><path d="M41 192l12.04 8.946" id="SvgjsLine1013" stroke="#eee" stroke-width=".75"/><path d="M41 192l11.022 10.175" id="SvgjsLine1014" stroke="#eee" stroke-width=".75"/><path d="M41 192l9.878 11.289" id="SvgjsLine1015" stroke="#eee" stroke-width=".75"/><path d="M41 192l8.622 12.275" id="SvgjsLine1016" stroke="#eee" stroke-width=".75"/><path d="M41 192l7.753 13.996" id="SvgjsLine1017" stroke="#eee" stroke-width=".75"/><path d="M41 192l-8.487 13.564" id="SvgjsLine1018" stroke="#eee" stroke-width=".75"/><path d="M41 192l-9.263 11.798" id="SvgjsLine1019" stroke="#eee" stroke-width=".75"/><path d="M41 192l-10.464 10.747" id="SvgjsLine1020" stroke="#eee" stroke-width=".75"/><path d="M41 192l-11.548 9.574" id="SvgjsLine1021" stroke="#eee" stroke-width=".75"/><path d="M41 192l-12.5 8.292" id="SvgjsLine1022" stroke="#eee" stroke-width=".75"/><path d="M41 192l-14.198 7.377" id="SvgjsLine1023" stroke="#eee" stroke-width=".75"/><path d="M41 192l-13.97 5.462" id="SvgjsLine1024" stroke="#eee" stroke-width=".75"/><path d="M41 192l-14.472 3.947" id="SvgjsLine1025" stroke="#eee" stroke-width=".75"/><path d="M41 192l-14.809 2.386" id="SvgjsLine1026" stroke="#eee" stroke-width=".75"/><path d="M41 192l-14.979.798" id="SvgjsLine1027" stroke="#eee" stroke-width=".75"/><path d="M41 192l-15.977-.852" id="SvgjsLine1028" stroke="#eee" stroke-width=".75"/><path d="M41 192l-14.809-2.386" id="SvgjsLine1029" stroke="#eee" stroke-width=".75"/><path d="M41 192l-14.472-3.947" id="SvgjsLine1030" stroke="#eee" stroke-width=".75"/><path d="M41 192l-13.97-5.462" id="SvgjsLine1031" stroke="#eee" stroke-width=".75"/><path d="M41 192l-13.31-6.916" id="SvgjsLine1032" stroke="#eee" stroke-width=".75"/><path d="M41 192l-13.333-8.845" id="SvgjsLine1033" stroke="#eee" stroke-width=".75"/><path d="M41 192l-11.548-9.574" id="SvgjsLine1034" stroke="#eee" stroke-width=".75"/><path d="M41 192l-10.464-10.747" id="SvgjsLine1035" stroke="#eee" stroke-width=".75"/><path d="M41 192l-9.263-11.798" id="SvgjsLine1036" stroke="#eee" stroke-width=".75"/><path d="M41 192l-7.956-12.716" id="SvgjsLine1037" stroke="#eee" stroke-width=".75"/><path d="M41 192l-6.997-14.389" id="SvgjsLine1038" stroke="#eee" stroke-width=".75"/><path d="M41 192l-5.089-14.11" id="SvgjsLine1039" stroke="#eee" stroke-width=".75"/><path d="M41 192l-3.56-14.571" id="SvgjsLine1040" stroke="#eee" stroke-width=".75"/><path d="M41 192l-1.99-14.867" id="SvgjsLine1041" stroke="#eee" stroke-width=".75"/><path d="M41 192l-.4-14.995" id="SvgjsLine1042" stroke="#eee" stroke-width=".75"/><path d="M41 192l1.277-15.949" id="SvgjsLine1043" stroke="#eee" stroke-width=".75"/><path d="M41 192l2.78-14.74" id="SvgjsLine1044" stroke="#eee" stroke-width=".75"/><path d="M41 192l4.33-14.361" id="SvgjsLine1045" stroke="#eee" stroke-width=".75"/><path d="M41 192l5.832-13.82" id="SvgjsLine1046" stroke="#eee" stroke-width=".75"/><path d="M41 192l7.268-13.121" id="SvgjsLine1047" stroke="#eee" stroke-width=".75"/><path d="M41 192l9.197-13.093" id="SvgjsLine1048" stroke="#eee" stroke-width=".75"/><path d="M41 192l9.878-11.289" id="SvgjsLine1049" stroke="#eee" stroke-width=".75"/><path d="M41 192l11.022-10.175" id="SvgjsLine1050" stroke="#eee" stroke-width=".75"/><path d="M41 192l12.04-8.946" id="SvgjsLine1051" stroke="#eee" stroke-width=".75"/><path d="M41 192l12.923-7.615" id="SvgjsLine1052" stroke="#eee" stroke-width=".75"/><path d="M41 192l14.57-6.611" id="SvgjsLine1053" stroke="#eee" stroke-width=".75"/><path d="M41 192l14.241-4.711" id="SvgjsLine1054" stroke="#eee" stroke-width=".75"/><path d="M41 192l14.661-3.17" id="SvgjsLine1055" stroke="#eee" stroke-width=".75"/><path d="M41 192l14.915-1.594" id="SvgjsLine1056" stroke="#eee" stroke-width=".75"/><path d="M41 192h15" id="SvgjsLine1057" stroke="#eee" stroke-width=".75"/><path d="M54 192a13 13 0 0 1-13 13 13 13 0 0 1-13-13 13 13 0 0 1 13-13 13 13 0 0 1 13 13z" id="SvgjsCircle1058" stroke="#eee" stroke-width=".75"/></svg>