<?xml version="1.0" encoding="UTF-8" standalone="no"?>
<svg
   xmlns:osb="http://www.openswatchbook.org/uri/2009/osb"
   xmlns:dc="http://purl.org/dc/elements/1.1/"
   xmlns:cc="http://creativecommons.org/ns#"
   xmlns:rdf="http://www.w3.org/1999/02/22-rdf-syntax-ns#"
   xmlns:svg="http://www.w3.org/2000/svg"
   xmlns="http://www.w3.org/2000/svg"
   xmlns:xlink="http://www.w3.org/1999/xlink"
   xmlns:sodipodi="http://sodipodi.sourceforge.net/DTD/sodipodi-0.dtd"
   xmlns:inkscape="http://www.inkscape.org/namespaces/inkscape"
   height="380"
   style="zoom: 8;"
   cursor="default"
   id="SvgjsSvg1006"
   sodipodi:docname="Tine.svg"
   inkscape:version="0.92.2 5c3e80d, 2017-08-06"
   width="60"
   version="1.1">
  <metadata
     id="metadata7215">
    <rdf:RDF>
      <cc:Work
         rdf:about="">
        <dc:format>image/svg+xml</dc:format>
        <dc:type
           rdf:resource="http://purl.org/dc/dcmitype/StillImage" />
        <dc:title />
      </cc:Work>
    </rdf:RDF>
  </metadata>
  <sodipodi:namedview
     borderopacity="1"
     inkscape:zoom="2.9512404"
     inkscape:cy="108.13821"
     gridtolerance="10"
     inkscape:cx="37.029852"
     inkscape:window-height="1006"
     inkscape:measure-start="21.6858,252.097"
     inkscape:pagecheckerboard="true"
     inkscape:window-width="901"
     guidetolerance="10"
     id="namedview7213"
     showgrid="false"
     inkscape:pageopacity="0"
     inkscape:pageshadow="2"
     bordercolor="#666666"
     inkscape:current-layer="SvgjsSvg1006"
     inkscape:window-maximized="0"
     inkscape:window-y="11"
     inkscape:measure-end="21.0081,301.907"
     objecttolerance="10"
     pagecolor="#ffffff"
     inkscape:window-x="496"
     visibility="visible" />
  <defs
     id="SvgjsDefs1007">
    <linearGradient
       inkscape:collect="always"
       id="linearGradient838">
      <stop
         style="stop-color:#ff8600;stop-opacity:1;"
         offset="0"
         id="stop834" />
      <stop
         style="stop-color:#ff8600;stop-opacity:0;"
         offset="1"
         id="stop836" />
    </linearGradient>
    <linearGradient
       id="linearGradient2396"
       osb:paint="gradient">
      <stop
         style="stop-color:#ff8f00;stop-opacity:1;"
         offset="0"
         id="stop2392" />
      <stop
         style="stop-color:#ff8f00;stop-opacity:0;"
         offset="1"
         id="stop2394" />
    </linearGradient>
    <linearGradient
       id="linearGradient2384"
       osb:paint="solid">
      <stop
         style="stop-color:#ff8f00;stop-opacity:1;"
         offset="0"
         id="stop2382" />
    </linearGradient>
    <linearGradient
       id="linearGradient898"
       osb:paint="solid">
      <stop
         style="stop-color:#ff8f00;stop-opacity:1;"
         offset="0"
         id="stop896" />
    </linearGradient>
    <linearGradient
       inkscape:collect="always"
       id="linearGradient915">
      <stop
         style="stop-color:#1b1b1b;stop-opacity:1;"
         offset="0"
         id="stop911" />
      <stop
         style="stop-color:#1d1d1d;stop-opacity:1;"
         offset="1"
         id="stop913" />
    </linearGradient>
    <linearGradient
       inkscape:collect="always"
       xlink:href="#linearGradient915"
       id="linearGradient919"
       x1="0"
       y1="190"
       x2="60"
       y2="190"
       gradientUnits="userSpaceOnUse" />
    <style
       id="OpenSans_Google_Webfont_import">@import url(https://fonts.googleapis.com/css?family=Open+Sans);</style>
    <style
       id="style31">@import url(https://fonts.googleapis.com/css?family='Open Sans');</style>
    <style
       id="style33">@import url(https://fonts.googleapis.com/css?family='Open Sans');</style>
    <style
       id="style35">@import url(https://fonts.googleapis.com/css?family='Open Sans');</style>
    <style
       id="style22">@import url(https://fonts.googleapis.com/css?family='Open Sans');</style>
    <style
       id="style24">@import url(https://fonts.googleapis.com/css?family='Open Sans');</style>
    <style
       id="style26">@import url(https://fonts.googleapis.com/css?family='Open Sans');</style>
    <linearGradient
       inkscape:collect="always"
       xlink:href="#linearGradient838"
       id="linearGradient840"
       x1="19.991594"
       y1="333.23999"
       x2="27.784927"
       y2="400.33044"
       gradientUnits="userSpaceOnUse"
       gradientTransform="translate(8)" />
  </defs>
  <path
     d="M0,0 H60 V380 H0 Z"
     id="SvgjsRect1008"
     style="fill:url(#linearGradient919);fill-opacity:1;stroke:none;stroke-opacity:1"
     visibility="visible" />
  <path
     d="m 49.004911,342.87682 c -1.492639,-4.60366 -4.104196,-9.04635 -7.187505,-12.89608 -0.426049,-0.52359 -1.969544,-1.90716 -1.969544,-1.90716 1.322369,3.05255 1.238339,6.21832 0.573467,9.07712 -3.605176,-7.34797 -9.922897,-16.54618 -19.424907,-21.40183 1e-6,0 6.324356,14.26788 -2.700752,30.01166 -0.497545,-2.12189 -1.003936,-5.1705 -0.731207,-8.19293 1e-6,0 -1.141036,0.86654 -1.272978,0.99218 -1.017942,0.9628 -1.870772,2.08918 -2.621881,3.25089 -2.73908,4.35956 -4.183067,9.62692 -3.825571,14.92499 0.133416,2.0047 0.510813,4.0068 1.021626,5.97879 1.584775,6.31451 5.226807,12.93469 10.628308,15.9689 -1.699762,-2.85425 -2.736868,-6.57044 -2.736868,-10.64465 -1e-6,-1.68924 0.177641,-3.32938 0.513762,-4.86154 0.03833,0.67807 0.151844,1.37704 0.339804,2.08978 0.725312,2.74688 2.396326,4.93484 4.292896,5.93557 -0.857252,-2.21868 -1.166836,-5.15213 -0.706883,-8.29235 0.333171,-2.31366 1.028259,-4.42438 1.973965,-6.15747 1.048162,-1.96479 2.398537,-3.44327 3.85358,-4.17762 -0.605899,1.02625 -1.059955,2.35291 -1.294355,3.85038 -0.0914,0.57528 -0.145208,1.18005 -0.16511,1.8077 -0.0088,0.14203 -0.0088,0.28669 -0.0088,0.44178 0,0.38681 0.01327,0.77295 0.04939,1.1473 0.130466,1.78089 0.571992,3.37195 1.228015,4.60435 0.03612,0.0674 0.06929,0.12765 0.103932,0.18917 0.324325,0.54322 0.859465,0.91953 1.474209,0.9935 0,0 0,0 0.0066,0 0.06045,0.005 0.12973,0.01 0.197544,0.01 0.01916,0 0.04349,0 0.06045,-0.005 0.928751,-0.0249 1.699762,-0.76248 1.907625,-1.73899 0.03243,-0.15774 0.05455,-0.32858 0.05455,-0.49676 0,-0.013 0,-0.0255 0,-0.036 0.05528,-0.70554 0.0059,-1.46738 -0.144472,-2.25406 -0.08034,-0.41888 -0.180592,-0.81943 -0.314009,-1.2023 -0.163637,-0.49808 -0.363392,-0.94968 -0.59263,-1.37116 0.379608,0.0693 0.762165,0.18064 1.12998,0.34818 1.404184,0.60937 2.66021,1.85354 3.529257,3.48846 0.14447,0.27881 0.27936,0.56745 0.398035,0.86982 0.251352,0.61325 0.445948,1.26446 0.578627,1.95694 0.06266,0.341 0.109828,0.67083 0.137838,1.00463 0.382557,-0.7193 0.729732,-1.50924 1.028997,-2.34765 0.574942,-1.57407 0.908112,-3.10166 1.009833,-4.4401 1.085754,2.50214 1.714504,5.46698 1.714504,8.64258 0,4.14487 -1.073223,7.91278 -2.826794,10.78861 0.900742,-0.45618 1.77126,-0.98502 2.587235,-1.58844 3.051613,-2.20825 5.20322,-5.62864 6.594135,-9.33368 0.783543,-2.02765 1.553078,-4.29023 1.92458,-6.42319 1.099758,-6.18427 1.42556,-12.7403 -0.388455,-18.60455 z"
     id="path2"
     style="visibility:visible;fill:url(#linearGradient840);fill-opacity:1;stroke:none;stroke-width:0.69457018;stroke-opacity:1"
     inkscape:connector-curvature="0"
     visibility="visible" />
  <g
     aria-label="TINE"
     style="font-size:12px;font-family:'Open Sans';text-anchor:middle;fill:#eeeeee;stroke:none;stroke-width:1px;text-rendering:geometricPrecision"
     id="text5">
    <path
       d="m 16.242187,16.251953 h 7.400391 v 0.996094 H 20.537109 V 25 h -1.189453 v -7.751953 h -3.105469 z"
       style="font-size:12px;font-family:'Open Sans';text-anchor:middle;fill:#eeeeee;stroke:none;stroke-width:1px;text-rendering:geometricPrecision"
       id="path203" />
    <path
       d="m 24.791016,16.251953 h 1.183593 V 25 h -1.183593 z"
       style="font-size:12px;font-family:'Open Sans';text-anchor:middle;fill:#eeeeee;stroke:none;stroke-width:1px;text-rendering:geometricPrecision"
       id="path205" />
    <path
       d="m 28.330078,16.251953 h 1.59375 l 3.878906,7.318359 v -7.318359 h 1.148438 V 25 h -1.59375 L 29.478516,17.681641 V 25 h -1.148438 z"
       style="font-size:12px;font-family:'Open Sans';text-anchor:middle;fill:#eeeeee;stroke:none;stroke-width:1px;text-rendering:geometricPrecision"
       id="path207" />
    <path
       d="m 37.306641,16.251953 h 5.53125 v 0.996094 h -4.347657 v 2.589844 h 4.166016 v 0.996093 h -4.166016 v 3.169922 h 4.453125 V 25 h -5.636718 z"
       style="font-size:12px;font-family:'Open Sans';text-anchor:middle;fill:#eeeeee;stroke:none;stroke-width:1px;text-rendering:geometricPrecision"
       id="path209" />
  </g>
  <g
     aria-label="AUD"
     style="font-size:8px;font-family:'Open Sans';text-anchor:middle;fill:#eeeeee;stroke:none;stroke-width:1px;text-rendering:geometricPrecision"
     id="text7">
    <path
       d="M 7.9921875,61.945312 6.921875,64.847656 H 9.0664063 Z M 7.546875,61.167969 H 8.4414063 L 10.664063,67 H 9.84375 L 9.3125,65.503906 H 6.6835937 L 6.1523437,67 H 5.3203125 Z"
       style="font-size:8px;font-family:'Open Sans';text-anchor:middle;fill:#eeeeee;stroke:none;stroke-width:1px;text-rendering:geometricPrecision"
       id="path212" />
    <path
       d="m 11.421875,61.167969 h 0.792969 v 3.542968 q 0,0.9375 0.339844,1.351563 0.339843,0.410156 1.101562,0.410156 0.757813,0 1.097656,-0.410156 0.339844,-0.414063 0.339844,-1.351563 v -3.542968 h 0.792969 v 3.640625 q 0,1.140625 -0.566406,1.722656 -0.5625,0.582031 -1.664063,0.582031 -1.105469,0 -1.671875,-0.582031 -0.5625,-0.582031 -0.5625,-1.722656 z"
       style="font-size:8px;font-family:'Open Sans';text-anchor:middle;fill:#eeeeee;stroke:none;stroke-width:1px;text-rendering:geometricPrecision"
       id="path214" />
    <path
       d="m 18.160156,61.816406 v 4.535156 h 0.953125 q 1.207031,0 1.765625,-0.546875 0.5625,-0.546875 0.5625,-1.726562 0,-1.171875 -0.5625,-1.714844 -0.558594,-0.546875 -1.765625,-0.546875 z m -0.789062,-0.648437 h 1.621093 q 1.695313,0 2.488282,0.707031 0.792968,0.703125 0.792968,2.203125 0,1.507812 -0.796875,2.214844 Q 20.679687,67 18.992187,67 h -1.621093 z"
       style="font-size:8px;font-family:'Open Sans';text-anchor:middle;fill:#eeeeee;stroke:none;stroke-width:1px;text-rendering:geometricPrecision"
       id="path216" />
  </g>
  <g
     aria-label="MOD"
     style="font-size:8px;font-family:'Open Sans';text-anchor:middle;fill:#eeeeee;stroke:none;stroke-width:1px;text-rendering:geometricPrecision"
     id="text31">
    <path
       d="m 37.105469,61.167969 h 1.175781 l 1.488281,3.96875 1.496094,-3.96875 h 1.175781 V 67 h -0.769531 v -5.121094 l -1.503906,4 H 39.375 l -1.503906,-4 V 67 h -0.765625 z"
       style="font-size:8px;font-family:'Open Sans';text-anchor:middle;fill:#eeeeee;stroke:none;stroke-width:1px;text-rendering:geometricPrecision"
       id="path219" />
    <path
       d="m 46.378906,61.703125 q -0.859375,0 -1.367187,0.640625 -0.503907,0.640625 -0.503907,1.746094 0,1.101562 0.503907,1.742187 0.507812,0.640625 1.367187,0.640625 0.859375,0 1.359375,-0.640625 0.503906,-0.640625 0.503906,-1.742187 0,-1.105469 -0.503906,-1.746094 -0.5,-0.640625 -1.359375,-0.640625 z m 0,-0.640625 q 1.226563,0 1.960938,0.824219 0.734375,0.820312 0.734375,2.203125 0,1.378906 -0.734375,2.203125 -0.734375,0.820312 -1.960938,0.820312 -1.230469,0 -1.96875,-0.820312 -0.734375,-0.820313 -0.734375,-2.203125 0,-1.382813 0.734375,-2.203125 0.738281,-0.824219 1.96875,-0.824219 z"
       style="font-size:8px;font-family:'Open Sans';text-anchor:middle;fill:#eeeeee;stroke:none;stroke-width:1px;text-rendering:geometricPrecision"
       id="path221" />
    <path
       d="m 51.097656,61.816406 v 4.535156 h 0.953125 q 1.207031,0 1.765625,-0.546875 0.5625,-0.546875 0.5625,-1.726562 0,-1.171875 -0.5625,-1.714844 -0.558594,-0.546875 -1.765625,-0.546875 z m -0.789062,-0.648437 h 1.621093 q 1.695313,0 2.488282,0.707031 0.792968,0.703125 0.792968,2.203125 0,1.507812 -0.796875,2.214844 Q 53.617187,67 51.929687,67 h -1.621093 z"
       style="font-size:8px;font-family:'Open Sans';text-anchor:middle;fill:#eeeeee;stroke:none;stroke-width:1px;text-rendering:geometricPrecision"
       id="path223" />
  </g>
  <g
     aria-label="POLARITY"
     style="font-size:8px;font-family:'Open Sans';text-anchor:middle;fill:#eeeeee;stroke:none;stroke-width:1px;text-rendering:geometricPrecision"
     id="text29">
    <path
       d="m 12.105469,111.81641 v 2.1914 h 0.992187 q 0.550782,0 0.851563,-0.28515 0.300781,-0.28516 0.300781,-0.8125 0,-0.52344 -0.300781,-0.8086 -0.300781,-0.28515 -0.851563,-0.28515 z m -0.789063,-0.64844 h 1.78125 q 0.980469,0 1.480469,0.44531 0.503906,0.44141 0.503906,1.29688 0,0.86328 -0.503906,1.30468 -0.5,0.44141 -1.480469,0.44141 H 12.105469 V 117 h -0.789063 z"
       style="font-size:8px;font-family:'Open Sans';text-anchor:middle;fill:#eeeeee;stroke:none;stroke-width:1px;text-rendering:geometricPrecision"
       id="path226" />
    <path
       d="m 18.511719,111.70313 q -0.859375,0 -1.367188,0.64062 -0.503906,0.64063 -0.503906,1.74609 0,1.10157 0.503906,1.74219 0.507813,0.64063 1.367188,0.64063 0.859375,0 1.359375,-0.64063 0.503906,-0.64062 0.503906,-1.74219 0,-1.10546 -0.503906,-1.74609 -0.5,-0.64062 -1.359375,-0.64062 z m 0,-0.64063 q 1.226562,0 1.960937,0.82422 0.734375,0.82031 0.734375,2.20312 0,1.37891 -0.734375,2.20313 -0.734375,0.82031 -1.960937,0.82031 -1.230469,0 -1.96875,-0.82031 -0.734375,-0.82031 -0.734375,-2.20313 0,-1.38281 0.734375,-2.20312 0.738281,-0.82422 1.96875,-0.82422 z"
       style="font-size:8px;font-family:'Open Sans';text-anchor:middle;fill:#eeeeee;stroke:none;stroke-width:1px;text-rendering:geometricPrecision"
       id="path228" />
    <path
       d="m 22.441406,111.16797 h 0.789063 v 5.16797 h 2.839843 V 117 h -3.628906 z"
       style="font-size:8px;font-family:'Open Sans';text-anchor:middle;fill:#eeeeee;stroke:none;stroke-width:1px;text-rendering:geometricPrecision"
       id="path230" />
    <path
       d="m 29.03125,111.94531 -1.070313,2.90235 h 2.144532 z m -0.445313,-0.77734 h 0.894532 L 31.703125,117 h -0.820313 l -0.53125,-1.49609 H 27.722656 L 27.191406,117 h -0.832031 z"
       style="font-size:8px;font-family:'Open Sans';text-anchor:middle;fill:#eeeeee;stroke:none;stroke-width:1px;text-rendering:geometricPrecision"
       id="path232" />
    <path
       d="m 35.316406,114.26563 q 0.253906,0.0859 0.492188,0.36718 0.242187,0.28125 0.484375,0.77344 L 37.09375,117 H 36.246094 L 35.5,115.50391 q -0.289063,-0.58594 -0.5625,-0.77735 -0.269531,-0.1914 -0.738281,-0.1914 H 33.339844 V 117 h -0.789063 v -5.83203 h 1.78125 q 1,0 1.492188,0.41797 0.492187,0.41797 0.492187,1.26172 0,0.55078 -0.257812,0.91406 -0.253907,0.36328 -0.742188,0.50391 z m -1.976562,-2.44922 v 2.07031 h 0.992187 q 0.570313,0 0.859375,-0.26172 0.292969,-0.26562 0.292969,-0.77734 0,-0.51172 -0.292969,-0.76953 -0.289062,-0.26172 -0.859375,-0.26172 z"
       style="font-size:8px;font-family:'Open Sans';text-anchor:middle;fill:#eeeeee;stroke:none;stroke-width:1px;text-rendering:geometricPrecision"
       id="path234" />
    <path
       d="m 38.113281,111.16797 h 0.789063 V 117 h -0.789063 z"
       style="font-size:8px;font-family:'Open Sans';text-anchor:middle;fill:#eeeeee;stroke:none;stroke-width:1px;text-rendering:geometricPrecision"
       id="path236" />
    <path
       d="m 39.664062,111.16797 h 4.933594 v 0.66406 H 42.527344 V 117 h -0.792969 v -5.16797 h -2.070313 z"
       style="font-size:8px;font-family:'Open Sans';text-anchor:middle;fill:#eeeeee;stroke:none;stroke-width:1px;text-rendering:geometricPrecision"
       id="path238" />
    <path
       d="m 44.5625,111.16797 h 0.847656 l 1.617188,2.39844 1.605468,-2.39844 h 0.847657 l -2.0625,3.05469 V 117 H 46.625 v -2.77734 z"
       style="font-size:8px;font-family:'Open Sans';text-anchor:middle;fill:#eeeeee;stroke:none;stroke-width:1px;text-rendering:geometricPrecision"
       id="path240" />
  </g>
  <g
     aria-label="UNI"
     style="font-size:6px;font-family:'Open Sans';fill:#eeeeee;stroke:none;stroke-width:1px;text-rendering:geometricPrecision"
     id="text33">
    <path
       d="m 40.521484,86.625977 h 0.594727 v 2.657226 q 0,0.703125 0.254883,1.013672 0.254883,0.307617 0.826172,0.307617 0.568359,0 0.823242,-0.307617 0.254883,-0.310547 0.254883,-1.013672 v -2.657226 h 0.594726 v 2.730468 q 0,0.855469 -0.424805,1.291992 -0.421875,0.436524 -1.248046,0.436524 -0.829102,0 -1.253907,-0.436524 -0.421875,-0.436523 -0.421875,-1.291992 z"
       style="font-size:6px;font-family:'Open Sans';fill:#eeeeee;stroke:none;stroke-width:1px;text-rendering:geometricPrecision"
       id="path243" />
    <path
       d="m 44.983398,86.625977 h 0.796875 l 1.939454,3.659179 v -3.659179 h 0.574218 V 91 H 47.49707 L 45.557617,87.34082 V 91 h -0.574219 z"
       style="font-size:6px;font-family:'Open Sans';fill:#eeeeee;stroke:none;stroke-width:1px;text-rendering:geometricPrecision"
       id="path245" />
    <path
       d="m 49.47168,86.625977 h 0.591797 V 91 H 49.47168 Z"
       style="font-size:6px;font-family:'Open Sans';fill:#eeeeee;stroke:none;stroke-width:1px;text-rendering:geometricPrecision"
       id="path247" />
  </g>
  <g
     aria-label="BI"
     style="font-size:6px;font-family:'Open Sans';fill:#eeeeee;stroke:none;stroke-width:1px;text-rendering:geometricPrecision"
     id="text35">
    <path
       d="m 41.180664,102.91113 v 1.60254 h 0.949219 q 0.477539,0 0.706054,-0.19629 0.231446,-0.19922 0.231446,-0.60644 0,-0.41016 -0.231446,-0.60352 -0.228515,-0.19629 -0.706054,-0.19629 z m 0,-1.79883 v 1.31836 h 0.875977 q 0.433593,0 0.644531,-0.16113 0.213867,-0.16406 0.213867,-0.49805 0,-0.33105 -0.213867,-0.49511 -0.210938,-0.16407 -0.644531,-0.16407 z m -0.591797,-0.48632 h 1.511719 q 0.676758,0 1.042969,0.28125 0.366211,0.28125 0.366211,0.7998 0,0.40137 -0.1875,0.63867 -0.1875,0.23731 -0.550782,0.2959 0.436524,0.0937 0.676758,0.39258 0.243164,0.2959 0.243164,0.74121 0,0.58594 -0.398437,0.90527 Q 42.894531,105 42.15918,105 h -1.570313 z"
       style="font-size:6px;font-family:'Open Sans';fill:#eeeeee;stroke:none;stroke-width:1px;text-rendering:geometricPrecision"
       id="path250" />
    <path
       d="m 44.702148,100.62598 h 0.591797 V 105 h -0.591797 z"
       style="font-size:6px;font-family:'Open Sans';fill:#eeeeee;stroke:none;stroke-width:1px;text-rendering:geometricPrecision"
       id="path252" />
  </g>
  <g
     aria-label="SPLIT"
     style="font-size:8px;font-family:'Open Sans';text-anchor:middle;fill:#eeeeee;stroke:none;stroke-width:1px;text-rendering:geometricPrecision"
     id="text34">
    <path
       d="m 23.476562,161.35937 v 0.76954 q -0.449218,-0.21485 -0.847656,-0.32032 -0.398437,-0.10547 -0.769531,-0.10547 -0.644531,0 -0.996094,0.25 -0.347656,0.25 -0.347656,0.71094 0,0.38672 0.230469,0.58594 0.234375,0.19531 0.882812,0.31641 l 0.476563,0.0977 q 0.882812,0.16797 1.300781,0.59375 0.421875,0.42188 0.421875,1.13281 0,0.84766 -0.570313,1.28516 -0.566406,0.4375 -1.664062,0.4375 -0.414063,0 -0.882813,-0.0937 -0.464843,-0.0937 -0.964843,-0.27734 v -0.8125 q 0.480468,0.26953 0.941406,0.40625 0.460937,0.13672 0.90625,0.13672 0.675781,0 1.042969,-0.26563 0.367187,-0.26562 0.367187,-0.75781 0,-0.42969 -0.265625,-0.67188 -0.261719,-0.24218 -0.863281,-0.36328 l -0.480469,-0.0937 q -0.882812,-0.17578 -1.277344,-0.55078 -0.394531,-0.375 -0.394531,-1.04297 0,-0.77344 0.542969,-1.21875 0.546875,-0.44531 1.503906,-0.44531 0.410156,0 0.835938,0.0742 0.425781,0.0742 0.871093,0.22265 z"
       style="font-size:8px;font-family:'Open Sans';text-anchor:middle;fill:#eeeeee;stroke:none;stroke-width:1px;text-rendering:geometricPrecision"
       id="path255" />
    <path
       d="m 25.847656,161.81641 v 2.1914 h 0.992188 q 0.550781,0 0.851562,-0.28515 0.300781,-0.28516 0.300781,-0.8125 0,-0.52344 -0.300781,-0.8086 -0.300781,-0.28515 -0.851562,-0.28515 z m -0.789062,-0.64844 h 1.78125 q 0.980468,0 1.480468,0.44531 0.503907,0.44141 0.503907,1.29688 0,0.86328 -0.503907,1.30468 -0.5,0.44141 -1.480468,0.44141 H 25.847656 V 167 h -0.789062 z"
       style="font-size:8px;font-family:'Open Sans';text-anchor:middle;fill:#eeeeee;stroke:none;stroke-width:1px;text-rendering:geometricPrecision"
       id="path257" />
    <path
       d="m 29.886719,161.16797 h 0.789062 v 5.16797 h 2.839844 V 167 h -3.628906 z"
       style="font-size:8px;font-family:'Open Sans';text-anchor:middle;fill:#eeeeee;stroke:none;stroke-width:1px;text-rendering:geometricPrecision"
       id="path259" />
    <path
       d="m 34.339844,161.16797 h 0.789062 V 167 h -0.789062 z"
       style="font-size:8px;font-family:'Open Sans';text-anchor:middle;fill:#eeeeee;stroke:none;stroke-width:1px;text-rendering:geometricPrecision"
       id="path261" />
    <path
       d="m 35.890625,161.16797 h 4.933594 v 0.66406 H 38.753906 V 167 h -0.792969 v -5.16797 h -2.070312 z"
       style="font-size:8px;font-family:'Open Sans';text-anchor:middle;fill:#eeeeee;stroke:none;stroke-width:1px;text-rendering:geometricPrecision"
       id="path263" />
  </g>
  <g
     aria-label="LOW ATT"
     style="font-size:8px;font-family:'Open Sans';text-anchor:middle;fill:#eeeeee;stroke:none;stroke-width:1px;text-rendering:geometricPrecision"
     id="text38">
    <path
       d="m 13.074219,211.16797 h 0.789062 v 5.16797 h 2.839844 V 217 h -3.628906 z"
       style="font-size:8px;font-family:'Open Sans';text-anchor:middle;fill:#eeeeee;stroke:none;stroke-width:1px;text-rendering:geometricPrecision"
       id="path266" />
    <path
       d="m 19.613281,211.70312 q -0.859375,0 -1.367187,0.64063 -0.503907,0.64062 -0.503907,1.74609 0,1.10157 0.503907,1.74219 0.507812,0.64063 1.367187,0.64063 0.859375,0 1.359375,-0.64063 0.503906,-0.64062 0.503906,-1.74219 0,-1.10547 -0.503906,-1.74609 -0.5,-0.64063 -1.359375,-0.64063 z m 0,-0.64062 q 1.226563,0 1.960938,0.82422 0.734375,0.82031 0.734375,2.20312 0,1.37891 -0.734375,2.20313 -0.734375,0.82031 -1.960938,0.82031 -1.230469,0 -1.96875,-0.82031 -0.734375,-0.82031 -0.734375,-2.20313 0,-1.38281 0.734375,-2.20312 0.738281,-0.82422 1.96875,-0.82422 z"
       style="font-size:8px;font-family:'Open Sans';text-anchor:middle;fill:#eeeeee;stroke:none;stroke-width:1px;text-rendering:geometricPrecision"
       id="path268" />
    <path
       d="m 23.023437,211.16797 h 0.796875 l 1.226563,4.92969 1.222656,-4.92969 h 0.886719 l 1.226562,4.92969 1.222657,-4.92969 H 30.40625 L 28.941406,217 H 27.949219 L 26.71875,211.9375 25.476562,217 h -0.992187 z"
       style="font-size:8px;font-family:'Open Sans';text-anchor:middle;fill:#eeeeee;stroke:none;stroke-width:1px;text-rendering:geometricPrecision"
       id="path270" />
    <path
       d="M 35.945312,211.94531 34.875,214.84766 h 2.144531 z M 35.5,211.16797 h 0.894531 L 38.617187,217 h -0.820312 l -0.53125,-1.49609 H 34.636719 L 34.105469,217 h -0.832032 z"
       style="font-size:8px;font-family:'Open Sans';text-anchor:middle;fill:#eeeeee;stroke:none;stroke-width:1px;text-rendering:geometricPrecision"
       id="path272" />
    <path
       d="m 38.03125,211.16797 h 4.933594 v 0.66406 H 40.894531 V 217 h -0.792969 v -5.16797 H 38.03125 Z"
       style="font-size:8px;font-family:'Open Sans';text-anchor:middle;fill:#eeeeee;stroke:none;stroke-width:1px;text-rendering:geometricPrecision"
       id="path274" />
    <path
       d="m 42.789062,211.16797 h 4.933594 v 0.66406 H 45.652344 V 217 h -0.792969 v -5.16797 h -2.070313 z"
       style="font-size:8px;font-family:'Open Sans';text-anchor:middle;fill:#eeeeee;stroke:none;stroke-width:1px;text-rendering:geometricPrecision"
       id="path276" />
  </g>
  <g
     aria-label="HIGH ATT"
     style="font-size:8px;font-family:'Open Sans';text-anchor:middle;fill:#eeeeee;stroke:none;stroke-width:1px;text-rendering:geometricPrecision"
     id="text40">
    <path
       d="m 11.964844,261.16797 h 0.789062 v 2.39062 h 2.867188 v -2.39062 h 0.789062 V 267 h -0.789062 v -2.77734 H 12.753906 V 267 h -0.789062 z"
       style="font-size:8px;font-family:'Open Sans';text-anchor:middle;fill:#eeeeee;stroke:none;stroke-width:1px;text-rendering:geometricPrecision"
       id="path279" />
    <path
       d="m 17.980469,261.16797 h 0.789062 V 267 h -0.789062 z"
       style="font-size:8px;font-family:'Open Sans';text-anchor:middle;fill:#eeeeee;stroke:none;stroke-width:1px;text-rendering:geometricPrecision"
       id="path281" />
    <path
       d="m 24.316406,266.16797 v -1.56641 h -1.289062 v -0.64844 h 2.070312 v 2.50391 q -0.457031,0.32422 -1.007812,0.49219 -0.550782,0.16406 -1.175782,0.16406 -1.367187,0 -2.140625,-0.79687 -0.769531,-0.80079 -0.769531,-2.22657 0,-1.42968 0.769531,-2.22656 0.773438,-0.80078 2.140625,-0.80078 0.570313,0 1.082032,0.14062 0.515625,0.14063 0.949218,0.41407 v 0.83984 q -0.4375,-0.37109 -0.929687,-0.55859 -0.492188,-0.1875 -1.035156,-0.1875 -1.070313,0 -1.609375,0.59765 -0.535157,0.59766 -0.535157,1.78125 0,1.17969 0.535157,1.77735 0.539062,0.59765 1.609375,0.59765 0.417968,0 0.746093,-0.0703 0.328125,-0.0742 0.589844,-0.22656 z"
       style="font-size:8px;font-family:'Open Sans';text-anchor:middle;fill:#eeeeee;stroke:none;stroke-width:1px;text-rendering:geometricPrecision"
       id="path283" />
    <path
       d="m 26.542969,261.16797 h 0.789062 v 2.39062 h 2.867188 v -2.39062 h 0.789062 V 267 h -0.789062 v -2.77734 H 27.332031 V 267 h -0.789062 z"
       style="font-size:8px;font-family:'Open Sans';text-anchor:middle;fill:#eeeeee;stroke:none;stroke-width:1px;text-rendering:geometricPrecision"
       id="path285" />
    <path
       d="m 37.054687,261.94531 -1.070312,2.90235 h 2.144531 z m -0.445312,-0.77734 h 0.894531 L 39.726562,267 H 38.90625 L 38.375,265.50391 H 35.746094 L 35.214844,267 h -0.832032 z"
       style="font-size:8px;font-family:'Open Sans';text-anchor:middle;fill:#eeeeee;stroke:none;stroke-width:1px;text-rendering:geometricPrecision"
       id="path287" />
    <path
       d="m 39.140625,261.16797 h 4.933594 v 0.66406 H 42.003906 V 267 h -0.792969 v -5.16797 h -2.070312 z"
       style="font-size:8px;font-family:'Open Sans';text-anchor:middle;fill:#eeeeee;stroke:none;stroke-width:1px;text-rendering:geometricPrecision"
       id="path289" />
    <path
       d="m 43.898437,261.16797 h 4.933594 v 0.66406 H 46.761719 V 267 H 45.96875 v -5.16797 h -2.070313 z"
       style="font-size:8px;font-family:'Open Sans';text-anchor:middle;fill:#eeeeee;stroke:none;stroke-width:1px;text-rendering:geometricPrecision"
       id="path291" />
  </g>
  <g
     aria-label="LOW"
     style="font-size:8px;font-family:'Open Sans';text-anchor:middle;fill:#eeeeee;stroke:none;stroke-width:1px;text-rendering:geometricPrecision"
     id="text42">
    <path
       d="m 5.5976562,311.16797 h 0.7890625 v 5.16797 H 9.2265625 V 317 H 5.5976562 Z"
       style="font-size:8px;font-family:'Open Sans';text-anchor:middle;fill:#eeeeee;stroke:none;stroke-width:1px;text-rendering:geometricPrecision"
       id="path294" />
    <path
       d="m 12.136719,311.70312 q -0.859375,0 -1.367188,0.64063 -0.503906,0.64062 -0.503906,1.74609 0,1.10157 0.503906,1.74219 0.507813,0.64063 1.367188,0.64063 0.859375,0 1.359375,-0.64063 Q 14,315.19141 14,314.08984 q 0,-1.10547 -0.503906,-1.74609 -0.5,-0.64063 -1.359375,-0.64063 z m 0,-0.64062 q 1.226562,0 1.960937,0.82422 0.734375,0.82031 0.734375,2.20312 0,1.37891 -0.734375,2.20313 -0.734375,0.82031 -1.960937,0.82031 -1.230469,0 -1.96875,-0.82031 -0.7343752,-0.82031 -0.7343752,-2.20313 0,-1.38281 0.7343752,-2.20312 0.738281,-0.82422 1.96875,-0.82422 z"
       style="font-size:8px;font-family:'Open Sans';text-anchor:middle;fill:#eeeeee;stroke:none;stroke-width:1px;text-rendering:geometricPrecision"
       id="path296" />
    <path
       d="m 15.546875,311.16797 h 0.796875 l 1.226562,4.92969 1.222657,-4.92969 h 0.886718 l 1.226563,4.92969 1.222656,-4.92969 h 0.800781 L 21.464844,317 H 20.472656 L 19.242187,311.9375 18,317 h -0.992188 z"
       style="font-size:8px;font-family:'Open Sans';text-anchor:middle;fill:#eeeeee;stroke:none;stroke-width:1px;text-rendering:geometricPrecision"
       id="path298" />
  </g>
  <g
     aria-label="HIGH"
     style="font-size:8px;font-family:'Open Sans';text-anchor:middle;fill:#eeeeee;stroke:none;stroke-width:1px;text-rendering:geometricPrecision"
     id="text44">
    <path
       d="m 36.488281,311.16797 h 0.789063 v 2.39062 h 2.867187 v -2.39062 h 0.789063 V 317 h -0.789063 v -2.77734 H 37.277344 V 317 h -0.789063 z"
       style="font-size:8px;font-family:'Open Sans';text-anchor:middle;fill:#eeeeee;stroke:none;stroke-width:1px;text-rendering:geometricPrecision"
       id="path301" />
    <path
       d="m 42.503906,311.16797 h 0.789063 V 317 h -0.789063 z"
       style="font-size:8px;font-family:'Open Sans';text-anchor:middle;fill:#eeeeee;stroke:none;stroke-width:1px;text-rendering:geometricPrecision"
       id="path303" />
    <path
       d="m 48.839844,316.16797 v -1.56641 h -1.289063 v -0.64844 h 2.070313 v 2.50391 q -0.457032,0.32422 -1.007813,0.49219 -0.550781,0.16406 -1.175781,0.16406 -1.367188,0 -2.140625,-0.79687 -0.769531,-0.80079 -0.769531,-2.22657 0,-1.42968 0.769531,-2.22656 0.773437,-0.80078 2.140625,-0.80078 0.570312,0 1.082031,0.14062 0.515625,0.14063 0.949219,0.41407 v 0.83984 q -0.4375,-0.37109 -0.929688,-0.55859 -0.492187,-0.1875 -1.035156,-0.1875 -1.070312,0 -1.609375,0.59765 -0.535156,0.59766 -0.535156,1.78125 0,1.17969 0.535156,1.77735 0.539063,0.59765 1.609375,0.59765 0.417969,0 0.746094,-0.0703 0.328125,-0.0742 0.589844,-0.22656 z"
       style="font-size:8px;font-family:'Open Sans';text-anchor:middle;fill:#eeeeee;stroke:none;stroke-width:1px;text-rendering:geometricPrecision"
       id="path305" />
    <path
       d="m 51.066406,311.16797 h 0.789063 v 2.39062 h 2.867187 v -2.39062 h 0.789063 V 317 h -0.789063 v -2.77734 H 51.855469 V 317 h -0.789063 z"
       style="font-size:8px;font-family:'Open Sans';text-anchor:middle;fill:#eeeeee;stroke:none;stroke-width:1px;text-rendering:geometricPrecision"
       id="path307" />
  </g>
  <path
     style="stroke:#eeeeee;stroke-width:0.75"
     d="M 41,142 H 57"
     id="SvgjsLine1059" />
  <path
     style="stroke:#eeeeee;stroke-width:0.75"
     d="m 41,142 14.915024,1.59441"
     id="SvgjsLine1060" />
  <path
     style="stroke:#eeeeee;stroke-width:0.75"
     d="m 41,142 14.661053,3.17075"
     id="SvgjsLine1061" />
  <path
     style="stroke:#eeeeee;stroke-width:0.75"
     d="m 41,142 14.240963,4.71115"
     id="SvgjsLine1062" />
  <path
     style="stroke:#eeeeee;stroke-width:0.75"
     d="m 41,142 13.659523,6.19818"
     id="SvgjsLine1063" />
  <path
     style="stroke:#eeeeee;stroke-width:0.75"
     d="m 41,142 13.784866,8.12265"
     id="SvgjsLine1064" />
  <path
     style="stroke:#eeeeee;stroke-width:0.75"
     d="m 41,142 12.040676,8.94551"
     id="SvgjsLine1065" />
  <path
     style="stroke:#eeeeee;stroke-width:0.75"
     d="m 41,142 11.021614,10.17468"
     id="SvgjsLine1066" />
  <path
     style="stroke:#eeeeee;stroke-width:0.75"
     d="m 41,142 9.87767,11.28856"
     id="SvgjsLine1067" />
  <path
     style="stroke:#eeeeee;stroke-width:0.75"
     d="m 41,142 8.621811,12.27454"
     id="SvgjsLine1068" />
  <path
     style="stroke:#eeeeee;stroke-width:0.75"
     d="m 41,142 7.752815,13.99622"
     id="SvgjsLine1069" />
  <path
     style="stroke:#eeeeee;stroke-width:0.75"
     d="m 41,142 -8.486736,13.56375"
     id="SvgjsLine1070" />
  <path
     style="stroke:#eeeeee;stroke-width:0.75"
     d="m 41,142 -9.262869,11.79828"
     id="SvgjsLine1071" />
  <path
     style="stroke:#eeeeee;stroke-width:0.75"
     d="M 41,142 30.535526,152.74686"
     id="SvgjsLine1072" />
  <path
     style="stroke:#eeeeee;stroke-width:0.75"
     d="m 41,142 -11.54751,9.57367"
     id="SvgjsLine1073" />
  <path
     style="stroke:#eeeeee;stroke-width:0.75"
     d="m 41,142 -12.499708,8.29201"
     id="SvgjsLine1074" />
  <path
     style="stroke:#eeeeee;stroke-width:0.75"
     d="m 41,142 -14.197634,7.37749"
     id="SvgjsLine1075" />
  <path
     style="stroke:#eeeeee;stroke-width:0.75"
     d="m 41,142 -13.970043,5.4624"
     id="SvgjsLine1076" />
  <path
     style="stroke:#eeeeee;stroke-width:0.75"
     d="m 41,142 -14.471518,3.94653"
     id="SvgjsLine1077" />
  <path
     style="stroke:#eeeeee;stroke-width:0.75"
     d="m 41,142 -14.809025,2.38596"
     id="SvgjsLine1078" />
  <path
     style="stroke:#eeeeee;stroke-width:0.75"
     d="m 41,142 -14.978741,0.79834"
     id="SvgjsLine1079" />
  <path
     style="stroke:#eeeeee;stroke-width:0.75"
     d="M 41,142 25.022676,141.14845"
     id="SvgjsLine1080" />
  <path
     style="stroke:#eeeeee;stroke-width:0.75"
     d="M 41,142 26.190975,139.61404"
     id="SvgjsLine1081" />
  <path
     style="stroke:#eeeeee;stroke-width:0.75"
     d="M 41,142 26.528482,138.05347"
     id="SvgjsLine1082" />
  <path
     style="stroke:#eeeeee;stroke-width:0.75"
     d="M 41,142 27.029957,136.5376"
     id="SvgjsLine1083" />
  <path
     style="stroke:#eeeeee;stroke-width:0.75"
     d="M 41,142 27.689718,135.08362"
     id="SvgjsLine1084" />
  <path
     style="stroke:#eeeeee;stroke-width:0.75"
     d="M 41,142 27.666977,133.1552"
     id="SvgjsLine1085" />
  <path
     style="stroke:#eeeeee;stroke-width:0.75"
     d="M 41,142 29.45249,132.42633"
     id="SvgjsLine1086" />
  <path
     style="stroke:#eeeeee;stroke-width:0.75"
     d="M 41,142 30.535526,131.25314"
     id="SvgjsLine1087" />
  <path
     style="stroke:#eeeeee;stroke-width:0.75"
     d="M 41,142 31.737131,130.20172"
     id="SvgjsLine1088" />
  <path
     style="stroke:#eeeeee;stroke-width:0.75"
     d="M 41,142 33.043686,129.28398"
     id="SvgjsLine1089" />
  <path
     style="stroke:#eeeeee;stroke-width:0.75"
     d="M 41,142 34.003082,127.61101"
     id="SvgjsLine1090" />
  <path
     style="stroke:#eeeeee;stroke-width:0.75"
     d="M 41,142 35.911419,127.8895"
     id="SvgjsLine1091" />
  <path
     style="stroke:#eeeeee;stroke-width:0.75"
     d="M 41,142 37.440098,127.42855"
     id="SvgjsLine1092" />
  <path
     style="stroke:#eeeeee;stroke-width:0.75"
     d="M 41,142 39.009117,127.13271"
     id="SvgjsLine1093" />
  <path
     style="stroke:#eeeeee;stroke-width:0.75"
     d="M 41,142 40.600693,127.00532"
     id="SvgjsLine1094" />
  <path
     style="stroke:#eeeeee;stroke-width:0.75"
     d="m 41,142 1.276577,-15.94899"
     id="SvgjsLine1095" />
  <path
     style="stroke:#eeeeee;stroke-width:0.75"
     d="m 41,142 2.779331,-14.74026"
     id="SvgjsLine1096" />
  <path
     style="stroke:#eeeeee;stroke-width:0.75"
     d="m 41,142 4.330379,-14.36133"
     id="SvgjsLine1097" />
  <path
     style="stroke:#eeeeee;stroke-width:0.75"
     d="m 41,142 5.832363,-13.81969"
     id="SvgjsLine1098" />
  <path
     style="stroke:#eeeeee;stroke-width:0.75"
     d="m 41,142 7.268265,-13.12144"
     id="SvgjsLine1099" />
  <path
     style="stroke:#eeeeee;stroke-width:0.75"
     d="m 41,142 9.196598,-13.09285"
     id="SvgjsLine1100" />
  <path
     style="stroke:#eeeeee;stroke-width:0.75"
     d="m 41,142 9.87767,-11.28856"
     id="SvgjsLine1101" />
  <path
     style="stroke:#eeeeee;stroke-width:0.75"
     d="M 41,142 52.021614,131.82532"
     id="SvgjsLine1102" />
  <path
     style="stroke:#eeeeee;stroke-width:0.75"
     d="m 41,142 12.040676,-8.94551"
     id="SvgjsLine1103" />
  <path
     style="stroke:#eeeeee;stroke-width:0.75"
     d="m 41,142 12.923309,-7.61499"
     id="SvgjsLine1104" />
  <path
     style="stroke:#eeeeee;stroke-width:0.75"
     d="m 41,142 14.570156,-6.61139"
     id="SvgjsLine1105" />
  <path
     style="stroke:#eeeeee;stroke-width:0.75"
     d="m 41,142 14.240963,-4.71115"
     id="SvgjsLine1106" />
  <path
     style="stroke:#eeeeee;stroke-width:0.75"
     d="m 41,142 14.661053,-3.17075"
     id="SvgjsLine1107" />
  <path
     style="stroke:#eeeeee;stroke-width:0.75"
     d="m 41,142 14.915024,-1.59441"
     id="SvgjsLine1108" />
  <path
     style="stroke:#eeeeee;stroke-width:0.75"
     d="M 41,142 H 56"
     id="SvgjsLine1109" />
  <path
     style="fill:#000000;stroke:#eeeeee;stroke-width:0.75"
     d="M 54,142 A 13,13 0 0 1 41,155 13,13 0 0 1 28,142 13,13 0 0 1 41,129 13,13 0 0 1 54,142 Z"
     id="SvgjsCircle1110" />
  <path
     style="stroke:#eeeeee;stroke-width:0.75"
     d="M 41,192 H 57"
     id="SvgjsLine1111" />
  <path
     style="stroke:#eeeeee;stroke-width:0.75"
     d="m 41,192 14.915024,1.59441"
     id="SvgjsLine1112" />
  <path
     style="stroke:#eeeeee;stroke-width:0.75"
     d="m 41,192 14.661053,3.17075"
     id="SvgjsLine1113" />
  <path
     style="stroke:#eeeeee;stroke-width:0.75"
     d="m 41,192 14.240963,4.71115"
     id="SvgjsLine1114" />
  <path
     style="stroke:#eeeeee;stroke-width:0.75"
     d="m 41,192 13.659523,6.19818"
     id="SvgjsLine1115" />
  <path
     style="stroke:#eeeeee;stroke-width:0.75"
     d="m 41,192 13.784866,8.12265"
     id="SvgjsLine1116" />
  <path
     style="stroke:#eeeeee;stroke-width:0.75"
     d="m 41,192 12.040676,8.94551"
     id="SvgjsLine1117" />
  <path
     style="stroke:#eeeeee;stroke-width:0.75"
     d="m 41,192 11.021614,10.17468"
     id="SvgjsLine1118" />
  <path
     style="stroke:#eeeeee;stroke-width:0.75"
     d="m 41,192 9.87767,11.28856"
     id="SvgjsLine1119" />
  <path
     style="stroke:#eeeeee;stroke-width:0.75"
     d="m 41,192 8.621811,12.27454"
     id="SvgjsLine1120" />
  <path
     style="stroke:#eeeeee;stroke-width:0.75"
     d="m 41,192 7.752815,13.99622"
     id="SvgjsLine1121" />
  <path
     style="stroke:#eeeeee;stroke-width:0.75"
     d="m 41,192 -8.486736,13.56375"
     id="SvgjsLine1122" />
  <path
     style="stroke:#eeeeee;stroke-width:0.75"
     d="m 41,192 -9.262869,11.79828"
     id="SvgjsLine1123" />
  <path
     style="stroke:#eeeeee;stroke-width:0.75"
     d="M 41,192 30.535526,202.74686"
     id="SvgjsLine1124" />
  <path
     style="stroke:#eeeeee;stroke-width:0.75"
     d="m 41,192 -11.54751,9.57367"
     id="SvgjsLine1125" />
  <path
     style="stroke:#eeeeee;stroke-width:0.75"
     d="m 41,192 -12.499708,8.29201"
     id="SvgjsLine1126" />
  <path
     style="stroke:#eeeeee;stroke-width:0.75"
     d="m 41,192 -14.197634,7.37749"
     id="SvgjsLine1127" />
  <path
     style="stroke:#eeeeee;stroke-width:0.75"
     d="m 41,192 -13.970043,5.4624"
     id="SvgjsLine1128" />
  <path
     style="stroke:#eeeeee;stroke-width:0.75"
     d="m 41,192 -14.471518,3.94653"
     id="SvgjsLine1129" />
  <path
     style="stroke:#eeeeee;stroke-width:0.75"
     d="m 41,192 -14.809025,2.38596"
     id="SvgjsLine1130" />
  <path
     style="stroke:#eeeeee;stroke-width:0.75"
     d="m 41,192 -14.978741,0.79834"
     id="SvgjsLine1131" />
  <path
     style="stroke:#eeeeee;stroke-width:0.75"
     d="M 41,192 25.022676,191.14845"
     id="SvgjsLine1132" />
  <path
     style="stroke:#eeeeee;stroke-width:0.75"
     d="M 41,192 26.190975,189.61404"
     id="SvgjsLine1133" />
  <path
     style="stroke:#eeeeee;stroke-width:0.75"
     d="M 41,192 26.528482,188.05347"
     id="SvgjsLine1134" />
  <path
     style="stroke:#eeeeee;stroke-width:0.75"
     d="M 41,192 27.029957,186.5376"
     id="SvgjsLine1135" />
  <path
     style="stroke:#eeeeee;stroke-width:0.75"
     d="M 41,192 27.689718,185.08362"
     id="SvgjsLine1136" />
  <path
     style="stroke:#eeeeee;stroke-width:0.75"
     d="M 41,192 27.666977,183.1552"
     id="SvgjsLine1137" />
  <path
     style="stroke:#eeeeee;stroke-width:0.75"
     d="M 41,192 29.45249,182.42633"
     id="SvgjsLine1138" />
  <path
     style="stroke:#eeeeee;stroke-width:0.75"
     d="M 41,192 30.535526,181.25314"
     id="SvgjsLine1139" />
  <path
     style="stroke:#eeeeee;stroke-width:0.75"
     d="M 41,192 31.737131,180.20172"
     id="SvgjsLine1140" />
  <path
     style="stroke:#eeeeee;stroke-width:0.75"
     d="M 41,192 33.043686,179.28398"
     id="SvgjsLine1141" />
  <path
     style="stroke:#eeeeee;stroke-width:0.75"
     d="M 41,192 34.003082,177.61101"
     id="SvgjsLine1142" />
  <path
     style="stroke:#eeeeee;stroke-width:0.75"
     d="M 41,192 35.911419,177.8895"
     id="SvgjsLine1143" />
  <path
     style="stroke:#eeeeee;stroke-width:0.75"
     d="M 41,192 37.440098,177.42856"
     id="SvgjsLine1144" />
  <path
     style="stroke:#eeeeee;stroke-width:0.75"
     d="M 41,192 39.009117,177.13271"
     id="SvgjsLine1145" />
  <path
     style="stroke:#eeeeee;stroke-width:0.75"
     d="M 41,192 40.600693,177.00531"
     id="SvgjsLine1146" />
  <path
     style="stroke:#eeeeee;stroke-width:0.75"
     d="m 41,192 1.276577,-15.94899"
     id="SvgjsLine1147" />
  <path
     style="stroke:#eeeeee;stroke-width:0.75"
     d="m 41,192 2.779331,-14.74026"
     id="SvgjsLine1148" />
  <path
     style="stroke:#eeeeee;stroke-width:0.75"
     d="m 41,192 4.330379,-14.36133"
     id="SvgjsLine1149" />
  <path
     style="stroke:#eeeeee;stroke-width:0.75"
     d="m 41,192 5.832363,-13.81969"
     id="SvgjsLine1150" />
  <path
     style="stroke:#eeeeee;stroke-width:0.75"
     d="m 41,192 7.268265,-13.12144"
     id="SvgjsLine1151" />
  <path
     style="stroke:#eeeeee;stroke-width:0.75"
     d="m 41,192 9.196598,-13.09285"
     id="SvgjsLine1152" />
  <path
     style="stroke:#eeeeee;stroke-width:0.75"
     d="m 41,192 9.87767,-11.28856"
     id="SvgjsLine1153" />
  <path
     style="stroke:#eeeeee;stroke-width:0.75"
     d="M 41,192 52.021614,181.82532"
     id="SvgjsLine1154" />
  <path
     style="stroke:#eeeeee;stroke-width:0.75"
     d="m 41,192 12.040676,-8.94551"
     id="SvgjsLine1155" />
  <path
     style="stroke:#eeeeee;stroke-width:0.75"
     d="m 41,192 12.923309,-7.61499"
     id="SvgjsLine1156" />
  <path
     style="stroke:#eeeeee;stroke-width:0.75"
     d="m 41,192 14.570156,-6.61139"
     id="SvgjsLine1157" />
  <path
     style="stroke:#eeeeee;stroke-width:0.75"
     d="m 41,192 14.240963,-4.71115"
     id="SvgjsLine1158" />
  <path
     style="stroke:#eeeeee;stroke-width:0.75"
     d="m 41,192 14.661053,-3.17075"
     id="SvgjsLine1159" />
  <path
     style="stroke:#eeeeee;stroke-width:0.75"
     d="m 41,192 14.915024,-1.59441"
     id="SvgjsLine1160" />
  <path
     style="stroke:#eeeeee;stroke-width:0.75"
     d="M 41,192 H 56"
     id="SvgjsLine1161" />
  <path
     style="fill:#000000;stroke:#eeeeee;stroke-width:0.75"
     d="M 54,192 A 13,13 0 0 1 41,205 13,13 0 0 1 28,192 13,13 0 0 1 41,179 13,13 0 0 1 54,192 Z"
     id="SvgjsCircle1162" />
  <path
     style="stroke:#eeeeee;stroke-width:0.75"
     d="M 41,242 H 57"
     id="SvgjsLine1163" />
  <path
     style="stroke:#eeeeee;stroke-width:0.75"
     d="m 41,242 14.915024,1.59441"
     id="SvgjsLine1164" />
  <path
     style="stroke:#eeeeee;stroke-width:0.75"
     d="m 41,242 14.661053,3.17075"
     id="SvgjsLine1165" />
  <path
     style="stroke:#eeeeee;stroke-width:0.75"
     d="m 41,242 14.240963,4.71115"
     id="SvgjsLine1166" />
  <path
     style="stroke:#eeeeee;stroke-width:0.75"
     d="m 41,242 13.659523,6.19818"
     id="SvgjsLine1167" />
  <path
     style="stroke:#eeeeee;stroke-width:0.75"
     d="m 41,242 13.784866,8.12265"
     id="SvgjsLine1168" />
  <path
     style="stroke:#eeeeee;stroke-width:0.75"
     d="m 41,242 12.040676,8.94551"
     id="SvgjsLine1169" />
  <path
     style="stroke:#eeeeee;stroke-width:0.75"
     d="m 41,242 11.021614,10.17468"
     id="SvgjsLine1170" />
  <path
     style="stroke:#eeeeee;stroke-width:0.75"
     d="m 41,242 9.87767,11.28856"
     id="SvgjsLine1171" />
  <path
     style="stroke:#eeeeee;stroke-width:0.75"
     d="m 41,242 8.621811,12.27454"
     id="SvgjsLine1172" />
  <path
     style="stroke:#eeeeee;stroke-width:0.75"
     d="m 41,242 7.752815,13.99622"
     id="SvgjsLine1173" />
  <path
     style="stroke:#eeeeee;stroke-width:0.75"
     d="m 41,242 -8.486736,13.56375"
     id="SvgjsLine1174" />
  <path
     style="stroke:#eeeeee;stroke-width:0.75"
     d="m 41,242 -9.262869,11.79828"
     id="SvgjsLine1175" />
  <path
     style="stroke:#eeeeee;stroke-width:0.75"
     d="M 41,242 30.535526,252.74686"
     id="SvgjsLine1176" />
  <path
     style="stroke:#eeeeee;stroke-width:0.75"
     d="m 41,242 -11.54751,9.57367"
     id="SvgjsLine1177" />
  <path
     style="stroke:#eeeeee;stroke-width:0.75"
     d="m 41,242 -12.499708,8.29201"
     id="SvgjsLine1178" />
  <path
     style="stroke:#eeeeee;stroke-width:0.75"
     d="m 41,242 -14.197634,7.37749"
     id="SvgjsLine1179" />
  <path
     style="stroke:#eeeeee;stroke-width:0.75"
     d="m 41,242 -13.970043,5.4624"
     id="SvgjsLine1180" />
  <path
     style="stroke:#eeeeee;stroke-width:0.75"
     d="m 41,242 -14.471518,3.94653"
     id="SvgjsLine1181" />
  <path
     style="stroke:#eeeeee;stroke-width:0.75"
     d="m 41,242 -14.809025,2.38596"
     id="SvgjsLine1182" />
  <path
     style="stroke:#eeeeee;stroke-width:0.75"
     d="m 41,242 -14.978741,0.79834"
     id="SvgjsLine1183" />
  <path
     style="stroke:#eeeeee;stroke-width:0.75"
     d="M 41,242 25.022676,241.14845"
     id="SvgjsLine1184" />
  <path
     style="stroke:#eeeeee;stroke-width:0.75"
     d="M 41,242 26.190975,239.61404"
     id="SvgjsLine1185" />
  <path
     style="stroke:#eeeeee;stroke-width:0.75"
     d="M 41,242 26.528482,238.05347"
     id="SvgjsLine1186" />
  <path
     style="stroke:#eeeeee;stroke-width:0.75"
     d="M 41,242 27.029957,236.5376"
     id="SvgjsLine1187" />
  <path
     style="stroke:#eeeeee;stroke-width:0.75"
     d="M 41,242 27.689718,235.08362"
     id="SvgjsLine1188" />
  <path
     style="stroke:#eeeeee;stroke-width:0.75"
     d="M 41,242 27.666977,233.1552"
     id="SvgjsLine1189" />
  <path
     style="stroke:#eeeeee;stroke-width:0.75"
     d="M 41,242 29.45249,232.42633"
     id="SvgjsLine1190" />
  <path
     style="stroke:#eeeeee;stroke-width:0.75"
     d="M 41,242 30.535526,231.25314"
     id="SvgjsLine1191" />
  <path
     style="stroke:#eeeeee;stroke-width:0.75"
     d="M 41,242 31.737131,230.20172"
     id="SvgjsLine1192" />
  <path
     style="stroke:#eeeeee;stroke-width:0.75"
     d="M 41,242 33.043686,229.28398"
     id="SvgjsLine1193" />
  <path
     style="stroke:#eeeeee;stroke-width:0.75"
     d="M 41,242 34.003082,227.61101"
     id="SvgjsLine1194" />
  <path
     style="stroke:#eeeeee;stroke-width:0.75"
     d="M 41,242 35.911419,227.8895"
     id="SvgjsLine1195" />
  <path
     style="stroke:#eeeeee;stroke-width:0.75"
     d="M 41,242 37.440098,227.42856"
     id="SvgjsLine1196" />
  <path
     style="stroke:#eeeeee;stroke-width:0.75"
     d="M 41,242 39.009117,227.13271"
     id="SvgjsLine1197" />
  <path
     style="stroke:#eeeeee;stroke-width:0.75"
     d="M 41,242 40.600693,227.00531"
     id="SvgjsLine1198" />
  <path
     style="stroke:#eeeeee;stroke-width:0.75"
     d="m 41,242 1.276577,-15.94899"
     id="SvgjsLine1199" />
  <path
     style="stroke:#eeeeee;stroke-width:0.75"
     d="m 41,242 2.779331,-14.74026"
     id="SvgjsLine1200" />
  <path
     style="stroke:#eeeeee;stroke-width:0.75"
     d="m 41,242 4.330379,-14.36133"
     id="SvgjsLine1201" />
  <path
     style="stroke:#eeeeee;stroke-width:0.75"
     d="m 41,242 5.832363,-13.81969"
     id="SvgjsLine1202" />
  <path
     style="stroke:#eeeeee;stroke-width:0.75"
     d="m 41,242 7.268265,-13.12144"
     id="SvgjsLine1203" />
  <path
     style="stroke:#eeeeee;stroke-width:0.75"
     d="m 41,242 9.196598,-13.09285"
     id="SvgjsLine1204" />
  <path
     style="stroke:#eeeeee;stroke-width:0.75"
     d="m 41,242 9.87767,-11.28856"
     id="SvgjsLine1205" />
  <path
     style="stroke:#eeeeee;stroke-width:0.75"
     d="M 41,242 52.021614,231.82532"
     id="SvgjsLine1206" />
  <path
     style="stroke:#eeeeee;stroke-width:0.75"
     d="m 41,242 12.040676,-8.94551"
     id="SvgjsLine1207" />
  <path
     style="stroke:#eeeeee;stroke-width:0.75"
     d="m 41,242 12.923309,-7.61499"
     id="SvgjsLine1208" />
  <path
     style="stroke:#eeeeee;stroke-width:0.75"
     d="m 41,242 14.570156,-6.61139"
     id="SvgjsLine1209" />
  <path
     style="stroke:#eeeeee;stroke-width:0.75"
     d="m 41,242 14.240963,-4.71115"
     id="SvgjsLine1210" />
  <path
     style="stroke:#eeeeee;stroke-width:0.75"
     d="m 41,242 14.661053,-3.17075"
     id="SvgjsLine1211" />
  <path
     style="stroke:#eeeeee;stroke-width:0.75"
     d="m 41,242 14.915024,-1.59441"
     id="SvgjsLine1212" />
  <path
     style="stroke:#eeeeee;stroke-width:0.75"
     d="M 41,242 H 56"
     id="SvgjsLine1213" />
  <path
     style="fill:#000000;stroke:#eeeeee;stroke-width:0.75"
     d="M 54,242 A 13,13 0 0 1 41,255 13,13 0 0 1 28,242 13,13 0 0 1 41,229 13,13 0 0 1 54,242 Z"
     id="SvgjsCircle1214" />
</svg>
