<?xml version="1.0" encoding="UTF-8" standalone="no"?>
<svg
   xmlns:osb="http://www.openswatchbook.org/uri/2009/osb"
   xmlns:dc="http://purl.org/dc/elements/1.1/"
   xmlns:cc="http://creativecommons.org/ns#"
   xmlns:rdf="http://www.w3.org/1999/02/22-rdf-syntax-ns#"
   xmlns:svg="http://www.w3.org/2000/svg"
   xmlns="http://www.w3.org/2000/svg"
   xmlns:xlink="http://www.w3.org/1999/xlink"
   xmlns:sodipodi="http://sodipodi.sourceforge.net/DTD/sodipodi-0.dtd"
   xmlns:inkscape="http://www.inkscape.org/namespaces/inkscape"
   height="380"
   style="zoom: 8;"
   cursor="default"
   id="SvgjsSvg1006"
   sodipodi:docname="Tsunami.svg"
   inkscape:version="0.92.2 5c3e80d, 2017-08-06"
   width="180"
   version="1.1">
  <metadata
     id="metadata7215">
    <rdf:RDF>
      <cc:Work
         rdf:about="">
        <dc:format>image/svg+xml</dc:format>
        <dc:type
           rdf:resource="http://purl.org/dc/dcmitype/StillImage" />
        <dc:title />
      </cc:Work>
    </rdf:RDF>
  </metadata>
  <sodipodi:namedview
     borderopacity="1"
     inkscape:zoom="1.4756202"
     inkscape:cy="162.3527"
     gridtolerance="10"
     inkscape:cx="62.442896"
     inkscape:window-height="1006"
     inkscape:measure-start="21.6858,252.097"
     inkscape:pagecheckerboard="true"
     inkscape:window-width="901"
     guidetolerance="10"
     id="namedview7213"
     showgrid="false"
     inkscape:pageopacity="0"
     inkscape:pageshadow="2"
     bordercolor="#666666"
     inkscape:current-layer="SvgjsSvg1006"
     inkscape:window-maximized="0"
     inkscape:window-y="11"
     inkscape:measure-end="21.0081,301.907"
     objecttolerance="10"
     pagecolor="#ffffff"
     inkscape:window-x="496"
     visibility="visible" />
  <defs
     id="SvgjsDefs1007">
    <linearGradient
       inkscape:collect="always"
       id="linearGradient838">
      <stop
         style="stop-color:#ff8600;stop-opacity:1;"
         offset="0"
         id="stop834" />
      <stop
         style="stop-color:#ff8600;stop-opacity:0;"
         offset="1"
         id="stop836" />
    </linearGradient>
    <linearGradient
       id="linearGradient2396"
       osb:paint="gradient">
      <stop
         style="stop-color:#ff8f00;stop-opacity:1;"
         offset="0"
         id="stop2392" />
      <stop
         style="stop-color:#ff8f00;stop-opacity:0;"
         offset="1"
         id="stop2394" />
    </linearGradient>
    <linearGradient
       id="linearGradient2384"
       osb:paint="solid">
      <stop
         style="stop-color:#ff8f00;stop-opacity:1;"
         offset="0"
         id="stop2382" />
    </linearGradient>
    <linearGradient
       id="linearGradient898"
       osb:paint="solid">
      <stop
         style="stop-color:#ff8f00;stop-opacity:1;"
         offset="0"
         id="stop896" />
    </linearGradient>
    <linearGradient
       inkscape:collect="always"
       id="linearGradient915">
      <stop
         style="stop-color:#1b1b1b;stop-opacity:1;"
         offset="0"
         id="stop911" />
      <stop
         style="stop-color:#1d1d1d;stop-opacity:1;"
         offset="1"
         id="stop913" />
    </linearGradient>
    <linearGradient
       inkscape:collect="always"
       xlink:href="#linearGradient915"
       id="linearGradient919"
       x1="0"
       y1="190"
       x2="30"
       y2="190"
       gradientUnits="userSpaceOnUse" />
    <style
       id="OpenSans_Google_Webfont_import">@import url(https://fonts.googleapis.com/css?family=Open+Sans);</style>
    <style
       id="style31">@import url(https://fonts.googleapis.com/css?family='Open Sans');</style>
    <style
       id="style33">@import url(https://fonts.googleapis.com/css?family='Open Sans');</style>
    <style
       id="style35">@import url(https://fonts.googleapis.com/css?family='Open Sans');</style>
    <style
       id="style22">@import url(https://fonts.googleapis.com/css?family='Open Sans');</style>
    <style
       id="style24">@import url(https://fonts.googleapis.com/css?family='Open Sans');</style>
    <style
       id="style26">@import url(https://fonts.googleapis.com/css?family='Open Sans');</style>
    <linearGradient
       inkscape:collect="always"
       xlink:href="#linearGradient838"
       id="linearGradient840"
       x1="19.991594"
       y1="333.23999"
       x2="27.784927"
       y2="400.33044"
       gradientUnits="userSpaceOnUse"
       gradientTransform="translate(68)" />
  </defs>
  <path
     d="M0,0 H180 V380 H0 Z"
     id="SvgjsRect1008"
     style="fill:url(#linearGradient919);fill-opacity:1;stroke:none;stroke-opacity:1"
     visibility="visible" />
  <path
     d="m 109.00491,342.87682 c -1.49264,-4.60366 -4.1042,-9.04635 -7.1875,-12.89608 -0.42605,-0.52359 -1.96955,-1.90716 -1.96955,-1.90716 1.32237,3.05255 1.23834,6.21832 0.57347,9.07712 -3.605177,-7.34797 -9.922898,-16.54618 -19.424908,-21.40183 10e-7,0 6.324356,14.26788 -2.700752,30.01166 -0.497545,-2.12189 -1.003936,-5.1705 -0.731207,-8.19293 10e-7,0 -1.141036,0.86654 -1.272978,0.99218 -1.017942,0.9628 -1.870772,2.08918 -2.621881,3.25089 -2.73908,4.35956 -4.183067,9.62692 -3.825571,14.92499 0.133416,2.0047 0.510813,4.0068 1.021626,5.97879 1.584775,6.31451 5.226807,12.93469 10.628308,15.9689 -1.699762,-2.85425 -2.736868,-6.57044 -2.736868,-10.64465 -10e-7,-1.68924 0.177641,-3.32938 0.513762,-4.86154 0.03833,0.67807 0.151844,1.37704 0.339804,2.08978 0.725312,2.74688 2.396326,4.93484 4.292896,5.93557 -0.857252,-2.21868 -1.166836,-5.15213 -0.706883,-8.29235 0.333171,-2.31366 1.028259,-4.42438 1.973965,-6.15747 1.048162,-1.96479 2.398537,-3.44327 3.85358,-4.17762 -0.605899,1.02625 -1.059955,2.35291 -1.294355,3.85038 -0.0914,0.57528 -0.145208,1.18005 -0.16511,1.8077 -0.0088,0.14203 -0.0088,0.28669 -0.0088,0.44178 0,0.38681 0.01327,0.77295 0.04939,1.1473 0.130466,1.78089 0.571992,3.37195 1.228015,4.60435 0.03612,0.0674 0.06929,0.12765 0.103932,0.18917 0.324325,0.54322 0.859465,0.91953 1.474209,0.9935 0,0 0,0 0.0066,0 0.06045,0.005 0.12973,0.01 0.197544,0.01 0.01916,0 0.04349,0 0.06045,-0.005 0.928751,-0.0249 1.699762,-0.76248 1.907625,-1.73899 0.03243,-0.15774 0.05455,-0.32858 0.05455,-0.49676 0,-0.013 0,-0.0255 0,-0.036 0.05528,-0.70554 0.0059,-1.46738 -0.144472,-2.25406 -0.08034,-0.41888 -0.180592,-0.81943 -0.314009,-1.2023 -0.163637,-0.49808 -0.363392,-0.94968 -0.59263,-1.37116 0.379608,0.0693 0.762165,0.18064 1.12998,0.34818 1.404184,0.60937 2.66021,1.85354 3.529257,3.48846 0.14447,0.27881 0.27936,0.56745 0.398035,0.86982 0.251352,0.61325 0.445948,1.26446 0.578627,1.95694 0.06266,0.341 0.109828,0.67083 0.137838,1.00463 0.382557,-0.7193 0.729731,-1.50924 1.029001,-2.34765 0.57494,-1.57407 0.90811,-3.10166 1.00983,-4.4401 1.08575,2.50214 1.7145,5.46698 1.7145,8.64258 0,4.14487 -1.07322,7.91278 -2.82679,10.78861 0.90074,-0.45618 1.77126,-0.98502 2.58723,-1.58844 3.05162,-2.20825 5.20322,-5.62864 6.59414,-9.33368 0.78354,-2.02765 1.55308,-4.29023 1.92458,-6.42319 1.09976,-6.18427 1.42556,-12.7403 -0.38846,-18.60455 z"
     id="path2"
     style="visibility:visible;fill:url(#linearGradient840);fill-opacity:1;stroke:none;stroke-width:0.69457018;stroke-opacity:1"
     inkscape:connector-curvature="0"
     visibility="visible" />
  <g
     aria-label="TSUNAMI"
     style="font-size:12px;font-family:'Open Sans';text-anchor:middle;fill:#eeeeee;stroke:none;stroke-width:1px;text-rendering:geometricPrecision"
     id="text5">
    <path
       d="m 62.554687,16.251953 h 7.400391 v 0.996094 H 66.849609 V 25 h -1.189453 v -7.751953 h -3.105469 z"
       style="font-size:12px;font-family:'Open Sans';text-anchor:middle;fill:#eeeeee;stroke:none;stroke-width:1px;text-rendering:geometricPrecision"
       id="path67" />
    <path
       d="m 76.347656,16.539062 v 1.154297 q -0.673828,-0.322265 -1.271484,-0.480468 -0.597656,-0.158204 -1.154297,-0.158204 -0.966797,0 -1.494141,0.375 -0.521484,0.375 -0.521484,1.066407 0,0.580078 0.345703,0.878906 0.351563,0.292969 1.324219,0.474609 l 0.714844,0.146485 q 1.324218,0.251953 1.951171,0.890625 0.632813,0.632812 0.632813,1.699218 0,1.271485 -0.855469,1.927735 -0.849609,0.65625 -2.496094,0.65625 -0.621093,0 -1.324218,-0.140625 -0.697266,-0.140625 -1.447266,-0.416016 v -1.21875 q 0.720703,0.404297 1.412109,0.609375 0.691407,0.205078 1.359375,0.205078 1.013672,0 1.564454,-0.398437 0.550781,-0.398438 0.550781,-1.136719 0,-0.644531 -0.398438,-1.007812 -0.392578,-0.363282 -1.294922,-0.544922 l -0.720703,-0.140625 q -1.324218,-0.263672 -1.916015,-0.826172 -0.591797,-0.5625 -0.591797,-1.564453 0,-1.160157 0.814453,-1.828125 0.820312,-0.667969 2.255859,-0.667969 0.615235,0 1.253907,0.111328 0.638671,0.111328 1.30664,0.333984 z"
       style="font-size:12px;font-family:'Open Sans';text-anchor:middle;fill:#eeeeee;stroke:none;stroke-width:1px;text-rendering:geometricPrecision"
       id="path69" />
    <path
       d="m 78.585937,16.251953 h 1.189454 v 5.314453 q 0,1.40625 0.509765,2.027344 0.509766,0.615234 1.652344,0.615234 1.136719,0 1.646484,-0.615234 0.509766,-0.621094 0.509766,-2.027344 v -5.314453 h 1.189453 v 5.460938 q 0,1.710937 -0.849609,2.583984 -0.84375,0.873047 -2.496094,0.873047 -1.658203,0 -2.507813,-0.873047 -0.84375,-0.873047 -0.84375,-2.583984 z"
       style="font-size:12px;font-family:'Open Sans';text-anchor:middle;fill:#eeeeee;stroke:none;stroke-width:1px;text-rendering:geometricPrecision"
       id="path71" />
    <path
       d="m 87.509766,16.251953 h 1.59375 l 3.878906,7.318359 v -7.318359 h 1.148437 V 25 h -1.59375 L 88.658203,17.681641 V 25 h -1.148437 z"
       style="font-size:12px;font-family:'Open Sans';text-anchor:middle;fill:#eeeeee;stroke:none;stroke-width:1px;text-rendering:geometricPrecision"
       id="path73" />
    <path
       d="m 99.410156,17.417969 -1.605469,4.353515 h 3.216793 z m -0.667969,-1.166016 h 1.341793 L 103.41797,25 h -1.23047 l -0.79687,-2.244141 H 97.447266 L 96.650391,25 h -1.248047 z"
       style="font-size:12px;font-family:'Open Sans';text-anchor:middle;fill:#eeeeee;stroke:none;stroke-width:1px;text-rendering:geometricPrecision"
       id="path75" />
    <path
       d="m 104.68945,16.251953 h 1.76368 l 2.23242,5.953125 2.24414,-5.953125 h 1.76367 V 25 h -1.1543 v -7.681641 l -2.25586,6 h -1.18945 l -2.25586,-6 V 25 h -1.14844 z"
       style="font-size:12px;font-family:'Open Sans';text-anchor:middle;fill:#eeeeee;stroke:none;stroke-width:1px;text-rendering:geometricPrecision"
       id="path77" />
    <path
       d="m 115.04883,16.251953 h 1.18359 V 25 h -1.18359 z"
       style="font-size:12px;font-family:'Open Sans';text-anchor:middle;fill:#eeeeee;stroke:none;stroke-width:1px;text-rendering:geometricPrecision"
       id="path79" />
  </g>
  <g
     aria-label="CV"
     style="font-size:8px;font-family:'Open Sans';text-anchor:middle;fill:#eeeeee;stroke:none;stroke-width:1px;text-rendering:geometricPrecision"
     id="text7">
    <path
       d="m 22.121094,54.617187 v 0.832032 q -0.398438,-0.371094 -0.851563,-0.554688 -0.449219,-0.183594 -0.957031,-0.183594 -1,0 -1.53125,0.613282 -0.53125,0.609375 -0.53125,1.765625 0,1.152343 0.53125,1.765625 0.53125,0.609375 1.53125,0.609375 0.507812,0 0.957031,-0.183594 0.453125,-0.183594 0.851563,-0.554688 v 0.824219 q -0.414063,0.28125 -0.878907,0.421875 -0.460937,0.140625 -0.976562,0.140625 -1.324219,0 -2.085938,-0.808594 -0.761718,-0.8125 -0.761718,-2.214843 0,-1.40625 0.761718,-2.214844 0.761719,-0.8125 2.085938,-0.8125 0.523437,0 0.984375,0.140625 0.464844,0.136719 0.871094,0.414062 z"
       style="font-size:8px;font-family:'Open Sans';text-anchor:middle;fill:#eeeeee;stroke:none;stroke-width:1px;text-rendering:geometricPrecision"
       id="path82" />
    <path
       d="M 24.851562,60 22.625,54.167969 h 0.824219 l 1.847656,4.910156 1.851562,-4.910156 H 27.96875 L 25.746094,60 Z"
       style="font-size:8px;font-family:'Open Sans';text-anchor:middle;fill:#eeeeee;stroke:none;stroke-width:1px;text-rendering:geometricPrecision"
       id="path84" />
  </g>
  <g
     aria-label="CV"
     style="font-size:8px;font-family:'Open Sans';text-anchor:middle;fill:#eeeeee;stroke:none;stroke-width:1px;text-rendering:geometricPrecision"
     id="text29">
    <path
       d="m 22.121094,89.617187 v 0.832032 q -0.398438,-0.371094 -0.851563,-0.554688 -0.449219,-0.183594 -0.957031,-0.183594 -1,0 -1.53125,0.613282 -0.53125,0.609375 -0.53125,1.765625 0,1.152343 0.53125,1.765625 0.53125,0.609375 1.53125,0.609375 0.507812,0 0.957031,-0.183594 0.453125,-0.183594 0.851563,-0.554688 v 0.824219 q -0.414063,0.28125 -0.878907,0.421875 -0.460937,0.140625 -0.976562,0.140625 -1.324219,0 -2.085938,-0.808594 -0.761718,-0.8125 -0.761718,-2.214843 0,-1.40625 0.761718,-2.214844 0.761719,-0.8125 2.085938,-0.8125 0.523437,0 0.984375,0.140625 0.464844,0.136719 0.871094,0.414062 z"
       style="font-size:8px;font-family:'Open Sans';text-anchor:middle;fill:#eeeeee;stroke:none;stroke-width:1px;text-rendering:geometricPrecision"
       id="path87" />
    <path
       d="M 24.851562,95 22.625,89.167969 h 0.824219 l 1.847656,4.910156 1.851562,-4.910156 H 27.96875 L 25.746094,95 Z"
       style="font-size:8px;font-family:'Open Sans';text-anchor:middle;fill:#eeeeee;stroke:none;stroke-width:1px;text-rendering:geometricPrecision"
       id="path89" />
  </g>
  <g
     aria-label="CV"
     style="font-size:8px;font-family:'Open Sans';text-anchor:middle;fill:#eeeeee;stroke:none;stroke-width:1px;text-rendering:geometricPrecision"
     id="text31">
    <path
       d="m 22.121094,124.61719 v 0.83203 q -0.398438,-0.37109 -0.851563,-0.55469 -0.449219,-0.18359 -0.957031,-0.18359 -1,0 -1.53125,0.61328 -0.53125,0.60937 -0.53125,1.76562 0,1.15235 0.53125,1.76563 0.53125,0.60937 1.53125,0.60937 0.507812,0 0.957031,-0.18359 0.453125,-0.18359 0.851563,-0.55469 v 0.82422 q -0.414063,0.28125 -0.878907,0.42188 -0.460937,0.14062 -0.976562,0.14062 -1.324219,0 -2.085938,-0.80859 -0.761718,-0.8125 -0.761718,-2.21485 0,-1.40625 0.761718,-2.21484 0.761719,-0.8125 2.085938,-0.8125 0.523437,0 0.984375,0.14063 0.464844,0.13671 0.871094,0.41406 z"
       style="font-size:8px;font-family:'Open Sans';text-anchor:middle;fill:#eeeeee;stroke:none;stroke-width:1px;text-rendering:geometricPrecision"
       id="path92" />
    <path
       d="M 24.851562,130 22.625,124.16797 h 0.824219 l 1.847656,4.91015 1.851562,-4.91015 H 27.96875 L 25.746094,130 Z"
       style="font-size:8px;font-family:'Open Sans';text-anchor:middle;fill:#eeeeee;stroke:none;stroke-width:1px;text-rendering:geometricPrecision"
       id="path94" />
  </g>
  <g
     aria-label="CV"
     style="font-size:8px;font-family:'Open Sans';text-anchor:middle;fill:#eeeeee;stroke:none;stroke-width:1px;text-rendering:geometricPrecision"
     id="text33">
    <path
       d="m 22.121094,159.61719 v 0.83203 q -0.398438,-0.3711 -0.851563,-0.55469 -0.449219,-0.18359 -0.957031,-0.18359 -1,0 -1.53125,0.61328 -0.53125,0.60937 -0.53125,1.76562 0,1.15235 0.53125,1.76563 0.53125,0.60937 1.53125,0.60937 0.507812,0 0.957031,-0.18359 0.453125,-0.18359 0.851563,-0.55469 v 0.82422 q -0.414063,0.28125 -0.878907,0.42188 -0.460937,0.14062 -0.976562,0.14062 -1.324219,0 -2.085938,-0.80859 -0.761718,-0.8125 -0.761718,-2.21485 0,-1.40625 0.761718,-2.21484 0.761719,-0.8125 2.085938,-0.8125 0.523437,0 0.984375,0.14062 0.464844,0.13672 0.871094,0.41407 z"
       style="font-size:8px;font-family:'Open Sans';text-anchor:middle;fill:#eeeeee;stroke:none;stroke-width:1px;text-rendering:geometricPrecision"
       id="path97" />
    <path
       d="M 24.851562,165 22.625,159.16797 h 0.824219 l 1.847656,4.91015 1.851562,-4.91015 H 27.96875 L 25.746094,165 Z"
       style="font-size:8px;font-family:'Open Sans';text-anchor:middle;fill:#eeeeee;stroke:none;stroke-width:1px;text-rendering:geometricPrecision"
       id="path99" />
  </g>
  <g
     aria-label="CV"
     style="font-size:8px;font-family:'Open Sans';text-anchor:middle;fill:#eeeeee;stroke:none;stroke-width:1px;text-rendering:geometricPrecision"
     id="text35">
    <path
       d="m 22.121094,194.61719 v 0.83203 q -0.398438,-0.3711 -0.851563,-0.55469 -0.449219,-0.18359 -0.957031,-0.18359 -1,0 -1.53125,0.61328 -0.53125,0.60937 -0.53125,1.76562 0,1.15235 0.53125,1.76563 0.53125,0.60937 1.53125,0.60937 0.507812,0 0.957031,-0.18359 0.453125,-0.18359 0.851563,-0.55469 v 0.82422 q -0.414063,0.28125 -0.878907,0.42188 -0.460937,0.14062 -0.976562,0.14062 -1.324219,0 -2.085938,-0.80859 -0.761718,-0.8125 -0.761718,-2.21485 0,-1.40625 0.761718,-2.21484 0.761719,-0.8125 2.085938,-0.8125 0.523437,0 0.984375,0.14062 0.464844,0.13672 0.871094,0.41407 z"
       style="font-size:8px;font-family:'Open Sans';text-anchor:middle;fill:#eeeeee;stroke:none;stroke-width:1px;text-rendering:geometricPrecision"
       id="path102" />
    <path
       d="M 24.851562,200 22.625,194.16797 h 0.824219 l 1.847656,4.91015 1.851562,-4.91015 H 27.96875 L 25.746094,200 Z"
       style="font-size:8px;font-family:'Open Sans';text-anchor:middle;fill:#eeeeee;stroke:none;stroke-width:1px;text-rendering:geometricPrecision"
       id="path104" />
  </g>
  <g
     aria-label="CV"
     style="font-size:8px;font-family:'Open Sans';text-anchor:middle;fill:#eeeeee;stroke:none;stroke-width:1px;text-rendering:geometricPrecision"
     id="text37">
    <path
       d="m 22.121094,229.61719 v 0.83203 q -0.398438,-0.3711 -0.851563,-0.55469 -0.449219,-0.18359 -0.957031,-0.18359 -1,0 -1.53125,0.61328 -0.53125,0.60937 -0.53125,1.76562 0,1.15235 0.53125,1.76563 0.53125,0.60937 1.53125,0.60937 0.507812,0 0.957031,-0.18359 0.453125,-0.18359 0.851563,-0.55469 v 0.82422 q -0.414063,0.28125 -0.878907,0.42188 -0.460937,0.14062 -0.976562,0.14062 -1.324219,0 -2.085938,-0.80859 -0.761718,-0.8125 -0.761718,-2.21485 0,-1.40625 0.761718,-2.21484 0.761719,-0.8125 2.085938,-0.8125 0.523437,0 0.984375,0.14062 0.464844,0.13672 0.871094,0.41407 z"
       style="font-size:8px;font-family:'Open Sans';text-anchor:middle;fill:#eeeeee;stroke:none;stroke-width:1px;text-rendering:geometricPrecision"
       id="path107" />
    <path
       d="M 24.851562,235 22.625,229.16797 h 0.824219 l 1.847656,4.91015 1.851562,-4.91015 H 27.96875 L 25.746094,235 Z"
       style="font-size:8px;font-family:'Open Sans';text-anchor:middle;fill:#eeeeee;stroke:none;stroke-width:1px;text-rendering:geometricPrecision"
       id="path109" />
  </g>
  <g
     aria-label="CV"
     style="font-size:8px;font-family:'Open Sans';text-anchor:middle;fill:#eeeeee;stroke:none;stroke-width:1px;text-rendering:geometricPrecision"
     id="text39">
    <path
       d="m 22.121094,264.61719 v 0.83203 q -0.398438,-0.3711 -0.851563,-0.55469 -0.449219,-0.18359 -0.957031,-0.18359 -1,0 -1.53125,0.61328 -0.53125,0.60937 -0.53125,1.76562 0,1.15235 0.53125,1.76563 0.53125,0.60937 1.53125,0.60937 0.507812,0 0.957031,-0.18359 0.453125,-0.18359 0.851563,-0.55469 v 0.82422 q -0.414063,0.28125 -0.878907,0.42188 -0.460937,0.14062 -0.976562,0.14062 -1.324219,0 -2.085938,-0.80859 -0.761718,-0.8125 -0.761718,-2.21485 0,-1.40625 0.761718,-2.21484 0.761719,-0.8125 2.085938,-0.8125 0.523437,0 0.984375,0.14062 0.464844,0.13672 0.871094,0.41407 z"
       style="font-size:8px;font-family:'Open Sans';text-anchor:middle;fill:#eeeeee;stroke:none;stroke-width:1px;text-rendering:geometricPrecision"
       id="path112" />
    <path
       d="M 24.851562,270 22.625,264.16797 h 0.824219 l 1.847656,4.91015 1.851562,-4.91015 H 27.96875 L 25.746094,270 Z"
       style="font-size:8px;font-family:'Open Sans';text-anchor:middle;fill:#eeeeee;stroke:none;stroke-width:1px;text-rendering:geometricPrecision"
       id="path114" />
  </g>
  <g
     aria-label="CV"
     style="font-size:8px;font-family:'Open Sans';text-anchor:middle;fill:#eeeeee;stroke:none;stroke-width:1px;text-rendering:geometricPrecision"
     id="text41">
    <path
       d="m 22.121094,299.61719 v 0.83203 q -0.398438,-0.3711 -0.851563,-0.55469 -0.449219,-0.18359 -0.957031,-0.18359 -1,0 -1.53125,0.61328 -0.53125,0.60937 -0.53125,1.76562 0,1.15235 0.53125,1.76563 0.53125,0.60937 1.53125,0.60937 0.507812,0 0.957031,-0.18359 0.453125,-0.18359 0.851563,-0.55469 v 0.82422 q -0.414063,0.28125 -0.878907,0.42188 -0.460937,0.14062 -0.976562,0.14062 -1.324219,0 -2.085938,-0.80859 -0.761718,-0.8125 -0.761718,-2.21485 0,-1.40625 0.761718,-2.21484 0.761719,-0.8125 2.085938,-0.8125 0.523437,0 0.984375,0.14062 0.464844,0.13672 0.871094,0.41407 z"
       style="font-size:8px;font-family:'Open Sans';text-anchor:middle;fill:#eeeeee;stroke:none;stroke-width:1px;text-rendering:geometricPrecision"
       id="path117" />
    <path
       d="M 24.851562,305 22.625,299.16797 h 0.824219 l 1.847656,4.91015 1.851562,-4.91015 H 27.96875 L 25.746094,305 Z"
       style="font-size:8px;font-family:'Open Sans';text-anchor:middle;fill:#eeeeee;stroke:none;stroke-width:1px;text-rendering:geometricPrecision"
       id="path119" />
  </g>
  <g
     aria-label="IN"
     style="font-size:8px;font-family:'Open Sans';text-anchor:middle;fill:#eeeeee;stroke:none;stroke-width:1px;text-rendering:geometricPrecision"
     id="text43">
    <path
       d="m 19.113281,334.16797 h 0.789063 V 340 h -0.789063 z"
       style="font-size:8px;font-family:'Open Sans';text-anchor:middle;fill:#eeeeee;stroke:none;stroke-width:1px;text-rendering:geometricPrecision"
       id="path122" />
    <path
       d="m 21.472656,334.16797 h 1.0625 l 2.585938,4.8789 v -4.8789 h 0.765625 V 340 h -1.0625 l -2.585938,-4.87891 V 340 h -0.765625 z"
       style="font-size:8px;font-family:'Open Sans';text-anchor:middle;fill:#eeeeee;stroke:none;stroke-width:1px;text-rendering:geometricPrecision"
       id="path124" />
  </g>
  <g
     aria-label="SHIFT"
     style="font-size:8px;font-family:'Open Sans';text-anchor:middle;fill:#eeeeee;stroke:none;stroke-width:1px;text-rendering:geometricPrecision"
     id="text45">
    <path
       d="m 60.367187,54.359375 v 0.769531 Q 59.917969,54.914062 59.519531,54.808594 59.121094,54.703125 58.75,54.703125 q -0.644531,0 -0.996094,0.25 -0.347656,0.25 -0.347656,0.710937 0,0.386719 0.230469,0.585938 0.234375,0.195312 0.882812,0.316406 l 0.476563,0.09766 q 0.882812,0.167969 1.300781,0.59375 0.421875,0.421875 0.421875,1.132813 0,0.847656 -0.570313,1.285156 -0.566406,0.4375 -1.664062,0.4375 -0.414063,0 -0.882813,-0.09375 -0.464843,-0.09375 -0.964843,-0.277344 v -0.8125 q 0.480468,0.269532 0.941406,0.40625 0.460937,0.136719 0.90625,0.136719 0.675781,0 1.042969,-0.265625 0.367187,-0.265625 0.367187,-0.757812 0,-0.429688 -0.265625,-0.671875 -0.261719,-0.242188 -0.863281,-0.363282 l -0.480469,-0.09375 q -0.882812,-0.175781 -1.277344,-0.550781 -0.394531,-0.375 -0.394531,-1.042969 0,-0.773437 0.542969,-1.21875 0.546875,-0.445312 1.503906,-0.445312 0.410156,0 0.835938,0.07422 0.425781,0.07422 0.871093,0.222656 z"
       style="font-size:8px;font-family:'Open Sans';text-anchor:middle;fill:#eeeeee;stroke:none;stroke-width:1px;text-rendering:geometricPrecision"
       id="path127" />
    <path
       d="m 61.949219,54.167969 h 0.789062 v 2.390625 h 2.867188 v -2.390625 h 0.789062 V 60 H 65.605469 V 57.222656 H 62.738281 V 60 h -0.789062 z"
       style="font-size:8px;font-family:'Open Sans';text-anchor:middle;fill:#eeeeee;stroke:none;stroke-width:1px;text-rendering:geometricPrecision"
       id="path129" />
    <path
       d="m 67.964844,54.167969 h 0.789062 V 60 h -0.789062 z"
       style="font-size:8px;font-family:'Open Sans';text-anchor:middle;fill:#eeeeee;stroke:none;stroke-width:1px;text-rendering:geometricPrecision"
       id="path131" />
    <path
       d="m 70.324219,54.167969 h 3.351562 v 0.664062 h -2.5625 v 1.71875 h 2.3125 v 0.664063 h -2.3125 V 60 h -0.789062 z"
       style="font-size:8px;font-family:'Open Sans';text-anchor:middle;fill:#eeeeee;stroke:none;stroke-width:1px;text-rendering:geometricPrecision"
       id="path133" />
    <path
       d="m 73.992187,54.167969 h 4.933594 v 0.664062 H 76.855469 V 60 H 76.0625 v -5.167969 h -2.070313 z"
       style="font-size:8px;font-family:'Open Sans';text-anchor:middle;fill:#eeeeee;stroke:none;stroke-width:1px;text-rendering:geometricPrecision"
       id="path135" />
  </g>
  <g
     aria-label="SHIFT"
     style="font-size:8px;font-family:'Open Sans';text-anchor:middle;fill:#eeeeee;stroke:none;stroke-width:1px;text-rendering:geometricPrecision"
     id="text47">
    <path
       d="m 60.367187,89.359375 v 0.769531 Q 59.917969,89.914062 59.519531,89.808594 59.121094,89.703125 58.75,89.703125 q -0.644531,0 -0.996094,0.25 -0.347656,0.25 -0.347656,0.710937 0,0.386719 0.230469,0.585938 0.234375,0.195312 0.882812,0.316406 l 0.476563,0.09766 q 0.882812,0.167969 1.300781,0.59375 0.421875,0.421875 0.421875,1.132813 0,0.847656 -0.570313,1.285156 -0.566406,0.4375 -1.664062,0.4375 -0.414063,0 -0.882813,-0.09375 -0.464843,-0.09375 -0.964843,-0.277344 v -0.8125 q 0.480468,0.269532 0.941406,0.40625 0.460937,0.136719 0.90625,0.136719 0.675781,0 1.042969,-0.265625 0.367187,-0.265625 0.367187,-0.757812 0,-0.429688 -0.265625,-0.671875 -0.261719,-0.242188 -0.863281,-0.363282 l -0.480469,-0.09375 q -0.882812,-0.175781 -1.277344,-0.550781 -0.394531,-0.375 -0.394531,-1.042969 0,-0.773437 0.542969,-1.21875 0.546875,-0.445312 1.503906,-0.445312 0.410156,0 0.835938,0.07422 0.425781,0.07422 0.871093,0.222656 z"
       style="font-size:8px;font-family:'Open Sans';text-anchor:middle;fill:#eeeeee;stroke:none;stroke-width:1px;text-rendering:geometricPrecision"
       id="path138" />
    <path
       d="m 61.949219,89.167969 h 0.789062 v 2.390625 h 2.867188 v -2.390625 h 0.789062 V 95 H 65.605469 V 92.222656 H 62.738281 V 95 h -0.789062 z"
       style="font-size:8px;font-family:'Open Sans';text-anchor:middle;fill:#eeeeee;stroke:none;stroke-width:1px;text-rendering:geometricPrecision"
       id="path140" />
    <path
       d="m 67.964844,89.167969 h 0.789062 V 95 h -0.789062 z"
       style="font-size:8px;font-family:'Open Sans';text-anchor:middle;fill:#eeeeee;stroke:none;stroke-width:1px;text-rendering:geometricPrecision"
       id="path142" />
    <path
       d="m 70.324219,89.167969 h 3.351562 v 0.664062 h -2.5625 v 1.71875 h 2.3125 v 0.664063 h -2.3125 V 95 h -0.789062 z"
       style="font-size:8px;font-family:'Open Sans';text-anchor:middle;fill:#eeeeee;stroke:none;stroke-width:1px;text-rendering:geometricPrecision"
       id="path144" />
    <path
       d="m 73.992187,89.167969 h 4.933594 v 0.664062 H 76.855469 V 95 H 76.0625 v -5.167969 h -2.070313 z"
       style="font-size:8px;font-family:'Open Sans';text-anchor:middle;fill:#eeeeee;stroke:none;stroke-width:1px;text-rendering:geometricPrecision"
       id="path146" />
  </g>
  <g
     aria-label="SHIFT"
     style="font-size:8px;font-family:'Open Sans';text-anchor:middle;fill:#eeeeee;stroke:none;stroke-width:1px;text-rendering:geometricPrecision"
     id="text49">
    <path
       d="m 60.367187,124.35938 v 0.76953 q -0.449218,-0.21485 -0.847656,-0.32032 -0.398437,-0.10546 -0.769531,-0.10546 -0.644531,0 -0.996094,0.25 -0.347656,0.25 -0.347656,0.71093 0,0.38672 0.230469,0.58594 0.234375,0.19531 0.882812,0.31641 l 0.476563,0.0977 q 0.882812,0.16797 1.300781,0.59375 0.421875,0.42188 0.421875,1.13281 0,0.84766 -0.570313,1.28516 -0.566406,0.4375 -1.664062,0.4375 -0.414063,0 -0.882813,-0.0937 -0.464843,-0.0937 -0.964843,-0.27734 v -0.8125 q 0.480468,0.26953 0.941406,0.40625 0.460937,0.13672 0.90625,0.13672 0.675781,0 1.042969,-0.26563 0.367187,-0.26562 0.367187,-0.75781 0,-0.42969 -0.265625,-0.67188 -0.261719,-0.24218 -0.863281,-0.36328 l -0.480469,-0.0937 q -0.882812,-0.17578 -1.277344,-0.55078 -0.394531,-0.375 -0.394531,-1.04297 0,-0.77343 0.542969,-1.21875 0.546875,-0.44531 1.503906,-0.44531 0.410156,0 0.835938,0.0742 0.425781,0.0742 0.871093,0.22266 z"
       style="font-size:8px;font-family:'Open Sans';text-anchor:middle;fill:#eeeeee;stroke:none;stroke-width:1px;text-rendering:geometricPrecision"
       id="path149" />
    <path
       d="m 61.949219,124.16797 h 0.789062 v 2.39062 h 2.867188 v -2.39062 h 0.789062 V 130 h -0.789062 v -2.77734 H 62.738281 V 130 h -0.789062 z"
       style="font-size:8px;font-family:'Open Sans';text-anchor:middle;fill:#eeeeee;stroke:none;stroke-width:1px;text-rendering:geometricPrecision"
       id="path151" />
    <path
       d="m 67.964844,124.16797 h 0.789062 V 130 h -0.789062 z"
       style="font-size:8px;font-family:'Open Sans';text-anchor:middle;fill:#eeeeee;stroke:none;stroke-width:1px;text-rendering:geometricPrecision"
       id="path153" />
    <path
       d="m 70.324219,124.16797 h 3.351562 v 0.66406 h -2.5625 v 1.71875 h 2.3125 v 0.66406 h -2.3125 V 130 h -0.789062 z"
       style="font-size:8px;font-family:'Open Sans';text-anchor:middle;fill:#eeeeee;stroke:none;stroke-width:1px;text-rendering:geometricPrecision"
       id="path155" />
    <path
       d="m 73.992187,124.16797 h 4.933594 v 0.66406 H 76.855469 V 130 H 76.0625 v -5.16797 h -2.070313 z"
       style="font-size:8px;font-family:'Open Sans';text-anchor:middle;fill:#eeeeee;stroke:none;stroke-width:1px;text-rendering:geometricPrecision"
       id="path157" />
  </g>
  <g
     aria-label="SHIFT"
     style="font-size:8px;font-family:'Open Sans';text-anchor:middle;fill:#eeeeee;stroke:none;stroke-width:1px;text-rendering:geometricPrecision"
     id="text51">
    <path
       d="m 60.367187,159.35937 v 0.76954 q -0.449218,-0.21485 -0.847656,-0.32032 -0.398437,-0.10547 -0.769531,-0.10547 -0.644531,0 -0.996094,0.25 -0.347656,0.25 -0.347656,0.71094 0,0.38672 0.230469,0.58594 0.234375,0.19531 0.882812,0.31641 l 0.476563,0.0977 q 0.882812,0.16797 1.300781,0.59375 0.421875,0.42188 0.421875,1.13281 0,0.84766 -0.570313,1.28516 -0.566406,0.4375 -1.664062,0.4375 -0.414063,0 -0.882813,-0.0937 -0.464843,-0.0937 -0.964843,-0.27734 v -0.8125 q 0.480468,0.26953 0.941406,0.40625 0.460937,0.13672 0.90625,0.13672 0.675781,0 1.042969,-0.26563 0.367187,-0.26562 0.367187,-0.75781 0,-0.42969 -0.265625,-0.67188 -0.261719,-0.24218 -0.863281,-0.36328 l -0.480469,-0.0937 q -0.882812,-0.17578 -1.277344,-0.55078 -0.394531,-0.375 -0.394531,-1.04297 0,-0.77344 0.542969,-1.21875 0.546875,-0.44531 1.503906,-0.44531 0.410156,0 0.835938,0.0742 0.425781,0.0742 0.871093,0.22265 z"
       style="font-size:8px;font-family:'Open Sans';text-anchor:middle;fill:#eeeeee;stroke:none;stroke-width:1px;text-rendering:geometricPrecision"
       id="path160" />
    <path
       d="m 61.949219,159.16797 h 0.789062 v 2.39062 h 2.867188 v -2.39062 h 0.789062 V 165 h -0.789062 v -2.77734 H 62.738281 V 165 h -0.789062 z"
       style="font-size:8px;font-family:'Open Sans';text-anchor:middle;fill:#eeeeee;stroke:none;stroke-width:1px;text-rendering:geometricPrecision"
       id="path162" />
    <path
       d="m 67.964844,159.16797 h 0.789062 V 165 h -0.789062 z"
       style="font-size:8px;font-family:'Open Sans';text-anchor:middle;fill:#eeeeee;stroke:none;stroke-width:1px;text-rendering:geometricPrecision"
       id="path164" />
    <path
       d="m 70.324219,159.16797 h 3.351562 v 0.66406 h -2.5625 v 1.71875 h 2.3125 v 0.66406 h -2.3125 V 165 h -0.789062 z"
       style="font-size:8px;font-family:'Open Sans';text-anchor:middle;fill:#eeeeee;stroke:none;stroke-width:1px;text-rendering:geometricPrecision"
       id="path166" />
    <path
       d="m 73.992187,159.16797 h 4.933594 v 0.66406 H 76.855469 V 165 H 76.0625 v -5.16797 h -2.070313 z"
       style="font-size:8px;font-family:'Open Sans';text-anchor:middle;fill:#eeeeee;stroke:none;stroke-width:1px;text-rendering:geometricPrecision"
       id="path168" />
  </g>
  <g
     aria-label="SHIFT"
     style="font-size:8px;font-family:'Open Sans';text-anchor:middle;fill:#eeeeee;stroke:none;stroke-width:1px;text-rendering:geometricPrecision"
     id="text53">
    <path
       d="m 60.367187,194.35937 v 0.76954 q -0.449218,-0.21485 -0.847656,-0.32032 -0.398437,-0.10547 -0.769531,-0.10547 -0.644531,0 -0.996094,0.25 -0.347656,0.25 -0.347656,0.71094 0,0.38672 0.230469,0.58594 0.234375,0.19531 0.882812,0.31641 l 0.476563,0.0977 q 0.882812,0.16797 1.300781,0.59375 0.421875,0.42188 0.421875,1.13281 0,0.84766 -0.570313,1.28516 -0.566406,0.4375 -1.664062,0.4375 -0.414063,0 -0.882813,-0.0937 -0.464843,-0.0937 -0.964843,-0.27734 v -0.8125 q 0.480468,0.26953 0.941406,0.40625 0.460937,0.13672 0.90625,0.13672 0.675781,0 1.042969,-0.26563 0.367187,-0.26562 0.367187,-0.75781 0,-0.42969 -0.265625,-0.67188 -0.261719,-0.24218 -0.863281,-0.36328 l -0.480469,-0.0937 q -0.882812,-0.17578 -1.277344,-0.55078 -0.394531,-0.375 -0.394531,-1.04297 0,-0.77344 0.542969,-1.21875 0.546875,-0.44531 1.503906,-0.44531 0.410156,0 0.835938,0.0742 0.425781,0.0742 0.871093,0.22265 z"
       style="font-size:8px;font-family:'Open Sans';text-anchor:middle;fill:#eeeeee;stroke:none;stroke-width:1px;text-rendering:geometricPrecision"
       id="path171" />
    <path
       d="m 61.949219,194.16797 h 0.789062 v 2.39062 h 2.867188 v -2.39062 h 0.789062 V 200 h -0.789062 v -2.77734 H 62.738281 V 200 h -0.789062 z"
       style="font-size:8px;font-family:'Open Sans';text-anchor:middle;fill:#eeeeee;stroke:none;stroke-width:1px;text-rendering:geometricPrecision"
       id="path173" />
    <path
       d="m 67.964844,194.16797 h 0.789062 V 200 h -0.789062 z"
       style="font-size:8px;font-family:'Open Sans';text-anchor:middle;fill:#eeeeee;stroke:none;stroke-width:1px;text-rendering:geometricPrecision"
       id="path175" />
    <path
       d="m 70.324219,194.16797 h 3.351562 v 0.66406 h -2.5625 v 1.71875 h 2.3125 v 0.66406 h -2.3125 V 200 h -0.789062 z"
       style="font-size:8px;font-family:'Open Sans';text-anchor:middle;fill:#eeeeee;stroke:none;stroke-width:1px;text-rendering:geometricPrecision"
       id="path177" />
    <path
       d="m 73.992187,194.16797 h 4.933594 v 0.66406 H 76.855469 V 200 H 76.0625 v -5.16797 h -2.070313 z"
       style="font-size:8px;font-family:'Open Sans';text-anchor:middle;fill:#eeeeee;stroke:none;stroke-width:1px;text-rendering:geometricPrecision"
       id="path179" />
  </g>
  <g
     aria-label="SHIFT"
     style="font-size:8px;font-family:'Open Sans';text-anchor:middle;fill:#eeeeee;stroke:none;stroke-width:1px;text-rendering:geometricPrecision"
     id="text55">
    <path
       d="m 60.367187,229.35937 v 0.76954 q -0.449218,-0.21485 -0.847656,-0.32032 -0.398437,-0.10547 -0.769531,-0.10547 -0.644531,0 -0.996094,0.25 -0.347656,0.25 -0.347656,0.71094 0,0.38672 0.230469,0.58594 0.234375,0.19531 0.882812,0.31641 l 0.476563,0.0977 q 0.882812,0.16797 1.300781,0.59375 0.421875,0.42188 0.421875,1.13281 0,0.84766 -0.570313,1.28516 -0.566406,0.4375 -1.664062,0.4375 -0.414063,0 -0.882813,-0.0937 -0.464843,-0.0937 -0.964843,-0.27734 v -0.8125 q 0.480468,0.26953 0.941406,0.40625 0.460937,0.13672 0.90625,0.13672 0.675781,0 1.042969,-0.26563 0.367187,-0.26562 0.367187,-0.75781 0,-0.42969 -0.265625,-0.67188 -0.261719,-0.24218 -0.863281,-0.36328 l -0.480469,-0.0937 q -0.882812,-0.17578 -1.277344,-0.55078 -0.394531,-0.375 -0.394531,-1.04297 0,-0.77344 0.542969,-1.21875 0.546875,-0.44531 1.503906,-0.44531 0.410156,0 0.835938,0.0742 0.425781,0.0742 0.871093,0.22265 z"
       style="font-size:8px;font-family:'Open Sans';text-anchor:middle;fill:#eeeeee;stroke:none;stroke-width:1px;text-rendering:geometricPrecision"
       id="path182" />
    <path
       d="m 61.949219,229.16797 h 0.789062 v 2.39062 h 2.867188 v -2.39062 h 0.789062 V 235 h -0.789062 v -2.77734 H 62.738281 V 235 h -0.789062 z"
       style="font-size:8px;font-family:'Open Sans';text-anchor:middle;fill:#eeeeee;stroke:none;stroke-width:1px;text-rendering:geometricPrecision"
       id="path184" />
    <path
       d="m 67.964844,229.16797 h 0.789062 V 235 h -0.789062 z"
       style="font-size:8px;font-family:'Open Sans';text-anchor:middle;fill:#eeeeee;stroke:none;stroke-width:1px;text-rendering:geometricPrecision"
       id="path186" />
    <path
       d="m 70.324219,229.16797 h 3.351562 v 0.66406 h -2.5625 v 1.71875 h 2.3125 v 0.66406 h -2.3125 V 235 h -0.789062 z"
       style="font-size:8px;font-family:'Open Sans';text-anchor:middle;fill:#eeeeee;stroke:none;stroke-width:1px;text-rendering:geometricPrecision"
       id="path188" />
    <path
       d="m 73.992187,229.16797 h 4.933594 v 0.66406 H 76.855469 V 235 H 76.0625 v -5.16797 h -2.070313 z"
       style="font-size:8px;font-family:'Open Sans';text-anchor:middle;fill:#eeeeee;stroke:none;stroke-width:1px;text-rendering:geometricPrecision"
       id="path190" />
  </g>
  <g
     aria-label="SHIFT"
     style="font-size:8px;font-family:'Open Sans';text-anchor:middle;fill:#eeeeee;stroke:none;stroke-width:1px;text-rendering:geometricPrecision"
     id="text57">
    <path
       d="m 60.367187,264.35937 v 0.76954 q -0.449218,-0.21485 -0.847656,-0.32032 -0.398437,-0.10547 -0.769531,-0.10547 -0.644531,0 -0.996094,0.25 -0.347656,0.25 -0.347656,0.71094 0,0.38672 0.230469,0.58594 0.234375,0.19531 0.882812,0.31641 l 0.476563,0.0976 q 0.882812,0.16797 1.300781,0.59375 0.421875,0.42188 0.421875,1.13281 0,0.84766 -0.570313,1.28516 -0.566406,0.4375 -1.664062,0.4375 -0.414063,0 -0.882813,-0.0937 -0.464843,-0.0937 -0.964843,-0.27734 v -0.8125 q 0.480468,0.26953 0.941406,0.40625 0.460937,0.13672 0.90625,0.13672 0.675781,0 1.042969,-0.26563 0.367187,-0.26562 0.367187,-0.75781 0,-0.42969 -0.265625,-0.67188 -0.261719,-0.24218 -0.863281,-0.36328 l -0.480469,-0.0937 q -0.882812,-0.17578 -1.277344,-0.55078 -0.394531,-0.375 -0.394531,-1.04297 0,-0.77344 0.542969,-1.21875 0.546875,-0.44531 1.503906,-0.44531 0.410156,0 0.835938,0.0742 0.425781,0.0742 0.871093,0.22265 z"
       style="font-size:8px;font-family:'Open Sans';text-anchor:middle;fill:#eeeeee;stroke:none;stroke-width:1px;text-rendering:geometricPrecision"
       id="path193" />
    <path
       d="m 61.949219,264.16797 h 0.789062 v 2.39062 h 2.867188 v -2.39062 h 0.789062 V 270 h -0.789062 v -2.77734 H 62.738281 V 270 h -0.789062 z"
       style="font-size:8px;font-family:'Open Sans';text-anchor:middle;fill:#eeeeee;stroke:none;stroke-width:1px;text-rendering:geometricPrecision"
       id="path195" />
    <path
       d="m 67.964844,264.16797 h 0.789062 V 270 h -0.789062 z"
       style="font-size:8px;font-family:'Open Sans';text-anchor:middle;fill:#eeeeee;stroke:none;stroke-width:1px;text-rendering:geometricPrecision"
       id="path197" />
    <path
       d="m 70.324219,264.16797 h 3.351562 v 0.66406 h -2.5625 v 1.71875 h 2.3125 v 0.66406 h -2.3125 V 270 h -0.789062 z"
       style="font-size:8px;font-family:'Open Sans';text-anchor:middle;fill:#eeeeee;stroke:none;stroke-width:1px;text-rendering:geometricPrecision"
       id="path199" />
    <path
       d="m 73.992187,264.16797 h 4.933594 v 0.66406 H 76.855469 V 270 H 76.0625 v -5.16797 h -2.070313 z"
       style="font-size:8px;font-family:'Open Sans';text-anchor:middle;fill:#eeeeee;stroke:none;stroke-width:1px;text-rendering:geometricPrecision"
       id="path201" />
  </g>
  <g
     aria-label="SHIFT"
     style="font-size:8px;font-family:'Open Sans';text-anchor:middle;fill:#eeeeee;stroke:none;stroke-width:1px;text-rendering:geometricPrecision"
     id="text59">
    <path
       d="m 60.367187,299.35937 v 0.76954 q -0.449218,-0.21485 -0.847656,-0.32032 -0.398437,-0.10547 -0.769531,-0.10547 -0.644531,0 -0.996094,0.25 -0.347656,0.25 -0.347656,0.71094 0,0.38672 0.230469,0.58594 0.234375,0.19531 0.882812,0.31641 l 0.476563,0.0976 q 0.882812,0.16797 1.300781,0.59375 0.421875,0.42188 0.421875,1.13281 0,0.84766 -0.570313,1.28516 -0.566406,0.4375 -1.664062,0.4375 -0.414063,0 -0.882813,-0.0937 -0.464843,-0.0937 -0.964843,-0.27734 v -0.8125 q 0.480468,0.26953 0.941406,0.40625 0.460937,0.13672 0.90625,0.13672 0.675781,0 1.042969,-0.26563 0.367187,-0.26562 0.367187,-0.75781 0,-0.42969 -0.265625,-0.67188 -0.261719,-0.24218 -0.863281,-0.36328 l -0.480469,-0.0937 q -0.882812,-0.17578 -1.277344,-0.55078 -0.394531,-0.375 -0.394531,-1.04297 0,-0.77344 0.542969,-1.21875 0.546875,-0.44531 1.503906,-0.44531 0.410156,0 0.835938,0.0742 0.425781,0.0742 0.871093,0.22265 z"
       style="font-size:8px;font-family:'Open Sans';text-anchor:middle;fill:#eeeeee;stroke:none;stroke-width:1px;text-rendering:geometricPrecision"
       id="path204" />
    <path
       d="m 61.949219,299.16797 h 0.789062 v 2.39062 h 2.867188 v -2.39062 h 0.789062 V 305 h -0.789062 v -2.77734 H 62.738281 V 305 h -0.789062 z"
       style="font-size:8px;font-family:'Open Sans';text-anchor:middle;fill:#eeeeee;stroke:none;stroke-width:1px;text-rendering:geometricPrecision"
       id="path206" />
    <path
       d="m 67.964844,299.16797 h 0.789062 V 305 h -0.789062 z"
       style="font-size:8px;font-family:'Open Sans';text-anchor:middle;fill:#eeeeee;stroke:none;stroke-width:1px;text-rendering:geometricPrecision"
       id="path208" />
    <path
       d="m 70.324219,299.16797 h 3.351562 v 0.66406 h -2.5625 v 1.71875 h 2.3125 v 0.66406 h -2.3125 V 305 h -0.789062 z"
       style="font-size:8px;font-family:'Open Sans';text-anchor:middle;fill:#eeeeee;stroke:none;stroke-width:1px;text-rendering:geometricPrecision"
       id="path210" />
    <path
       d="m 73.992187,299.16797 h 4.933594 v 0.66406 H 76.855469 V 305 H 76.0625 v -5.16797 h -2.070313 z"
       style="font-size:8px;font-family:'Open Sans';text-anchor:middle;fill:#eeeeee;stroke:none;stroke-width:1px;text-rendering:geometricPrecision"
       id="path212" />
  </g>
  <g
     aria-label="LEVEL"
     style="font-size:8px;font-family:'Open Sans';text-anchor:middle;fill:#eeeeee;stroke:none;stroke-width:1px;text-rendering:geometricPrecision"
     id="text61">
    <path
       d="m 56.035156,334.16797 h 0.789063 v 5.16797 h 2.839843 V 340 h -3.628906 z"
       style="font-size:8px;font-family:'Open Sans';text-anchor:middle;fill:#eeeeee;stroke:none;stroke-width:1px;text-rendering:geometricPrecision"
       id="path215" />
    <path
       d="m 60.488281,334.16797 h 3.6875 v 0.66406 h -2.898437 v 1.72656 h 2.777343 v 0.66407 h -2.777343 v 2.11328 h 2.96875 V 340 h -3.757813 z"
       style="font-size:8px;font-family:'Open Sans';text-anchor:middle;fill:#eeeeee;stroke:none;stroke-width:1px;text-rendering:geometricPrecision"
       id="path217" />
    <path
       d="m 67.054687,340 -2.226562,-5.83203 h 0.824219 l 1.847656,4.91015 1.851562,-4.91015 h 0.820313 L 67.949219,340 Z"
       style="font-size:8px;font-family:'Open Sans';text-anchor:middle;fill:#eeeeee;stroke:none;stroke-width:1px;text-rendering:geometricPrecision"
       id="path219" />
    <path
       d="m 71.019531,334.16797 h 3.6875 v 0.66406 h -2.898437 v 1.72656 h 2.777343 v 0.66407 h -2.777343 v 2.11328 h 2.96875 V 340 h -3.757813 z"
       style="font-size:8px;font-family:'Open Sans';text-anchor:middle;fill:#eeeeee;stroke:none;stroke-width:1px;text-rendering:geometricPrecision"
       id="path221" />
    <path
       d="m 76.082031,334.16797 h 0.789063 v 5.16797 h 2.839843 V 340 h -3.628906 z"
       style="font-size:8px;font-family:'Open Sans';text-anchor:middle;fill:#eeeeee;stroke:none;stroke-width:1px;text-rendering:geometricPrecision"
       id="path223" />
  </g>
  <g
     aria-label="LEVEL"
     style="font-size:8px;font-family:'Open Sans';text-anchor:middle;fill:#eeeeee;stroke:none;stroke-width:1px;text-rendering:geometricPrecision"
     id="text63">
    <path
       d="m 101.03516,54.167969 h 0.78906 v 5.167968 h 2.83984 V 60 h -3.6289 z"
       style="font-size:8px;font-family:'Open Sans';text-anchor:middle;fill:#eeeeee;stroke:none;stroke-width:1px;text-rendering:geometricPrecision"
       id="path226" />
    <path
       d="m 105.48828,54.167969 h 3.6875 v 0.664062 h -2.89844 v 1.726563 h 2.77735 v 0.664062 h -2.77735 v 2.113281 h 2.96875 V 60 h -3.75781 z"
       style="font-size:8px;font-family:'Open Sans';text-anchor:middle;fill:#eeeeee;stroke:none;stroke-width:1px;text-rendering:geometricPrecision"
       id="path228" />
    <path
       d="m 112.05469,60 -2.22656,-5.832031 h 0.82421 l 1.84766,4.910156 1.85156,-4.910156 h 0.82032 L 112.94922,60 Z"
       style="font-size:8px;font-family:'Open Sans';text-anchor:middle;fill:#eeeeee;stroke:none;stroke-width:1px;text-rendering:geometricPrecision"
       id="path230" />
    <path
       d="m 116.01953,54.167969 h 3.6875 v 0.664062 h -2.89844 v 1.726563 h 2.77735 v 0.664062 h -2.77735 v 2.113281 h 2.96875 V 60 h -3.75781 z"
       style="font-size:8px;font-family:'Open Sans';text-anchor:middle;fill:#eeeeee;stroke:none;stroke-width:1px;text-rendering:geometricPrecision"
       id="path232" />
    <path
       d="m 121.08203,54.167969 h 0.78906 v 5.167968 h 2.83985 V 60 h -3.62891 z"
       style="font-size:8px;font-family:'Open Sans';text-anchor:middle;fill:#eeeeee;stroke:none;stroke-width:1px;text-rendering:geometricPrecision"
       id="path234" />
  </g>
  <g
     aria-label="LEVEL"
     style="font-size:8px;font-family:'Open Sans';text-anchor:middle;fill:#eeeeee;stroke:none;stroke-width:1px;text-rendering:geometricPrecision"
     id="text65">
    <path
       d="m 101.03516,89.167969 h 0.78906 v 5.167968 h 2.83984 V 95 h -3.6289 z"
       style="font-size:8px;font-family:'Open Sans';text-anchor:middle;fill:#eeeeee;stroke:none;stroke-width:1px;text-rendering:geometricPrecision"
       id="path237" />
    <path
       d="m 105.48828,89.167969 h 3.6875 v 0.664062 h -2.89844 v 1.726563 h 2.77735 v 0.664062 h -2.77735 v 2.113281 h 2.96875 V 95 h -3.75781 z"
       style="font-size:8px;font-family:'Open Sans';text-anchor:middle;fill:#eeeeee;stroke:none;stroke-width:1px;text-rendering:geometricPrecision"
       id="path239" />
    <path
       d="m 112.05469,95 -2.22656,-5.832031 h 0.82421 l 1.84766,4.910156 1.85156,-4.910156 h 0.82032 L 112.94922,95 Z"
       style="font-size:8px;font-family:'Open Sans';text-anchor:middle;fill:#eeeeee;stroke:none;stroke-width:1px;text-rendering:geometricPrecision"
       id="path241" />
    <path
       d="m 116.01953,89.167969 h 3.6875 v 0.664062 h -2.89844 v 1.726563 h 2.77735 v 0.664062 h -2.77735 v 2.113281 h 2.96875 V 95 h -3.75781 z"
       style="font-size:8px;font-family:'Open Sans';text-anchor:middle;fill:#eeeeee;stroke:none;stroke-width:1px;text-rendering:geometricPrecision"
       id="path243" />
    <path
       d="m 121.08203,89.167969 h 0.78906 v 5.167968 h 2.83985 V 95 h -3.62891 z"
       style="font-size:8px;font-family:'Open Sans';text-anchor:middle;fill:#eeeeee;stroke:none;stroke-width:1px;text-rendering:geometricPrecision"
       id="path245" />
  </g>
  <g
     aria-label="LEVEL"
     style="font-size:8px;font-family:'Open Sans';text-anchor:middle;fill:#eeeeee;stroke:none;stroke-width:1px;text-rendering:geometricPrecision"
     id="text67">
    <path
       d="m 101.03516,124.16797 h 0.78906 v 5.16797 h 2.83984 V 130 h -3.6289 z"
       style="font-size:8px;font-family:'Open Sans';text-anchor:middle;fill:#eeeeee;stroke:none;stroke-width:1px;text-rendering:geometricPrecision"
       id="path248" />
    <path
       d="m 105.48828,124.16797 h 3.6875 v 0.66406 h -2.89844 v 1.72656 h 2.77735 v 0.66407 h -2.77735 v 2.11328 h 2.96875 V 130 h -3.75781 z"
       style="font-size:8px;font-family:'Open Sans';text-anchor:middle;fill:#eeeeee;stroke:none;stroke-width:1px;text-rendering:geometricPrecision"
       id="path250" />
    <path
       d="m 112.05469,130 -2.22656,-5.83203 h 0.82421 l 1.84766,4.91015 1.85156,-4.91015 h 0.82032 L 112.94922,130 Z"
       style="font-size:8px;font-family:'Open Sans';text-anchor:middle;fill:#eeeeee;stroke:none;stroke-width:1px;text-rendering:geometricPrecision"
       id="path252" />
    <path
       d="m 116.01953,124.16797 h 3.6875 v 0.66406 h -2.89844 v 1.72656 h 2.77735 v 0.66407 h -2.77735 v 2.11328 h 2.96875 V 130 h -3.75781 z"
       style="font-size:8px;font-family:'Open Sans';text-anchor:middle;fill:#eeeeee;stroke:none;stroke-width:1px;text-rendering:geometricPrecision"
       id="path254" />
    <path
       d="m 121.08203,124.16797 h 0.78906 v 5.16797 h 2.83985 V 130 h -3.62891 z"
       style="font-size:8px;font-family:'Open Sans';text-anchor:middle;fill:#eeeeee;stroke:none;stroke-width:1px;text-rendering:geometricPrecision"
       id="path256" />
  </g>
  <g
     aria-label="LEVEL"
     style="font-size:8px;font-family:'Open Sans';text-anchor:middle;fill:#eeeeee;stroke:none;stroke-width:1px;text-rendering:geometricPrecision"
     id="text69">
    <path
       d="m 101.03516,159.16797 h 0.78906 v 5.16797 h 2.83984 V 165 h -3.6289 z"
       style="font-size:8px;font-family:'Open Sans';text-anchor:middle;fill:#eeeeee;stroke:none;stroke-width:1px;text-rendering:geometricPrecision"
       id="path259" />
    <path
       d="m 105.48828,159.16797 h 3.6875 v 0.66406 h -2.89844 v 1.72656 h 2.77735 v 0.66407 h -2.77735 v 2.11328 h 2.96875 V 165 h -3.75781 z"
       style="font-size:8px;font-family:'Open Sans';text-anchor:middle;fill:#eeeeee;stroke:none;stroke-width:1px;text-rendering:geometricPrecision"
       id="path261" />
    <path
       d="m 112.05469,165 -2.22656,-5.83203 h 0.82421 l 1.84766,4.91015 1.85156,-4.91015 h 0.82032 L 112.94922,165 Z"
       style="font-size:8px;font-family:'Open Sans';text-anchor:middle;fill:#eeeeee;stroke:none;stroke-width:1px;text-rendering:geometricPrecision"
       id="path263" />
    <path
       d="m 116.01953,159.16797 h 3.6875 v 0.66406 h -2.89844 v 1.72656 h 2.77735 v 0.66407 h -2.77735 v 2.11328 h 2.96875 V 165 h -3.75781 z"
       style="font-size:8px;font-family:'Open Sans';text-anchor:middle;fill:#eeeeee;stroke:none;stroke-width:1px;text-rendering:geometricPrecision"
       id="path265" />
    <path
       d="m 121.08203,159.16797 h 0.78906 v 5.16797 h 2.83985 V 165 h -3.62891 z"
       style="font-size:8px;font-family:'Open Sans';text-anchor:middle;fill:#eeeeee;stroke:none;stroke-width:1px;text-rendering:geometricPrecision"
       id="path267" />
  </g>
  <g
     aria-label="LEVEL"
     style="font-size:8px;font-family:'Open Sans';text-anchor:middle;fill:#eeeeee;stroke:none;stroke-width:1px;text-rendering:geometricPrecision"
     id="text71">
    <path
       d="m 101.03516,194.16797 h 0.78906 v 5.16797 h 2.83984 V 200 h -3.6289 z"
       style="font-size:8px;font-family:'Open Sans';text-anchor:middle;fill:#eeeeee;stroke:none;stroke-width:1px;text-rendering:geometricPrecision"
       id="path270" />
    <path
       d="m 105.48828,194.16797 h 3.6875 v 0.66406 h -2.89844 v 1.72656 h 2.77735 v 0.66407 h -2.77735 v 2.11328 h 2.96875 V 200 h -3.75781 z"
       style="font-size:8px;font-family:'Open Sans';text-anchor:middle;fill:#eeeeee;stroke:none;stroke-width:1px;text-rendering:geometricPrecision"
       id="path272" />
    <path
       d="m 112.05469,200 -2.22656,-5.83203 h 0.82421 l 1.84766,4.91015 1.85156,-4.91015 h 0.82032 L 112.94922,200 Z"
       style="font-size:8px;font-family:'Open Sans';text-anchor:middle;fill:#eeeeee;stroke:none;stroke-width:1px;text-rendering:geometricPrecision"
       id="path274" />
    <path
       d="m 116.01953,194.16797 h 3.6875 v 0.66406 h -2.89844 v 1.72656 h 2.77735 v 0.66407 h -2.77735 v 2.11328 h 2.96875 V 200 h -3.75781 z"
       style="font-size:8px;font-family:'Open Sans';text-anchor:middle;fill:#eeeeee;stroke:none;stroke-width:1px;text-rendering:geometricPrecision"
       id="path276" />
    <path
       d="m 121.08203,194.16797 h 0.78906 v 5.16797 h 2.83985 V 200 h -3.62891 z"
       style="font-size:8px;font-family:'Open Sans';text-anchor:middle;fill:#eeeeee;stroke:none;stroke-width:1px;text-rendering:geometricPrecision"
       id="path278" />
  </g>
  <g
     aria-label="LEVEL"
     style="font-size:8px;font-family:'Open Sans';text-anchor:middle;fill:#eeeeee;stroke:none;stroke-width:1px;text-rendering:geometricPrecision"
     id="text73">
    <path
       d="m 101.03516,229.16797 h 0.78906 v 5.16797 h 2.83984 V 235 h -3.6289 z"
       style="font-size:8px;font-family:'Open Sans';text-anchor:middle;fill:#eeeeee;stroke:none;stroke-width:1px;text-rendering:geometricPrecision"
       id="path281" />
    <path
       d="m 105.48828,229.16797 h 3.6875 v 0.66406 h -2.89844 v 1.72656 h 2.77735 v 0.66407 h -2.77735 v 2.11328 h 2.96875 V 235 h -3.75781 z"
       style="font-size:8px;font-family:'Open Sans';text-anchor:middle;fill:#eeeeee;stroke:none;stroke-width:1px;text-rendering:geometricPrecision"
       id="path283" />
    <path
       d="m 112.05469,235 -2.22656,-5.83203 h 0.82421 l 1.84766,4.91015 1.85156,-4.91015 h 0.82032 L 112.94922,235 Z"
       style="font-size:8px;font-family:'Open Sans';text-anchor:middle;fill:#eeeeee;stroke:none;stroke-width:1px;text-rendering:geometricPrecision"
       id="path285" />
    <path
       d="m 116.01953,229.16797 h 3.6875 v 0.66406 h -2.89844 v 1.72656 h 2.77735 v 0.66407 h -2.77735 v 2.11328 h 2.96875 V 235 h -3.75781 z"
       style="font-size:8px;font-family:'Open Sans';text-anchor:middle;fill:#eeeeee;stroke:none;stroke-width:1px;text-rendering:geometricPrecision"
       id="path287" />
    <path
       d="m 121.08203,229.16797 h 0.78906 v 5.16797 h 2.83985 V 235 h -3.62891 z"
       style="font-size:8px;font-family:'Open Sans';text-anchor:middle;fill:#eeeeee;stroke:none;stroke-width:1px;text-rendering:geometricPrecision"
       id="path289" />
  </g>
  <g
     aria-label="LEVEL"
     style="font-size:8px;font-family:'Open Sans';text-anchor:middle;fill:#eeeeee;stroke:none;stroke-width:1px;text-rendering:geometricPrecision"
     id="text75">
    <path
       d="m 101.03516,264.16797 h 0.78906 v 5.16797 h 2.83984 V 270 h -3.6289 z"
       style="font-size:8px;font-family:'Open Sans';text-anchor:middle;fill:#eeeeee;stroke:none;stroke-width:1px;text-rendering:geometricPrecision"
       id="path292" />
    <path
       d="m 105.48828,264.16797 h 3.6875 v 0.66406 h -2.89844 v 1.72656 h 2.77735 v 0.66407 h -2.77735 v 2.11328 h 2.96875 V 270 h -3.75781 z"
       style="font-size:8px;font-family:'Open Sans';text-anchor:middle;fill:#eeeeee;stroke:none;stroke-width:1px;text-rendering:geometricPrecision"
       id="path294" />
    <path
       d="m 112.05469,270 -2.22656,-5.83203 h 0.82421 l 1.84766,4.91015 1.85156,-4.91015 h 0.82032 L 112.94922,270 Z"
       style="font-size:8px;font-family:'Open Sans';text-anchor:middle;fill:#eeeeee;stroke:none;stroke-width:1px;text-rendering:geometricPrecision"
       id="path296" />
    <path
       d="m 116.01953,264.16797 h 3.6875 v 0.66406 h -2.89844 v 1.72656 h 2.77735 v 0.66407 h -2.77735 v 2.11328 h 2.96875 V 270 h -3.75781 z"
       style="font-size:8px;font-family:'Open Sans';text-anchor:middle;fill:#eeeeee;stroke:none;stroke-width:1px;text-rendering:geometricPrecision"
       id="path298" />
    <path
       d="m 121.08203,264.16797 h 0.78906 v 5.16797 h 2.83985 V 270 h -3.62891 z"
       style="font-size:8px;font-family:'Open Sans';text-anchor:middle;fill:#eeeeee;stroke:none;stroke-width:1px;text-rendering:geometricPrecision"
       id="path300" />
  </g>
  <g
     aria-label="LEVEL"
     style="font-size:8px;font-family:'Open Sans';text-anchor:middle;fill:#eeeeee;stroke:none;stroke-width:1px;text-rendering:geometricPrecision"
     id="text77">
    <path
       d="m 101.03516,299.16797 h 0.78906 v 5.16797 h 2.83984 V 305 h -3.6289 z"
       style="font-size:8px;font-family:'Open Sans';text-anchor:middle;fill:#eeeeee;stroke:none;stroke-width:1px;text-rendering:geometricPrecision"
       id="path303" />
    <path
       d="m 105.48828,299.16797 h 3.6875 v 0.66406 h -2.89844 v 1.72656 h 2.77735 v 0.66407 h -2.77735 v 2.11328 h 2.96875 V 305 h -3.75781 z"
       style="font-size:8px;font-family:'Open Sans';text-anchor:middle;fill:#eeeeee;stroke:none;stroke-width:1px;text-rendering:geometricPrecision"
       id="path305" />
    <path
       d="m 112.05469,305 -2.22656,-5.83203 h 0.82421 l 1.84766,4.91015 1.85156,-4.91015 h 0.82032 L 112.94922,305 Z"
       style="font-size:8px;font-family:'Open Sans';text-anchor:middle;fill:#eeeeee;stroke:none;stroke-width:1px;text-rendering:geometricPrecision"
       id="path307" />
    <path
       d="m 116.01953,299.16797 h 3.6875 v 0.66406 h -2.89844 v 1.72656 h 2.77735 v 0.66407 h -2.77735 v 2.11328 h 2.96875 V 305 h -3.75781 z"
       style="font-size:8px;font-family:'Open Sans';text-anchor:middle;fill:#eeeeee;stroke:none;stroke-width:1px;text-rendering:geometricPrecision"
       id="path309" />
    <path
       d="m 121.08203,299.16797 h 0.78906 v 5.16797 h 2.83985 V 305 h -3.62891 z"
       style="font-size:8px;font-family:'Open Sans';text-anchor:middle;fill:#eeeeee;stroke:none;stroke-width:1px;text-rendering:geometricPrecision"
       id="path311" />
  </g>
  <g
     aria-label="POLY OUT"
     style="font-size:8px;font-family:'Open Sans';text-anchor:middle;fill:#eeeeee;stroke:none;stroke-width:1px;text-rendering:geometricPrecision"
     id="text79">
    <path
       d="m 94.574219,334.81641 v 2.1914 h 0.992187 q 0.550781,0 0.851563,-0.28515 0.300781,-0.28516 0.300781,-0.8125 0,-0.52344 -0.300781,-0.8086 -0.300782,-0.28515 -0.851563,-0.28515 z m -0.789063,-0.64844 h 1.78125 q 0.980469,0 1.480469,0.44531 0.503906,0.44141 0.503906,1.29688 0,0.86328 -0.503906,1.30468 -0.5,0.44141 -1.480469,0.44141 H 94.574219 V 340 h -0.789063 z"
       style="font-size:8px;font-family:'Open Sans';text-anchor:middle;fill:#eeeeee;stroke:none;stroke-width:1px;text-rendering:geometricPrecision"
       id="path314" />
    <path
       d="m 100.98047,334.70312 q -0.85938,0 -1.367189,0.64063 -0.503906,0.64062 -0.503906,1.74609 0,1.10157 0.503906,1.74219 0.507809,0.64063 1.367189,0.64063 0.85937,0 1.35937,-0.64063 0.50391,-0.64062 0.50391,-1.74219 0,-1.10547 -0.50391,-1.74609 -0.5,-0.64063 -1.35937,-0.64063 z m 0,-0.64062 q 1.22656,0 1.96094,0.82422 0.73437,0.82031 0.73437,2.20312 0,1.37891 -0.73437,2.20313 -0.73438,0.82031 -1.96094,0.82031 -1.23047,0 -1.968751,-0.82031 -0.734375,-0.82031 -0.734375,-2.20313 0,-1.38281 0.734375,-2.20312 0.738281,-0.82422 1.968751,-0.82422 z"
       style="font-size:8px;font-family:'Open Sans';text-anchor:middle;fill:#eeeeee;stroke:none;stroke-width:1px;text-rendering:geometricPrecision"
       id="path316" />
    <path
       d="m 104.91016,334.16797 h 0.78906 v 5.16797 h 2.83984 V 340 h -3.6289 z"
       style="font-size:8px;font-family:'Open Sans';text-anchor:middle;fill:#eeeeee;stroke:none;stroke-width:1px;text-rendering:geometricPrecision"
       id="path318" />
    <path
       d="m 107.5,334.16797 h 0.84766 l 1.61718,2.39844 1.60547,-2.39844 h 0.84766 l -2.0625,3.05469 V 340 h -0.79297 v -2.77734 z"
       style="font-size:8px;font-family:'Open Sans';text-anchor:middle;fill:#eeeeee;stroke:none;stroke-width:1px;text-rendering:geometricPrecision"
       id="path320" />
    <path
       d="m 118.10547,334.70312 q -0.85938,0 -1.36719,0.64063 -0.5039,0.64062 -0.5039,1.74609 0,1.10157 0.5039,1.74219 0.50781,0.64063 1.36719,0.64063 0.85937,0 1.35937,-0.64063 0.50391,-0.64062 0.50391,-1.74219 0,-1.10547 -0.50391,-1.74609 -0.5,-0.64063 -1.35937,-0.64063 z m 0,-0.64062 q 1.22656,0 1.96094,0.82422 0.73437,0.82031 0.73437,2.20312 0,1.37891 -0.73437,2.20313 -0.73438,0.82031 -1.96094,0.82031 -1.23047,0 -1.96875,-0.82031 -0.73438,-0.82031 -0.73438,-2.20313 0,-1.38281 0.73438,-2.20312 0.73828,-0.82422 1.96875,-0.82422 z"
       style="font-size:8px;font-family:'Open Sans';text-anchor:middle;fill:#eeeeee;stroke:none;stroke-width:1px;text-rendering:geometricPrecision"
       id="path322" />
    <path
       d="m 121.94531,334.16797 h 0.79297 v 3.54297 q 0,0.9375 0.33985,1.35156 0.33984,0.41016 1.10156,0.41016 0.75781,0 1.09765,-0.41016 0.33985,-0.41406 0.33985,-1.35156 v -3.54297 h 0.79297 v 3.64062 q 0,1.14063 -0.56641,1.72266 -0.5625,0.58203 -1.66406,0.58203 -1.10547,0 -1.67188,-0.58203 -0.5625,-0.58203 -0.5625,-1.72266 z"
       style="font-size:8px;font-family:'Open Sans';text-anchor:middle;fill:#eeeeee;stroke:none;stroke-width:1px;text-rendering:geometricPrecision"
       id="path324" />
    <path
       d="m 127.08594,334.16797 h 4.93359 v 0.66406 h -2.07031 V 340 h -0.79297 v -5.16797 h -2.07031 z"
       style="font-size:8px;font-family:'Open Sans';text-anchor:middle;fill:#eeeeee;stroke:none;stroke-width:1px;text-rendering:geometricPrecision"
       id="path326" />
  </g>
  <g
     aria-label="OUT"
     style="font-size:8px;font-family:'Open Sans';text-anchor:middle;fill:#eeeeee;stroke:none;stroke-width:1px;text-rendering:geometricPrecision"
     id="text81">
    <path
       d="m 152.12891,54.703125 q -0.85938,0 -1.36719,0.640625 -0.50391,0.640625 -0.50391,1.746094 0,1.101562 0.50391,1.742187 0.50781,0.640625 1.36719,0.640625 0.85937,0 1.35937,-0.640625 0.50391,-0.640625 0.50391,-1.742187 0,-1.105469 -0.50391,-1.746094 -0.5,-0.640625 -1.35937,-0.640625 z m 0,-0.640625 q 1.22656,0 1.96093,0.824219 0.73438,0.820312 0.73438,2.203125 0,1.378906 -0.73438,2.203125 -0.73437,0.820312 -1.96093,0.820312 -1.23047,0 -1.96875,-0.820312 -0.73438,-0.820313 -0.73438,-2.203125 0,-1.382813 0.73438,-2.203125 0.73828,-0.824219 1.96875,-0.824219 z"
       style="font-size:8px;font-family:'Open Sans';text-anchor:middle;fill:#eeeeee;stroke:none;stroke-width:1px;text-rendering:geometricPrecision"
       id="path329" />
    <path
       d="m 155.96875,54.167969 h 0.79297 v 3.542968 q 0,0.9375 0.33984,1.351563 0.33985,0.410156 1.10156,0.410156 0.75782,0 1.09766,-0.410156 0.33984,-0.414063 0.33984,-1.351563 v -3.542968 h 0.79297 v 3.640625 q 0,1.140625 -0.5664,1.722656 -0.5625,0.582031 -1.66407,0.582031 -1.10546,0 -1.67187,-0.582031 -0.5625,-0.582031 -0.5625,-1.722656 z"
       style="font-size:8px;font-family:'Open Sans';text-anchor:middle;fill:#eeeeee;stroke:none;stroke-width:1px;text-rendering:geometricPrecision"
       id="path331" />
    <path
       d="m 161.10937,54.167969 h 4.9336 v 0.664062 h -2.07031 V 60 h -0.79297 v -5.167969 h -2.07032 z"
       style="font-size:8px;font-family:'Open Sans';text-anchor:middle;fill:#eeeeee;stroke:none;stroke-width:1px;text-rendering:geometricPrecision"
       id="path333" />
  </g>
  <g
     aria-label="OUT"
     style="font-size:8px;font-family:'Open Sans';text-anchor:middle;fill:#eeeeee;stroke:none;stroke-width:1px;text-rendering:geometricPrecision"
     id="text83">
    <path
       d="m 152.12891,89.703125 q -0.85938,0 -1.36719,0.640625 -0.50391,0.640625 -0.50391,1.746094 0,1.101562 0.50391,1.742187 0.50781,0.640625 1.36719,0.640625 0.85937,0 1.35937,-0.640625 0.50391,-0.640625 0.50391,-1.742187 0,-1.105469 -0.50391,-1.746094 -0.5,-0.640625 -1.35937,-0.640625 z m 0,-0.640625 q 1.22656,0 1.96093,0.824219 0.73438,0.820312 0.73438,2.203125 0,1.378906 -0.73438,2.203125 -0.73437,0.820312 -1.96093,0.820312 -1.23047,0 -1.96875,-0.820312 -0.73438,-0.820313 -0.73438,-2.203125 0,-1.382813 0.73438,-2.203125 0.73828,-0.824219 1.96875,-0.824219 z"
       style="font-size:8px;font-family:'Open Sans';text-anchor:middle;fill:#eeeeee;stroke:none;stroke-width:1px;text-rendering:geometricPrecision"
       id="path336" />
    <path
       d="m 155.96875,89.167969 h 0.79297 v 3.542968 q 0,0.9375 0.33984,1.351563 0.33985,0.410156 1.10156,0.410156 0.75782,0 1.09766,-0.410156 0.33984,-0.414063 0.33984,-1.351563 v -3.542968 h 0.79297 v 3.640625 q 0,1.140625 -0.5664,1.722656 -0.5625,0.582031 -1.66407,0.582031 -1.10546,0 -1.67187,-0.582031 -0.5625,-0.582031 -0.5625,-1.722656 z"
       style="font-size:8px;font-family:'Open Sans';text-anchor:middle;fill:#eeeeee;stroke:none;stroke-width:1px;text-rendering:geometricPrecision"
       id="path338" />
    <path
       d="m 161.10937,89.167969 h 4.9336 v 0.664062 h -2.07031 V 95 h -0.79297 v -5.167969 h -2.07032 z"
       style="font-size:8px;font-family:'Open Sans';text-anchor:middle;fill:#eeeeee;stroke:none;stroke-width:1px;text-rendering:geometricPrecision"
       id="path340" />
  </g>
  <g
     aria-label="OUT"
     style="font-size:8px;font-family:'Open Sans';text-anchor:middle;fill:#eeeeee;stroke:none;stroke-width:1px;text-rendering:geometricPrecision"
     id="text85">
    <path
       d="m 152.12891,124.70313 q -0.85938,0 -1.36719,0.64062 -0.50391,0.64063 -0.50391,1.74609 0,1.10157 0.50391,1.74219 0.50781,0.64063 1.36719,0.64063 0.85937,0 1.35937,-0.64063 0.50391,-0.64062 0.50391,-1.74219 0,-1.10546 -0.50391,-1.74609 -0.5,-0.64062 -1.35937,-0.64062 z m 0,-0.64063 q 1.22656,0 1.96093,0.82422 0.73438,0.82031 0.73438,2.20312 0,1.37891 -0.73438,2.20313 -0.73437,0.82031 -1.96093,0.82031 -1.23047,0 -1.96875,-0.82031 -0.73438,-0.82031 -0.73438,-2.20313 0,-1.38281 0.73438,-2.20312 0.73828,-0.82422 1.96875,-0.82422 z"
       style="font-size:8px;font-family:'Open Sans';text-anchor:middle;fill:#eeeeee;stroke:none;stroke-width:1px;text-rendering:geometricPrecision"
       id="path343" />
    <path
       d="m 155.96875,124.16797 h 0.79297 v 3.54297 q 0,0.9375 0.33984,1.35156 0.33985,0.41016 1.10156,0.41016 0.75782,0 1.09766,-0.41016 0.33984,-0.41406 0.33984,-1.35156 v -3.54297 h 0.79297 v 3.64062 q 0,1.14063 -0.5664,1.72266 -0.5625,0.58203 -1.66407,0.58203 -1.10546,0 -1.67187,-0.58203 -0.5625,-0.58203 -0.5625,-1.72266 z"
       style="font-size:8px;font-family:'Open Sans';text-anchor:middle;fill:#eeeeee;stroke:none;stroke-width:1px;text-rendering:geometricPrecision"
       id="path345" />
    <path
       d="m 161.10937,124.16797 h 4.9336 v 0.66406 h -2.07031 V 130 h -0.79297 v -5.16797 h -2.07032 z"
       style="font-size:8px;font-family:'Open Sans';text-anchor:middle;fill:#eeeeee;stroke:none;stroke-width:1px;text-rendering:geometricPrecision"
       id="path347" />
  </g>
  <g
     aria-label="OUT"
     style="font-size:8px;font-family:'Open Sans';text-anchor:middle;fill:#eeeeee;stroke:none;stroke-width:1px;text-rendering:geometricPrecision"
     id="text87">
    <path
       d="m 152.12891,159.70312 q -0.85938,0 -1.36719,0.64063 -0.50391,0.64062 -0.50391,1.74609 0,1.10157 0.50391,1.74219 0.50781,0.64063 1.36719,0.64063 0.85937,0 1.35937,-0.64063 0.50391,-0.64062 0.50391,-1.74219 0,-1.10547 -0.50391,-1.74609 -0.5,-0.64063 -1.35937,-0.64063 z m 0,-0.64062 q 1.22656,0 1.96093,0.82422 0.73438,0.82031 0.73438,2.20312 0,1.37891 -0.73438,2.20313 -0.73437,0.82031 -1.96093,0.82031 -1.23047,0 -1.96875,-0.82031 -0.73438,-0.82031 -0.73438,-2.20313 0,-1.38281 0.73438,-2.20312 0.73828,-0.82422 1.96875,-0.82422 z"
       style="font-size:8px;font-family:'Open Sans';text-anchor:middle;fill:#eeeeee;stroke:none;stroke-width:1px;text-rendering:geometricPrecision"
       id="path350" />
    <path
       d="m 155.96875,159.16797 h 0.79297 v 3.54297 q 0,0.9375 0.33984,1.35156 0.33985,0.41016 1.10156,0.41016 0.75782,0 1.09766,-0.41016 0.33984,-0.41406 0.33984,-1.35156 v -3.54297 h 0.79297 v 3.64062 q 0,1.14063 -0.5664,1.72266 -0.5625,0.58203 -1.66407,0.58203 -1.10546,0 -1.67187,-0.58203 -0.5625,-0.58203 -0.5625,-1.72266 z"
       style="font-size:8px;font-family:'Open Sans';text-anchor:middle;fill:#eeeeee;stroke:none;stroke-width:1px;text-rendering:geometricPrecision"
       id="path352" />
    <path
       d="m 161.10937,159.16797 h 4.9336 v 0.66406 h -2.07031 V 165 h -0.79297 v -5.16797 h -2.07032 z"
       style="font-size:8px;font-family:'Open Sans';text-anchor:middle;fill:#eeeeee;stroke:none;stroke-width:1px;text-rendering:geometricPrecision"
       id="path354" />
  </g>
  <g
     aria-label="OUT"
     style="font-size:8px;font-family:'Open Sans';text-anchor:middle;fill:#eeeeee;stroke:none;stroke-width:1px;text-rendering:geometricPrecision"
     id="text89">
    <path
       d="m 152.12891,194.70312 q -0.85938,0 -1.36719,0.64063 -0.50391,0.64062 -0.50391,1.74609 0,1.10157 0.50391,1.74219 0.50781,0.64063 1.36719,0.64063 0.85937,0 1.35937,-0.64063 0.50391,-0.64062 0.50391,-1.74219 0,-1.10547 -0.50391,-1.74609 -0.5,-0.64063 -1.35937,-0.64063 z m 0,-0.64062 q 1.22656,0 1.96093,0.82422 0.73438,0.82031 0.73438,2.20312 0,1.37891 -0.73438,2.20313 -0.73437,0.82031 -1.96093,0.82031 -1.23047,0 -1.96875,-0.82031 -0.73438,-0.82031 -0.73438,-2.20313 0,-1.38281 0.73438,-2.20312 0.73828,-0.82422 1.96875,-0.82422 z"
       style="font-size:8px;font-family:'Open Sans';text-anchor:middle;fill:#eeeeee;stroke:none;stroke-width:1px;text-rendering:geometricPrecision"
       id="path357" />
    <path
       d="m 155.96875,194.16797 h 0.79297 v 3.54297 q 0,0.9375 0.33984,1.35156 0.33985,0.41016 1.10156,0.41016 0.75782,0 1.09766,-0.41016 0.33984,-0.41406 0.33984,-1.35156 v -3.54297 h 0.79297 v 3.64062 q 0,1.14063 -0.5664,1.72266 -0.5625,0.58203 -1.66407,0.58203 -1.10546,0 -1.67187,-0.58203 -0.5625,-0.58203 -0.5625,-1.72266 z"
       style="font-size:8px;font-family:'Open Sans';text-anchor:middle;fill:#eeeeee;stroke:none;stroke-width:1px;text-rendering:geometricPrecision"
       id="path359" />
    <path
       d="m 161.10937,194.16797 h 4.9336 v 0.66406 h -2.07031 V 200 h -0.79297 v -5.16797 h -2.07032 z"
       style="font-size:8px;font-family:'Open Sans';text-anchor:middle;fill:#eeeeee;stroke:none;stroke-width:1px;text-rendering:geometricPrecision"
       id="path361" />
  </g>
  <g
     aria-label="OUT"
     style="font-size:8px;font-family:'Open Sans';text-anchor:middle;fill:#eeeeee;stroke:none;stroke-width:1px;text-rendering:geometricPrecision"
     id="text91">
    <path
       d="m 152.12891,229.70312 q -0.85938,0 -1.36719,0.64063 -0.50391,0.64062 -0.50391,1.74609 0,1.10157 0.50391,1.74219 0.50781,0.64063 1.36719,0.64063 0.85937,0 1.35937,-0.64063 0.50391,-0.64062 0.50391,-1.74219 0,-1.10547 -0.50391,-1.74609 -0.5,-0.64063 -1.35937,-0.64063 z m 0,-0.64062 q 1.22656,0 1.96093,0.82422 0.73438,0.82031 0.73438,2.20312 0,1.37891 -0.73438,2.20313 -0.73437,0.82031 -1.96093,0.82031 -1.23047,0 -1.96875,-0.82031 -0.73438,-0.82031 -0.73438,-2.20313 0,-1.38281 0.73438,-2.20312 0.73828,-0.82422 1.96875,-0.82422 z"
       style="font-size:8px;font-family:'Open Sans';text-anchor:middle;fill:#eeeeee;stroke:none;stroke-width:1px;text-rendering:geometricPrecision"
       id="path364" />
    <path
       d="m 155.96875,229.16797 h 0.79297 v 3.54297 q 0,0.9375 0.33984,1.35156 0.33985,0.41016 1.10156,0.41016 0.75782,0 1.09766,-0.41016 0.33984,-0.41406 0.33984,-1.35156 v -3.54297 h 0.79297 v 3.64062 q 0,1.14063 -0.5664,1.72266 -0.5625,0.58203 -1.66407,0.58203 -1.10546,0 -1.67187,-0.58203 -0.5625,-0.58203 -0.5625,-1.72266 z"
       style="font-size:8px;font-family:'Open Sans';text-anchor:middle;fill:#eeeeee;stroke:none;stroke-width:1px;text-rendering:geometricPrecision"
       id="path366" />
    <path
       d="m 161.10937,229.16797 h 4.9336 v 0.66406 h -2.07031 V 235 h -0.79297 v -5.16797 h -2.07032 z"
       style="font-size:8px;font-family:'Open Sans';text-anchor:middle;fill:#eeeeee;stroke:none;stroke-width:1px;text-rendering:geometricPrecision"
       id="path368" />
  </g>
  <g
     aria-label="OUT"
     style="font-size:8px;font-family:'Open Sans';text-anchor:middle;fill:#eeeeee;stroke:none;stroke-width:1px;text-rendering:geometricPrecision"
     id="text93">
    <path
       d="m 152.12891,264.70312 q -0.85938,0 -1.36719,0.64063 -0.50391,0.64062 -0.50391,1.74609 0,1.10157 0.50391,1.74219 0.50781,0.64063 1.36719,0.64063 0.85937,0 1.35937,-0.64063 0.50391,-0.64062 0.50391,-1.74219 0,-1.10547 -0.50391,-1.74609 -0.5,-0.64063 -1.35937,-0.64063 z m 0,-0.64062 q 1.22656,0 1.96093,0.82422 0.73438,0.82031 0.73438,2.20312 0,1.37891 -0.73438,2.20313 -0.73437,0.82031 -1.96093,0.82031 -1.23047,0 -1.96875,-0.82031 -0.73438,-0.82031 -0.73438,-2.20313 0,-1.38281 0.73438,-2.20312 0.73828,-0.82422 1.96875,-0.82422 z"
       style="font-size:8px;font-family:'Open Sans';text-anchor:middle;fill:#eeeeee;stroke:none;stroke-width:1px;text-rendering:geometricPrecision"
       id="path371" />
    <path
       d="m 155.96875,264.16797 h 0.79297 v 3.54297 q 0,0.9375 0.33984,1.35156 0.33985,0.41016 1.10156,0.41016 0.75782,0 1.09766,-0.41016 0.33984,-0.41406 0.33984,-1.35156 v -3.54297 h 0.79297 v 3.64062 q 0,1.14063 -0.5664,1.72266 -0.5625,0.58203 -1.66407,0.58203 -1.10546,0 -1.67187,-0.58203 -0.5625,-0.58203 -0.5625,-1.72266 z"
       style="font-size:8px;font-family:'Open Sans';text-anchor:middle;fill:#eeeeee;stroke:none;stroke-width:1px;text-rendering:geometricPrecision"
       id="path373" />
    <path
       d="m 161.10937,264.16797 h 4.9336 v 0.66406 h -2.07031 V 270 h -0.79297 v -5.16797 h -2.07032 z"
       style="font-size:8px;font-family:'Open Sans';text-anchor:middle;fill:#eeeeee;stroke:none;stroke-width:1px;text-rendering:geometricPrecision"
       id="path375" />
  </g>
  <g
     aria-label="OUT"
     style="font-size:8px;font-family:'Open Sans';text-anchor:middle;fill:#eeeeee;stroke:none;stroke-width:1px;text-rendering:geometricPrecision"
     id="text95">
    <path
       d="m 152.12891,299.70312 q -0.85938,0 -1.36719,0.64063 -0.50391,0.64062 -0.50391,1.74609 0,1.10157 0.50391,1.74219 0.50781,0.64063 1.36719,0.64063 0.85937,0 1.35937,-0.64063 0.50391,-0.64062 0.50391,-1.74219 0,-1.10547 -0.50391,-1.74609 -0.5,-0.64063 -1.35937,-0.64063 z m 0,-0.64062 q 1.22656,0 1.96093,0.82422 0.73438,0.82031 0.73438,2.20312 0,1.37891 -0.73438,2.20313 -0.73437,0.82031 -1.96093,0.82031 -1.23047,0 -1.96875,-0.82031 -0.73438,-0.82031 -0.73438,-2.20313 0,-1.38281 0.73438,-2.20312 0.73828,-0.82422 1.96875,-0.82422 z"
       style="font-size:8px;font-family:'Open Sans';text-anchor:middle;fill:#eeeeee;stroke:none;stroke-width:1px;text-rendering:geometricPrecision"
       id="path378" />
    <path
       d="m 155.96875,299.16797 h 0.79297 v 3.54297 q 0,0.9375 0.33984,1.35156 0.33985,0.41016 1.10156,0.41016 0.75782,0 1.09766,-0.41016 0.33984,-0.41406 0.33984,-1.35156 v -3.54297 h 0.79297 v 3.64062 q 0,1.14063 -0.5664,1.72266 -0.5625,0.58203 -1.66407,0.58203 -1.10546,0 -1.67187,-0.58203 -0.5625,-0.58203 -0.5625,-1.72266 z"
       style="font-size:8px;font-family:'Open Sans';text-anchor:middle;fill:#eeeeee;stroke:none;stroke-width:1px;text-rendering:geometricPrecision"
       id="path380" />
    <path
       d="m 161.10937,299.16797 h 4.9336 v 0.66406 h -2.07031 V 305 h -0.79297 v -5.16797 h -2.07032 z"
       style="font-size:8px;font-family:'Open Sans';text-anchor:middle;fill:#eeeeee;stroke:none;stroke-width:1px;text-rendering:geometricPrecision"
       id="path382" />
  </g>
  <g
     aria-label="OUT"
     style="font-size:8px;font-family:'Open Sans';text-anchor:middle;fill:#eeeeee;stroke:none;stroke-width:1px;text-rendering:geometricPrecision"
     id="text97">
    <path
       d="m 152.12891,334.70312 q -0.85938,0 -1.36719,0.64063 -0.50391,0.64062 -0.50391,1.74609 0,1.10157 0.50391,1.74219 0.50781,0.64063 1.36719,0.64063 0.85937,0 1.35937,-0.64063 0.50391,-0.64062 0.50391,-1.74219 0,-1.10547 -0.50391,-1.74609 -0.5,-0.64063 -1.35937,-0.64063 z m 0,-0.64062 q 1.22656,0 1.96093,0.82422 0.73438,0.82031 0.73438,2.20312 0,1.37891 -0.73438,2.20313 -0.73437,0.82031 -1.96093,0.82031 -1.23047,0 -1.96875,-0.82031 -0.73438,-0.82031 -0.73438,-2.20313 0,-1.38281 0.73438,-2.20312 0.73828,-0.82422 1.96875,-0.82422 z"
       style="font-size:8px;font-family:'Open Sans';text-anchor:middle;fill:#eeeeee;stroke:none;stroke-width:1px;text-rendering:geometricPrecision"
       id="path385" />
    <path
       d="m 155.96875,334.16797 h 0.79297 v 3.54297 q 0,0.9375 0.33984,1.35156 0.33985,0.41016 1.10156,0.41016 0.75782,0 1.09766,-0.41016 0.33984,-0.41406 0.33984,-1.35156 v -3.54297 h 0.79297 v 3.64062 q 0,1.14063 -0.5664,1.72266 -0.5625,0.58203 -1.66407,0.58203 -1.10546,0 -1.67187,-0.58203 -0.5625,-0.58203 -0.5625,-1.72266 z"
       style="font-size:8px;font-family:'Open Sans';text-anchor:middle;fill:#eeeeee;stroke:none;stroke-width:1px;text-rendering:geometricPrecision"
       id="path387" />
    <path
       d="m 161.10937,334.16797 h 4.9336 v 0.66406 h -2.07031 V 340 h -0.79297 v -5.16797 h -2.07032 z"
       style="font-size:8px;font-family:'Open Sans';text-anchor:middle;fill:#eeeeee;stroke:none;stroke-width:1px;text-rendering:geometricPrecision"
       id="path389" />
  </g>
</svg>
